<?xml version="1.0" encoding="UTF-8" standalone="no"?>
<!-- Created with Inkscape (http://www.inkscape.org/) -->

<svg
   xmlns:dc="http://purl.org/dc/elements/1.1/"
   xmlns:cc="http://creativecommons.org/ns#"
   xmlns:rdf="http://www.w3.org/1999/02/22-rdf-syntax-ns#"
   xmlns:svg="http://www.w3.org/2000/svg"
   xmlns="http://www.w3.org/2000/svg"
   xmlns:sodipodi="http://sodipodi.sourceforge.net/DTD/sodipodi-0.dtd"
   xmlns:inkscape="http://www.inkscape.org/namespaces/inkscape"
   width="800"
   height="600"
   viewBox="0 0 211.66667 158.75"
   version="1.1"
   id="svg1214"
   inkscape:version="0.92.4 (5da689c313, 2019-01-14)"
   sodipodi:docname="amora_tel.svg">
  <defs
     id="defs1208" />
  <sodipodi:namedview
     id="base"
     pagecolor="#ffffff"
     bordercolor="#666666"
     borderopacity="1.0"
     inkscape:pageopacity="0.0"
     inkscape:pageshadow="2"
     inkscape:zoom="0.49497475"
     inkscape:cx="222.27438"
     inkscape:cy="301.63599"
     inkscape:document-units="mm"
     inkscape:current-layer="layer1"
     showgrid="false"
     inkscape:pagecheckerboard="true"
     width="800mm"
     units="px"
     showguides="false"
     inkscape:window-width="1600"
     inkscape:window-height="837"
     inkscape:window-x="-8"
     inkscape:window-y="-8"
     inkscape:window-maximized="1" />
  <metadata
     id="metadata1211">
    <rdf:RDF>
      <cc:Work
         rdf:about="">
        <dc:format>image/svg+xml</dc:format>
        <dc:type
           rdf:resource="http://purl.org/dc/dcmitype/StillImage" />
        <dc:title></dc:title>
      </cc:Work>
    </rdf:RDF>
  </metadata>
  <g
     inkscape:groupmode="layer"
     id="layer3"
     inkscape:label="Camada 3">
    <rect
       style="opacity:1;fill:#374548;fill-opacity:1;stroke:none;stroke-width:0.55000001;stroke-linecap:round;stroke-miterlimit:4;stroke-dasharray:none;stroke-dashoffset:0;stroke-opacity:1;paint-order:normal"
       id="rect1858"
       width="209.53931"
       height="154.48177"
       x="1.6036172"
       y="2.1300569"
       ry="0" />
  </g>
  <g
     inkscape:label="Camada 1"
     inkscape:groupmode="layer"
     id="layer1"
     transform="translate(0,-138.25001)">
    <path
       style="fill:#000000;stroke:#000000;stroke-width:0.26458332px;stroke-linecap:butt;stroke-linejoin:miter;stroke-opacity:1"
       d="m 45.794126,219.46499 c 0,0 -0.668173,23.92062 -2.405424,24.32153 -1.737252,0.4009 4.810849,0.26727 4.276312,1.20271 -0.534541,0.93544 0.935442,2.93996 3.875407,1.46998 2.939966,-1.46998 14.165288,-1.73725 12.561668,-8.41899 -1.60362,-6.68174 -18.307963,-18.57523 -18.307963,-18.57523 z"
       id="path1791"
       inkscape:connector-curvature="0" />
    <path
       style="fill:#ffccaa;stroke:#000000;stroke-width:1;stroke-linecap:butt;stroke-linejoin:miter;stroke-miterlimit:4;stroke-dasharray:none;stroke-opacity:1"
       d="m 63.300279,243.78652 c 0,0 -19.777944,-9.88898 -19.777944,-12.82894 0,-2.93996 18.174334,-17.10525 16.036173,-20.04522 -2.138156,-2.93996 8.819895,-21.64883 12.294401,-18.70886 3.4745,2.93996 -50.246674,7.48355 -41.159511,40.3577 9.087165,32.87415 33.141421,23.25245 33.141421,23.25245 0,0 -2.405426,-6.68174 -0.53454,-12.02713 z"
       id="path1775"
       inkscape:connector-curvature="0" />
    <path
       style="fill:#333333;fill-opacity:1;stroke:#000000;stroke-width:1;stroke-linecap:butt;stroke-linejoin:miter;stroke-miterlimit:4;stroke-dasharray:none;stroke-opacity:1"
       d="m 48.466823,229.35396 c 0,0 -15.501634,14.9671 -13.764382,18.30797 1.737252,3.34087 12.695301,10.42351 15.501633,8.95352 2.80633,-1.46998 9.755336,-21.9161 8.018084,-22.85154 -1.737251,-0.93544 -9.087162,-2.53906 -9.755335,-4.40995 z"
       id="path1801"
       inkscape:connector-curvature="0" />
    <path
       style="fill:#333333;fill-opacity:1;stroke:#000000;stroke-width:1;stroke-linecap:butt;stroke-linejoin:miter;stroke-miterlimit:4;stroke-dasharray:none;stroke-opacity:1"
       d="m 61.232141,219.5149 c 0,0 -22.300594,51.02679 -9.449403,54.42857 12.851191,3.40179 55.940482,6.4256 58.208342,3.77976 2.26786,-2.64583 -8.31548,-55.18452 -12.473218,-55.94047 -4.15774,-0.75596 -36.285721,-2.26786 -36.285721,-2.26786 z"
       id="path1771"
       inkscape:connector-curvature="0" />
    <ellipse
       style="opacity:1;fill:#ffccaa;fill-opacity:1;stroke:#000000;stroke-width:1;stroke-linecap:round;stroke-miterlimit:4;stroke-dasharray:none;stroke-dashoffset:0;stroke-opacity:1;paint-order:normal"
       id="path1767"
       cx="76.729156"
       cy="209.30952"
       rx="32.883926"
       ry="32.505951" />
    <path
       style="fill:#000000;stroke:#000000;stroke-width:0.26458332px;stroke-linecap:butt;stroke-linejoin:miter;stroke-opacity:1"
       d="m 44.591413,224.67675 c 0,0 0,12.2944 -1.870885,12.42803 -1.870887,0.13363 6.013564,-2.53906 5.479023,-5.47903 -0.534537,-2.93996 -0.534537,11.8935 -1.737251,11.8935 -1.202714,0 8.552624,-7.75082 7.750815,-11.22532 -0.801806,-3.4745 2.271792,9.08716 1.33635,10.42351 -0.935445,1.33635 5.479023,-16.83798 2.806329,-24.45516 -2.672696,-7.61718 0.267269,-18.17433 2.672694,-17.63979 2.405431,0.53454 2.539061,5.47902 0.935441,6.1472 -1.603614,0.66817 11.09169,-3.0736 10.95805,-6.28083 -0.13363,-3.20724 1.87089,6.14719 0.80181,7.08264 -1.06908,0.93544 6.81538,-2.53906 6.81538,-6.68174 0,-4.14268 5.47902,6.28083 4.67721,6.81537 -0.80181,0.53454 5.078123,-0.80181 5.479033,-3.74177 0.4009,-2.93997 4.81085,39.68952 3.20723,40.62497 -1.60362,0.93544 7.483548,-2.6727 7.483548,-5.7463 0,-3.0736 1.46998,7.08264 0.53454,8.28536 -0.93545,1.20271 1.33635,5.47902 3.34088,0.26727 2.00452,-5.21176 6.41447,1.20271 6.41447,1.20271 0,0 5.21175,-36.74956 3.20723,-41.15951 -2.00452,-4.40995 -3.38593,-23.79121 -6.81537,-27.12785 -2.36792,-2.30383 -27.003161,-6.3729 -28.464221,-5.7463 -6.89307,-3.66641 -36.157891,1.8135 -35.413211,7.21628 0.54892,3.98251 -7.483545,28.0633 0.400905,42.89676 z"
       id="path1789"
       inkscape:connector-curvature="0"
       sodipodi:nodetypes="csssscsscccssscscscsscsc" />
    <rect
       style="opacity:1;fill:#999999;fill-opacity:1;stroke:#000000;stroke-width:1;stroke-linecap:round;stroke-miterlimit:4;stroke-dasharray:none;stroke-dashoffset:0;stroke-opacity:1;paint-order:normal"
       id="rect1769"
       width="37.041668"
       height="47.247025"
       x="88.068459"
       y="207.41965"
       ry="5.6696429" />
    <ellipse
       style="opacity:1;fill:#ffccaa;fill-opacity:1;stroke:#000000;stroke-width:1;stroke-linecap:round;stroke-miterlimit:4;stroke-dasharray:none;stroke-dashoffset:0;stroke-opacity:1;paint-order:normal"
       id="path1773"
       cx="120.22868"
       cy="232.42755"
       rx="14.165285"
       ry="12.962572" />
    <path
       style="fill:none;stroke:#000000;stroke-width:1;stroke-linecap:butt;stroke-linejoin:miter;stroke-miterlimit:4;stroke-dasharray:none;stroke-opacity:1"
       d="m 74.650299,229.72025 c 0,0 -4.34673,3.40179 -8.88244,-3.40178"
       id="path1777"
       inkscape:connector-curvature="0" />
    <path
       style="fill:none;stroke:#000000;stroke-width:0.26458332px;stroke-linecap:butt;stroke-linejoin:miter;stroke-opacity:1"
       d="m 66.240253,212.78325 c 0,0 4.810846,2.27179 7.216266,0.40091"
       id="path1793"
       inkscape:connector-curvature="0" />
    <ellipse
       style="opacity:1;fill:#ffffff;fill-opacity:1;stroke:#000000;stroke-width:1;stroke-linecap:round;stroke-miterlimit:4;stroke-dasharray:none;stroke-dashoffset:0;stroke-opacity:1;paint-order:normal"
       id="path1795"
       cx="72.05336"
       cy="217.39365"
       rx="1.5367998"
       ry="1.6704345" />
    <path
       inkscape:connector-curvature="0"
       id="path1797"
       d="m 76.530119,212.38235 c 0,0 4.81086,2.27179 7.21628,0.40091"
       style="fill:none;stroke:#000000;stroke-width:0.26458332px;stroke-linecap:butt;stroke-linejoin:miter;stroke-opacity:1" />
    <ellipse
       ry="1.6704345"
       rx="1.5367998"
       cy="216.99274"
       cx="82.343216"
       id="ellipse1799"
       style="opacity:1;fill:#ffffff;fill-opacity:1;stroke:#000000;stroke-width:1;stroke-linecap:round;stroke-miterlimit:4;stroke-dasharray:none;stroke-dashoffset:0;stroke-opacity:1;paint-order:normal" />
    <path
       style="fill:none;stroke:#000000;stroke-width:0.1;stroke-linecap:butt;stroke-linejoin:miter;stroke-miterlimit:4;stroke-dasharray:none;stroke-opacity:1"
       d="m 67.232523,210.72695 c 0,0 -0.0945,2.36235 0.37797,2.55134"
       id="path1803"
       inkscape:connector-curvature="0" />
    <path
       style="fill:none;stroke:#000000;stroke-width:0.1;stroke-linecap:butt;stroke-linejoin:miter;stroke-miterlimit:4;stroke-dasharray:none;stroke-opacity:1"
       d="m 82.729539,213.23104 c 0,0 0.75595,-3.07106 0.14174,-3.35454"
       id="path1805"
       inkscape:connector-curvature="0" />
    <path
       style="fill:#784421;fill-opacity:1;stroke:#000000;stroke-width:1;stroke-linecap:butt;stroke-linejoin:miter;stroke-miterlimit:4;stroke-dasharray:none;stroke-opacity:1"
       d="m 108.29019,257.31251 c 0.39387,11.73896 -59.153285,-1.88988 -59.153285,-1.88988 -1.495327,0 -9.052078,16.44197 -0.755952,18.52084 5.175347,1.29686 66.712807,13.41815 64.444947,2.45684 0,0 -0.18898,-3.59078 -4.53571,-19.0878 z"
       id="path1811"
       inkscape:connector-curvature="0"
       sodipodi:nodetypes="ccscc" />
    <path
       style="fill:#ffccaa;fill-opacity:1;stroke:#000000;stroke-width:1;stroke-linecap:butt;stroke-linejoin:miter;stroke-miterlimit:4;stroke-dasharray:none;stroke-opacity:1"
       d="m 58.775296,278.66817 c 0,0 -2.732145,-25.67631 5.059523,-22.85452 7.79167,2.82178 14.40625,0.55392 15.54018,6.97952 1.13393,6.4256 2.45685,21.73363 -3.02381,21.73363 -5.48065,0 -17.197917,-3.96875 -17.575893,-5.85863 z"
       id="path1807"
       inkscape:connector-curvature="0" />
    <path
       inkscape:connector-curvature="0"
       id="path1809"
       d="m 91.470242,280.36906 c 0,0 -2.73215,-25.67631 5.05952,-22.85452 7.791678,2.82178 14.406258,0.55392 15.540188,6.97952 1.13393,6.4256 2.45684,21.73363 -3.02381,21.73363 -5.48065,0 -17.197928,-3.96875 -17.575898,-5.85863 z"
       style="fill:#ffccaa;fill-opacity:1;stroke:#000000;stroke-width:1;stroke-linecap:butt;stroke-linejoin:miter;stroke-miterlimit:4;stroke-dasharray:none;stroke-opacity:1" />
    <path
       style="fill:none;stroke:#000000;stroke-width:0.26458332px;stroke-linecap:butt;stroke-linejoin:miter;stroke-opacity:1"
       d="m 84.099699,269.78573 c 0,0 1.51191,10.01637 0.37798,10.58333"
       id="path1813"
       inkscape:connector-curvature="0" />
    <g
       aria-label="SAMSONG"
       transform="matrix(0.26458333,0,0,0.26458333,13.588149,135.81773)"
       style="font-style:normal;font-weight:normal;font-size:40px;line-height:1.25;font-family:sans-serif;letter-spacing:0px;word-spacing:0px;fill:#000000;fill-opacity:1;stroke:none"
       id="flowRoot1815">
      <path
         d="m 322.67481,300.98031 h 0.43333 v -0.86667 h 0.43333 v -0.86667 h 0.43334 v -0.43333 h 3.57066 v 0.43333 h 0.43334 v 0.86667 h 0.43333 v 0.86667 h 0.43333 v 4.87066 h -2.704 v -3.46666 h -0.76266 v 3.36266 h 0.43333 v 0.43334 h 0.43333 v 0.43333 h 0.86667 v 0.43333 h 0.86667 v 0.43334 h 0.43333 v 0.86666 h 0.43333 v 5.73734 h -0.43333 v 0.86666 h -0.43333 v 0.86667 h -0.43334 v 0.43333 h -3.57066 v -0.43333 h -0.43334 v -0.86667 h -0.43333 v -0.86666 h -0.43333 v -4.87067 h 2.704 v 3.46667 h 0.76266 v -3.796 h -0.86666 v -0.43334 h -0.86667 v -0.43333 h -0.86667 v -0.43333 h -0.43333 v -0.86667 h -0.43333 z"
         style="font-style:normal;font-variant:normal;font-weight:normal;font-stretch:normal;font-size:17.33333397px;font-family:'Super Plumber Brothers';-inkscape-font-specification:'Super Plumber Brothers'"
         id="path1860"
         inkscape:connector-curvature="0" />
      <path
         d="m 329.61491,300.98031 h 0.43334 v -0.86667 h 0.43333 v -0.86667 h 0.43333 v -0.43333 h 3.57067 v 0.43333 h 0.43333 v 0.86667 h 0.43334 v 0.86667 h 0.43333 v 15.27066 h -2.704 v -3.46666 h -0.76267 v 3.46666 h -2.704 z m 2.704,8.23333 h 0.76267 v -6.82933 h -0.76267 z"
         style="font-style:normal;font-variant:normal;font-weight:normal;font-stretch:normal;font-size:17.33333397px;font-family:'Super Plumber Brothers';-inkscape-font-specification:'Super Plumber Brothers'"
         id="path1862"
         inkscape:connector-curvature="0" />
      <path
         d="m 336.55502,300.98031 h 0.43333 v -0.86667 h 0.43333 v -0.86667 h 0.43334 v -0.43333 h 2.27066 v 0.43333 h 0.43334 v 0.86667 h 0.43333 v 0.86667 h 0.76267 v -0.86667 h 0.43333 v -0.86667 h 0.43333 v -0.43333 h 2.27067 v 0.43333 h 0.43333 v 0.86667 h 0.43334 v 0.86667 h 0.43333 v 15.27066 h -2.704 v -13.86666 h -0.76267 v 13.86666 h -2.704 v -13.86666 h -0.76266 v 13.86666 h -2.704 z"
         style="font-style:normal;font-variant:normal;font-weight:normal;font-stretch:normal;font-size:17.33333397px;font-family:'Super Plumber Brothers';-inkscape-font-specification:'Super Plumber Brothers'"
         id="path1864"
         inkscape:connector-curvature="0" />
      <path
         d="m 346.94824,300.98031 h 0.43334 v -0.86667 h 0.43333 v -0.86667 h 0.43333 v -0.43333 h 3.57067 v 0.43333 h 0.43333 v 0.86667 h 0.43334 v 0.86667 h 0.43333 v 4.87066 h -2.704 v -3.46666 h -0.76267 v 3.36266 h 0.43334 v 0.43334 h 0.43333 v 0.43333 h 0.86667 v 0.43333 h 0.86666 v 0.43334 h 0.43334 v 0.86666 h 0.43333 v 5.73734 h -0.43333 v 0.86666 h -0.43334 v 0.86667 h -0.43333 v 0.43333 h -3.57067 v -0.43333 h -0.43333 v -0.86667 h -0.43333 v -0.86666 h -0.43334 v -4.87067 h 2.704 v 3.46667 h 0.76267 v -3.796 h -0.86667 v -0.43334 h -0.86666 v -0.43333 h -0.86667 v -0.43333 h -0.43333 v -0.86667 h -0.43334 z"
         style="font-style:normal;font-variant:normal;font-weight:normal;font-stretch:normal;font-size:17.33333397px;font-family:'Super Plumber Brothers';-inkscape-font-specification:'Super Plumber Brothers'"
         id="path1866"
         inkscape:connector-curvature="0" />
      <path
         d="m 353.88835,300.98031 h 0.43333 v -0.86667 h 0.43334 v -0.86667 h 0.43333 v -0.43333 h 3.57067 v 0.43333 h 0.43333 v 0.86667 h 0.43333 v 0.86667 h 0.43334 v 13.104 h -0.43334 v 0.86666 h -0.43333 v 0.86667 h -0.43333 v 0.43333 h -3.57067 v -0.43333 h -0.43333 v -0.86667 h -0.43334 v -0.86666 h -0.43333 z m 2.704,11.7 h 0.76267 v -10.296 h -0.76267 z"
         style="font-style:normal;font-variant:normal;font-weight:normal;font-stretch:normal;font-size:17.33333397px;font-family:'Super Plumber Brothers';-inkscape-font-specification:'Super Plumber Brothers'"
         id="path1868"
         inkscape:connector-curvature="0" />
      <path
         d="m 360.82846,300.98031 h 0.43333 v -0.86667 h 0.43333 v -0.86667 h 0.43334 v -0.43333 h 3.57066 v 0.43333 h 0.43334 v 0.86667 h 0.43333 v 0.86667 h 0.43333 v 15.27066 h -2.704 v -13.86666 h -0.76266 v 13.86666 h -2.704 z"
         style="font-style:normal;font-variant:normal;font-weight:normal;font-stretch:normal;font-size:17.33333397px;font-family:'Super Plumber Brothers';-inkscape-font-specification:'Super Plumber Brothers'"
         id="path1870"
         inkscape:connector-curvature="0" />
      <path
         d="m 367.76856,300.98031 h 0.43333 v -0.86667 h 0.43333 v -0.86667 h 0.43334 v -0.43333 h 3.57066 v 0.43333 h 0.43334 v 0.86667 h 0.43333 v 0.86667 h 0.43333 v 3.13733 h -2.704 v -1.73333 h -0.76266 v 10.296 h 0.76266 v -6.06667 h 2.704 v 7.47067 h -0.43333 v 0.86666 h -0.43333 v 0.86667 h -0.43334 v 0.43333 h -3.57066 v -0.43333 h -0.43334 v -0.86667 h -0.43333 v -0.86666 h -0.43333 z"
         style="font-style:normal;font-variant:normal;font-weight:normal;font-stretch:normal;font-size:17.33333397px;font-family:'Super Plumber Brothers';-inkscape-font-specification:'Super Plumber Brothers'"
         id="path1872"
         inkscape:connector-curvature="0" />
    </g>
    <path
       style="fill:none;stroke:#af7b59;stroke-width:1;stroke-linecap:butt;stroke-linejoin:miter;stroke-miterlimit:4;stroke-dasharray:none;stroke-opacity:1"
       d="m 107.26613,228.15125 c 0,0 8.28535,1.87089 12.02712,-0.80181"
       id="path1823"
       inkscape:connector-curvature="0" />
    <path
       style="fill:none;stroke:#af7b59;stroke-width:1;stroke-linecap:butt;stroke-linejoin:miter;stroke-miterlimit:4;stroke-dasharray:none;stroke-opacity:1"
       d="m 106.59795,233.89754 c 0,0 15.10073,1.60362 16.70435,-0.26726"
       id="path1825"
       inkscape:connector-curvature="0" />
    <path
       style="fill:none;stroke:#af7b59;stroke-width:1;stroke-linecap:butt;stroke-linejoin:miter;stroke-miterlimit:4;stroke-dasharray:none;stroke-opacity:1"
       d="m 109.00338,240.04474 c 0,0 13.49711,1.33635 15.10073,-0.93544"
       id="path1827"
       inkscape:connector-curvature="0" />
  </g>
  <g
     inkscape:groupmode="layer"
     id="layer2"
     inkscape:label="Camada 2">
    <ellipse
       style="opacity:1;fill:#183a3b;fill-opacity:1;stroke:#000000;stroke-width:1;stroke-linecap:round;stroke-miterlimit:4;stroke-dasharray:none;stroke-dashoffset:0;stroke-opacity:1;paint-order:normal"
       id="path1830"
       cx="152.51338"
       cy="53.29464"
       rx="37.230652"
       ry="35.529762" />
    <rect
       style="opacity:1;fill:#cccccc;fill-opacity:1;stroke:none;stroke-width:1;stroke-linecap:round;stroke-miterlimit:4;stroke-dasharray:none;stroke-dashoffset:0;stroke-opacity:1;paint-order:normal"
       id="rect1843"
       width="48.758926"
       height="12.851191"
       x="120.19642"
       y="37.041668"
       ry="5.6696506" />
    <rect
       ry="5.6696506"
       y="57.074406"
       x="133.04761"
       height="12.851191"
       width="48.758926"
       id="rect1845"
       style="opacity:1;fill:#aaffb0;fill-opacity:1;stroke:none;stroke-width:1;stroke-linecap:round;stroke-miterlimit:4;stroke-dasharray:none;stroke-dashoffset:0;stroke-opacity:1;paint-order:normal" />
    <path
       style="fill:none;stroke:#000000;stroke-width:0.26458332px;stroke-linecap:butt;stroke-linejoin:miter;stroke-opacity:1"
       d="m 125.21577,42.354121 c 0.0984,-0.997797 0.65372,0.0072 0.93545,-0.133636 0.23231,-0.11616 0.43585,-0.284744 0.66817,-0.400904 0.1065,-0.05325 0.76501,-0.0061 0.80181,0 0.13894,0.02315 0.2837,0.0555 0.4009,0.133636 0.0371,0.02471 -0.0315,0.102137 0,0.133633 -0.0253,0.690401 0.36879,0.156768 0.53454,0.267271 0.25225,0.168167 0.40832,0.512263 0.66818,0.668174 0.12078,0.07247 0.28369,0.0555 0.4009,0.133633 0.0371,0.02471 0,0.08909 0,0.133635 0.0891,0.04455 0.17277,0.102138 0.26727,0.133636 0.094,0.03132 1.3975,0.03624 1.46998,0 0.14366,-0.07183 0.24854,-0.216482 0.40091,-0.267271 0.12677,-0.04226 0.26773,0.01111 0.4009,0 0.40198,-0.0335 0.8083,-0.04912 1.20271,-0.133633 2.85161,-0.611058 -1.43478,0.02543 1.33635,-0.400905 2.71998,-0.41846 -0.17684,0.02588 1.73725,-0.133636 0.31389,-0.02617 0.62176,-0.105116 0.93545,-0.133633 0.35489,-0.03226 0.71271,0 1.06907,0 0.43007,0 0.9121,-0.05303 1.33635,0 1.07185,0.13398 0.47661,0.05981 1.20271,0.267269 0.1766,0.05046 0.36257,0.06915 0.53454,0.133636 0.18653,0.06994 0.34801,0.197321 0.53454,0.267269 0.17197,0.06449 0.35272,0.107659 0.53454,0.133633 0.16569,0.02368 0.63328,-0.08427 0.80181,0 0.0564,0.02817 0.0773,0.105463 0.13364,0.133635 0.0398,0.01992 0.10213,-0.0315 0.13363,0 0.0315,0.0315 -0.0398,0.113713 0,0.133636 0.0797,0.03984 0.17818,0 0.26727,0 0.17818,0 0.35636,0 0.53454,0 0.62363,0 1.24726,0 1.87088,0 0.84636,0 1.69271,0 2.53907,0 0.0746,0 1.18458,-0.01209 1.20271,0 0.0829,0.05525 0.0632,0.196837 0.13363,0.267269 0.0521,0.05207 0.45299,0 0.53454,0 0.57909,0 1.15817,0 1.73725,0 0.12173,0 0.69714,0.05234 0.80181,0 0.0564,-0.02817 0.0773,-0.105463 0.13364,-0.133636 0.0807,-0.04034 0.33913,0.06177 0.4009,0 0.0315,-0.0315 -0.0398,-0.113712 0,-0.133633 0.0828,-0.0414 0.57462,0 0.66817,0 0.47438,0 1.77895,0.105839 2.13816,-0.133636 0.0371,-0.02471 -0.0315,-0.102137 0,-0.133635 0.0315,-0.0315 0.10214,0.0315 0.13364,0 0.0315,-0.0315 -0.0315,-0.102135 0,-0.133633 0.063,-0.063 0.20427,0.06299 0.26727,0 0.0315,-0.0315 -0.0315,-0.102138 0,-0.133636 0.17818,-0.178179 0.13363,0.222726 0.13363,-0.133633"
       id="path1847"
       inkscape:connector-curvature="0" />
    <path
       style="fill:none;stroke:#000000;stroke-width:0.26458332px;stroke-linecap:butt;stroke-linejoin:miter;stroke-opacity:1"
       d="m 142.32102,63.869318 c 0.31182,-0.08909 0.6391,-0.135562 0.93544,-0.267272 0.11514,-0.05117 0.16648,-0.191672 0.26728,-0.267269 0.25697,-0.19273 0.52636,-0.369273 0.8018,-0.534537 0.44416,-0.266494 1.17105,-0.523986 1.60362,-0.668176 0.17424,-0.05808 0.36573,-0.06129 0.53454,-0.133633 0.14762,-0.06327 0.25725,-0.195443 0.4009,-0.267269 0.0245,-0.01225 0.82902,-0.02661 0.93545,0 0.0966,0.02416 0.19683,0.0632 0.26727,0.133633 0.11356,0.113567 0.1615,0.280035 0.26727,0.400904 1.94654,2.224625 -0.3764,-0.510026 1.20271,1.069078 0.20169,0.201687 0.31542,0.485577 0.53454,0.668174 0.32283,0.269028 0.72921,0.421002 1.06907,0.668173 0.15285,0.11116 0.24972,0.287513 0.40091,0.400905 2.12194,1.591453 -0.30114,-0.287592 1.06908,0.53454 0.10803,0.06482 0.15458,0.210924 0.26727,0.267269 0.16427,0.08214 0.35636,0.08909 0.53454,0.133636 0.17818,0.04454 0.35272,0.107659 0.53454,0.133633 0.51691,0.07384 1.32422,0 1.87088,0 0.17818,0 0.35636,0 0.53454,0 0.13364,0 0.27413,0.04226 0.40091,0 0.15236,-0.05079 0.25052,-0.210876 0.4009,-0.267269 0.21267,-0.07975 0.45062,-0.06837 0.66817,-0.133636 0.22977,-0.06893 0.4498,-0.168005 0.66818,-0.267268 0.27203,-0.123651 0.51352,-0.322281 0.80181,-0.400905 0.21487,-0.0586 0.44977,0.04368 0.66817,0 0.23522,-0.04704 0.44274,-0.18529 0.66817,-0.267269 0.26477,-0.09628 0.53001,-0.193143 0.80181,-0.267269 0.21913,-0.05976 0.45062,-0.06837 0.66818,-0.133635 0.71788,-0.215363 0.7373,-0.362892 1.46998,-0.668174 0.20699,-0.08625 1.2894,-0.482169 1.60362,-0.53454 0.21969,-0.03662 0.44545,0 0.66817,0 0.16941,0 0.52327,-0.05796 0.66817,0 0.36833,0.14733 0.86522,0.731578 1.06908,0.935445 0.74559,0.745585 0.86469,0.81281 1.73725,1.336347 0.22273,0.133635 0.45206,0.256828 0.66818,0.400904 0.3058,0.203864 -0.0836,0.105781 0.4009,0.267269 0.21281,0.07094 0.56833,0 0.80181,0 0.18461,0 0.49174,0.05881 0.66817,0 0.15818,-0.05273 0.59194,-0.324662 0.66818,-0.400905 0.11357,-0.113567 0.1537,-0.287334 0.26727,-0.400902 0.0704,-0.07043 0.21202,-0.05076 0.26727,-0.133635 0.0494,-0.07413 -0.0398,-0.187585 0,-0.267269 0.29876,-0.597535 0.26727,-0.03565 0.26727,-0.400905"
       id="path1849"
       inkscape:connector-curvature="0" />
    <path
       style="fill:none;stroke:#1ba4ff;stroke-width:0.55000001;stroke-linecap:butt;stroke-linejoin:miter;stroke-miterlimit:4;stroke-dasharray:none;stroke-opacity:1"
       d="m 160.89625,44.759546 -1.87088,2.672694 7.88445,-2.672694"
       id="path1851"
       inkscape:connector-curvature="0" />
    <path
       style="fill:#cccccc;fill-opacity:1;stroke:none;stroke-width:0.26458332px;stroke-linecap:butt;stroke-linejoin:miter;stroke-opacity:1"
       d="m 121.07309,46.095893 -3.8754,4.142679 7.88445,-2.405428"
       id="path1853"
       inkscape:connector-curvature="0" />
    <path
       style="fill:#aaffb0;fill-opacity:1;stroke:none;stroke-width:0.26458332px;stroke-linecap:butt;stroke-linejoin:miter;stroke-opacity:1"
       d="m 170.78523,70.016515 c 0.66817,0 5.34539,3.608138 5.34539,3.608138 l 1.60361,-5.34539"
       id="path1855"
       inkscape:connector-curvature="0" />
  </g>
</svg>
