<?xml version="1.0" encoding="UTF-8" standalone="no"?>
<!-- Created with Inkscape (http://www.inkscape.org/) -->

<svg
   xmlns:dc="http://purl.org/dc/elements/1.1/"
   xmlns:cc="http://creativecommons.org/ns#"
   xmlns:rdf="http://www.w3.org/1999/02/22-rdf-syntax-ns#"
   xmlns:svg="http://www.w3.org/2000/svg"
   xmlns="http://www.w3.org/2000/svg"
   xmlns:xlink="http://www.w3.org/1999/xlink"
   xmlns:sodipodi="http://sodipodi.sourceforge.net/DTD/sodipodi-0.dtd"
   xmlns:inkscape="http://www.inkscape.org/namespaces/inkscape"
   width="800"
   height="600"
   viewBox="0 0 211.66666 158.75001"
   version="1.1"
   id="svg8"
   inkscape:version="0.92.4 (5da689c313, 2019-01-14)"
   sodipodi:docname="issac_games.svg">
  <defs
     id="defs2">
    <linearGradient
       inkscape:collect="always"
       id="linearGradient963">
      <stop
         style="stop-color:#aae9ff;stop-opacity:1;"
         offset="0"
         id="stop959" />
      <stop
         style="stop-color:#51bde3;stop-opacity:1"
         offset="1"
         id="stop961" />
    </linearGradient>
    <linearGradient
       inkscape:collect="always"
       xlink:href="#linearGradient963"
       id="linearGradient965"
       x1="71.34301"
       y1="59.896862"
       x2="77.972984"
       y2="64.338081"
       gradientUnits="userSpaceOnUse" />
  </defs>
  <sodipodi:namedview
     id="base"
     pagecolor="#ffffff"
     bordercolor="#666666"
     borderopacity="1.0"
     inkscape:pageopacity="0.0"
     inkscape:pageshadow="2"
     inkscape:zoom="0.7"
     inkscape:cx="382.50087"
     inkscape:cy="362.30019"
     inkscape:document-units="mm"
     inkscape:current-layer="layer3"
     showgrid="false"
     inkscape:pagecheckerboard="true"
     units="px"
     inkscape:window-width="1600"
     inkscape:window-height="837"
     inkscape:window-x="-8"
     inkscape:window-y="-8"
     inkscape:window-maximized="1" />
  <metadata
     id="metadata5">
    <rdf:RDF>
      <cc:Work
         rdf:about="">
        <dc:format>image/svg+xml</dc:format>
        <dc:type
           rdf:resource="http://purl.org/dc/dcmitype/StillImage" />
        <dc:title></dc:title>
      </cc:Work>
    </rdf:RDF>
  </metadata>
  <g
     inkscape:groupmode="layer"
     id="layer3"
     inkscape:label="BG">
    <rect
       style="opacity:1;fill:#f9f9f9;fill-opacity:1;stroke:none;stroke-width:1.05833328;stroke-linecap:round;stroke-miterlimit:4;stroke-dasharray:none;stroke-dashoffset:0;stroke-opacity:1;paint-order:normal"
       id="rect968"
       width="205.99701"
       height="156.10417"
       x="2.6458333"
       y="0.75595224"
       ry="2.873137" />
    <path
       style="fill:none;stroke:#4f658a;stroke-width:0.52916667;stroke-linecap:butt;stroke-linejoin:miter;stroke-miterlimit:4;stroke-dasharray:none;stroke-opacity:1"
       d="M 44.979166,4.5357142 29.860119,151.19048"
       id="path970"
       inkscape:connector-curvature="0"
       sodipodi:nodetypes="cc" />
    <path
       sodipodi:nodetypes="cc"
       inkscape:connector-curvature="0"
       id="path974"
       d="M 88.824404,4.9136904 73.705357,151.56846"
       style="fill:none;stroke:#4f658a;stroke-width:0.52916667;stroke-linecap:butt;stroke-linejoin:miter;stroke-miterlimit:4;stroke-dasharray:none;stroke-opacity:1" />
    <path
       style="fill:none;stroke:#4f658a;stroke-width:0.52916667;stroke-linecap:butt;stroke-linejoin:miter;stroke-miterlimit:4;stroke-dasharray:none;stroke-opacity:1"
       d="M 137.96131,4.9136904 122.84226,151.56846"
       id="path976"
       inkscape:connector-curvature="0"
       sodipodi:nodetypes="cc" />
    <path
       sodipodi:nodetypes="cc"
       inkscape:connector-curvature="0"
       id="path978"
       d="M 181.80655,6.8035714 166.6875,153.45834"
       style="fill:none;stroke:#4f658a;stroke-width:0.52916667;stroke-linecap:butt;stroke-linejoin:miter;stroke-miterlimit:4;stroke-dasharray:none;stroke-opacity:1" />
    <path
       style="fill:none;stroke:#4f658a;stroke-width:0.52916667;stroke-linecap:butt;stroke-linejoin:miter;stroke-miterlimit:4;stroke-dasharray:none;stroke-opacity:1"
       d="m 21.922619,29.860118 168.199401,7.9375"
       id="path988"
       inkscape:connector-curvature="0" />
    <path
       inkscape:connector-curvature="0"
       id="path990"
       d="m 21.166667,67.279761 168.199403,7.9375"
       style="fill:none;stroke:#4f658a;stroke-width:0.52916667;stroke-linecap:butt;stroke-linejoin:miter;stroke-miterlimit:4;stroke-dasharray:none;stroke-opacity:1" />
    <path
       style="fill:none;stroke:#4f658a;stroke-width:0.52916667;stroke-linecap:butt;stroke-linejoin:miter;stroke-miterlimit:4;stroke-dasharray:none;stroke-opacity:1"
       d="m 15.497024,104.32143 168.199406,7.9375"
       id="path992"
       inkscape:connector-curvature="0" />
  </g>
  <g
     inkscape:label="Issac"
     inkscape:groupmode="layer"
     id="layer1"
     transform="translate(0,-138.24998)">
    <path
       style="fill:#ffccaa;fill-opacity:1;stroke:#000000;stroke-width:1.05833328;stroke-linecap:butt;stroke-linejoin:miter;stroke-miterlimit:4;stroke-dasharray:none;stroke-opacity:1"
       d="m 65.347399,226.03992 c 0,0 -11.091685,25.79151 -5.078121,28.4642 6.013564,2.6727 13.363477,2.53906 13.630746,1.20272 0.267269,-1.33635 6.414468,-21.64883 3.474503,-24.9897 -2.939966,-3.34087 -12.027128,-4.67722 -12.027128,-4.67722 z"
       id="path923"
       inkscape:connector-curvature="0" />
    <path
       style="fill:#a9cbfb;fill-opacity:1;stroke:#000000;stroke-width:1.05833328;stroke-linecap:butt;stroke-linejoin:miter;stroke-miterlimit:4;stroke-dasharray:none;stroke-opacity:1"
       d="m 76.439084,208.6674 c 0,0 -20.446118,18.17433 -14.967092,20.17885 5.479023,2.00452 17.973876,3.8754 17.973876,3.8754 0,0 3.407685,-10.55714 4.075858,-18.04068 0.668174,-7.48355 -7.082642,-6.01357 -7.082642,-6.01357 z"
       id="path921"
       inkscape:connector-curvature="0" />
    <path
       inkscape:connector-curvature="0"
       id="path927"
       d="m 142.58829,226.03992 c 0,0 11.09169,25.79151 5.07812,28.4642 -6.01356,2.6727 -13.36348,2.53906 -13.63074,1.20272 -0.26727,-1.33635 -6.41447,-21.64883 -3.47451,-24.9897 2.93997,-3.34087 12.02713,-4.67722 12.02713,-4.67722 z"
       style="fill:#ffccaa;fill-opacity:1;stroke:#000000;stroke-width:1.05833328;stroke-linecap:butt;stroke-linejoin:miter;stroke-miterlimit:4;stroke-dasharray:none;stroke-opacity:1" />
    <path
       style="fill:#a9cbfb;fill-opacity:1;stroke:#000000;stroke-width:1;stroke-linecap:butt;stroke-linejoin:miter;stroke-miterlimit:4;stroke-dasharray:none;stroke-opacity:1"
       d="m 84.1899,207.19742 c 0,0 -24.856064,54.79025 -6.1472,56.66114 18.708867,1.87088 60.67019,2.40542 63.34288,-3.20724 2.6727,-5.61266 -13.63075,-55.32479 -17.10525,-55.59206 -3.47451,-0.26727 -39.55589,-1.60362 -40.09043,2.13816 z"
       id="path862"
       inkscape:connector-curvature="0"
       sodipodi:nodetypes="cscsc" />
    <path
       style="fill:#ac9d93;fill-opacity:1;stroke:#000000;stroke-width:1.05833328;stroke-linecap:butt;stroke-linejoin:miter;stroke-miterlimit:4;stroke-dasharray:none;stroke-opacity:1"
       d="m 68.41369,248.997 c 0,0 17.132872,0.69311 34.86885,0.89716 0.69256,0.008 1.69267,-0.55397 2.07944,0.0216 0.93649,1.39361 2.06099,1.65579 3.49564,0.0251 0.4381,-0.49797 1.32491,0.006 1.9841,0.007 16.63147,0.0388 31.69664,-0.5112 31.18283,-2.65204 -1.13394,-4.7247 7.27604,15.40253 1.6064,17.19792 -5.66964,1.79538 -34.8683,5.19717 -36.85268,3.96875 -1.98437,-1.22843 -2.55134,0.18898 -2.55134,0.18898 0,0 -37.136157,5.76414 -36.096723,-13.51265 0,0 -1.228422,-5.57515 0.283483,-6.14211 z"
       id="path947"
       inkscape:connector-curvature="0"
       sodipodi:nodetypes="cssssscccccc" />
    <path
       inkscape:connector-curvature="0"
       id="path929"
       d="m 131.49661,208.6674 c 0,0 20.44611,18.17433 14.96709,20.17885 -5.47903,2.00452 -17.97388,3.8754 -17.97388,3.8754 0,0 -3.40768,-10.55714 -4.07586,-18.04068 -0.66817,-7.48355 7.08265,-6.01357 7.08265,-6.01357 z"
       style="fill:#a9cbfb;fill-opacity:1;stroke:#000000;stroke-width:1.05833328;stroke-linecap:butt;stroke-linejoin:miter;stroke-miterlimit:4;stroke-dasharray:none;stroke-opacity:1" />
    <ellipse
       style="opacity:1;fill:#ffccaa;fill-opacity:1;stroke:#000000;stroke-width:1.05833328;stroke-linecap:round;stroke-miterlimit:4;stroke-dasharray:none;stroke-dashoffset:0;stroke-opacity:1;paint-order:normal"
       id="path860"
       cx="101.42879"
       cy="194.76938"
       rx="31.404167"
       ry="30.067825" />
    <path
       style="fill:#000000;stroke:#000000;stroke-width:0.26458332px;stroke-linecap:butt;stroke-linejoin:miter;stroke-opacity:1"
       d="m 75.973214,266.10043 c 0,0 1.795386,-9.26042 8.031993,-9.35492 6.236608,-0.0945 18.520833,-0.85044 19.087803,1.88989 0.56696,2.74032 1.13392,10.01607 1.13392,10.01607 0,0 -25.04092,3.78006 -28.253716,-2.55104 z"
       id="path949"
       inkscape:connector-curvature="0" />
    <g
       id="g879"
       transform="translate(-1.2027129,0.26726953)">
      <rect
         ry="5.8799295"
         y="248.62419"
         x="80.180862"
         height="26.192413"
         width="22.183371"
         id="rect864"
         style="opacity:1;fill:#ffccaa;fill-opacity:1;stroke:#000000;stroke-width:1;stroke-linecap:round;stroke-miterlimit:4;stroke-dasharray:none;stroke-dashoffset:0;stroke-opacity:1;paint-order:normal" />
      <rect
         ry="3.3408689"
         y="244.61516"
         x="79.913589"
         height="9.6217022"
         width="6.6817379"
         id="rect866"
         style="opacity:1;fill:#ffccaa;fill-opacity:1;stroke:#000000;stroke-width:1;stroke-linecap:round;stroke-miterlimit:4;stroke-dasharray:none;stroke-dashoffset:0;stroke-opacity:1;paint-order:normal" />
      <rect
         ry="3.2072344"
         y="241.14064"
         x="85.659882"
         height="12.962568"
         width="6.4144669"
         id="rect868"
         style="opacity:1;fill:#ffccaa;fill-opacity:1;stroke:#000000;stroke-width:1;stroke-linecap:round;stroke-miterlimit:4;stroke-dasharray:none;stroke-dashoffset:0;stroke-opacity:1;paint-order:normal" />
      <rect
         ry="2.6726973"
         y="238.86885"
         x="92.47525"
         height="14.967109"
         width="5.2117634"
         id="rect870"
         style="opacity:1;fill:#ffccaa;fill-opacity:1;stroke:#000000;stroke-width:1;stroke-linecap:round;stroke-miterlimit:4;stroke-dasharray:none;stroke-dashoffset:0;stroke-opacity:1;paint-order:normal" />
      <rect
         ry="2.8731472"
         y="245.41696"
         x="97.820641"
         height="9.2207985"
         width="5.7462945"
         id="rect872"
         style="opacity:1;fill:#ffccaa;fill-opacity:1;stroke:#000000;stroke-width:1;stroke-linecap:round;stroke-miterlimit:4;stroke-dasharray:none;stroke-dashoffset:0;stroke-opacity:1;paint-order:normal" />
    </g>
    <path
       sodipodi:nodetypes="cccsc"
       inkscape:connector-curvature="0"
       id="path931"
       d="m 150.74001,247.95602 c 0,0 -20.71339,-30.86963 -22.85154,-29.53328 -2.13816,1.33634 -5.67948,8.68626 -2.53906,11.49259 3.14041,2.80632 5.47902,27.92966 10.0226,28.19693 4.54359,0.26727 12.96258,1.73725 15.368,-10.15624 z"
       style="fill:#ffccaa;fill-opacity:1;stroke:#000000;stroke-width:1.05833328;stroke-linecap:butt;stroke-linejoin:miter;stroke-miterlimit:4;stroke-dasharray:none;stroke-opacity:1" />
    <path
       inkscape:connector-curvature="0"
       id="path951"
       d="m 107.9122,266.85638 c 0,0 1.41741,-10.67783 7.65402,-10.77233 6.2366,-0.0945 18.52083,-0.85044 19.0878,1.88989 0.56696,2.74032 2.74032,8.40967 2.74032,8.40967 0,0 -26.83631,5.85893 -29.48214,0.47277 z"
       style="fill:#000000;stroke:#000000;stroke-width:0.26458332px;stroke-linecap:butt;stroke-linejoin:miter;stroke-opacity:1"
       sodipodi:nodetypes="csccc" />
    <g
       transform="matrix(-1,0,0,1,214.75105,0.13363477)"
       id="g891">
      <rect
         style="opacity:1;fill:#ffccaa;fill-opacity:1;stroke:#000000;stroke-width:1;stroke-linecap:round;stroke-miterlimit:4;stroke-dasharray:none;stroke-dashoffset:0;stroke-opacity:1;paint-order:normal"
         id="rect881"
         width="22.183371"
         height="26.192413"
         x="80.180862"
         y="248.62419"
         ry="5.8799295" />
      <rect
         style="opacity:1;fill:#ffccaa;fill-opacity:1;stroke:#000000;stroke-width:1;stroke-linecap:round;stroke-miterlimit:4;stroke-dasharray:none;stroke-dashoffset:0;stroke-opacity:1;paint-order:normal"
         id="rect883"
         width="6.6817379"
         height="9.6217022"
         x="79.913589"
         y="244.61516"
         ry="3.3408689" />
      <rect
         style="opacity:1;fill:#ffccaa;fill-opacity:1;stroke:#000000;stroke-width:1;stroke-linecap:round;stroke-miterlimit:4;stroke-dasharray:none;stroke-dashoffset:0;stroke-opacity:1;paint-order:normal"
         id="rect885"
         width="6.4144669"
         height="12.962568"
         x="85.659882"
         y="241.14064"
         ry="3.2072344" />
      <rect
         style="opacity:1;fill:#ffccaa;fill-opacity:1;stroke:#000000;stroke-width:1;stroke-linecap:round;stroke-miterlimit:4;stroke-dasharray:none;stroke-dashoffset:0;stroke-opacity:1;paint-order:normal"
         id="rect887"
         width="5.2117634"
         height="14.967109"
         x="92.47525"
         y="238.86885"
         ry="2.6726973" />
      <rect
         style="opacity:1;fill:#ffccaa;fill-opacity:1;stroke:#000000;stroke-width:1;stroke-linecap:round;stroke-miterlimit:4;stroke-dasharray:none;stroke-dashoffset:0;stroke-opacity:1;paint-order:normal"
         id="rect889"
         width="5.7462945"
         height="9.2207985"
         x="97.820641"
         y="245.41696"
         ry="2.8731472" />
    </g>
    <path
       style="fill:#ffccaa;fill-opacity:1;stroke:#000000;stroke-width:1.05833328;stroke-linecap:butt;stroke-linejoin:miter;stroke-miterlimit:4;stroke-dasharray:none;stroke-opacity:1"
       d="m 57.195679,247.95602 c 0,0 20.713388,-30.86963 22.851544,-29.53328 2.138156,1.33634 5.679475,8.68626 2.539061,11.49259 -3.140416,2.80632 -5.479026,27.92966 -10.022607,28.19693 -4.543584,0.26727 -12.962573,1.73725 -15.367998,-10.15624 z"
       id="path925"
       inkscape:connector-curvature="0"
       sodipodi:nodetypes="cccsc" />
  </g>
  <g
     inkscape:groupmode="layer"
     id="layer2"
     inkscape:label="NSwitch">
    <rect
       style="opacity:1;fill:#4d4d4d;fill-opacity:1;stroke:#000000;stroke-width:1;stroke-linecap:round;stroke-miterlimit:4;stroke-dasharray:none;stroke-dashoffset:0;stroke-opacity:1;paint-order:normal"
       id="rect893"
       width="32.473251"
       height="18.976137"
       x="87.731216"
       y="75.629173"
       ry="0" />
    <rect
       style="opacity:1;fill:#ff795e;fill-opacity:1;stroke:#000000;stroke-width:1;stroke-linecap:round;stroke-miterlimit:4;stroke-dasharray:none;stroke-dashoffset:0;stroke-opacity:1;paint-order:normal"
       id="rect895"
       width="8.2853498"
       height="18.842501"
       x="120.20447"
       y="75.629173"
       ry="1.2027129" />
    <rect
       ry="1.2027129"
       y="75.629173"
       x="79.445869"
       height="18.842501"
       width="8.2853498"
       id="rect897"
       style="opacity:1;fill:#5ed0ff;fill-opacity:1;stroke:#000000;stroke-width:1;stroke-linecap:round;stroke-miterlimit:4;stroke-dasharray:none;stroke-dashoffset:0;stroke-opacity:1;paint-order:normal" />
    <ellipse
       style="opacity:1;fill:#ffccaa;fill-opacity:1;stroke:#000000;stroke-width:1.05833328;stroke-linecap:round;stroke-miterlimit:4;stroke-dasharray:none;stroke-dashoffset:0;stroke-opacity:1;paint-order:normal"
       id="path933"
       cx="81.406616"
       cy="85.989586"
       rx="8.1891327"
       ry="7.3448257" />
    <ellipse
       style="opacity:1;fill:#ffccaa;fill-opacity:1;stroke:#000000;stroke-width:1.05833328;stroke-linecap:round;stroke-miterlimit:4;stroke-dasharray:none;stroke-dashoffset:0;stroke-opacity:1;paint-order:normal"
       id="path935"
       cx="125.66226"
       cy="86.377632"
       rx="7.0160637"
       ry="6.7076859" />
    <path
       style="fill:#000000;stroke:#000000;stroke-width:0.26458332px;stroke-linecap:butt;stroke-linejoin:miter;stroke-opacity:1"
       d="m 67.563242,54.523065 c 0,0 2.834823,7.276042 1.6064,8.598958 -1.228424,1.322917 7.276041,-8.88244 7.181548,-11.811756 -0.09449,-2.929316 3.401785,5.480656 2.645833,6.142114 -0.755951,0.661458 8.504465,-8.504465 8.220983,-10.016371 -0.283483,-1.511903 2.929315,7.087055 2.456844,7.9375 -0.472469,0.850448 8.787947,-6.520087 8.693451,-8.976934 -0.09449,-2.456844 3.590779,6.236607 2.551339,7.370538 -1.039433,1.133927 8.31548,-8.409972 8.50447,-9.827382 0.18898,-1.41741 1.88988,13.607142 1.5119,13.796132 -0.37798,0.188986 6.52009,-7.276042 6.3311,-9.449406 -0.18899,-2.173364 4.8192,7.654017 3.49628,8.88244 -1.32292,1.228424 4.72471,-2.078868 4.8192,-4.724701 0.0945,-2.645833 4.34672,5.008184 3.30729,6.80357 -1.03943,1.795388 3.49628,0.944941 3.59077,-1.228424 0.0945,-2.173361 1.41741,4.346729 0.85045,4.724705 -0.56696,0.377975 7.46503,-15.024555 0.66146,-24.473958 -6.80357,-9.449406 -21.45015,-13.98512 -24.85194,-13.796132 -3.40178,0.188988 -20.788687,0 -23.623507,2.267858 -2.834822,2.267857 -20.97768,11.150295 -17.953871,27.781249 z"
       id="path937"
       inkscape:connector-curvature="0" />
    <circle
       style="opacity:1;fill:#000000;fill-opacity:1;stroke:#000000;stroke-width:1.05833328;stroke-linecap:round;stroke-miterlimit:4;stroke-dasharray:none;stroke-dashoffset:0;stroke-opacity:1;paint-order:normal"
       id="path939"
       cx="95.958702"
       cy="64.492188"
       r="4.3939734" />
    <ellipse
       style="opacity:1;fill:#ffffff;fill-opacity:1;stroke:none;stroke-width:1.05833328;stroke-linecap:round;stroke-miterlimit:4;stroke-dasharray:none;stroke-dashoffset:0;stroke-opacity:1;paint-order:normal"
       id="path941"
       cx="96.24218"
       cy="66.240326"
       rx="1.9371279"
       ry="2.1733632" />
    <circle
       r="4.3939734"
       cy="64.208702"
       cx="111.07775"
       id="circle943"
       style="opacity:1;fill:#000000;fill-opacity:1;stroke:#000000;stroke-width:1.05833328;stroke-linecap:round;stroke-miterlimit:4;stroke-dasharray:none;stroke-dashoffset:0;stroke-opacity:1;paint-order:normal" />
    <ellipse
       ry="2.1733632"
       rx="1.9371279"
       cy="65.956841"
       cx="111.36123"
       id="ellipse945"
       style="opacity:1;fill:#ffffff;fill-opacity:1;stroke:none;stroke-width:1.05833328;stroke-linecap:round;stroke-miterlimit:4;stroke-dasharray:none;stroke-dashoffset:0;stroke-opacity:1;paint-order:normal" />
    <path
       style="fill:url(#linearGradient965);fill-opacity:1;stroke:none;stroke-width:1.05833328;stroke-linecap:butt;stroke-linejoin:miter;stroke-miterlimit:4;stroke-dasharray:none;stroke-opacity:1"
       d="m 67.27976,65.484374 c 0,0 4.724704,-11.339285 4.441222,-11.71726 -0.283483,-0.377979 6.425594,10.583333 6.047618,11.622767 -0.377976,1.039434 -4.913691,7.654017 -10.48884,0.09449 z"
       id="path957"
       inkscape:connector-curvature="0" />
  </g>
</svg>
