<?xml version="1.0" encoding="UTF-8" standalone="no"?>
<!-- Created with Inkscape (http://www.inkscape.org/) -->

<svg
   xmlns:dc="http://purl.org/dc/elements/1.1/"
   xmlns:cc="http://creativecommons.org/ns#"
   xmlns:rdf="http://www.w3.org/1999/02/22-rdf-syntax-ns#"
   xmlns:svg="http://www.w3.org/2000/svg"
   xmlns="http://www.w3.org/2000/svg"
   xmlns:xlink="http://www.w3.org/1999/xlink"
   xmlns:sodipodi="http://sodipodi.sourceforge.net/DTD/sodipodi-0.dtd"
   xmlns:inkscape="http://www.inkscape.org/namespaces/inkscape"
   width="800"
   height="600"
   viewBox="0 0 211.66667 158.75"
   version="1.1"
   id="svg1000"
   inkscape:version="0.92.4 (5da689c313, 2019-01-14)"
   sodipodi:docname="lisa_software.svg">
  <defs
     id="defs994">
    <linearGradient
       inkscape:collect="always"
       id="linearGradient1741">
      <stop
         style="stop-color:#000000;stop-opacity:1;"
         offset="0"
         id="stop1737" />
      <stop
         style="stop-color:#ba0061;stop-opacity:1"
         offset="1"
         id="stop1739" />
    </linearGradient>
    <linearGradient
       inkscape:collect="always"
       xlink:href="#linearGradient1741"
       id="linearGradient1743"
       x1="95.186066"
       y1="77.600502"
       x2="95.910767"
       y2="113.43916"
       gradientUnits="userSpaceOnUse" />
  </defs>
  <sodipodi:namedview
     id="base"
     pagecolor="#ffffff"
     bordercolor="#666666"
     borderopacity="1.0"
     inkscape:pageopacity="0.0"
     inkscape:pageshadow="2"
     inkscape:zoom="0.7"
     inkscape:cx="481.10988"
     inkscape:cy="434.39077"
     inkscape:document-units="mm"
     inkscape:current-layer="layer1"
     showgrid="false"
     units="px"
     inkscape:pagecheckerboard="true"
     inkscape:window-width="1600"
     inkscape:window-height="837"
     inkscape:window-x="-8"
     inkscape:window-y="-8"
     inkscape:window-maximized="1" />
  <metadata
     id="metadata997">
    <rdf:RDF>
      <cc:Work
         rdf:about="">
        <dc:format>image/svg+xml</dc:format>
        <dc:type
           rdf:resource="http://purl.org/dc/dcmitype/StillImage" />
        <dc:title></dc:title>
      </cc:Work>
    </rdf:RDF>
  </metadata>
  <g
     inkscape:groupmode="layer"
     id="layer5"
     inkscape:label="Camada 3"
     sodipodi:insensitive="true">
    <rect
       style="opacity:1;fill:#1a1a1a;fill-opacity:1;stroke:none;stroke-width:1.10000002;stroke-linecap:round;stroke-miterlimit:4;stroke-dasharray:none;stroke-dashoffset:0;stroke-opacity:1;paint-order:normal"
       id="rect1727"
       width="209.3988"
       height="155.7262"
       x="1.1339285"
       y="1.5119048"
       ry="0" />
  </g>
  <g
     inkscape:label="Camada 1"
     inkscape:groupmode="layer"
     id="layer1"
     transform="translate(0,-138.25001)">
    <rect
       style="opacity:1;fill:#deaa87;fill-opacity:1;stroke:#000000;stroke-width:1;stroke-linecap:round;stroke-miterlimit:4;stroke-dasharray:none;stroke-dashoffset:0;stroke-opacity:1;paint-order:normal"
       id="rect1561"
       width="28.063316"
       height="45.168537"
       x="174.25972"
       y="249.15877" />
    <rect
       style="opacity:1;fill:#deaa87;fill-opacity:1;stroke:#000000;stroke-width:1;stroke-linecap:round;stroke-miterlimit:4;stroke-dasharray:none;stroke-dashoffset:0;stroke-opacity:1;paint-order:normal"
       id="rect1555"
       width="38.219543"
       height="44.901279"
       x="28.063299"
       y="249.96057" />
    <rect
       style="opacity:1;fill:#deaa87;fill-opacity:1;stroke:#000000;stroke-width:1;stroke-linecap:round;stroke-miterlimit:4;stroke-dasharray:none;stroke-dashoffset:0;stroke-opacity:1;paint-order:normal"
       id="rect1547"
       width="191.63394"
       height="21.922623"
       x="20.410711"
       y="234.63394"
       ry="0" />
    <rect
       style="opacity:1;fill:#333333;fill-opacity:1;stroke:#000000;stroke-width:1;stroke-linecap:round;stroke-miterlimit:4;stroke-dasharray:none;stroke-dashoffset:0;stroke-opacity:1;paint-order:normal"
       id="rect1557"
       width="21.648832"
       height="18.174328"
       x="115.72771"
       y="221.09546" />
    <rect
       style="opacity:1;fill:#666666;fill-opacity:1;stroke:#000000;stroke-width:1;stroke-linecap:round;stroke-miterlimit:4;stroke-dasharray:none;stroke-dashoffset:0;stroke-opacity:1;paint-order:normal"
       id="rect1551"
       width="76.973625"
       height="46.504887"
       x="89.535286"
       y="179.66869" />
    <rect
       style="opacity:1;fill:#f2f2f2;fill-opacity:1;stroke:#000000;stroke-width:1;stroke-linecap:round;stroke-miterlimit:4;stroke-dasharray:none;stroke-dashoffset:0;stroke-opacity:1;paint-order:normal"
       id="rect1553"
       width="81.78447"
       height="10.958049"
       x="83.65535"
       y="241.94249" />
    <rect
       style="opacity:1;fill:#666666;fill-opacity:1;stroke:#000000;stroke-width:1;stroke-linecap:round;stroke-miterlimit:4;stroke-dasharray:none;stroke-dashoffset:0;stroke-opacity:1;paint-order:normal"
       id="rect1559"
       width="24.321527"
       height="33.675961"
       x="128.28937"
       y="258.24594" />
    <path
       style="fill:none;stroke:#000000;stroke-width:1;stroke-linecap:butt;stroke-linejoin:miter;stroke-miterlimit:4;stroke-dasharray:none;stroke-opacity:1"
       d="m 50.459822,238.4137 c 0,0 -8.504465,-3.40179 -7.9375,2.45684 0.566962,5.85864 8.693452,4.15774 8.693452,4.15774"
       id="path1567"
       inkscape:connector-curvature="0" />
    <path
       style="opacity:1;fill:#a05a2c;fill-opacity:1;stroke:#000000;stroke-width:1;stroke-linecap:round;stroke-miterlimit:4;stroke-dasharray:none;stroke-dashoffset:0;stroke-opacity:1;paint-order:normal"
       d="m 48.002979,231.04317 h 19.602782 v 20.71279 c -5.478847,1.82299 -11.383537,2.91043 -19.602782,0 z"
       id="rect1563"
       inkscape:connector-curvature="0"
       sodipodi:nodetypes="ccccc" />
    <ellipse
       style="opacity:1;fill:#deaa87;fill-opacity:1;stroke:#000000;stroke-width:1;stroke-linecap:round;stroke-miterlimit:4;stroke-dasharray:none;stroke-dashoffset:0;stroke-opacity:1;paint-order:normal"
       id="path1565"
       cx="57.641369"
       cy="231.61012"
       rx="10.205358"
       ry="4.9136906" />
    <g
       aria-label="import flash.events.*
function evento(e:event):void {
}"
       transform="matrix(0.26458333,0,0,0.26458333,-0.1889881,136.17114)"
       style="font-style:normal;font-weight:normal;font-size:40px;line-height:1.25;font-family:sans-serif;letter-spacing:0px;word-spacing:0px;fill:#000000;fill-opacity:1;stroke:none"
       id="flowRoot1570">
      <path
         d="m 362.84766,207.65039 q 0,-0.25 -0.125,-0.375 -0.125,-0.1875 -0.4375,-0.1875 h -1.3125 v -0.375 h 0.625 q 0.5625,0 1.0625,-0.0625 0.5,-0.125 0.9375,-0.375 h 0.125 v 6.5625 q 0,0.25 0.125,0.375 0.1875,0.125 0.4375,0.125 h 1.3125 v 0.375 h -4.625 v -0.375 h 1.3125 q 0.3125,0 0.4375,-0.125 0.125,-0.125 0.125,-0.375 z m 0.75,-1.25 z m -0.25,-3.5 q 0.3125,0 0.5625,0.25 0.25,0.1875 0.25,0.5 0,0.3125 -0.25,0.5625 -0.25,0.25 -0.5625,0.25 -0.3125,0 -0.5625,-0.25 -0.25,-0.25 -0.25,-0.5625 0,-0.3125 0.25,-0.5 0.25,-0.25 0.5625,-0.25 z"
         style="font-style:normal;font-variant:normal;font-weight:normal;font-stretch:normal;font-size:16px;font-family:SimSun;-inkscape-font-specification:SimSun;fill:#ffffff"
         id="path1619"
         inkscape:connector-curvature="0" />
      <path
         d="m 367.72266,206.71289 q 0.3125,0 0.625,-0.0625 0.3125,-0.0625 0.5,-0.1875 h 0.125 v 1.0625 q 0.3125,-0.5 0.6875,-0.6875 0.375,-0.25 0.8125,-0.25 0.5625,0 0.875,0.25 0.3125,0.1875 0.375,0.6875 0.3125,-0.5 0.6875,-0.6875 0.4375,-0.25 0.875,-0.25 0.75,0 1,0.4375 0.3125,0.4375 0.3125,1.125 v 4.75 q 0,0.25 0.125,0.375 0.125,0.0625 0.375,0.0625 h 0.125 v 0.375 h -2.125 v -0.375 h 0.125 q 0.25,0 0.375,-0.0625 0.125,-0.125 0.125,-0.375 v -4.6875 q 0,-0.6875 -0.1875,-0.875 -0.125,-0.25 -0.4375,-0.25 -0.4375,0 -0.8125,0.3125 -0.3125,0.3125 -0.5,0.875 v 4.625 q 0,0.25 0.125,0.375 0.125,0.0625 0.375,0.0625 h 0.125 v 0.375 h -2.125 v -0.375 h 0.125 q 0.25,0 0.375,-0.0625 0.125,-0.125 0.125,-0.375 v -4.6875 q 0,-0.5625 -0.125,-0.8125 -0.125,-0.3125 -0.5,-0.3125 -0.4375,0 -0.8125,0.3125 -0.3125,0.3125 -0.5,0.9375 v 4.5625 q 0,0.25 0.125,0.375 0.125,0.0625 0.375,0.0625 h 0.125 v 0.375 h -2.125 v -0.375 h 0.125 q 0.25,0 0.375,-0.0625 0.125,-0.125 0.125,-0.375 v -5.4375 q 0,-0.1875 -0.0625,-0.25 -0.0625,-0.125 -0.25,-0.125 h -0.25 v -0.375 z"
         style="font-style:normal;font-variant:normal;font-weight:normal;font-stretch:normal;font-size:16px;font-family:SimSun;-inkscape-font-specification:SimSun;fill:#ffffff"
         id="path1621"
         inkscape:connector-curvature="0" />
      <path
         d="m 378.16016,215.65039 h 0.4375 v 0.375 h -2.875 v -0.375 h 0.375 q 0.3125,0 0.4375,-0.125 0.125,-0.125 0.125,-0.4375 v -7.375 q 0,-0.25 -0.125,-0.375 -0.125,-0.1875 -0.4375,-0.1875 h -0.375 v -0.375 h 0.5625 q 0.3125,0 0.5625,-0.0625 0.3125,-0.0625 0.5625,-0.25 h 0.125 v 1.4375 q 0.4375,-0.625 0.9375,-0.9375 0.5625,-0.3125 1.1875,-0.3125 1.25,0 2.0625,0.875 0.8125,0.8125 0.8125,2.625 0,1.75 -0.875,2.6875 -0.875,0.9375 -2.0625,0.9375 -0.6875,0 -1.1875,-0.1875 -0.4375,-0.25 -0.875,-0.6875 v 2.1875 q 0,0.3125 0.1875,0.4375 0.1875,0.125 0.4375,0.125 z m -0.625,-3.5625 q 0.3125,0.625 0.75,0.9375 0.5,0.3125 1.125,0.3125 0.875,0 1.5,-0.75 0.625,-0.8125 0.625,-2.4375 0,-1.5 -0.5,-2.25 -0.4375,-0.75 -1.375,-0.75 -0.5625,0 -1.125,0.375 -0.5625,0.3125 -1,1.0625 z"
         style="font-style:normal;font-variant:normal;font-weight:normal;font-stretch:normal;font-size:16px;font-family:SimSun;-inkscape-font-specification:SimSun;fill:#ffffff"
         id="path1623"
         inkscape:connector-curvature="0" />
      <path
         d="m 390.53516,210.21289 q 0,1.5625 -0.9375,2.625 -0.9375,1 -2.3125,1 -1.4375,0 -2.375,-1.0625 -0.875,-1.0625 -0.875,-2.5625 0,-1.375 0.875,-2.5 0.9375,-1.125 2.375,-1.125 1.5,0 2.375,1.125 0.875,1.125 0.875,2.5 z m -5.5,0.0625 q 0,1.625 0.625,2.4375 0.6875,0.75 1.625,0.75 1.0625,0 1.625,-0.8125 0.625,-0.875 0.625,-2.375 0,-1.625 -0.6875,-2.4375 -0.625,-0.875 -1.5625,-0.875 -0.875,0 -1.5625,0.875 -0.6875,0.8125 -0.6875,2.4375 z"
         style="font-style:normal;font-variant:normal;font-weight:normal;font-stretch:normal;font-size:16px;font-family:SimSun;-inkscape-font-specification:SimSun;fill:#ffffff"
         id="path1625"
         inkscape:connector-curvature="0" />
      <path
         d="m 394.47266,208.65039 q 0.625,-1 1.3125,-1.5 0.75,-0.5625 1.5,-0.5625 0.625,0 0.9375,0.3125 0.375,0.25 0.375,0.625 0,0.3125 -0.1875,0.5 -0.125,0.1875 -0.4375,0.1875 -0.3125,0 -0.5,-0.1875 -0.125,-0.1875 -0.0625,-0.5 0,-0.1875 -0.0625,-0.3125 -0.0625,-0.125 -0.375,-0.125 -0.5,0 -1.25,0.625 -0.6875,0.625 -1.25,1.75 v 3.375 q 0,0.25 0.125,0.375 0.1875,0.125 0.4375,0.125 h 1.375 v 0.375 h -4.625 v -0.375 h 1.25 q 0.3125,0 0.4375,-0.125 0.125,-0.125 0.125,-0.375 v -5.1875 q 0,-0.25 -0.125,-0.375 -0.125,-0.1875 -0.4375,-0.1875 h -1.1875 v -0.375 h 0.5 q 0.4375,0 1,-0.0625 0.625,-0.125 0.9375,-0.25 h 0.1875 z"
         style="font-style:normal;font-variant:normal;font-weight:normal;font-stretch:normal;font-size:16px;font-family:SimSun;-inkscape-font-specification:SimSun;fill:#ffffff"
         id="path1627"
         inkscape:connector-curvature="0" />
      <path
         d="m 403.03516,211.71289 q 0,0.875 0.3125,1.1875 0.3125,0.3125 0.9375,0.3125 0.625,0 1,-0.375 0.375,-0.4375 0.5,-1.1875 l 0.3125,0.125 q -0.125,0.875 -0.6875,1.4375 -0.5,0.5625 -1.375,0.5625 -0.9375,0 -1.4375,-0.5625 -0.4375,-0.5625 -0.4375,-1.75 v -4.375 h -1.875 v -0.375 h 0.5 q 0.75,0 1.1875,-0.4375 0.5,-0.5 0.625,-1.5 l 0.0625,-0.5 h 0.375 v 2.4375 h 2.5 v 0.375 h -2.5 z"
         style="font-style:normal;font-variant:normal;font-weight:normal;font-stretch:normal;font-size:16px;font-family:SimSun;-inkscape-font-specification:SimSun;fill:#ffffff"
         id="path1629"
         inkscape:connector-curvature="0" />
      <path
         d="m 407.28516,213.96289 q 0,0 0,0 z"
         style="font-style:normal;font-variant:normal;font-weight:normal;font-stretch:normal;font-size:16px;font-family:SimSun;-inkscape-font-specification:SimSun;fill:#ffffff"
         id="path1631"
         inkscape:connector-curvature="0" />
      <path
         d="m 418.09766,205.65039 q 0,-1.3125 0.8125,-1.9375 0.8125,-0.6875 1.8125,-0.6875 1.0625,0 1.5625,0.375 0.5625,0.375 0.5625,0.875 0,0.25 -0.125,0.4375 -0.125,0.1875 -0.5,0.1875 -0.25,0 -0.4375,-0.125 -0.125,-0.125 -0.125,-0.4375 0,-0.0625 0.0625,-0.1875 0,-0.125 0,-0.1875 0,-0.25 -0.1875,-0.375 -0.1875,-0.1875 -0.875,-0.1875 -0.75,0 -1.25,0.5 -0.4375,0.4375 -0.4375,1.5625 v 1.25 h 2.625 v 0.375 h -2.625 v 5.75 q 0,0.25 0.125,0.375 0.1875,0.125 0.4375,0.125 h 1.5 v 0.375 h -4.5625 v -0.375 h 1.0625 q 0.3125,0 0.4375,-0.125 0.125,-0.125 0.125,-0.375 v -5.75 h -1.9375 v -0.375 h 1.9375 z"
         style="font-style:normal;font-variant:normal;font-weight:normal;font-stretch:normal;font-size:16px;font-family:SimSun;-inkscape-font-specification:SimSun;fill:#ffffff"
         id="path1633"
         inkscape:connector-curvature="0" />
      <path
         d="m 425.59766,203.02539 q 0.5625,0 1.0625,-0.125 0.5,-0.125 0.9375,-0.375 h 0.125 v 10.3125 q 0,0.25 0.125,0.375 0.1875,0.125 0.4375,0.125 h 1.4375 v 0.375 h -4.875 v -0.375 h 1.4375 q 0.3125,0 0.4375,-0.125 0.125,-0.125 0.125,-0.375 v -8.9375 q 0,-0.25 -0.125,-0.375 -0.125,-0.125 -0.4375,-0.125 h -1.375 v -0.375 z"
         style="font-style:normal;font-variant:normal;font-weight:normal;font-stretch:normal;font-size:16px;font-family:SimSun;-inkscape-font-specification:SimSun;fill:#ffffff"
         id="path1635"
         inkscape:connector-curvature="0" />
      <path
         d="m 434.34766,213.77539 q -1.125,0 -1.75,-0.5 -0.625,-0.5625 -0.625,-1.25 0,-1.125 0.9375,-1.8125 1,-0.75 3.875,-1.0625 v -0.75 q 0,-0.625 -0.3125,-1 -0.25,-0.4375 -1.25,-0.4375 -1.0625,0 -1.5,0.375 -0.4375,0.3125 -0.3125,0.6875 0.0625,0.125 0.0625,0.25 0,0.125 -0.125,0.3125 -0.0625,0.1875 -0.4375,0.1875 -0.25,0 -0.4375,-0.125 -0.125,-0.1875 -0.125,-0.5 0,-0.5625 0.8125,-1.0625 0.8125,-0.5 2,-0.5 1.25,0 1.875,0.5 0.625,0.4375 0.625,1.3125 v 4.125 q 0,0.5 0.0625,0.625 0.125,0.0625 0.375,0.0625 0.3125,0 0.4375,-0.25 0.125,-0.3125 0.125,-0.8125 h 0.3125 q 0,0.875 -0.3125,1.25 -0.3125,0.3125 -0.8125,0.3125 -0.4375,0 -0.6875,-0.1875 -0.25,-0.1875 -0.375,-0.625 -0.625,0.4375 -1.1875,0.6875 -0.5,0.1875 -1.25,0.1875 z m -1.3125,-1.9375 q 0,0.5625 0.3125,1.0625 0.375,0.4375 1.125,0.4375 0.5625,0 1.125,-0.1875 0.5625,-0.25 1.1875,-0.6875 v -2.9375 q -2.125,0.25 -2.9375,0.875 -0.8125,0.5625 -0.8125,1.4375 z"
         style="font-style:normal;font-variant:normal;font-weight:normal;font-stretch:normal;font-size:16px;font-family:SimSun;-inkscape-font-specification:SimSun;fill:#ffffff"
         id="path1637"
         inkscape:connector-curvature="0" />
      <path
         d="m 440.84766,208.52539 q 0,-0.9375 0.6875,-1.4375 0.75,-0.5 1.75,-0.5 0.5625,0 1.0625,0.125 0.5,0.1875 0.6875,0.1875 0.1875,0 0.3125,-0.0625 0.125,-0.0625 0.3125,-0.25 l 0.25,2.0625 -0.375,0.0625 q -0.25,-0.8125 -0.875,-1.25 -0.5625,-0.5 -1.3125,-0.5 -0.8125,0 -1.3125,0.3125 -0.4375,0.3125 -0.4375,0.875 0,0.5 0.1875,0.8125 0.25,0.25 0.8125,0.375 0.4375,0.1875 1.125,0.375 0.625,0.25 1.1875,0.5 0.5,0.25 0.8125,0.6875 0.375,0.375 0.375,0.875 0,0.9375 -0.6875,1.5 -0.625,0.5 -1.875,0.5 -0.8125,0 -1.1875,-0.1875 -0.4375,-0.125 -0.6875,-0.125 -0.1875,0 -0.4375,0.125 -0.1875,0.0625 -0.4375,0.1875 l -0.1875,-2.3125 0.375,-0.0625 q 0.1875,1 0.8125,1.5 0.625,0.5 1.75,0.5 0.875,0 1.3125,-0.3125 0.5,-0.3125 0.5,-0.9375 0,-0.4375 -0.25,-0.6875 -0.25,-0.3125 -0.5,-0.4375 -0.625,-0.25 -1.375,-0.5625 -0.75,-0.25 -1.3125,-0.5 -0.5625,-0.25 -0.8125,-0.625 -0.25,-0.375 -0.25,-0.8125 z"
         style="font-style:normal;font-variant:normal;font-weight:normal;font-stretch:normal;font-size:16px;font-family:SimSun;-inkscape-font-specification:SimSun;fill:#ffffff"
         id="path1639"
         inkscape:connector-curvature="0" />
      <path
         d="m 447.78516,213.71289 v -0.375 h 0.3125 q 0.3125,0 0.4375,-0.125 0.125,-0.125 0.125,-0.375 v -8.9375 q 0,-0.25 -0.125,-0.375 -0.125,-0.125 -0.4375,-0.125 h -0.375 v -0.375 h 0.6875 q 0.25,0 0.5,-0.125 0.25,-0.125 0.5,-0.375 h 0.125 v 5.3125 q 0.5625,-0.6875 1.125,-0.9375 0.625,-0.3125 1.3125,-0.3125 0.9375,0 1.4375,0.5625 0.5,0.5 0.5,1.625 v 4.0625 q 0,0.25 0.125,0.375 0.1875,0.125 0.4375,0.125 h 0.3125 v 0.375 h -2.625 v -0.375 h 0.3125 q 0.3125,0 0.4375,-0.125 0.125,-0.125 0.125,-0.375 v -3.9375 q 0,-1.0625 -0.375,-1.375 -0.3125,-0.375 -0.875,-0.375 -0.5,0 -1.125,0.3125 -0.5625,0.3125 -1.125,1.0625 v 4.3125 q 0,0.25 0.125,0.375 0.1875,0.125 0.4375,0.125 h 0.3125 v 0.375 z"
         style="font-style:normal;font-variant:normal;font-weight:normal;font-stretch:normal;font-size:16px;font-family:SimSun;-inkscape-font-specification:SimSun;fill:#ffffff"
         id="path1641"
         inkscape:connector-curvature="0" />
      <path
         d="m 457.28516,213.90039 q -0.375,0 -0.6875,-0.25 -0.25,-0.25 -0.25,-0.6875 0,-0.4375 0.25,-0.6875 0.3125,-0.25 0.6875,-0.25 0.375,0 0.625,0.3125 0.3125,0.25 0.3125,0.625 0,0.4375 -0.3125,0.6875 -0.25,0.25 -0.625,0.25 z"
         style="font-style:normal;font-variant:normal;font-weight:normal;font-stretch:normal;font-size:16px;font-family:SimSun;-inkscape-font-specification:SimSun;fill:#ffffff"
         id="path1643"
         inkscape:connector-curvature="0" />
      <path
         d="m 469.28516,209.83789 q 0.0625,-1.375 -0.5,-2.0625 -0.5,-0.75 -1.375,-0.75 -0.9375,0 -1.5625,0.75 -0.5625,0.75 -0.5625,2.0625 z m -4,0.375 q 0,1.6875 0.625,2.4375 0.6875,0.6875 1.75,0.6875 0.8125,0 1.375,-0.4375 0.5625,-0.5 0.8125,-1.1875 l 0.3125,0.125 q -0.1875,0.6875 -0.875,1.375 -0.625,0.625 -1.75,0.625 -1.4375,0 -2.375,-0.9375 -0.875,-0.9375 -0.875,-2.6875 0,-1.5625 0.875,-2.5625 0.9375,-1.0625 2.25,-1.0625 1.1875,0 2.0625,0.8125 0.875,0.8125 0.875,2.8125 z"
         style="font-style:normal;font-variant:normal;font-weight:normal;font-stretch:normal;font-size:16px;font-family:SimSun;-inkscape-font-specification:SimSun;fill:#ffffff"
         id="path1645"
         inkscape:connector-curvature="0" />
      <path
         d="m 475.34766,213.77539 h -0.375 l -2.125,-6.125 q -0.0625,-0.25 -0.25,-0.375 -0.1875,-0.1875 -0.4375,-0.1875 h -0.3125 v -0.375 h 2.6875 v 0.375 h -0.25 q -0.375,0 -0.4375,0.125 -0.0625,0.125 -0.0625,0.25 0,0.25 0.0625,0.4375 l 1.5,4.375 h 0.125 l 1.5,-4.3125 q 0.125,-0.3125 0.125,-0.4375 0,-0.0625 -0.125,-0.25 -0.125,-0.1875 -0.5,-0.1875 h -0.125 v -0.375 h 2.25 v 0.375 h -0.125 q -0.375,0 -0.625,0.25 -0.1875,0.1875 -0.375,0.625 z m 2.4375,-6.6875 z m -0.5,0 z m -3.6875,0 z m -0.9375,0 z"
         style="font-style:normal;font-variant:normal;font-weight:normal;font-stretch:normal;font-size:16px;font-family:SimSun;-inkscape-font-specification:SimSun;fill:#ffffff"
         id="path1647"
         inkscape:connector-curvature="0" />
      <path
         d="m 485.28516,209.83789 q 0.0625,-1.375 -0.5,-2.0625 -0.5,-0.75 -1.375,-0.75 -0.9375,0 -1.5625,0.75 -0.5625,0.75 -0.5625,2.0625 z m -4,0.375 q 0,1.6875 0.625,2.4375 0.6875,0.6875 1.75,0.6875 0.8125,0 1.375,-0.4375 0.5625,-0.5 0.8125,-1.1875 l 0.3125,0.125 q -0.1875,0.6875 -0.875,1.375 -0.625,0.625 -1.75,0.625 -1.4375,0 -2.375,-0.9375 -0.875,-0.9375 -0.875,-2.6875 0,-1.5625 0.875,-2.5625 0.9375,-1.0625 2.25,-1.0625 1.1875,0 2.0625,0.8125 0.875,0.8125 0.875,2.8125 z"
         style="font-style:normal;font-variant:normal;font-weight:normal;font-stretch:normal;font-size:16px;font-family:SimSun;-inkscape-font-specification:SimSun;fill:#ffffff"
         id="path1649"
         inkscape:connector-curvature="0" />
      <path
         d="m 487.78516,213.71289 v -0.375 h 0.3125 q 0.3125,0 0.4375,-0.125 0.125,-0.125 0.125,-0.375 v -5.375 q 0,-0.1875 -0.0625,-0.25 -0.0625,-0.125 -0.25,-0.125 h -0.5 v -0.375 h 0.4375 q 0.3125,0 0.5625,-0.0625 0.3125,-0.0625 0.5625,-0.25 h 0.125 v 1.4375 q 0.5625,-0.625 1.125,-0.9375 0.5625,-0.3125 1.1875,-0.3125 1.0625,0 1.5625,0.5625 0.5,0.5625 0.5,1.6875 v 4 q 0,0.25 0.125,0.375 0.1875,0.125 0.4375,0.125 h 0.3125 v 0.375 h -2.625 v -0.375 h 0.3125 q 0.3125,0 0.4375,-0.125 0.125,-0.125 0.125,-0.375 v -4.1875 q 0,-0.75 -0.3125,-1.125 -0.3125,-0.4375 -0.9375,-0.4375 -0.5625,0 -1.1875,0.375 -0.5625,0.375 -1.0625,1.0625 v 4.3125 q 0,0.25 0.125,0.375 0.1875,0.125 0.4375,0.125 h 0.3125 v 0.375 z"
         style="font-style:normal;font-variant:normal;font-weight:normal;font-stretch:normal;font-size:16px;font-family:SimSun;-inkscape-font-specification:SimSun;fill:#ffffff"
         id="path1651"
         inkscape:connector-curvature="0" />
      <path
         d="m 499.03516,211.71289 q 0,0.875 0.3125,1.1875 0.3125,0.3125 0.9375,0.3125 0.625,0 1,-0.375 0.375,-0.4375 0.5,-1.1875 l 0.3125,0.125 q -0.125,0.875 -0.6875,1.4375 -0.5,0.5625 -1.375,0.5625 -0.9375,0 -1.4375,-0.5625 -0.4375,-0.5625 -0.4375,-1.75 v -4.375 h -1.875 v -0.375 h 0.5 q 0.75,0 1.1875,-0.4375 0.5,-0.5 0.625,-1.5 l 0.0625,-0.5 h 0.375 v 2.4375 h 2.5 v 0.375 h -2.5 z"
         style="font-style:normal;font-variant:normal;font-weight:normal;font-stretch:normal;font-size:16px;font-family:SimSun;-inkscape-font-specification:SimSun;fill:#ffffff"
         id="path1653"
         inkscape:connector-curvature="0" />
      <path
         d="m 504.84766,208.52539 q 0,-0.9375 0.6875,-1.4375 0.75,-0.5 1.75,-0.5 0.5625,0 1.0625,0.125 0.5,0.1875 0.6875,0.1875 0.1875,0 0.3125,-0.0625 0.125,-0.0625 0.3125,-0.25 l 0.25,2.0625 -0.375,0.0625 q -0.25,-0.8125 -0.875,-1.25 -0.5625,-0.5 -1.3125,-0.5 -0.8125,0 -1.3125,0.3125 -0.4375,0.3125 -0.4375,0.875 0,0.5 0.1875,0.8125 0.25,0.25 0.8125,0.375 0.4375,0.1875 1.125,0.375 0.625,0.25 1.1875,0.5 0.5,0.25 0.8125,0.6875 0.375,0.375 0.375,0.875 0,0.9375 -0.6875,1.5 -0.625,0.5 -1.875,0.5 -0.8125,0 -1.1875,-0.1875 -0.4375,-0.125 -0.6875,-0.125 -0.1875,0 -0.4375,0.125 -0.1875,0.0625 -0.4375,0.1875 l -0.1875,-2.3125 0.375,-0.0625 q 0.1875,1 0.8125,1.5 0.625,0.5 1.75,0.5 0.875,0 1.3125,-0.3125 0.5,-0.3125 0.5,-0.9375 0,-0.4375 -0.25,-0.6875 -0.25,-0.3125 -0.5,-0.4375 -0.625,-0.25 -1.375,-0.5625 -0.75,-0.25 -1.3125,-0.5 -0.5625,-0.25 -0.8125,-0.625 -0.25,-0.375 -0.25,-0.8125 z"
         style="font-style:normal;font-variant:normal;font-weight:normal;font-stretch:normal;font-size:16px;font-family:SimSun;-inkscape-font-specification:SimSun;fill:#ffffff"
         id="path1655"
         inkscape:connector-curvature="0" />
      <path
         d="m 513.28516,213.90039 q -0.375,0 -0.6875,-0.25 -0.25,-0.25 -0.25,-0.6875 0,-0.4375 0.25,-0.6875 0.3125,-0.25 0.6875,-0.25 0.375,0 0.625,0.3125 0.3125,0.25 0.3125,0.625 0,0.4375 -0.3125,0.6875 -0.25,0.25 -0.625,0.25 z"
         style="font-style:normal;font-variant:normal;font-weight:normal;font-stretch:normal;font-size:16px;font-family:SimSun;-inkscape-font-specification:SimSun;fill:#ffffff"
         id="path1657"
         inkscape:connector-curvature="0" />
      <path
         d="m 525.59766,207.40039 -2.125,0.8125 2.125,0.8125 q 0.8125,0.3125 0.9375,0.5 0.125,0.1875 0.125,0.375 0,0.5 -0.1875,0.5625 -0.1875,0.0625 -0.375,0.0625 -0.1875,0 -0.375,-0.0625 -0.1875,-0.125 -0.4375,-0.3125 l -1.9375,-1.75 0.4375,2.625 q 0.0625,0.1875 0.0625,0.375 0,0.125 0,0.1875 0,0.375 -0.1875,0.5625 -0.1875,0.125 -0.4375,0.125 -0.1875,0 -0.4375,-0.125 -0.1875,-0.125 -0.1875,-0.5625 0,-0.125 0.0625,-0.25 0,-0.125 0,-0.3125 l 0.5,-2.625 -1.9375,1.75 q -0.1875,0.125 -0.4375,0.25 -0.1875,0.125 -0.375,0.125 -0.1875,0 -0.375,-0.125 -0.1875,-0.125 -0.1875,-0.5 0,-0.25 0.1875,-0.4375 0.1875,-0.1875 0.875,-0.4375 l 2.125,-0.8125 -2.125,-0.8125 q -0.4375,-0.1875 -0.75,-0.3125 -0.3125,-0.1875 -0.3125,-0.5625 0,-0.3125 0.1875,-0.4375 0.1875,-0.1875 0.375,-0.1875 0.1875,0 0.375,0.125 0.25,0.0625 0.4375,0.25 l 1.9375,1.75 -0.4375,-2.625 q 0,-0.1875 0,-0.3125 -0.0625,-0.125 -0.0625,-0.25 0,-0.25 0.1875,-0.4375 0.1875,-0.25 0.4375,-0.25 0.375,0 0.5,0.25 0.125,0.25 0.125,0.4375 0,0.125 0,0.3125 0,0.125 -0.0625,0.25 l -0.5,2.625 1.9375,-1.75 q 0.25,-0.25 0.4375,-0.3125 0.1875,-0.0625 0.375,-0.0625 0.25,0 0.375,0.1875 0.1875,0.1875 0.1875,0.4375 0,0.25 -0.125,0.4375 -0.125,0.125 -0.9375,0.4375 z"
         style="font-style:normal;font-variant:normal;font-weight:normal;font-stretch:normal;font-size:16px;font-family:SimSun;-inkscape-font-specification:SimSun;fill:#ffffff"
         id="path1659"
         inkscape:connector-curvature="0" />
      <path
         d="m 362.09766,255.65039 q 0,-1.3125 0.8125,-1.9375 0.8125,-0.6875 1.8125,-0.6875 1.0625,0 1.5625,0.375 0.5625,0.375 0.5625,0.875 0,0.25 -0.125,0.4375 -0.125,0.1875 -0.5,0.1875 -0.25,0 -0.4375,-0.125 -0.125,-0.125 -0.125,-0.4375 0,-0.0625 0.0625,-0.1875 0,-0.125 0,-0.1875 0,-0.25 -0.1875,-0.375 -0.1875,-0.1875 -0.875,-0.1875 -0.75,0 -1.25,0.5 -0.4375,0.4375 -0.4375,1.5625 v 1.25 h 2.625 v 0.375 h -2.625 v 5.75 q 0,0.25 0.125,0.375 0.1875,0.125 0.4375,0.125 h 1.5 v 0.375 h -4.5625 v -0.375 h 1.0625 q 0.3125,0 0.4375,-0.125 0.125,-0.125 0.125,-0.375 v -5.75 h -1.9375 v -0.375 h 1.9375 z"
         style="font-style:normal;font-variant:normal;font-weight:normal;font-stretch:normal;font-size:16px;font-family:SimSun;-inkscape-font-specification:SimSun;fill:#ffffff"
         id="path1661"
         inkscape:connector-curvature="0" />
      <path
         d="m 370.91016,263.15039 q 0.75,0 1.25,-0.375 0.5625,-0.375 0.8125,-1.1875 v -3.9375 q 0,-0.25 -0.125,-0.375 -0.125,-0.1875 -0.4375,-0.1875 h -0.375 v -0.375 h 0.375 q 0.375,0 0.6875,-0.0625 0.3125,-0.0625 0.625,-0.3125 h 0.125 v 6.125 q 0,0.25 0.125,0.375 0.1875,0.125 0.4375,0.125 h 0.375 v 0.375 h -0.375 q -0.3125,0 -0.625,0.125 -0.3125,0.0625 -0.6875,0.25 h -0.125 v -1.3125 q -0.3125,0.6875 -0.9375,1.0625 -0.625,0.3125 -1.4375,0.3125 -1,0 -1.5,-0.5625 -0.5,-0.5625 -0.5,-1.8125 v -3.75 q 0,-0.25 -0.125,-0.375 -0.125,-0.1875 -0.4375,-0.1875 h -0.375 v -0.375 h 0.375 q 0.375,0 0.6875,-0.0625 0.3125,-0.0625 0.625,-0.3125 h 0.125 v 5.1875 q 0,0.875 0.375,1.25 0.375,0.375 1.0625,0.375 z"
         style="font-style:normal;font-variant:normal;font-weight:normal;font-stretch:normal;font-size:16px;font-family:SimSun;-inkscape-font-specification:SimSun;fill:#ffffff"
         id="path1663"
         inkscape:connector-curvature="0" />
      <path
         d="m 375.78516,263.71289 v -0.375 h 0.3125 q 0.3125,0 0.4375,-0.125 0.125,-0.125 0.125,-0.375 v -5.375 q 0,-0.1875 -0.0625,-0.25 -0.0625,-0.125 -0.25,-0.125 h -0.5 v -0.375 h 0.4375 q 0.3125,0 0.5625,-0.0625 0.3125,-0.0625 0.5625,-0.25 h 0.125 v 1.4375 q 0.5625,-0.625 1.125,-0.9375 0.5625,-0.3125 1.1875,-0.3125 1.0625,0 1.5625,0.5625 0.5,0.5625 0.5,1.6875 v 4 q 0,0.25 0.125,0.375 0.1875,0.125 0.4375,0.125 h 0.3125 v 0.375 h -2.625 v -0.375 h 0.3125 q 0.3125,0 0.4375,-0.125 0.125,-0.125 0.125,-0.375 v -4.1875 q 0,-0.75 -0.3125,-1.125 -0.3125,-0.4375 -0.9375,-0.4375 -0.5625,0 -1.1875,0.375 -0.5625,0.375 -1.0625,1.0625 v 4.3125 q 0,0.25 0.125,0.375 0.1875,0.125 0.4375,0.125 h 0.3125 v 0.375 z"
         style="font-style:normal;font-variant:normal;font-weight:normal;font-stretch:normal;font-size:16px;font-family:SimSun;-inkscape-font-specification:SimSun;fill:#ffffff"
         id="path1665"
         inkscape:connector-curvature="0" />
      <path
         d="m 388.66016,258.40039 q 0,-0.1875 0.0625,-0.25 0,-0.0625 0.0625,-0.25 0.0625,-0.25 -0.25,-0.5625 -0.3125,-0.375 -1.0625,-0.375 -0.9375,0 -1.625,0.9375 -0.625,0.875 -0.625,2.375 0,1.375 0.5625,2.25 0.5625,0.8125 1.875,0.8125 0.875,0 1.4375,-0.5625 0.625,-0.5625 0.875,-1.3125 l 0.3125,0.125 q -0.25,0.9375 -0.9375,1.625 -0.6875,0.625 -1.875,0.625 -1.5,0 -2.375,-0.9375 -0.875,-0.9375 -0.875,-2.6875 0,-1.5625 0.9375,-2.5625 0.9375,-1.0625 2.4375,-1.0625 1.0625,0 1.625,0.5625 0.625,0.5625 0.625,1.125 0,0.375 -0.1875,0.5625 -0.125,0.125 -0.4375,0.125 -0.25,0 -0.4375,-0.125 -0.125,-0.1875 -0.125,-0.4375 z"
         style="font-style:normal;font-variant:normal;font-weight:normal;font-stretch:normal;font-size:16px;font-family:SimSun;-inkscape-font-specification:SimSun;fill:#ffffff"
         id="path1667"
         inkscape:connector-curvature="0" />
      <path
         d="m 395.03516,261.71289 q 0,0.875 0.3125,1.1875 0.3125,0.3125 0.9375,0.3125 0.625,0 1,-0.375 0.375,-0.4375 0.5,-1.1875 l 0.3125,0.125 q -0.125,0.875 -0.6875,1.4375 -0.5,0.5625 -1.375,0.5625 -0.9375,0 -1.4375,-0.5625 -0.4375,-0.5625 -0.4375,-1.75 v -4.375 h -1.875 v -0.375 h 0.5 q 0.75,0 1.1875,-0.4375 0.5,-0.5 0.625,-1.5 l 0.0625,-0.5 h 0.375 v 2.4375 h 2.5 v 0.375 h -2.5 z"
         style="font-style:normal;font-variant:normal;font-weight:normal;font-stretch:normal;font-size:16px;font-family:SimSun;-inkscape-font-specification:SimSun;fill:#ffffff"
         id="path1669"
         inkscape:connector-curvature="0" />
      <path
         d="m 402.84766,257.65039 q 0,-0.25 -0.125,-0.375 -0.125,-0.1875 -0.4375,-0.1875 h -1.3125 v -0.375 h 0.625 q 0.5625,0 1.0625,-0.0625 0.5,-0.125 0.9375,-0.375 h 0.125 v 6.5625 q 0,0.25 0.125,0.375 0.1875,0.125 0.4375,0.125 h 1.3125 v 0.375 h -4.625 v -0.375 h 1.3125 q 0.3125,0 0.4375,-0.125 0.125,-0.125 0.125,-0.375 z m 0.75,-1.25 z m -0.25,-3.5 q 0.3125,0 0.5625,0.25 0.25,0.1875 0.25,0.5 0,0.3125 -0.25,0.5625 -0.25,0.25 -0.5625,0.25 -0.3125,0 -0.5625,-0.25 -0.25,-0.25 -0.25,-0.5625 0,-0.3125 0.25,-0.5 0.25,-0.25 0.5625,-0.25 z"
         style="font-style:normal;font-variant:normal;font-weight:normal;font-stretch:normal;font-size:16px;font-family:SimSun;-inkscape-font-specification:SimSun;fill:#ffffff"
         id="path1671"
         inkscape:connector-curvature="0" />
      <path
         d="m 414.53516,260.21289 q 0,1.5625 -0.9375,2.625 -0.9375,1 -2.3125,1 -1.4375,0 -2.375,-1.0625 -0.875,-1.0625 -0.875,-2.5625 0,-1.375 0.875,-2.5 0.9375,-1.125 2.375,-1.125 1.5,0 2.375,1.125 0.875,1.125 0.875,2.5 z m -5.5,0.0625 q 0,1.625 0.625,2.4375 0.6875,0.75 1.625,0.75 1.0625,0 1.625,-0.8125 0.625,-0.875 0.625,-2.375 0,-1.625 -0.6875,-2.4375 -0.625,-0.875 -1.5625,-0.875 -0.875,0 -1.5625,0.875 -0.6875,0.8125 -0.6875,2.4375 z"
         style="font-style:normal;font-variant:normal;font-weight:normal;font-stretch:normal;font-size:16px;font-family:SimSun;-inkscape-font-specification:SimSun;fill:#ffffff"
         id="path1673"
         inkscape:connector-curvature="0" />
      <path
         d="m 415.78516,263.71289 v -0.375 h 0.3125 q 0.3125,0 0.4375,-0.125 0.125,-0.125 0.125,-0.375 v -5.375 q 0,-0.1875 -0.0625,-0.25 -0.0625,-0.125 -0.25,-0.125 h -0.5 v -0.375 h 0.4375 q 0.3125,0 0.5625,-0.0625 0.3125,-0.0625 0.5625,-0.25 h 0.125 v 1.4375 q 0.5625,-0.625 1.125,-0.9375 0.5625,-0.3125 1.1875,-0.3125 1.0625,0 1.5625,0.5625 0.5,0.5625 0.5,1.6875 v 4 q 0,0.25 0.125,0.375 0.1875,0.125 0.4375,0.125 h 0.3125 v 0.375 h -2.625 v -0.375 h 0.3125 q 0.3125,0 0.4375,-0.125 0.125,-0.125 0.125,-0.375 v -4.1875 q 0,-0.75 -0.3125,-1.125 -0.3125,-0.4375 -0.9375,-0.4375 -0.5625,0 -1.1875,0.375 -0.5625,0.375 -1.0625,1.0625 v 4.3125 q 0,0.25 0.125,0.375 0.1875,0.125 0.4375,0.125 h 0.3125 v 0.375 z"
         style="font-style:normal;font-variant:normal;font-weight:normal;font-stretch:normal;font-size:16px;font-family:SimSun;-inkscape-font-specification:SimSun;fill:#ffffff"
         id="path1675"
         inkscape:connector-curvature="0" />
      <path
         d="m 423.28516,263.96289 q 0,0 0,0 z"
         style="font-style:normal;font-variant:normal;font-weight:normal;font-stretch:normal;font-size:16px;font-family:SimSun;-inkscape-font-specification:SimSun;fill:#ffffff"
         id="path1677"
         inkscape:connector-curvature="0" />
      <path
         d="m 437.28516,259.83789 q 0.0625,-1.375 -0.5,-2.0625 -0.5,-0.75 -1.375,-0.75 -0.9375,0 -1.5625,0.75 -0.5625,0.75 -0.5625,2.0625 z m -4,0.375 q 0,1.6875 0.625,2.4375 0.6875,0.6875 1.75,0.6875 0.8125,0 1.375,-0.4375 0.5625,-0.5 0.8125,-1.1875 l 0.3125,0.125 q -0.1875,0.6875 -0.875,1.375 -0.625,0.625 -1.75,0.625 -1.4375,0 -2.375,-0.9375 -0.875,-0.9375 -0.875,-2.6875 0,-1.5625 0.875,-2.5625 0.9375,-1.0625 2.25,-1.0625 1.1875,0 2.0625,0.8125 0.875,0.8125 0.875,2.8125 z"
         style="font-style:normal;font-variant:normal;font-weight:normal;font-stretch:normal;font-size:16px;font-family:SimSun;-inkscape-font-specification:SimSun;fill:#ffffff"
         id="path1679"
         inkscape:connector-curvature="0" />
      <path
         d="m 443.34766,263.77539 h -0.375 l -2.125,-6.125 q -0.0625,-0.25 -0.25,-0.375 -0.1875,-0.1875 -0.4375,-0.1875 h -0.3125 v -0.375 h 2.6875 v 0.375 h -0.25 q -0.375,0 -0.4375,0.125 -0.0625,0.125 -0.0625,0.25 0,0.25 0.0625,0.4375 l 1.5,4.375 h 0.125 l 1.5,-4.3125 q 0.125,-0.3125 0.125,-0.4375 0,-0.0625 -0.125,-0.25 -0.125,-0.1875 -0.5,-0.1875 h -0.125 v -0.375 h 2.25 v 0.375 h -0.125 q -0.375,0 -0.625,0.25 -0.1875,0.1875 -0.375,0.625 z m 2.4375,-6.6875 z m -0.5,0 z m -3.6875,0 z m -0.9375,0 z"
         style="font-style:normal;font-variant:normal;font-weight:normal;font-stretch:normal;font-size:16px;font-family:SimSun;-inkscape-font-specification:SimSun;fill:#ffffff"
         id="path1681"
         inkscape:connector-curvature="0" />
      <path
         d="m 453.28516,259.83789 q 0.0625,-1.375 -0.5,-2.0625 -0.5,-0.75 -1.375,-0.75 -0.9375,0 -1.5625,0.75 -0.5625,0.75 -0.5625,2.0625 z m -4,0.375 q 0,1.6875 0.625,2.4375 0.6875,0.6875 1.75,0.6875 0.8125,0 1.375,-0.4375 0.5625,-0.5 0.8125,-1.1875 l 0.3125,0.125 q -0.1875,0.6875 -0.875,1.375 -0.625,0.625 -1.75,0.625 -1.4375,0 -2.375,-0.9375 -0.875,-0.9375 -0.875,-2.6875 0,-1.5625 0.875,-2.5625 0.9375,-1.0625 2.25,-1.0625 1.1875,0 2.0625,0.8125 0.875,0.8125 0.875,2.8125 z"
         style="font-style:normal;font-variant:normal;font-weight:normal;font-stretch:normal;font-size:16px;font-family:SimSun;-inkscape-font-specification:SimSun;fill:#ffffff"
         id="path1683"
         inkscape:connector-curvature="0" />
      <path
         d="m 455.78516,263.71289 v -0.375 h 0.3125 q 0.3125,0 0.4375,-0.125 0.125,-0.125 0.125,-0.375 v -5.375 q 0,-0.1875 -0.0625,-0.25 -0.0625,-0.125 -0.25,-0.125 h -0.5 v -0.375 h 0.4375 q 0.3125,0 0.5625,-0.0625 0.3125,-0.0625 0.5625,-0.25 h 0.125 v 1.4375 q 0.5625,-0.625 1.125,-0.9375 0.5625,-0.3125 1.1875,-0.3125 1.0625,0 1.5625,0.5625 0.5,0.5625 0.5,1.6875 v 4 q 0,0.25 0.125,0.375 0.1875,0.125 0.4375,0.125 h 0.3125 v 0.375 h -2.625 v -0.375 h 0.3125 q 0.3125,0 0.4375,-0.125 0.125,-0.125 0.125,-0.375 v -4.1875 q 0,-0.75 -0.3125,-1.125 -0.3125,-0.4375 -0.9375,-0.4375 -0.5625,0 -1.1875,0.375 -0.5625,0.375 -1.0625,1.0625 v 4.3125 q 0,0.25 0.125,0.375 0.1875,0.125 0.4375,0.125 h 0.3125 v 0.375 z"
         style="font-style:normal;font-variant:normal;font-weight:normal;font-stretch:normal;font-size:16px;font-family:SimSun;-inkscape-font-specification:SimSun;fill:#ffffff"
         id="path1685"
         inkscape:connector-curvature="0" />
      <path
         d="m 467.03516,261.71289 q 0,0.875 0.3125,1.1875 0.3125,0.3125 0.9375,0.3125 0.625,0 1,-0.375 0.375,-0.4375 0.5,-1.1875 l 0.3125,0.125 q -0.125,0.875 -0.6875,1.4375 -0.5,0.5625 -1.375,0.5625 -0.9375,0 -1.4375,-0.5625 -0.4375,-0.5625 -0.4375,-1.75 v -4.375 h -1.875 v -0.375 h 0.5 q 0.75,0 1.1875,-0.4375 0.5,-0.5 0.625,-1.5 l 0.0625,-0.5 h 0.375 v 2.4375 h 2.5 v 0.375 h -2.5 z"
         style="font-style:normal;font-variant:normal;font-weight:normal;font-stretch:normal;font-size:16px;font-family:SimSun;-inkscape-font-specification:SimSun;fill:#ffffff"
         id="path1687"
         inkscape:connector-curvature="0" />
      <path
         d="m 478.53516,260.21289 q 0,1.5625 -0.9375,2.625 -0.9375,1 -2.3125,1 -1.4375,0 -2.375,-1.0625 -0.875,-1.0625 -0.875,-2.5625 0,-1.375 0.875,-2.5 0.9375,-1.125 2.375,-1.125 1.5,0 2.375,1.125 0.875,1.125 0.875,2.5 z m -5.5,0.0625 q 0,1.625 0.625,2.4375 0.6875,0.75 1.625,0.75 1.0625,0 1.625,-0.8125 0.625,-0.875 0.625,-2.375 0,-1.625 -0.6875,-2.4375 -0.625,-0.875 -1.5625,-0.875 -0.875,0 -1.5625,0.875 -0.6875,0.8125 -0.6875,2.4375 z"
         style="font-style:normal;font-variant:normal;font-weight:normal;font-stretch:normal;font-size:16px;font-family:SimSun;-inkscape-font-specification:SimSun;fill:#ffffff"
         id="path1689"
         inkscape:connector-curvature="0" />
      <path
         d="m 486.53516,251.40039 q -1.4375,1.5 -2.1875,3.25 -0.6875,1.6875 -0.6875,3.5625 0,1.9375 0.6875,3.625 0.75,1.6875 2.1875,3.1875 l -0.3125,0.3125 q -1.75,-1.5625 -2.625,-3.3125 -0.875,-1.8125 -0.875,-3.8125 0,-1.9375 0.875,-3.6875 0.875,-1.8125 2.625,-3.4375 z"
         style="font-style:normal;font-variant:normal;font-weight:normal;font-stretch:normal;font-size:16px;font-family:SimSun;-inkscape-font-specification:SimSun;fill:#ffffff"
         id="path1691"
         inkscape:connector-curvature="0" />
      <path
         d="m 493.28516,259.83789 q 0.0625,-1.375 -0.5,-2.0625 -0.5,-0.75 -1.375,-0.75 -0.9375,0 -1.5625,0.75 -0.5625,0.75 -0.5625,2.0625 z m -4,0.375 q 0,1.6875 0.625,2.4375 0.6875,0.6875 1.75,0.6875 0.8125,0 1.375,-0.4375 0.5625,-0.5 0.8125,-1.1875 l 0.3125,0.125 q -0.1875,0.6875 -0.875,1.375 -0.625,0.625 -1.75,0.625 -1.4375,0 -2.375,-0.9375 -0.875,-0.9375 -0.875,-2.6875 0,-1.5625 0.875,-2.5625 0.9375,-1.0625 2.25,-1.0625 1.1875,0 2.0625,0.8125 0.875,0.8125 0.875,2.8125 z"
         style="font-style:normal;font-variant:normal;font-weight:normal;font-stretch:normal;font-size:16px;font-family:SimSun;-inkscape-font-specification:SimSun;fill:#ffffff"
         id="path1693"
         inkscape:connector-curvature="0" />
      <path
         d="m 500.03516,257.15039 q 0,0.375 -0.25,0.625 -0.25,0.25 -0.625,0.25 -0.375,0 -0.625,-0.25 -0.25,-0.25 -0.25,-0.625 0,-0.375 0.25,-0.625 0.25,-0.25 0.625,-0.25 0.375,0 0.625,0.25 0.25,0.25 0.25,0.625 z m 0,5.875 q 0,0.375 -0.25,0.625 -0.25,0.25 -0.625,0.25 -0.375,0 -0.625,-0.25 -0.25,-0.25 -0.25,-0.625 0,-0.375 0.25,-0.625 0.25,-0.25 0.625,-0.25 0.375,0 0.625,0.25 0.25,0.25 0.25,0.625 z"
         style="font-style:normal;font-variant:normal;font-weight:normal;font-stretch:normal;font-size:16px;font-family:SimSun;-inkscape-font-specification:SimSun;fill:#ffffff"
         id="path1695"
         inkscape:connector-curvature="0" />
      <path
         d="m 509.28516,259.83789 q 0.0625,-1.375 -0.5,-2.0625 -0.5,-0.75 -1.375,-0.75 -0.9375,0 -1.5625,0.75 -0.5625,0.75 -0.5625,2.0625 z m -4,0.375 q 0,1.6875 0.625,2.4375 0.6875,0.6875 1.75,0.6875 0.8125,0 1.375,-0.4375 0.5625,-0.5 0.8125,-1.1875 l 0.3125,0.125 q -0.1875,0.6875 -0.875,1.375 -0.625,0.625 -1.75,0.625 -1.4375,0 -2.375,-0.9375 -0.875,-0.9375 -0.875,-2.6875 0,-1.5625 0.875,-2.5625 0.9375,-1.0625 2.25,-1.0625 1.1875,0 2.0625,0.8125 0.875,0.8125 0.875,2.8125 z"
         style="font-style:normal;font-variant:normal;font-weight:normal;font-stretch:normal;font-size:16px;font-family:SimSun;-inkscape-font-specification:SimSun;fill:#ffffff"
         id="path1697"
         inkscape:connector-curvature="0" />
      <path
         d="m 515.34766,263.77539 h -0.375 l -2.125,-6.125 q -0.0625,-0.25 -0.25,-0.375 -0.1875,-0.1875 -0.4375,-0.1875 h -0.3125 v -0.375 h 2.6875 v 0.375 h -0.25 q -0.375,0 -0.4375,0.125 -0.0625,0.125 -0.0625,0.25 0,0.25 0.0625,0.4375 l 1.5,4.375 h 0.125 l 1.5,-4.3125 q 0.125,-0.3125 0.125,-0.4375 0,-0.0625 -0.125,-0.25 -0.125,-0.1875 -0.5,-0.1875 h -0.125 v -0.375 h 2.25 v 0.375 h -0.125 q -0.375,0 -0.625,0.25 -0.1875,0.1875 -0.375,0.625 z m 2.4375,-6.6875 z m -0.5,0 z m -3.6875,0 z m -0.9375,0 z"
         style="font-style:normal;font-variant:normal;font-weight:normal;font-stretch:normal;font-size:16px;font-family:SimSun;-inkscape-font-specification:SimSun;fill:#ffffff"
         id="path1699"
         inkscape:connector-curvature="0" />
      <path
         d="m 525.28516,259.83789 q 0.0625,-1.375 -0.5,-2.0625 -0.5,-0.75 -1.375,-0.75 -0.9375,0 -1.5625,0.75 -0.5625,0.75 -0.5625,2.0625 z m -4,0.375 q 0,1.6875 0.625,2.4375 0.6875,0.6875 1.75,0.6875 0.8125,0 1.375,-0.4375 0.5625,-0.5 0.8125,-1.1875 l 0.3125,0.125 q -0.1875,0.6875 -0.875,1.375 -0.625,0.625 -1.75,0.625 -1.4375,0 -2.375,-0.9375 -0.875,-0.9375 -0.875,-2.6875 0,-1.5625 0.875,-2.5625 0.9375,-1.0625 2.25,-1.0625 1.1875,0 2.0625,0.8125 0.875,0.8125 0.875,2.8125 z"
         style="font-style:normal;font-variant:normal;font-weight:normal;font-stretch:normal;font-size:16px;font-family:SimSun;-inkscape-font-specification:SimSun;fill:#ffffff"
         id="path1701"
         inkscape:connector-curvature="0" />
      <path
         d="m 527.78516,263.71289 v -0.375 h 0.3125 q 0.3125,0 0.4375,-0.125 0.125,-0.125 0.125,-0.375 v -5.375 q 0,-0.1875 -0.0625,-0.25 -0.0625,-0.125 -0.25,-0.125 h -0.5 v -0.375 h 0.4375 q 0.3125,0 0.5625,-0.0625 0.3125,-0.0625 0.5625,-0.25 h 0.125 v 1.4375 q 0.5625,-0.625 1.125,-0.9375 0.5625,-0.3125 1.1875,-0.3125 1.0625,0 1.5625,0.5625 0.5,0.5625 0.5,1.6875 v 4 q 0,0.25 0.125,0.375 0.1875,0.125 0.4375,0.125 h 0.3125 v 0.375 h -2.625 v -0.375 h 0.3125 q 0.3125,0 0.4375,-0.125 0.125,-0.125 0.125,-0.375 v -4.1875 q 0,-0.75 -0.3125,-1.125 -0.3125,-0.4375 -0.9375,-0.4375 -0.5625,0 -1.1875,0.375 -0.5625,0.375 -1.0625,1.0625 v 4.3125 q 0,0.25 0.125,0.375 0.1875,0.125 0.4375,0.125 h 0.3125 v 0.375 z"
         style="font-style:normal;font-variant:normal;font-weight:normal;font-stretch:normal;font-size:16px;font-family:SimSun;-inkscape-font-specification:SimSun;fill:#ffffff"
         id="path1703"
         inkscape:connector-curvature="0" />
      <path
         d="m 539.03516,261.71289 q 0,0.875 0.3125,1.1875 0.3125,0.3125 0.9375,0.3125 0.625,0 1,-0.375 0.375,-0.4375 0.5,-1.1875 l 0.3125,0.125 q -0.125,0.875 -0.6875,1.4375 -0.5,0.5625 -1.375,0.5625 -0.9375,0 -1.4375,-0.5625 -0.4375,-0.5625 -0.4375,-1.75 v -4.375 h -1.875 v -0.375 h 0.5 q 0.75,0 1.1875,-0.4375 0.5,-0.5 0.625,-1.5 l 0.0625,-0.5 h 0.375 v 2.4375 h 2.5 v 0.375 h -2.5 z"
         style="font-style:normal;font-variant:normal;font-weight:normal;font-stretch:normal;font-size:16px;font-family:SimSun;-inkscape-font-specification:SimSun;fill:#ffffff"
         id="path1705"
         inkscape:connector-curvature="0" />
      <path
         d="m 543.97266,251.40039 0.3125,-0.3125 q 1.75,1.625 2.625,3.4375 0.875,1.75 0.875,3.6875 0,2 -0.875,3.8125 -0.875,1.75 -2.625,3.3125 l -0.3125,-0.3125 q 1.4375,-1.5 2.125,-3.1875 0.75,-1.6875 0.75,-3.625 0,-1.875 -0.75,-3.5625 -0.6875,-1.75 -2.125,-3.25 z"
         style="font-style:normal;font-variant:normal;font-weight:normal;font-stretch:normal;font-size:16px;font-family:SimSun;-inkscape-font-specification:SimSun;fill:#ffffff"
         id="path1707"
         inkscape:connector-curvature="0" />
      <path
         d="m 556.03516,257.15039 q 0,0.375 -0.25,0.625 -0.25,0.25 -0.625,0.25 -0.375,0 -0.625,-0.25 -0.25,-0.25 -0.25,-0.625 0,-0.375 0.25,-0.625 0.25,-0.25 0.625,-0.25 0.375,0 0.625,0.25 0.25,0.25 0.25,0.625 z m 0,5.875 q 0,0.375 -0.25,0.625 -0.25,0.25 -0.625,0.25 -0.375,0 -0.625,-0.25 -0.25,-0.25 -0.25,-0.625 0,-0.375 0.25,-0.625 0.25,-0.25 0.625,-0.25 0.375,0 0.625,0.25 0.25,0.25 0.25,0.625 z"
         style="font-style:normal;font-variant:normal;font-weight:normal;font-stretch:normal;font-size:16px;font-family:SimSun;-inkscape-font-specification:SimSun;fill:#ffffff"
         id="path1709"
         inkscape:connector-curvature="0" />
      <path
         d="m 563.34766,263.77539 h -0.375 l -2.125,-6.125 q -0.0625,-0.25 -0.25,-0.375 -0.1875,-0.1875 -0.4375,-0.1875 h -0.3125 v -0.375 h 2.6875 v 0.375 h -0.25 q -0.375,0 -0.4375,0.125 -0.0625,0.125 -0.0625,0.25 0,0.25 0.0625,0.4375 l 1.5,4.375 h 0.125 l 1.5,-4.3125 q 0.125,-0.3125 0.125,-0.4375 0,-0.0625 -0.125,-0.25 -0.125,-0.1875 -0.5,-0.1875 h -0.125 v -0.375 h 2.25 v 0.375 h -0.125 q -0.375,0 -0.625,0.25 -0.1875,0.1875 -0.375,0.625 z m 2.4375,-6.6875 z m -0.5,0 z m -3.6875,0 z m -0.9375,0 z"
         style="font-style:normal;font-variant:normal;font-weight:normal;font-stretch:normal;font-size:16px;font-family:SimSun;-inkscape-font-specification:SimSun;fill:#ffffff"
         id="path1711"
         inkscape:connector-curvature="0" />
      <path
         d="m 574.53516,260.21289 q 0,1.5625 -0.9375,2.625 -0.9375,1 -2.3125,1 -1.4375,0 -2.375,-1.0625 -0.875,-1.0625 -0.875,-2.5625 0,-1.375 0.875,-2.5 0.9375,-1.125 2.375,-1.125 1.5,0 2.375,1.125 0.875,1.125 0.875,2.5 z m -5.5,0.0625 q 0,1.625 0.625,2.4375 0.6875,0.75 1.625,0.75 1.0625,0 1.625,-0.8125 0.625,-0.875 0.625,-2.375 0,-1.625 -0.6875,-2.4375 -0.625,-0.875 -1.5625,-0.875 -0.875,0 -1.5625,0.875 -0.6875,0.8125 -0.6875,2.4375 z"
         style="font-style:normal;font-variant:normal;font-weight:normal;font-stretch:normal;font-size:16px;font-family:SimSun;-inkscape-font-specification:SimSun;fill:#ffffff"
         id="path1713"
         inkscape:connector-curvature="0" />
      <path
         d="m 578.84766,257.65039 q 0,-0.25 -0.125,-0.375 -0.125,-0.1875 -0.4375,-0.1875 h -1.3125 v -0.375 h 0.625 q 0.5625,0 1.0625,-0.0625 0.5,-0.125 0.9375,-0.375 h 0.125 v 6.5625 q 0,0.25 0.125,0.375 0.1875,0.125 0.4375,0.125 h 1.3125 v 0.375 h -4.625 v -0.375 h 1.3125 q 0.3125,0 0.4375,-0.125 0.125,-0.125 0.125,-0.375 z m 0.75,-1.25 z m -0.25,-3.5 q 0.3125,0 0.5625,0.25 0.25,0.1875 0.25,0.5 0,0.3125 -0.25,0.5625 -0.25,0.25 -0.5625,0.25 -0.3125,0 -0.5625,-0.25 -0.25,-0.25 -0.25,-0.5625 0,-0.3125 0.25,-0.5 0.25,-0.25 0.5625,-0.25 z"
         style="font-style:normal;font-variant:normal;font-weight:normal;font-stretch:normal;font-size:16px;font-family:SimSun;-inkscape-font-specification:SimSun;fill:#ffffff"
         id="path1715"
         inkscape:connector-curvature="0" />
      <path
         d="m 589.03516,258.08789 q -0.3125,-0.5 -0.8125,-0.6875 -0.5,-0.25 -1,-0.25 -0.9375,0 -1.5,0.875 -0.5,0.875 -0.5,2.3125 0,1.5 0.5,2.25 0.5,0.6875 1.4375,0.6875 0.6875,0 1.125,-0.4375 0.5,-0.4375 0.75,-1.3125 z m -2.0625,5.6875 q -1.125,0 -1.9375,-0.875 -0.8125,-0.9375 -0.8125,-2.6875 0,-1.625 0.875,-2.5625 0.875,-1 2.0625,-1 0.5,0 1,0.25 0.5625,0.1875 0.875,0.625 v -3.375 q 0,-0.375 -0.125,-0.5625 -0.125,-0.1875 -0.4375,-0.1875 h -0.5 v -0.375 h 0.6875 q 0.3125,0 0.625,-0.125 0.3125,-0.125 0.625,-0.375 v 9.875 q 0,0.3125 0.125,0.4375 0.125,0.125 0.375,0.125 h 0.4375 v 0.375 h -0.375 q -0.25,0 -0.625,0.125 -0.3125,0.0625 -0.6875,0.25 h -0.125 v -1.1875 q -0.3125,0.5625 -0.875,0.9375 -0.5,0.3125 -1.1875,0.3125 z"
         style="font-style:normal;font-variant:normal;font-weight:normal;font-stretch:normal;font-size:16px;font-family:SimSun;-inkscape-font-specification:SimSun;fill:#ffffff"
         id="path1717"
         inkscape:connector-curvature="0" />
      <path
         d="m 591.28516,263.96289 q 0,0 0,0 z"
         style="font-style:normal;font-variant:normal;font-weight:normal;font-stretch:normal;font-size:16px;font-family:SimSun;-inkscape-font-specification:SimSun;fill:#ffffff"
         id="path1719"
         inkscape:connector-curvature="0" />
      <path
         d="m 604.59766,263.08789 q 0,0.8125 0.3125,1.25 0.375,0.5 1.1875,0.5 v 0.4375 q -1.0625,0 -1.5625,-0.5625 -0.5,-0.5 -0.5,-1.875 v -2.6875 q 0,-0.75 -0.25,-1.1875 -0.25,-0.5 -1.125,-0.5625 v -0.375 q 0.8125,-0.125 1.0625,-0.5 0.3125,-0.375 0.3125,-1.25 v -2.6875 q 0,-1.375 0.5,-1.875 0.5,-0.5625 1.5625,-0.5625 v 0.4375 q -0.8125,0 -1.1875,0.4375 -0.3125,0.4375 -0.3125,1.3125 v 3.0625 q 0,1 -0.4375,1.375 -0.4375,0.375 -0.9375,0.375 v 0.125 q 0.5625,0 0.9375,0.4375 0.4375,0.4375 0.4375,1.3125 z"
         style="font-style:normal;font-variant:normal;font-weight:normal;font-stretch:normal;font-size:16px;font-family:SimSun;-inkscape-font-specification:SimSun;fill:#ffffff"
         id="path1721"
         inkscape:connector-curvature="0" />
      <path
         d="m 363.91016,308.40039 q -0.8125,0.0625 -1.125,0.5625 -0.25,0.4375 -0.25,1.1875 v 2.6875 q 0,1.375 -0.5,1.875 -0.5,0.5625 -1.5625,0.5625 v -0.4375 q 0.875,0 1.1875,-0.5 0.3125,-0.4375 0.3125,-1.25 v -3.0625 q 0,-0.875 0.375,-1.3125 0.4375,-0.4375 1,-0.4375 v -0.125 q -0.5,0 -0.9375,-0.375 -0.4375,-0.375 -0.4375,-1.375 v -3.0625 q 0,-0.875 -0.3125,-1.3125 -0.3125,-0.4375 -1.1875,-0.4375 v -0.4375 q 1.0625,0 1.5625,0.5625 0.5,0.5 0.5,1.875 v 2.6875 q 0,0.875 0.3125,1.25 0.3125,0.375 1.0625,0.5 z"
         style="font-style:normal;font-variant:normal;font-weight:normal;font-stretch:normal;font-size:16px;font-family:SimSun;-inkscape-font-specification:SimSun;fill:#ffffff"
         id="path1723"
         inkscape:connector-curvature="0" />
    </g>
    <path
       style="fill:#aa8800;stroke:#000000;stroke-width:1.10000002;stroke-linecap:butt;stroke-linejoin:miter;stroke-miterlimit:4;stroke-dasharray:none;stroke-opacity:1"
       d="m 165.43982,241.94249 c 0,0 6.68175,-6.68174 12.29441,-2.6727 5.61266,4.00904 5.87993,5.34539 7.48355,4.81085 1.60362,-0.53454 0.80181,13.89802 -2.13816,14.43256 -2.93996,0.53454 -17.6398,-5.61266 -17.6398,-5.61266 z"
       id="path1609"
       inkscape:connector-curvature="0" />
    <path
       style="fill:none;stroke:#000000;stroke-width:0.26458332px;stroke-linecap:butt;stroke-linejoin:miter;stroke-opacity:1"
       d="m 178.53604,240.0716 c 0,0 3.74177,-10.95805 -18.70887,-5.87993"
       id="path1611"
       inkscape:connector-curvature="0" />
    <path
       style="fill:none;stroke:#000000;stroke-width:0.26458332px;stroke-linecap:butt;stroke-linejoin:miter;stroke-opacity:1"
       d="m 158.7581,261.45316 c 0,0 -1.60362,16.57071 -5.07812,18.4416"
       id="path1613"
       inkscape:connector-curvature="0"
       sodipodi:nodetypes="cc" />
    <path
       style="fill:none;stroke:#ffffff;stroke-width:0.26458332px;stroke-linecap:butt;stroke-linejoin:miter;stroke-opacity:1"
       d="m 33.943229,179.93596 c 4.810852,-2.13816 11.225321,-5.61266 11.225321,-2.93997 0,2.6727 -8.819894,11.22532 -5.078122,11.75986 3.741775,0.53454 10.423512,-4.27631 10.423512,-4.27631"
       id="path1615"
       inkscape:connector-curvature="0" />
    <path
       style="fill:none;stroke:#ffffff;stroke-width:0.26458332px;stroke-linecap:butt;stroke-linejoin:miter;stroke-opacity:1"
       d="m 38.754081,202.92113 c 0,0 8.285356,-8.01808 9.621703,-5.07811 1.336347,2.93996 -2.138156,4.54358 -2.672694,7.75081 -0.53454,3.20723 9.354431,-3.4745 9.888971,-5.61266"
       id="path1617"
       inkscape:connector-curvature="0" />
  </g>
  <g
     inkscape:groupmode="layer"
     id="layer4"
     inkscape:label="Camada 2"
     sodipodi:insensitive="true">
    <rect
       style="opacity:1;fill:#ffffff;fill-opacity:1;stroke:#000000;stroke-width:1;stroke-linecap:round;stroke-miterlimit:4;stroke-dasharray:none;stroke-dashoffset:0;stroke-opacity:1;paint-order:normal"
       id="rect1599"
       width="12.294398"
       height="30.201456"
       x="44.912022"
       y="125.06866"
       ry="5.612659" />
    <ellipse
       style="opacity:1;fill:#ffe6d5;fill-opacity:1;stroke:#000000;stroke-width:1;stroke-linecap:round;stroke-miterlimit:4;stroke-dasharray:none;stroke-dashoffset:0;stroke-opacity:1;paint-order:normal"
       id="path1595"
       cx="89.535286"
       cy="87.923561"
       rx="31.270535"
       ry="29.934185" />
    <path
       style="fill:#ffe6d5;fill-opacity:1;stroke:#000000;stroke-width:1;stroke-linecap:butt;stroke-linejoin:miter;stroke-miterlimit:4;stroke-dasharray:none;stroke-opacity:1"
       d="m 114.65863,113.31418 c 0,0 57.99749,-15.768905 58.79929,-9.08717 0.8018,6.68175 6.1472,12.56167 4.00904,16.30345 -2.13815,3.74177 -61.472,3.99832 -61.472,3.99832 z"
       id="path1603"
       inkscape:connector-curvature="0" />
    <path
       style="fill:url(#linearGradient1743);fill-opacity:1;stroke:#000000;stroke-width:1;stroke-linecap:butt;stroke-linejoin:miter;stroke-miterlimit:4;stroke-dasharray:none;stroke-opacity:1"
       d="m 51.215771,106.77826 c 0,0 -8.663718,0.50499 -3.212793,6.72769 5.450927,6.2227 9.994508,2.21365 11.063586,-0.45904 1.069078,-2.6727 3.180376,3.59077 8.539197,0.45904 5.358818,-3.13174 5.626089,-13.28798 5.626089,-17.02975 0,-3.741775 29.66691,-1.870888 36.08139,1.336347 6.41447,3.207233 5.34539,15.501633 5.34539,15.501633 0,0 16.30343,7.60499 12.29439,0.53454 -4.00904,-7.07046 4.54359,7.75082 7.75082,1.87088 3.20723,-5.87993 -1.06908,-35.546843 -4.00904,-39.288614 -2.93997,-3.741775 -21.38156,-17.907058 -27.79603,-19.510677 -6.414471,-1.603618 -12.82894,-1.603618 -17.639792,-1.603618 -4.81085,0 -28.865108,8.285355 -30.201457,13.630746 -1.336347,5.345392 -7.950772,32.631263 -3.84175,37.830823 z"
       id="path1605"
       inkscape:connector-curvature="0" />
    <path
       style="fill:#ac9393;fill-opacity:1;stroke:#000000;stroke-width:1;stroke-linecap:butt;stroke-linejoin:miter;stroke-miterlimit:4;stroke-dasharray:none;stroke-opacity:1"
       d="m 106.106,105.56336 c 0,0 37.15046,-8.018082 39.02135,-3.20723 1.87089,4.81085 3.74178,26.45968 0.80181,27.52876 -2.93996,1.06908 -38.21954,-2.6727 -39.28862,-9.35443 -1.06908,-6.68174 -0.53454,-14.9671 -0.53454,-14.9671 z"
       id="path1607"
       inkscape:connector-curvature="0" />
    <rect
       ry="5.612659"
       y="124.52878"
       x="115.99496"
       height="30.201456"
       width="12.294398"
       id="rect1601"
       style="opacity:1;fill:#ffffff;fill-opacity:1;stroke:#000000;stroke-width:1;stroke-linecap:round;stroke-miterlimit:4;stroke-dasharray:none;stroke-dashoffset:0;stroke-opacity:1;paint-order:normal" />
    <rect
       style="opacity:1;fill:#ffffff;fill-opacity:1;stroke:#000000;stroke-width:1;stroke-linecap:round;stroke-miterlimit:4;stroke-dasharray:none;stroke-dashoffset:0;stroke-opacity:1;paint-order:normal"
       id="rect1597"
       width="71.72821"
       height="49.833572"
       x="51.215771"
       y="106.77827"
       ry="5.6126599" />
  </g>
</svg>
