<?xml version="1.0" encoding="UTF-8" standalone="no"?>
<!-- Created with Inkscape (http://www.inkscape.org/) -->

<svg
   xmlns:dc="http://purl.org/dc/elements/1.1/"
   xmlns:cc="http://creativecommons.org/ns#"
   xmlns:rdf="http://www.w3.org/1999/02/22-rdf-syntax-ns#"
   xmlns:svg="http://www.w3.org/2000/svg"
   xmlns="http://www.w3.org/2000/svg"
   xmlns:xlink="http://www.w3.org/1999/xlink"
   xmlns:sodipodi="http://sodipodi.sourceforge.net/DTD/sodipodi-0.dtd"
   xmlns:inkscape="http://www.inkscape.org/namespaces/inkscape"
   width="800"
   height="600"
   viewBox="0 0 211.66666 158.75"
   version="1.1"
   id="svg8"
   inkscape:version="0.92.4 (5da689c313, 2019-01-14)"
   sodipodi:docname="luk_multimedia.svg">
  <defs
     id="defs2">
    <linearGradient
       inkscape:collect="always"
       id="linearGradient1841">
      <stop
         style="stop-color:#3d3690;stop-opacity:1"
         offset="0"
         id="stop1837" />
      <stop
         style="stop-color:#00045d;stop-opacity:1"
         offset="1"
         id="stop1839" />
    </linearGradient>
    <linearGradient
       inkscape:collect="always"
       id="linearGradient1237">
      <stop
         style="stop-color:#844114;stop-opacity:1"
         offset="0"
         id="stop1233" />
      <stop
         style="stop-color:#ca9979;stop-opacity:1"
         offset="1"
         id="stop1235" />
    </linearGradient>
    <linearGradient
       inkscape:collect="always"
       xlink:href="#linearGradient1237"
       id="linearGradient1239"
       x1="15.497024"
       y1="139.8512"
       x2="171.6012"
       y2="110.74703"
       gradientUnits="userSpaceOnUse" />
    <linearGradient
       inkscape:collect="always"
       xlink:href="#linearGradient1841"
       id="linearGradient1843"
       x1="-0.53453904"
       y1="65.205664"
       x2="211.67745"
       y2="65.205664"
       gradientUnits="userSpaceOnUse" />
  </defs>
  <sodipodi:namedview
     id="base"
     pagecolor="#ffffff"
     bordercolor="#666666"
     borderopacity="1.0"
     inkscape:pageopacity="0.0"
     inkscape:pageshadow="2"
     inkscape:zoom="0.98994949"
     inkscape:cx="251.94769"
     inkscape:cy="336.57813"
     inkscape:document-units="mm"
     inkscape:current-layer="layer3"
     showgrid="false"
     inkscape:pagecheckerboard="true"
     units="px"
     width="800px"
     inkscape:window-width="1600"
     inkscape:window-height="837"
     inkscape:window-x="-8"
     inkscape:window-y="-8"
     inkscape:window-maximized="1" />
  <metadata
     id="metadata5">
    <rdf:RDF>
      <cc:Work
         rdf:about="">
        <dc:format>image/svg+xml</dc:format>
        <dc:type
           rdf:resource="http://purl.org/dc/dcmitype/StillImage" />
        <dc:title></dc:title>
      </cc:Work>
    </rdf:RDF>
  </metadata>
  <g
     inkscape:groupmode="layer"
     id="layer3"
     inkscape:label="Filme"
     style="display:inline">
    <rect
       style="opacity:1;fill:url(#linearGradient1843);fill-opacity:1;stroke:none;stroke-width:1.05833328;stroke-linecap:round;stroke-miterlimit:4;stroke-dasharray:none;stroke-dashoffset:0;stroke-opacity:1;paint-order:normal"
       id="rect1276"
       width="212.21199"
       height="132.03114"
       x="-0.53453904"
       y="-0.80990797" />
    <path
       sodipodi:type="star"
       style="opacity:1;fill:#ffaacc;fill-opacity:1;stroke:none;stroke-width:1.05833328;stroke-linecap:round;stroke-miterlimit:4;stroke-dasharray:none;stroke-dashoffset:0;stroke-opacity:1;paint-order:normal"
       id="path1845"
       sodipodi:sides="4"
       sodipodi:cx="29.132378"
       sodipodi:cy="31.262438"
       sodipodi:r1="10.142166"
       sodipodi:r2="5.059206"
       sodipodi:arg1="1.2490458"
       sodipodi:arg2="2.0344439"
       inkscape:flatsided="false"
       inkscape:rounded="0.2"
       inkscape:randomized="0"
       d="m 32.339612,40.884142 c -1.418514,0.472838 -4.132392,-4.427919 -5.46978,-5.096613 -1.337388,-0.668694 -6.88632,0.100657 -7.359158,-1.317857 -0.472838,-1.418514 4.427918,-4.132392 5.096612,-5.46978 0.668694,-1.337388 -0.100657,-6.88632 1.317857,-7.359158 1.418514,-0.472838 4.132392,4.427918 5.46978,5.096612 1.337388,0.668694 6.88632,-0.100657 7.359158,1.317858 0.472838,1.418514 -4.427918,4.132392 -5.096612,5.469779 -0.668694,1.337388 0.100657,6.88632 -1.317857,7.359159 z" />
    <path
       sodipodi:type="star"
       style="opacity:1;fill:#e9afdd;fill-opacity:1;stroke:none;stroke-width:1.05833328;stroke-linecap:round;stroke-miterlimit:4;stroke-dasharray:none;stroke-dashoffset:0;stroke-opacity:1;paint-order:normal"
       id="path1847"
       sodipodi:sides="5"
       sodipodi:cx="185.21777"
       sodipodi:cy="83.647263"
       sodipodi:r1="11.762896"
       sodipodi:r2="7.3118873"
       sodipodi:arg1="1.1987286"
       sodipodi:arg2="1.66467"
       inkscape:flatsided="false"
       inkscape:rounded="0.2"
       inkscape:randomized="0"
       d="m 189.49409,94.605313 c -1.06303,0.629234 -3.76675,-3.365251 -4.9617,-3.678357 -1.62837,-0.42667 -7.15176,1.286258 -8.41489,0.173545 -0.92693,-0.81655 2.03656,-4.622306 1.96508,-5.85553 -0.0974,-1.680515 -3.43332,-6.404253 -2.7654,-7.949404 0.49015,-1.133889 5.02541,0.508508 6.17619,0.05944 1.56816,-0.611945 5.02985,-5.244304 6.70577,-5.086547 1.22986,0.115768 1.06932,4.936582 1.85202,5.892266 1.06658,1.302312 6.54194,3.163096 6.90979,4.805746 0.26995,1.205438 -4.36453,2.542467 -5.03157,3.582181 -0.90898,1.416818 -0.98671,7.199203 -2.43529,8.05666 z"
       inkscape:transform-center-x="-0.87197868"
       inkscape:transform-center-y="-0.19943108" />
    <path
       sodipodi:type="star"
       style="opacity:1;fill:none;fill-opacity:1;stroke:#afe9bf;stroke-width:1.05833328;stroke-linecap:round;stroke-miterlimit:4;stroke-dasharray:none;stroke-dashoffset:0;stroke-opacity:1;paint-order:normal"
       id="path1849"
       sodipodi:sides="5"
       sodipodi:cx="24.588797"
       sodipodi:cy="93.803505"
       sodipodi:r1="10.046632"
       sodipodi:r2="5.5457411"
       sodipodi:arg1="0.49934672"
       sodipodi:arg2="1.1276653"
       inkscape:flatsided="false"
       inkscape:rounded="0.12"
       inkscape:randomized="0"
       d="m 33.40869,98.614356 c -0.370351,0.678978 -5.743331,-0.13237 -6.442045,0.199247 -0.698714,0.331617 -3.467552,5.007167 -4.227743,4.864757 -0.760191,-0.14241 -1.648895,-5.503141 -2.180196,-6.065181 -0.531301,-0.562041 -5.833628,-1.750539 -5.9331,-2.517531 -0.09947,-0.766992 4.724258,-3.268756 5.094609,-3.947733 0.370352,-0.678978 -0.137829,-6.089056 0.560885,-6.420674 0.698714,-0.331617 4.568648,3.482936 5.328839,3.625345 0.760191,0.14241 5.748445,-2.012704 6.279746,-1.450664 0.531301,0.562041 -1.900679,5.421329 -1.801207,6.18832 0.09947,0.766992 3.690564,4.845136 3.320212,5.524114 z"
       inkscape:transform-center-x="0.53580339"
       inkscape:transform-center-y="0.3746771" />
    <path
       sodipodi:type="star"
       style="opacity:1;fill:none;fill-opacity:1;stroke:#e9afb2;stroke-width:1.5875;stroke-linecap:round;stroke-miterlimit:4;stroke-dasharray:none;stroke-dashoffset:0;stroke-opacity:1;paint-order:normal"
       id="path1851"
       sodipodi:sides="5"
       sodipodi:cx="182.54509"
       sodipodi:cy="27.253393"
       sodipodi:r1="12.831721"
       sodipodi:r2="7.0831099"
       sodipodi:arg1="1.549966"
       sodipodi:arg2="2.1782845"
       inkscape:flatsided="false"
       inkscape:rounded="0.12"
       inkscape:randomized="0"
       d="m 182.81236,40.082331 c -0.9876,0.02057 -3.49928,-6.449254 -4.31036,-7.013107 -0.81108,-0.563853 -7.75061,-0.664373 -8.07536,-1.597283 -0.32476,-0.932909 5.05226,-5.320937 5.33788,-6.266562 0.28562,-0.945625 -1.76321,-7.576572 -0.97632,-8.173717 0.7869,-0.597145 6.62175,3.160733 7.60936,3.140158 0.9876,-0.02058 6.66088,-4.018206 7.47196,-3.454352 0.81109,0.563853 -0.9598,7.274377 -0.63504,8.207286 0.32475,0.93291 5.87986,5.093185 5.59425,6.03881 -0.28562,0.945626 -7.21494,1.33508 -8.00184,1.932225 -0.78689,0.597144 -3.02693,7.165967 -4.01453,7.186542 z"
       inkscape:transform-center-x="-0.080843712"
       inkscape:transform-center-y="1.1192858" />
  </g>
  <g
     inkscape:groupmode="layer"
     id="layer2"
     inkscape:label="Mesa"
     style="display:inline"
     sodipodi:insensitive="true">
    <path
       style="fill:url(#linearGradient1239);fill-opacity:1;stroke:none;stroke-width:0.26458332px;stroke-linecap:butt;stroke-linejoin:miter;stroke-opacity:1"
       d="m -0.37797618,122.84226 c 0,0 180.29463618,-2.26786 211.66666618,-33.639879 l 0.75595,70.303569 -211.66666381,-1.13393 z"
       id="path1231"
       inkscape:connector-curvature="0" />
    <g
       id="g1254"
       transform="translate(110.91685,108.7787)">
      <rect
         y="22.70981"
         x="-28.865108"
         height="25.390606"
         width="21.916101"
         id="rect1241"
         style="opacity:1;fill:#ffeeaa;fill-opacity:1;stroke:none;stroke-width:1.05833328;stroke-linecap:round;stroke-miterlimit:4;stroke-dasharray:none;stroke-dashoffset:0;stroke-opacity:1;paint-order:normal" />
      <path
         inkscape:connector-curvature="0"
         id="path1243"
         d="m -22.985179,31.529705 c 0.356359,-0.267269 0.670656,-0.602599 1.069078,-0.801809 0.162678,-0.08134 1.362883,0 1.603617,0 0.310356,0 1.130545,-0.102902 1.336348,0 0.112691,0.05635 0.154579,0.210923 0.267269,0.267269 0.159369,0.07968 0.408547,-0.125992 0.534539,0 0.140864,0.140864 0.126406,0.393676 0.26727,0.53454 0.125992,0.125992 0.386285,-0.09884 0.534539,0 0.314495,0.209664 0.463736,0.632772 0.801808,0.801809 0.07968,0.03984 0.182752,-0.02817 0.26727,0 0.188988,0.063 0.345551,0.204272 0.534539,0.267269 0.16449,0.05483 2.409543,0.08772 2.672695,0 0.990797,-0.330266 -0.325788,-0.267269 0.534539,-0.267269"
         style="fill:none;stroke:#959343;stroke-width:0.26458332px;stroke-linecap:butt;stroke-linejoin:miter;stroke-opacity:1" />
      <path
         inkscape:connector-curvature="0"
         id="path1249"
         d="m -20.045214,39.28052 c 0.445449,-0.267269 0.871712,-0.569489 1.336347,-0.801809 0.160515,-0.08026 2.554854,-0.03928 2.672695,0 0.119527,0.03984 0.154579,0.210926 0.26727,0.267271 0.207872,0.103937 1.309889,0 1.603617,0 1.158168,0 2.316336,0 3.474504,0"
         style="fill:none;stroke:#959343;stroke-width:0.26458332px;stroke-linecap:butt;stroke-linejoin:miter;stroke-opacity:1" />
    </g>
    <use
       id="use1256"
       x="0"
       y="0"
       width="100%"
       height="100%"
       inkscape:spray-origin="#g1254"
       xlink:href="#g1254"
       transform="translate(-54.940714,-9.25318)" />
    <use
       id="use1258"
       x="0"
       y="0"
       width="100%"
       height="100%"
       inkscape:spray-origin="#g1254"
       xlink:href="#g1254"
       transform="translate(-25.375536,-13.207044)" />
    <use
       id="use1260"
       x="0"
       y="0"
       width="100%"
       height="100%"
       inkscape:spray-origin="#g1254"
       xlink:href="#g1254"
       transform="translate(97.842207,-26.484021)" />
    <use
       id="use1262"
       x="0"
       y="0"
       width="100%"
       height="100%"
       inkscape:spray-origin="#g1254"
       xlink:href="#g1254"
       transform="translate(46.220447,-19.848852)" />
    <use
       id="use1264"
       x="0"
       y="0"
       width="100%"
       height="100%"
       inkscape:spray-origin="#g1254"
       xlink:href="#g1254"
       transform="translate(36.748147,-14.699637)" />
    <use
       id="use1266"
       x="0"
       y="0"
       width="100%"
       height="100%"
       inkscape:spray-origin="#g1254"
       xlink:href="#g1254"
       transform="translate(30.927797,-2.252455)" />
    <use
       id="use1268"
       x="0"
       y="0"
       width="100%"
       height="100%"
       inkscape:spray-origin="#g1254"
       xlink:href="#g1254"
       transform="translate(77.306107,-20.624992)" />
    <use
       id="use1270"
       x="0"
       y="0"
       width="100%"
       height="100%"
       inkscape:spray-origin="#g1254"
       xlink:href="#g1254"
       transform="translate(94.995287,-8.203245)" />
    <use
       id="use1272"
       x="0"
       y="0"
       width="100%"
       height="100%"
       inkscape:spray-origin="#g1254"
       xlink:href="#g1254"
       transform="translate(-75.356765,-13.489668)" />
  </g>
  <g
     inkscape:label="Luk"
     inkscape:groupmode="layer"
     id="layer1"
     transform="translate(0,-138.25)"
     sodipodi:insensitive="true">
    <path
       style="fill:#999999;fill-opacity:1;stroke:#000000;stroke-width:1.05833328;stroke-linecap:butt;stroke-linejoin:miter;stroke-miterlimit:4;stroke-dasharray:none;stroke-opacity:1"
       d="m 153.54634,282.16654 c 0,0 4.40995,6.41447 2.93997,8.95353 -1.46998,2.53906 -26.99423,2.40543 -27.6624,0.13363 -0.66817,-2.27179 1.60362,-9.48807 3.34087,-9.48807 1.73725,0 16.16981,5.7463 21.38156,0.40091 z"
       id="path1225"
       inkscape:connector-curvature="0" />
    <path
       style="fill:#999999;fill-opacity:1;stroke:#000000;stroke-width:1.05833328;stroke-linecap:butt;stroke-linejoin:miter;stroke-miterlimit:4;stroke-dasharray:none;stroke-opacity:1"
       d="m 87.931674,278.5584 c 0,0 -15.635269,7.08264 -9.354433,8.95353 6.280832,1.87089 42.362219,10.28988 43.965839,4.81085 1.60361,-5.47902 2.27179,-7.88445 2.27179,-7.88445 0,0 -22.18337,1.20271 -27.796034,-4.54358 0,0 -8.285354,-2.13816 -9.087162,-1.33635 z"
       id="path1223"
       inkscape:connector-curvature="0" />
    <path
       style="fill:#495387;fill-opacity:1;stroke:#000000;stroke-width:1.05833328;stroke-linecap:butt;stroke-linejoin:miter;stroke-miterlimit:4;stroke-dasharray:none;stroke-opacity:1"
       d="m 126.95302,266.53127 c 0,0 1.46999,17.77342 0.53454,17.77342 -0.93544,0 31.80508,5.87994 32.33961,-0.53453 0.53455,-6.41447 -1.60361,-20.84703 -2.80632,-21.5152 -1.20272,-0.66817 -17.77343,10.95805 -30.06783,4.27631 z"
       id="path1221"
       inkscape:connector-curvature="0" />
    <path
       style="fill:#495387;fill-opacity:1;stroke:#000000;stroke-width:1.05833328;stroke-linecap:butt;stroke-linejoin:miter;stroke-miterlimit:4;stroke-dasharray:none;stroke-opacity:1"
       d="m 93.811602,258.51319 c 0,0 -11.091685,20.31248 -15.234361,18.97613 -4.14268,-1.33635 48.776689,14.43256 52.117559,7.48355 3.34087,-6.94901 5.61266,-15.90254 4.27631,-17.10525 -1.33635,-1.20271 -40.624968,-8.01808 -41.159508,-9.35443 z"
       id="path1219"
       inkscape:connector-curvature="0" />
    <path
       style="fill:#ffccaa;fill-opacity:1;stroke:#000000;stroke-width:1.05833328;stroke-linecap:butt;stroke-linejoin:miter;stroke-miterlimit:4;stroke-dasharray:none;stroke-opacity:1"
       d="m 88.332579,214.54735 c 0,0 23.920621,11.49259 22.851541,14.83346 -1.06908,3.34087 -24.588795,0.53454 -27.929663,-4.27631 -3.34087,-4.81086 1.737252,-11.09169 5.078122,-10.55715 z"
       id="path1207"
       inkscape:connector-curvature="0" />
    <ellipse
       ry="12.49485"
       rx="12.828938"
       cy="180.80457"
       cx="85.927155"
       id="ellipse1199"
       style="opacity:1;fill:#666666;fill-opacity:1;stroke:#000000;stroke-width:1.05833328;stroke-linecap:round;stroke-miterlimit:4;stroke-dasharray:none;stroke-dashoffset:0;stroke-opacity:1;paint-order:normal" />
    <ellipse
       style="opacity:1;fill:#666666;fill-opacity:1;stroke:#000000;stroke-width:1.05833328;stroke-linecap:round;stroke-miterlimit:4;stroke-dasharray:none;stroke-dashoffset:0;stroke-opacity:1;paint-order:normal"
       id="path1197"
       cx="60.135643"
       cy="181.20547"
       rx="12.828938"
       ry="12.49485" />
    <path
       style="fill:#666666;fill-opacity:1;stroke:#000000;stroke-width:1.05833328;stroke-linecap:butt;stroke-linejoin:miter;stroke-miterlimit:4;stroke-dasharray:none;stroke-opacity:1"
       d="M 48.910324,192.36398 H 37.150463 l -14.432554,-11.35896 0.400905,28.99875 14.004788,-7.48355 12.053991,-0.26727 z"
       id="path1195"
       inkscape:connector-curvature="0"
       sodipodi:nodetypes="ccccccc" />
    <path
       style="fill:#b3645f;fill-opacity:1;stroke:#000000;stroke-width:1.05833328;stroke-linecap:butt;stroke-linejoin:miter;stroke-miterlimit:4;stroke-dasharray:none;stroke-opacity:1"
       d="m 106.90782,213.87918 c 0,0 -26.192422,48.37579 -11.22533,52.11756 14.9671,3.74177 64.14469,9.6217 64.9465,0.53454 0.80181,-9.08717 -6.1472,-50.78121 -12.56167,-53.18664 -6.41447,-2.40542 -25.65787,8.81989 -41.1595,0.53454 z"
       id="path1185"
       inkscape:connector-curvature="0" />
    <ellipse
       style="opacity:1;fill:#ffccaa;fill-opacity:1;stroke:#000000;stroke-width:1;stroke-linecap:round;stroke-miterlimit:4;stroke-dasharray:none;stroke-dashoffset:0;stroke-opacity:1;paint-order:normal"
       id="path1181"
       cx="129.45683"
       cy="198.72618"
       rx="33.450893"
       ry="32.127975" />
    <ellipse
       style="opacity:1;fill:#000000;fill-opacity:1;stroke:#000000;stroke-width:1.05833328;stroke-linecap:round;stroke-miterlimit:4;stroke-dasharray:none;stroke-dashoffset:0;stroke-opacity:1;paint-order:normal"
       id="path1189"
       cx="107.70962"
       cy="193.83395"
       rx="4.8108511"
       ry="6.9490075" />
    <ellipse
       style="opacity:1;fill:#ffffff;fill-opacity:1;stroke:none;stroke-width:1.05833328;stroke-linecap:round;stroke-miterlimit:4;stroke-dasharray:none;stroke-dashoffset:0;stroke-opacity:1;paint-order:normal"
       id="path1191"
       cx="106.5069"
       cy="194.10123"
       rx="1.7372519"
       ry="2.6726952" />
    <ellipse
       style="opacity:1;fill:#e6e6e6;fill-opacity:0.58291458;stroke:#000000;stroke-width:1.05833328;stroke-linecap:round;stroke-miterlimit:4;stroke-dasharray:none;stroke-dashoffset:0;stroke-opacity:1;paint-order:normal"
       id="path1217"
       cx="106.5069"
       cy="193.96759"
       rx="12.160764"
       ry="8.8198938" />
    <rect
       style="opacity:1;fill:#666666;fill-opacity:1;stroke:#000000;stroke-width:1.05833328;stroke-linecap:round;stroke-miterlimit:4;stroke-dasharray:none;stroke-dashoffset:0;stroke-opacity:1;paint-order:normal"
       id="rect1209"
       width="4.8108511"
       height="8.8198938"
       x="96.756943"
       y="191.18279" />
    <rect
       style="opacity:1;fill:#666666;fill-opacity:1;stroke:#000000;stroke-width:1.05833328;stroke-linecap:round;stroke-miterlimit:4;stroke-dasharray:none;stroke-dashoffset:0;stroke-opacity:1;paint-order:normal"
       id="rect1193"
       width="55.191154"
       height="30.335091"
       x="44.767651"
       y="189.0231" />
    <path
       style="fill:none;stroke:#000000;stroke-width:1.05833328;stroke-linecap:butt;stroke-linejoin:miter;stroke-miterlimit:4;stroke-dasharray:none;stroke-opacity:1"
       d="m 109.44688,215.8837 c -0.21101,0.52752 9.41029,0.39487 8.68625,-5.87993"
       id="path1201"
       inkscape:connector-curvature="0"
       sodipodi:nodetypes="cc" />
    <path
       style="fill:#ffccaa;fill-opacity:1;stroke:#000000;stroke-width:3.99999976;stroke-linecap:butt;stroke-linejoin:miter;stroke-miterlimit:4;stroke-dasharray:none;stroke-opacity:1"
       d="m 241.22852,236.41016 c -5.02179,0.22197 4.74414,35.29101 4.74414,35.29101 0,0 -10.60628,-16.16331 -16.16211,-20.70898 -5.55583,-4.54572 2.52539,29.79883 2.52539,29.79883 0,0 -4.54691,-9.09105 -14.64844,-13.63672 -10.10152,-4.54568 1.00977,31.82031 1.00977,31.82031 2.76974,4.3085 7.91602,6.34587 14.4375,6.73437 6.5e-4,4e-5 0.001,-3e-5 0.002,0 26.66271,33.09459 169.81142,159.2062 237.59375,129.63672 l 16.16211,-49.49804 c -14.00897,1.84327 -198.29149,-73.66063 -174.25,-109.09571 2.34172,-3.45149 2.74241,-5.83843 1.67187,-7.36328 4.90259,-13.54447 -25.65331,-24.05989 -29.95703,-25.97265 -4.54568,-2.02031 -7.07031,17.17187 -7.07031,17.17187 0,0 -12.12229,-12.62696 -16.66797,-17.67773 -4.54569,-5.05078 2.02148,22.72851 2.02148,22.72851 0,0 -12.62697,-23.73829 -20.20312,-28.78906 -0.47351,-0.31567 -0.8742,-0.45425 -1.20898,-0.43945 z"
       transform="matrix(0.26458333,0,0,0.26458333,0,138.25)"
       id="path1203"
       inkscape:connector-curvature="0" />
    <path
       style="fill:#b3645f;fill-opacity:1;stroke:#000000;stroke-width:1.05833328;stroke-linecap:butt;stroke-linejoin:miter;stroke-miterlimit:4;stroke-dasharray:none;stroke-opacity:1"
       d="m 127.88847,256.77593 c -5.61266,6.1472 -29.66692,-4.67721 -31.537807,-5.74629 -1.870887,-1.06908 7.617177,-25.12334 7.617177,-25.12334 0,0 20.31249,13.36348 26.45969,8.55263"
       id="path1205"
       inkscape:connector-curvature="0" />
    <path
       style="fill:#000000;stroke:#000000;stroke-width:0.26458332px;stroke-linecap:butt;stroke-linejoin:miter;stroke-opacity:1"
       d="m 101.96332,176.59508 c 0,0 1.46999,6.41447 -0.53454,7.08264 -2.004516,0.66817 7.61719,-2.13816 7.61719,-4.40995 0,-2.27179 2.93996,4.94449 1.33634,5.7463 -1.60361,0.80181 8.41899,-0.80181 9.08717,-3.60814 0.66817,-2.80633 9.75534,14.69982 8.15172,16.57071 -1.60362,1.87089 -4.14268,5.07812 -2.40543,5.74629 1.73725,0.66818 9.08716,-1.46998 8.95353,-5.34539 -0.13363,-3.8754 11.75986,-3.20723 13.49711,0.80181 1.73725,4.00905 9.2208,15.368 12.02713,13.89802 2.80633,-1.46999 3.34087,-3.47451 3.34087,-3.47451 0,0 3.20723,-7.75081 2.00452,-11.62622 -1.20271,-3.87541 1.87089,-17.63979 -5.61266,-21.78247 -7.48355,-4.14268 -20.71339,-13.63074 -30.86963,-11.75986 -10.15624,1.87089 -28.33057,-4.67721 -29.533281,-1.20271 -1.202714,3.4745 5.479031,8.28536 4.944481,8.81989 -0.53453,0.53454 -2.67269,3.60814 -2.00452,4.54359 z"
       id="path1211"
       inkscape:connector-curvature="0" />
    <path
       style="fill:#d38d5f;fill-opacity:1;stroke:#000000;stroke-width:1.05833328;stroke-linecap:butt;stroke-linejoin:miter;stroke-miterlimit:4;stroke-dasharray:none;stroke-opacity:1"
       d="m 114.79226,157.88621 c 0,0 -7.48355,11.62622 -0.80181,12.96257 6.68174,1.33635 45.03491,22.31701 46.37126,34.6114 1.33635,12.2944 14.03165,3.47451 14.56619,1.73725 0.53454,-1.73725 4.81085,-21.11429 -4.54358,-28.99874 -9.35444,-7.88445 -19.91158,-6.1472 -19.91158,-6.1472 0,0 -21.11429,-24.18789 -35.68048,-14.16528 z"
       id="path1213"
       inkscape:connector-curvature="0"
       sodipodi:nodetypes="csscscc" />
    <ellipse
       style="opacity:1;fill:#d38d5f;fill-opacity:1;stroke:#000000;stroke-width:1.05833328;stroke-linecap:round;stroke-miterlimit:4;stroke-dasharray:none;stroke-dashoffset:0;stroke-opacity:1;paint-order:normal"
       id="path1215"
       cx="153.67998"
       cy="167.57474"
       rx="7.8844509"
       ry="7.6839986" />
  </g>
</svg>
