<?xml version="1.0" encoding="UTF-8" standalone="no"?>
<!-- Created with Inkscape (http://www.inkscape.org/) -->

<svg
   xmlns:dc="http://purl.org/dc/elements/1.1/"
   xmlns:cc="http://creativecommons.org/ns#"
   xmlns:rdf="http://www.w3.org/1999/02/22-rdf-syntax-ns#"
   xmlns:svg="http://www.w3.org/2000/svg"
   xmlns="http://www.w3.org/2000/svg"
   xmlns:sodipodi="http://sodipodi.sourceforge.net/DTD/sodipodi-0.dtd"
   xmlns:inkscape="http://www.inkscape.org/namespaces/inkscape"
   width="420"
   height="250"
   viewBox="0 0 111.125 66.145835"
   version="1.1"
   id="svg8"
   inkscape:version="0.92.3 (2405546, 2018-03-11)"
   sodipodi:docname="btnDesign.svg">
  <defs
     id="defs2" />
  <sodipodi:namedview
     id="base"
     pagecolor="#ffffff"
     bordercolor="#666666"
     borderopacity="1.0"
     inkscape:pageopacity="0.0"
     inkscape:pageshadow="2"
     inkscape:zoom="2.32"
     inkscape:cx="273.33356"
     inkscape:cy="111.72414"
     inkscape:document-units="mm"
     inkscape:current-layer="layer1"
     showgrid="false"
     units="px"
     inkscape:pagecheckerboard="true"
     width="280px"
     showguides="true"
     inkscape:window-width="1600"
     inkscape:window-height="842"
     inkscape:window-x="0"
     inkscape:window-y="0"
     inkscape:window-maximized="1" />
  <metadata
     id="metadata5">
    <rdf:RDF>
      <cc:Work
         rdf:about="">
        <dc:format>image/svg+xml</dc:format>
        <dc:type
           rdf:resource="http://purl.org/dc/dcmitype/StillImage" />
        <dc:title></dc:title>
      </cc:Work>
    </rdf:RDF>
  </metadata>
  <g
     inkscape:label="Camada 1"
     inkscape:groupmode="layer"
     id="layer1"
     transform="translate(0,-230.85417)">
    <path
       style="fill:#c92c61;fill-opacity:1;stroke:none;stroke-width:2;stroke-linecap:round;stroke-linejoin:round;stroke-miterlimit:4;stroke-dasharray:none;stroke-opacity:1"
       id="path817"
       sodipodi:type="arc"
       sodipodi:cx="24.633619"
       sodipodi:cy="256.40018"
       sodipodi:rx="14.825789"
       sodipodi:ry="14.597701"
       sodipodi:start="3.1711411"
       sodipodi:end="3.1428144"
       sodipodi:open="true"
       d="M 9.8143017,255.9689 A 14.825789,14.597701 0 0 1 24.966679,241.80616 14.825789,14.597701 0 0 1 39.457654,256.62476 14.825789,14.597701 0 0 1 24.510516,270.99737 14.825789,14.597701 0 0 1 9.8078409,256.38234" />
    <path
       style="fill:#c92c61;fill-opacity:1;stroke:none;stroke-width:2;stroke-linecap:round;stroke-linejoin:round;stroke-miterlimit:4;stroke-dasharray:none;stroke-opacity:1"
       id="path819"
       sodipodi:type="arc"
       sodipodi:cx="33.757179"
       sodipodi:cy="270.31357"
       sodipodi:rx="10.948276"
       sodipodi:ry="10.035919"
       sodipodi:start="3.1711411"
       sodipodi:end="3.1428144"
       sodipodi:open="true"
       d="m 22.813683,270.01707 a 10.948276,10.035919 0 0 1 11.189448,-9.73689 10.948276,10.035919 0 0 1 10.701028,10.18779 10.948276,10.035919 0 0 1 -11.037887,9.88117 10.948276,10.035919 0 0 1 -10.85736,-10.04783" />
    <path
       style="fill:#c92c61;fill-opacity:1;stroke:none;stroke-width:2;stroke-linecap:round;stroke-linejoin:round;stroke-miterlimit:4;stroke-dasharray:none;stroke-opacity:1"
       id="path821"
       sodipodi:type="arc"
       sodipodi:cx="18.133081"
       sodipodi:cy="274.1911"
       sodipodi:rx="9.6937857"
       sodipodi:ry="7.9831176"
       sodipodi:start="3.1711411"
       sodipodi:end="3.1428144"
       sodipodi:open="true"
       d="m 8.4435273,273.95525 a 9.6937857,7.9831176 0 0 1 9.9073237,-7.74525 9.6937857,7.9831176 0 0 1 9.474869,8.10392 9.6937857,7.9831176 0 0 1 -9.773129,7.86002 9.6937857,7.9831176 0 0 1 -9.613288,-7.99259" />
    <path
       style="fill:#c92c61;fill-opacity:1;stroke:none;stroke-width:2;stroke-linecap:round;stroke-linejoin:round;stroke-miterlimit:4;stroke-dasharray:none;stroke-opacity:1"
       id="path823"
       sodipodi:type="arc"
       sodipodi:cx="49.837463"
       sodipodi:cy="256.85632"
       sodipodi:rx="12.430855"
       sodipodi:ry="12.544899"
       sodipodi:start="3.1711411"
       sodipodi:end="3.1428144"
       sodipodi:open="true"
       d="M 37.412035,256.48569 A 12.430855,12.544899 0 0 1 50.116721,244.31459 12.430855,12.544899 0 0 1 62.266847,257.04932 12.430855,12.544899 0 0 1 49.734246,269.40079 12.430855,12.544899 0 0 1 37.406618,256.841" />
    <path
       style="fill:#c92c61;fill-opacity:1;stroke:none;stroke-width:2;stroke-linecap:round;stroke-linejoin:round;stroke-miterlimit:4;stroke-dasharray:none;stroke-opacity:1"
       id="path825"
       sodipodi:type="arc"
       sodipodi:cx="45.731861"
       sodipodi:cy="270.54166"
       sodipodi:rx="17.904993"
       sodipodi:ry="14.825789"
       sodipodi:start="3.1711411"
       sodipodi:end="3.1428144"
       sodipodi:open="true"
       d="M 27.834684,270.10364 A 17.904993,14.825789 0 0 1 46.134095,255.71961 17.904993,14.825789 0 0 1 63.634735,270.76974 17.904993,14.825789 0 0 1 45.58319,285.36693 17.904993,14.825789 0 0 1 27.826881,270.52354" />
    <path
       style="fill:#c92c61;fill-opacity:1;stroke:none;stroke-width:2;stroke-linecap:round;stroke-linejoin:round;stroke-miterlimit:4;stroke-dasharray:none;stroke-opacity:1"
       id="path827"
       sodipodi:type="arc"
       sodipodi:cx="63.978989"
       sodipodi:cy="263.12878"
       sodipodi:rx="10.606142"
       sodipodi:ry="10.149963"
       sodipodi:start="3.1711411"
       sodipodi:end="3.1428144"
       sodipodi:open="true"
       d="m 53.377476,262.82891 a 10.606142,10.149963 0 0 1 10.839778,-9.84753 10.606142,10.149963 0 0 1 10.366621,10.30356 10.606142,10.149963 0 0 1 -10.692953,9.99346 10.606142,10.149963 0 0 1 -10.518067,-10.16202" />
    <path
       style="fill:#c92c61;fill-opacity:1;stroke:none;stroke-width:2;stroke-linecap:round;stroke-linejoin:round;stroke-miterlimit:4;stroke-dasharray:none;stroke-opacity:1"
       id="path829"
       sodipodi:type="arc"
       sodipodi:cx="72.304237"
       sodipodi:cy="252.40858"
       sodipodi:rx="9.3516521"
       sodipodi:ry="9.237607"
       sodipodi:start="3.1711411"
       sodipodi:end="3.1428144"
       sodipodi:open="true"
       d="m 62.956667,252.13567 a 9.3516521,9.237607 0 0 1 9.557654,-8.96236 9.3516521,9.237607 0 0 1 9.140462,9.37739 9.3516521,9.237607 0 0 1 -9.428195,9.09517 9.3516521,9.237607 0 0 1 -9.273996,-9.24857" />
    <path
       style="fill:#c92c61;fill-opacity:1;stroke:none;stroke-width:2;stroke-linecap:round;stroke-linejoin:round;stroke-miterlimit:4;stroke-dasharray:none;stroke-opacity:1"
       id="path831"
       sodipodi:type="arc"
       sodipodi:cx="72.988503"
       sodipodi:cy="268.60291"
       sodipodi:rx="10.492098"
       sodipodi:ry="9.921875"
       sodipodi:start="3.1711411"
       sodipodi:end="3.1428144"
       sodipodi:open="true"
       d="m 62.500985,268.30977 a 10.492098,9.921875 0 0 1 10.723221,-9.62624 10.492098,9.921875 0 0 1 10.255153,10.07202 10.492098,9.921875 0 0 1 -10.577976,9.76889 10.492098,9.921875 0 0 1 -10.404971,-9.93366" />
    <path
       style="fill:#c92c61;fill-opacity:1;stroke:none;stroke-width:2;stroke-linecap:round;stroke-linejoin:round;stroke-miterlimit:4;stroke-dasharray:none;stroke-opacity:1"
       id="path833"
       sodipodi:type="arc"
       sodipodi:cx="63.978989"
       sodipodi:cy="279.43713"
       sodipodi:rx="7.8690729"
       sodipodi:ry="8.6673851"
       sodipodi:start="3.1711411"
       sodipodi:end="3.1428144"
       sodipodi:open="true"
       d="m 56.113351,279.18106 a 7.8690729,8.6673851 0 0 1 8.042415,-8.40912 7.8690729,8.6673851 0 0 1 7.691364,8.79854 7.8690729,8.6673851 0 0 1 -7.933481,8.53374 7.8690729,8.6673851 0 0 1 -7.803727,-8.67768" />
    <path
       style="fill:#c92c61;fill-opacity:1;stroke:none;stroke-width:2;stroke-linecap:round;stroke-linejoin:round;stroke-miterlimit:4;stroke-dasharray:none;stroke-opacity:1"
       id="path835"
       sodipodi:type="arc"
       sodipodi:cx="85.761497"
       sodipodi:cy="257.88272"
       sodipodi:rx="7.9831176"
       sodipodi:ry="9.0095186"
       sodipodi:start="3.1711411"
       sodipodi:end="3.1428144"
       sodipodi:open="true"
       d="m 77.781865,257.61654 a 7.9831176,9.0095186 0 0 1 8.158972,-8.74106 7.9831176,9.0095186 0 0 1 7.802833,9.14585 7.9831176,9.0095186 0 0 1 -8.048459,8.8706 7.9831176,9.0095186 0 0 1 -7.916825,-9.02022" />
    <path
       style="fill:#c92c61;fill-opacity:1;stroke:none;stroke-width:2;stroke-linecap:round;stroke-linejoin:round;stroke-miterlimit:4;stroke-dasharray:none;stroke-opacity:1"
       id="path837"
       sodipodi:type="arc"
       sodipodi:cx="87.24408"
       sodipodi:cy="247.8468"
       sodipodi:rx="9.921875"
       sodipodi:ry="9.6937857"
       sodipodi:start="3.1711411"
       sodipodi:end="3.1428144"
       sodipodi:open="true"
       d="m 77.326536,247.56041 a 9.921875,9.6937857 0 0 1 10.140437,-9.40495 9.921875,9.6937857 0 0 1 9.697807,9.84048 9.921875,9.6937857 0 0 1 -10.003085,9.54431 9.921875,9.6937857 0 0 1 -9.839483,-9.70529" />
    <path
       style="fill:#c92c61;fill-opacity:1;stroke:none;stroke-width:2;stroke-linecap:round;stroke-linejoin:round;stroke-miterlimit:4;stroke-dasharray:none;stroke-opacity:1"
       id="path839"
       sodipodi:type="arc"
       sodipodi:cx="89.068787"
       sodipodi:cy="267.91864"
       sodipodi:rx="7.4128947"
       sodipodi:ry="6.956717"
       sodipodi:start="3.1711411"
       sodipodi:end="3.1428144"
       sodipodi:open="true"
       d="m 81.659128,267.71311 a 7.4128947,6.956717 0 0 1 7.576188,-6.74943 7.4128947,6.956717 0 0 1 7.245488,7.06199 7.4128947,6.956717 0 0 1 -7.473569,6.84945 7.4128947,6.956717 0 0 1 -7.351338,-6.96498" />
    <path
       style="fill:#c92c61;fill-opacity:1;stroke:none;stroke-width:2;stroke-linecap:round;stroke-linejoin:round;stroke-miterlimit:4;stroke-dasharray:none;stroke-opacity:1"
       id="path841"
       sodipodi:type="arc"
       sodipodi:cx="98.990662"
       sodipodi:cy="286.73599"
       sodipodi:rx="4.5617814"
       sodipodi:ry="2.965158"
       sodipodi:start="3.1711411"
       sodipodi:end="3.1428144"
       sodipodi:open="true"
       d="m 94.430872,286.64839 a 4.5617814,2.965158 0 0 1 4.662269,-2.87681 4.5617814,2.965158 0 0 1 4.458759,3.01003 4.5617814,2.965158 0 0 1 -4.599116,2.91944 4.5617814,2.965158 0 0 1 -4.5239,-2.96868" />
    <path
       style="fill:#c92c61;fill-opacity:1;stroke:none;stroke-width:2;stroke-linecap:round;stroke-linejoin:round;stroke-miterlimit:4;stroke-dasharray:none;stroke-opacity:1"
       id="path843"
       sodipodi:type="arc"
       sodipodi:cx="21.09824"
       sodipodi:cy="290.72754"
       sodipodi:rx="3.3072915"
       sodipodi:ry="2.1668463"
       sodipodi:start="3.1711411"
       sodipodi:end="3.1428144"
       sodipodi:open="true"
       d="m 17.792392,290.66352 a 3.3072915,2.1668463 0 0 1 3.380146,-2.10228 3.3072915,2.1668463 0 0 1 3.232602,2.19963 3.3072915,2.1668463 0 0 1 -3.334362,2.13344 3.3072915,2.1668463 0 0 1 -3.279827,-2.16942" />
    <path
       style="fill:#c92c61;fill-opacity:1;stroke:none;stroke-width:2;stroke-linecap:round;stroke-linejoin:round;stroke-miterlimit:4;stroke-dasharray:none;stroke-opacity:1"
       id="path845"
       sodipodi:type="arc"
       sodipodi:cx="80.401398"
       sodipodi:cy="276.35794"
       sodipodi:rx="8.3252516"
       sodipodi:ry="8.5533409"
       sodipodi:start="3.1711411"
       sodipodi:end="3.1428144"
       sodipodi:open="true"
       d="m 72.07978,276.10524 a 8.3252516,8.5533409 0 0 1 8.508643,-8.29848 8.3252516,8.5533409 0 0 1 8.137241,8.68277 8.3252516,8.5533409 0 0 1 -8.393394,8.42146 8.3252516,8.5533409 0 0 1 -8.256118,-8.5635" />
    <path
       style="fill:none;fill-opacity:1;stroke:#c92c61;stroke-width:2;stroke-linecap:round;stroke-linejoin:round;stroke-miterlimit:4;stroke-dasharray:none;stroke-opacity:1"
       id="path847"
       sodipodi:type="arc"
       sodipodi:cx="15.396012"
       sodipodi:cy="244.53952"
       sodipodi:rx="11.290409"
       sodipodi:ry="11.290409"
       sodipodi:start="3.1711411"
       sodipodi:end="3.1428144"
       sodipodi:open="true"
       d="M 4.1105317,244.20595 A 11.290409,11.290409 0 0 1 15.64965,233.25196 11.290409,11.290409 0 0 1 26.685085,244.71322 11.290409,11.290409 0 0 1 15.302264,255.82954 11.290409,11.290409 0 0 1 4.1056116,244.52573" />
    <path
       style="fill:none;fill-opacity:1;stroke:#c92c61;stroke-width:2;stroke-linecap:round;stroke-linejoin:round;stroke-miterlimit:4;stroke-dasharray:none;stroke-opacity:1"
       id="path849"
       sodipodi:type="arc"
       sodipodi:cx="15.33899"
       sodipodi:cy="244.76761"
       sodipodi:rx="6.4435167"
       sodipodi:ry="6.2724495"
       sodipodi:start="3.1711411"
       sodipodi:end="3.1428144"
       sodipodi:open="true"
       d="m 8.8982862,244.58229 a 6.4435167,6.2724495 0 0 1 6.5854568,-6.08555 6.4435167,6.2724495 0 0 1 6.298001,6.36737 6.4435167,6.2724495 0 0 1 -6.496256,6.17573 6.4435167,6.2724495 0 0 1 -6.3900097,-6.27989" />
    <path
       style="fill:none;stroke:#c92c61;stroke-width:1;stroke-linecap:butt;stroke-linejoin:miter;stroke-opacity:1;stroke-miterlimit:4;stroke-dasharray:none"
       d="m 4.9039152,248.87321 c 2.1668462,0 4.7898706,-0.34214 4.7898706,-0.34214 l -0.7983077,-3.77112 -4.7849464,-0.554 2.846185,-7.07933 4.2196483,3.42134 4.105603,-2.05281 1.368535,-5.36009 6.728627,3.0792 -3.763469,4.90392 2.851113,4.78987 4.333692,-1.25449"
       id="path851"
       inkscape:connector-curvature="0" />
    <path
       style="fill:#c92c61;fill-opacity:1;stroke:#c92c61;stroke-width:1;stroke-linecap:round;stroke-linejoin:round;stroke-miterlimit:4;stroke-dasharray:none;stroke-opacity:1"
       id="path853"
       sodipodi:type="arc"
       sodipodi:cx="13.115122"
       sodipodi:cy="242.42969"
       sodipodi:rx="1.9387572"
       sodipodi:ry="1.8817328"
       sodipodi:start="3.1711411"
       sodipodi:end="3.1428144"
       sodipodi:open="true"
       d="m 11.177211,242.37409 a 1.9387572,1.8817328 0 0 1 1.981465,-1.82566 1.9387572,1.8817328 0 0 1 1.894974,1.91021 1.9387572,1.8817328 0 0 1 -1.954626,1.85272 1.9387572,1.8817328 0 0 1 -1.922658,-1.88397" />
    <path
       style="fill:#c92c61;fill-opacity:1;stroke:#c92c61;stroke-width:1;stroke-linecap:round;stroke-linejoin:round;stroke-miterlimit:4;stroke-dasharray:none;stroke-opacity:1"
       id="path855"
       sodipodi:type="arc"
       sodipodi:cx="16.422413"
       sodipodi:cy="245.39485"
       sodipodi:rx="2.3949354"
       sodipodi:ry="1.7676904"
       sodipodi:start="3.1711411"
       sodipodi:end="3.1428144"
       sodipodi:open="true"
       d="m 14.028523,245.34263 a 2.3949354,1.7676904 0 0 1 2.447692,-1.71502 2.3949354,1.7676904 0 0 1 2.34085,1.79444 2.3949354,1.7676904 0 0 1 -2.414538,1.74043 2.3949354,1.7676904 0 0 1 -2.375048,-1.76979" />
    <path
       style="fill:#c92c61;stroke:none;stroke-width:0.26458332px;stroke-linecap:butt;stroke-linejoin:miter;stroke-opacity:1;fill-opacity:0.72516555"
       d="m 90.437318,255.14566 14.597702,-15.51006 5.01796,14.82579 -21.212285,4.21965"
       id="path857"
       inkscape:connector-curvature="0" />
    <g
       aria-label="Design e "
       transform="matrix(0.26458333,0,0,0.26458333,-6.5005388,229.71372)"
       style="font-style:normal;font-weight:normal;font-size:40px;line-height:1.25;font-family:sans-serif;letter-spacing:0px;word-spacing:-32.22999954px;fill:#780029;fill-opacity:1;stroke:none"
       id="flowRoot861">
      <path
         d="m 163.41078,124.51859 q 0.44,0.04 1.16,0.08 0.72,0 1.96,0 5.08,0 7.56,-2.56 2.52,-2.6 2.52,-7.24 0,-4.72 -2.44,-7.24 -2.44,-2.52 -7.56,-2.52 -2.24,0 -3.2,0.12 z m 18.48,-9.72 q 0,3.6 -1.12,6.28 -1.12,2.64 -3.2,4.44 -2.04,1.76 -4.96,2.64 -2.88,0.84 -6.4,0.84 -1.68,0 -3.8,-0.16 -2.12,-0.12 -4.04,-0.56 v -26.92 q 1.92,-0.44 4.08,-0.56 2.16,-0.12 3.84,-0.12 3.48,0 6.36,0.84 2.88,0.8 4.92,2.56 2.08,1.72 3.2,4.4 1.12,2.64 1.12,6.32 z"
         style="font-style:normal;font-variant:normal;font-weight:500;font-stretch:normal;font-family:Ubuntu;-inkscape-font-specification:'Ubuntu Medium';text-align:center;word-spacing:0px;text-anchor:middle;fill:#780029;fill-opacity:1"
         id="path1009" />
      <path
         d="m 186.03328,118.31859 q 0,-2.76 0.8,-4.84 0.84,-2.08 2.2,-3.44 1.36,-1.4 3.12,-2.08 1.76,-0.72 3.6,-0.72 4.32,0 6.72,2.68 2.44,2.68 2.44,8 0,0.4 -0.04,0.92 0,0.48 -0.04,0.88 h -13.8 q 0.2,2.52 1.76,3.92 1.6,1.36 4.6,1.36 1.76,0 3.2,-0.32 1.48,-0.32 2.32,-0.68 l 0.64,3.96 q -0.4,0.2 -1.12,0.44 -0.68,0.2 -1.6,0.36 -0.88,0.2 -1.92,0.32 -1.04,0.12 -2.12,0.12 -2.76,0 -4.8,-0.8 -2.04,-0.84 -3.36,-2.28 -1.32,-1.48 -1.96,-3.44 -0.64,-2 -0.64,-4.36 z m 14.04,-2.16 q 0,-1 -0.28,-1.88 -0.28,-0.92 -0.84,-1.56 -0.52,-0.68 -1.32,-1.04 -0.76,-0.4 -1.84,-0.4 -1.12,0 -1.96,0.44 -0.84,0.4 -1.44,1.08 -0.56,0.68 -0.88,1.56 -0.32,0.88 -0.44,1.8 z"
         style="font-style:normal;font-variant:normal;font-weight:500;font-stretch:normal;font-family:Ubuntu;-inkscape-font-specification:'Ubuntu Medium';text-align:center;word-spacing:0px;text-anchor:middle;fill:#780029;fill-opacity:1"
         id="path1011" />
      <path
         d="m 215.24578,125.19859 q 1.92,0 2.8,-0.44 0.88,-0.48 0.88,-1.6 0,-1.04 -0.96,-1.72 -0.92,-0.68 -3.08,-1.48 -1.32,-0.48 -2.44,-1 -1.08,-0.56 -1.88,-1.28 -0.8,-0.72 -1.28,-1.72 -0.44,-1.04 -0.44,-2.52 0,-2.88 2.12,-4.52 2.12,-1.68 5.76,-1.68 1.84,0 3.52,0.36 1.68,0.32 2.52,0.64 l -0.88,3.92 q -0.8,-0.36 -2.04,-0.64 -1.24,-0.32 -2.88,-0.32 -1.48,0 -2.4,0.52 -0.92,0.48 -0.92,1.52 0,0.52 0.16,0.92 0.2,0.4 0.64,0.76 0.44,0.32 1.16,0.68 0.72,0.32 1.76,0.68 1.72,0.64 2.92,1.28 1.2,0.6 1.96,1.4 0.8,0.76 1.16,1.76 0.36,1 0.36,2.4 0,3 -2.24,4.56 -2.2,1.52 -6.32,1.52 -2.76,0 -4.44,-0.48 -1.68,-0.44 -2.36,-0.72 l 0.84,-4.04 q 1.08,0.44 2.56,0.84 1.52,0.4 3.44,0.4 z"
         style="font-style:normal;font-variant:normal;font-weight:500;font-stretch:normal;font-family:Ubuntu;-inkscape-font-specification:'Ubuntu Medium';text-align:center;word-spacing:0px;text-anchor:middle;fill:#780029;fill-opacity:1"
         id="path1013" />
      <path
         d="m 233.16703,128.67859 h -4.84 v -20.92 h 4.84 z m 0.52,-27.04 q 0,1.36 -0.88,2.16 -0.88,0.8 -2.08,0.8 -1.24,0 -2.12,-0.8 -0.88,-0.8 -0.88,-2.16 0,-1.4 0.88,-2.199996 0.88,-0.8 2.12,-0.8 1.2,0 2.08,0.8 0.88,0.799996 0.88,2.199996 z"
         style="font-style:normal;font-variant:normal;font-weight:500;font-stretch:normal;font-family:Ubuntu;-inkscape-font-specification:'Ubuntu Medium';text-align:center;word-spacing:0px;text-anchor:middle;fill:#780029;fill-opacity:1"
         id="path1015" />
      <path
         d="m 243.10266,117.67859 q 0,3.08 1.32,4.52 1.36,1.4 3.48,1.4 1.16,0 2.16,-0.32 1.04,-0.32 1.68,-0.76 v -10.84 q -0.52,-0.12 -1.28,-0.2 -0.76,-0.12 -1.92,-0.12 -2.64,0 -4.04,1.76 -1.4,1.72 -1.4,4.56 z m 13.48,8.88 q 0,5 -2.56,7.32 -2.52,2.32 -7.76,2.32 -1.92,0 -3.76,-0.32 -1.8,-0.32 -3.28,-0.84 l 0.88,-4.12 q 1.24,0.52 2.8,0.84 1.6,0.32 3.44,0.32 2.92,0 4.16,-1.2 1.24,-1.2 1.24,-3.56 v -0.8 q -0.72,0.36 -1.92,0.72 -1.16,0.36 -2.68,0.36 -2,0 -3.68,-0.64 -1.64,-0.64 -2.84,-1.88 -1.16,-1.24 -1.84,-3.08 -0.64,-1.88 -0.64,-4.32 0,-2.28 0.68,-4.2 0.72,-1.92 2.04,-3.28 1.36,-1.36 3.28,-2.12 1.92,-0.76 4.36,-0.76 2.36,0 4.48,0.36 2.12,0.36 3.6,0.76 z"
         style="font-style:normal;font-variant:normal;font-weight:500;font-stretch:normal;font-family:Ubuntu;-inkscape-font-specification:'Ubuntu Medium';text-align:center;word-spacing:0px;text-anchor:middle;fill:#780029;fill-opacity:1"
         id="path1017" />
      <path
         d="m 262.74016,108.43859 q 1.4,-0.4 3.64,-0.76 2.24,-0.36 4.96,-0.36 2.56,0 4.28,0.72 1.72,0.68 2.72,1.96 1.04,1.24 1.44,3.04 0.44,1.76 0.44,3.88 v 11.76 h -4.84 v -11 q 0,-1.68 -0.24,-2.84 -0.2,-1.2 -0.72,-1.92 -0.48,-0.76 -1.36,-1.08 -0.84,-0.36 -2.08,-0.36 -0.92,0 -1.92,0.12 -1,0.12 -1.48,0.2 v 16.88 h -4.84 z"
         style="font-style:normal;font-variant:normal;font-weight:500;font-stretch:normal;font-family:Ubuntu;-inkscape-font-specification:'Ubuntu Medium';text-align:center;word-spacing:0px;text-anchor:middle;fill:#780029;fill-opacity:1"
         id="path1019" />
      <path
         d="m 294.31453,118.31859 q 0,-2.76 0.8,-4.84 0.84,-2.08 2.2,-3.44 1.36,-1.4 3.12,-2.08 1.76,-0.72 3.6,-0.72 4.32,0 6.72,2.68 2.44,2.68 2.44,8 0,0.4 -0.04,0.92 0,0.48 -0.04,0.88 h -13.8 q 0.2,2.52 1.76,3.92 1.6,1.36 4.6,1.36 1.76,0 3.2,-0.32 1.48,-0.32 2.32,-0.68 l 0.64,3.96 q -0.4,0.2 -1.12,0.44 -0.68,0.2 -1.6,0.36 -0.88,0.2 -1.92,0.32 -1.04,0.12 -2.12,0.12 -2.76,0 -4.8,-0.8 -2.04,-0.84 -3.36,-2.28 -1.32,-1.48 -1.96,-3.44 -0.64,-2 -0.64,-4.36 z m 14.04,-2.16 q 0,-1 -0.28,-1.88 -0.28,-0.92 -0.84,-1.56 -0.52,-0.68 -1.32,-1.04 -0.76,-0.4 -1.84,-0.4 -1.12,0 -1.96,0.44 -0.84,0.4 -1.44,1.08 -0.56,0.68 -0.88,1.56 -0.32,0.88 -0.44,1.8 z"
         style="font-style:normal;font-variant:normal;font-weight:500;font-stretch:normal;font-family:Ubuntu;-inkscape-font-specification:'Ubuntu Medium';text-align:center;word-spacing:0px;text-anchor:middle;fill:#780029;fill-opacity:1"
         id="path1021" />
    </g>
    <g
       aria-label="Produção Audiovisual"
       transform="matrix(0.26458333,0,0,0.26458333,-23.076942,237.42187)"
       style="font-style:normal;font-weight:normal;font-size:40px;line-height:1.25;font-family:sans-serif;letter-spacing:0px;word-spacing:-32.22999954px;fill:#780029;fill-opacity:1;stroke:none"
       id="flowRoot861-3">
      <path
         d="m 172.74208,108.10286 q 4.02666,0 6.16,1.46667 2.16,1.46667 2.16,4.58667 0,1.62666 -0.58667,2.8 -0.56,1.14666 -1.65333,1.89333 -1.09334,0.72 -2.66667,1.06667 -1.57333,0.34666 -3.6,0.34666 h -1.68 v 6.50667 h -3.36 V 108.5562 q 1.17333,-0.26667 2.58667,-0.34667 1.44,-0.10667 2.64,-0.10667 z m 0.24,2.90667 q -1.28,0 -2.10667,0.08 v 6.29333 h 1.62667 q 2.42666,0 3.73333,-0.66666 1.30667,-0.69334 1.30667,-2.58667 0,-0.90667 -0.34667,-1.52 -0.34667,-0.61333 -0.96,-0.96 -0.61333,-0.34667 -1.46667,-0.48 -0.82666,-0.16 -1.78666,-0.16 z"
         style="font-size:26.66666794px;fill:#780029;fill-opacity:1"
         id="path1024" />
      <path
         d="m 191.91666,115.72953 q -0.4,-0.13333 -1.12,-0.26667 -0.69333,-0.16 -1.62667,-0.16 -0.53333,0 -1.14666,0.10667 -0.58667,0.10667 -0.82667,0.18667 v 11.17333 h -3.22667 v -13.28 q 0.93334,-0.34667 2.32,-0.64 1.41334,-0.32 3.12,-0.32 0.32,0 0.74667,0.0533 0.42667,0.0267 0.85333,0.10667 0.42667,0.0533 0.82667,0.16 0.4,0.08 0.64,0.16 z"
         style="font-size:26.66666794px;fill:#780029;fill-opacity:1"
         id="path1026" />
      <path
         d="m 207.31249,119.78286 q 0,1.65334 -0.48,3.01334 -0.48,1.36 -1.36,2.32 -0.88,0.96 -2.13333,1.49333 -1.22667,0.53333 -2.72,0.53333 -1.49333,0 -2.72,-0.53333 -1.22667,-0.53333 -2.10667,-1.49333 -0.88,-0.96 -1.38666,-2.32 -0.48,-1.36 -0.48,-3.01334 0,-1.65333 0.48,-2.98666 0.50666,-1.36 1.38666,-2.32 0.90667,-0.96 2.13334,-1.46667 1.22666,-0.53333 2.69333,-0.53333 1.46667,0 2.69333,0.53333 1.25334,0.50667 2.13334,1.46667 0.88,0.96 1.36,2.32 0.50666,1.33333 0.50666,2.98666 z m -3.30666,0 q 0,-2.08 -0.90667,-3.28 -0.88,-1.22666 -2.48,-1.22666 -1.6,0 -2.50667,1.22666 -0.88,1.2 -0.88,3.28 0,2.10667 0.88,3.33334 0.90667,1.22666 2.50667,1.22666 1.6,0 2.48,-1.22666 0.90667,-1.22667 0.90667,-3.33334 z"
         style="font-size:26.66666794px;fill:#780029;fill-opacity:1"
         id="path1028" />
      <path
         d="m 213.16999,119.7562 q 0,2.13333 1.01334,3.36 1.01333,1.2 2.8,1.2 0.77333,0 1.30666,-0.0533 0.56,-0.08 0.90667,-0.16 v -8 q -0.42667,-0.29333 -1.14667,-0.53333 -0.69333,-0.26667 -1.49333,-0.26667 -1.76,0 -2.58667,1.2 -0.8,1.2 -0.8,3.25334 z m 9.25334,6.58666 q -0.96,0.29334 -2.42667,0.53334 -1.44,0.24 -3.04,0.24 -1.65333,0 -2.96,-0.50667 -1.30667,-0.50667 -2.24,-1.44 -0.90667,-0.96 -1.41333,-2.29333 -0.48,-1.36 -0.48,-3.04 0,-1.65334 0.4,-2.98667 0.42666,-1.36 1.22666,-2.32 0.8,-0.96 1.94667,-1.46667 1.14667,-0.53333 2.64,-0.53333 1.01333,0 1.78667,0.24 0.77333,0.24 1.33333,0.53333 v -6.69333 l 3.22667,-0.53333 z"
         style="font-size:26.66666794px;fill:#780029;fill-opacity:1"
         id="path1030" />
      <path
         d="m 237.96208,126.34286 q -0.93333,0.24 -2.42667,0.48 -1.49333,0.26667 -3.28,0.26667 -1.68,0 -2.82666,-0.48 -1.12,-0.48 -1.81334,-1.33333 -0.66666,-0.85334 -0.96,-2.02667 -0.29333,-1.2 -0.29333,-2.61333 v -7.81334 h 3.22667 v 7.30667 q 0,2.24 0.64,3.2 0.66666,0.96 2.29333,0.96 0.58667,0 1.22667,-0.0533 0.66666,-0.0533 0.98666,-0.13334 v -11.28 h 3.22667 z"
         style="font-size:26.66666794px;fill:#780029;fill-opacity:1"
         id="path1032" />
      <path
         d="m 248.495,127.80953 q 0.85333,0.4 1.17333,0.90667 0.34667,0.50666 0.34667,1.25333 0,0.93333 -0.8,1.6 -0.8,0.66667 -2.4,0.66667 -1.28,0 -2.26667,-0.34667 l 0.37333,-1.92 q 0.26667,0.08 0.69334,0.18667 0.42666,0.10666 0.88,0.10666 0.45333,0 0.69333,-0.16 0.26667,-0.16 0.26667,-0.48 0,-0.42666 -0.37334,-0.64 -0.37333,-0.18666 -0.74666,-0.32 l -0.26667,-0.08 q 0.10667,-0.34666 0.29333,-0.8 0.18667,-0.42666 0.37334,-0.8 -1.38667,-0.24 -2.4,-0.85333 -1.01334,-0.61333 -1.68,-1.54667 -0.66667,-0.96 -1.01334,-2.16 -0.32,-1.2 -0.32,-2.61333 0,-1.54667 0.48,-2.88 0.48,-1.36 1.36,-2.34667 0.90667,-0.98666 2.18667,-1.54666 1.28,-0.56 2.88,-0.56 1.97333,0 3.73333,0.72 l -0.69333,2.64 q -0.56,-0.24 -1.28,-0.4 -0.69333,-0.16 -1.49333,-0.16 -1.89334,0 -2.88,1.2 -0.98667,1.17333 -0.98667,3.33333 0,2.08 0.93333,3.30667 0.93334,1.2 3.14667,1.2 0.82667,0 1.62667,-0.16 0.8,-0.16 1.38666,-0.4 l 0.45334,2.66666 q -0.48,0.24 -1.41334,0.42667 -0.93333,0.18667 -1.94666,0.24 -0.10667,0.21333 -0.18667,0.4 -0.08,0.18667 -0.13333,0.32 z"
         style="font-size:26.66666794px;fill:#780029;fill-opacity:1"
         id="path1034" />
      <path
         d="m 259.60583,124.50286 q 1.49333,0 2.26666,-0.16 v -3.57333 q -0.26666,-0.08 -0.77333,-0.16 -0.50667,-0.08 -1.12,-0.08 -0.53333,0 -1.09333,0.08 -0.53334,0.08 -0.98667,0.29333 -0.42667,0.21334 -0.69333,0.61334 -0.26667,0.37333 -0.26667,0.96 0,1.14666 0.72,1.6 0.72,0.42666 1.94667,0.42666 z m -0.26667,-12.02666 q 1.6,0 2.69333,0.4 1.09334,0.4 1.73334,1.12 0.66666,0.72 0.93333,1.76 0.29333,1.01333 0.29333,2.24 v 8.45333 q -0.74666,0.16 -2.26666,0.37333 -1.49334,0.24 -3.38667,0.24 -1.25333,0 -2.29333,-0.24 -1.04,-0.24 -1.78667,-0.77333 -0.72,-0.53333 -1.14667,-1.38667 -0.4,-0.85333 -0.4,-2.10666 0,-1.2 0.45334,-2.02667 0.48,-0.82667 1.28,-1.33333 0.8,-0.53334 1.84,-0.74667 1.06666,-0.24 2.21333,-0.24 0.53333,0 1.12,0.08 0.58667,0.0533 1.25333,0.21333 v -0.53333 q 0,-0.56 -0.13333,-1.06667 -0.13333,-0.50666 -0.48,-0.88 -0.32,-0.4 -0.88,-0.61333 -0.53333,-0.21333 -1.36,-0.21333 -1.12,0 -2.05333,0.16 -0.93334,0.16 -1.52,0.37333 l -0.4,-2.61333 q 0.61333,-0.21334 1.78666,-0.42667 1.17334,-0.21333 2.50667,-0.21333 z m 5.14667,-4.64 q -0.16,0.37333 -0.42667,0.82666 -0.24,0.42667 -0.61333,0.82667 -0.37334,0.37333 -0.85334,0.64 -0.48,0.26667 -1.06666,0.26667 -0.48,0 -0.90667,-0.13334 -0.42667,-0.16 -0.85333,-0.34666 -0.4,-0.18667 -0.8,-0.32 -0.37334,-0.16 -0.74667,-0.16 -0.50667,0 -0.88,0.34666 -0.34667,0.34667 -0.56,0.8 l -1.62667,-0.96 q 0.13334,-0.37333 0.37334,-0.8 0.26666,-0.45333 0.64,-0.82666 0.4,-0.4 0.88,-0.66667 0.48,-0.26667 1.06666,-0.26667 0.48,0 0.90667,0.16 0.42667,0.16 0.82667,0.34667 0.42666,0.16 0.8,0.32 0.4,0.16 0.77333,0.16 0.50667,0 0.85333,-0.34667 0.37334,-0.37333 0.58667,-0.82666 z"
         style="font-size:26.66666794px;fill:#780029;fill-opacity:1"
         id="path1036" />
      <path
         d="m 281.53124,119.78286 q 0,1.65334 -0.48,3.01334 -0.48,1.36 -1.36,2.32 -0.88,0.96 -2.13333,1.49333 -1.22667,0.53333 -2.72,0.53333 -1.49333,0 -2.72,-0.53333 -1.22667,-0.53333 -2.10667,-1.49333 -0.88,-0.96 -1.38666,-2.32 -0.48,-1.36 -0.48,-3.01334 0,-1.65333 0.48,-2.98666 0.50666,-1.36 1.38666,-2.32 0.90667,-0.96 2.13334,-1.46667 1.22666,-0.53333 2.69333,-0.53333 1.46667,0 2.69333,0.53333 1.25334,0.50667 2.13334,1.46667 0.88,0.96 1.36,2.32 0.50666,1.33333 0.50666,2.98666 z m -3.30666,0 q 0,-2.08 -0.90667,-3.28 -0.88,-1.22666 -2.48,-1.22666 -1.6,0 -2.50667,1.22666 -0.88,1.2 -0.88,3.28 0,2.10667 0.88,3.33334 0.90667,1.22666 2.50667,1.22666 1.6,0 2.48,-1.22666 0.90667,-1.22667 0.90667,-3.33334 z"
         style="font-size:26.66666794px;fill:#780029;fill-opacity:1"
         id="path1038" />
      <path
         d="m 303.48,126.76953 q -0.37333,-1.09333 -0.77333,-2.16 -0.4,-1.06667 -0.77334,-2.18667 h -7.78666 q -0.37334,1.12 -0.77334,2.21334 -0.37333,1.06666 -0.74666,2.13333 h -3.49334 q 1.04,-2.96 1.97334,-5.46667 0.93333,-2.50666 1.81333,-4.74666 0.90667,-2.24 1.78667,-4.26667 0.88,-2.02667 1.81333,-4 h 3.17333 q 0.93334,1.97333 1.81334,4 0.88,2.02667 1.76,4.26667 0.90666,2.24 1.84,4.74666 0.96,2.50667 2,5.46667 z m -5.44,-14.90667 q -0.61333,1.41334 -1.41333,3.44 -0.77334,2.02667 -1.62667,4.4 h 6.08 q -0.85333,-2.37333 -1.65333,-4.42666 -0.8,-2.05334 -1.38667,-3.41334 z"
         style="font-size:26.66666794px;fill:#780029;fill-opacity:1"
         id="path1040" />
      <path
         d="m 320.35791,126.34286 q -0.93333,0.24 -2.42667,0.48 -1.49333,0.26667 -3.28,0.26667 -1.68,0 -2.82666,-0.48 -1.12,-0.48 -1.81334,-1.33333 -0.66666,-0.85334 -0.96,-2.02667 -0.29333,-1.2 -0.29333,-2.61333 v -7.81334 h 3.22667 v 7.30667 q 0,2.24 0.64,3.2 0.66666,0.96 2.29333,0.96 0.58667,0 1.22667,-0.0533 0.66666,-0.0533 0.98666,-0.13334 v -11.28 h 3.22667 z"
         style="font-size:26.66666794px;fill:#780029;fill-opacity:1"
         id="path1042" />
      <path
         d="m 327.02417,119.7562 q 0,2.13333 1.01333,3.36 1.01333,1.2 2.8,1.2 0.77333,0 1.30667,-0.0533 0.56,-0.08 0.90666,-0.16 v -8 q -0.42666,-0.29333 -1.14666,-0.53333 -0.69334,-0.26667 -1.49334,-0.26667 -1.76,0 -2.58666,1.2 -0.8,1.2 -0.8,3.25334 z m 9.25333,6.58666 q -0.96,0.29334 -2.42667,0.53334 -1.44,0.24 -3.04,0.24 -1.65333,0 -2.96,-0.50667 -1.30666,-0.50667 -2.24,-1.44 -0.90666,-0.96 -1.41333,-2.29333 -0.48,-1.36 -0.48,-3.04 0,-1.65334 0.4,-2.98667 0.42667,-1.36 1.22667,-2.32 0.8,-0.96 1.94666,-1.46667 1.14667,-0.53333 2.64,-0.53333 1.01334,0 1.78667,0.24 0.77333,0.24 1.33333,0.53333 v -6.69333 l 3.22667,-0.53333 z"
         style="font-size:26.66666794px;fill:#780029;fill-opacity:1"
         id="path1044" />
      <path
         d="m 343.62959,126.76953 h -3.22667 v -13.94667 h 3.22667 z m 0.34666,-18.02667 q 0,0.90667 -0.58666,1.44 -0.58667,0.53334 -1.38667,0.53334 -0.82667,0 -1.41333,-0.53334 -0.58667,-0.53333 -0.58667,-1.44 0,-0.93333 0.58667,-1.46666 0.58666,-0.53334 1.41333,-0.53334 0.8,0 1.38667,0.53334 0.58666,0.53333 0.58666,1.46666 z"
         style="font-size:26.66666794px;fill:#780029;fill-opacity:1"
         id="path1046" />
      <path
         d="m 360.33334,119.78286 q 0,1.65334 -0.48,3.01334 -0.48,1.36 -1.36,2.32 -0.88,0.96 -2.13334,1.49333 -1.22666,0.53333 -2.72,0.53333 -1.49333,0 -2.72,-0.53333 -1.22666,-0.53333 -2.10666,-1.49333 -0.88,-0.96 -1.38667,-2.32 -0.48,-1.36 -0.48,-3.01334 0,-1.65333 0.48,-2.98666 0.50667,-1.36 1.38667,-2.32 0.90666,-0.96 2.13333,-1.46667 1.22667,-0.53333 2.69333,-0.53333 1.46667,0 2.69334,0.53333 1.25333,0.50667 2.13333,1.46667 0.88,0.96 1.36,2.32 0.50667,1.33333 0.50667,2.98666 z m -3.30667,0 q 0,-2.08 -0.90667,-3.28 -0.88,-1.22666 -2.48,-1.22666 -1.6,0 -2.50666,1.22666 -0.88,1.2 -0.88,3.28 0,2.10667 0.88,3.33334 0.90666,1.22666 2.50666,1.22666 1.6,0 2.48,-1.22666 0.90667,-1.22667 0.90667,-3.33334 z"
         style="font-size:26.66666794px;fill:#780029;fill-opacity:1"
         id="path1048" />
      <path
         d="m 366.91834,126.76953 q -1.33334,-2.74667 -2.74667,-6.29333 -1.38667,-3.57334 -2.53333,-7.65334 h 3.44 q 0.29333,1.17334 0.66666,2.53334 0.4,1.33333 0.82667,2.69333 0.45333,1.33333 0.90667,2.61333 0.48,1.25334 0.88,2.26667 0.4,-1.01333 0.85333,-2.26667 0.45333,-1.28 0.88,-2.61333 0.45333,-1.36 0.85333,-2.69333 0.4,-1.36 0.69334,-2.53334 h 3.33333 q -1.14667,4.08 -2.56,7.65334 -1.38667,3.54666 -2.72,6.29333 z"
         style="font-size:26.66666794px;fill:#780029;fill-opacity:1"
         id="path1050" />
      <path
         d="m 380.60876,126.76953 h -3.22667 v -13.94667 h 3.22667 z m 0.34667,-18.02667 q 0,0.90667 -0.58667,1.44 -0.58667,0.53334 -1.38667,0.53334 -0.82666,0 -1.41333,-0.53334 -0.58667,-0.53333 -0.58667,-1.44 0,-0.93333 0.58667,-1.46666 0.58667,-0.53334 1.41333,-0.53334 0.8,0 1.38667,0.53334 0.58667,0.53333 0.58667,1.46666 z"
         style="font-size:26.66666794px;fill:#780029;fill-opacity:1"
         id="path1052" />
      <path
         d="m 388.19251,124.44953 q 1.28,0 1.86667,-0.29333 0.58666,-0.32 0.58666,-1.06667 0,-0.69333 -0.64,-1.14667 -0.61333,-0.45333 -2.05333,-0.98666 -0.88,-0.32 -1.62667,-0.66667 -0.72,-0.37333 -1.25333,-0.85333 -0.53333,-0.48 -0.85333,-1.14667 -0.29334,-0.69333 -0.29334,-1.68 0,-1.92 1.41334,-3.01333 1.41333,-1.12 3.84,-1.12 1.22666,0 2.34666,0.24 1.12,0.21333 1.68,0.42666 l -0.58666,2.61334 q -0.53334,-0.24 -1.36,-0.42667 -0.82667,-0.21333 -1.92,-0.21333 -0.98667,0 -1.6,0.34666 -0.61334,0.32 -0.61334,1.01334 0,0.34666 0.10667,0.61333 0.13333,0.26667 0.42667,0.50667 0.29333,0.21333 0.77333,0.45333 0.48,0.21333 1.17333,0.45333 1.14667,0.42667 1.94667,0.85334 0.8,0.4 1.30667,0.93333 0.53333,0.50667 0.77333,1.17333 0.24,0.66667 0.24,1.6 0,2 -1.49333,3.04 -1.46667,1.01334 -4.21334,1.01334 -1.84,0 -2.96,-0.32 -1.12,-0.29334 -1.57333,-0.48 l 0.56,-2.69334 q 0.72,0.29334 1.70667,0.56 1.01333,0.26667 2.29333,0.26667 z"
         style="font-size:26.66666794px;fill:#780029;fill-opacity:1"
         id="path1054" />
      <path
         d="m 408.32668,126.34286 q -0.93334,0.24 -2.42667,0.48 -1.49333,0.26667 -3.28,0.26667 -1.68,0 -2.82667,-0.48 -1.12,-0.48 -1.81333,-1.33333 -0.66667,-0.85334 -0.96,-2.02667 -0.29333,-1.2 -0.29333,-2.61333 v -7.81334 h 3.22666 v 7.30667 q 0,2.24 0.64,3.2 0.66667,0.96 2.29334,0.96 0.58666,0 1.22666,-0.0533 0.66667,-0.0533 0.98667,-0.13334 v -11.28 h 3.22667 z"
         style="font-size:26.66666794px;fill:#780029;fill-opacity:1"
         id="path1056" />
      <path
         d="m 417.36625,124.50286 q 1.49333,0 2.26667,-0.16 v -3.57333 q -0.26667,-0.08 -0.77334,-0.16 -0.50666,-0.08 -1.12,-0.08 -0.53333,0 -1.09333,0.08 -0.53333,0.08 -0.98667,0.29333 -0.42666,0.21334 -0.69333,0.61334 -0.26667,0.37333 -0.26667,0.96 0,1.14666 0.72,1.6 0.72,0.42666 1.94667,0.42666 z m -0.26667,-12.02666 q 1.6,0 2.69334,0.4 1.09333,0.4 1.73333,1.12 0.66667,0.72 0.93333,1.76 0.29334,1.01333 0.29334,2.24 v 8.45333 q -0.74667,0.16 -2.26667,0.37333 -1.49333,0.24 -3.38667,0.24 -1.25333,0 -2.29333,-0.24 -1.04,-0.24 -1.78667,-0.77333 -0.72,-0.53333 -1.14666,-1.38667 -0.4,-0.85333 -0.4,-2.10666 0,-1.2 0.45333,-2.02667 0.48,-0.82667 1.28,-1.33333 0.8,-0.53334 1.84,-0.74667 1.06667,-0.24 2.21333,-0.24 0.53334,0 1.12,0.08 0.58667,0.0533 1.25334,0.21333 v -0.53333 q 0,-0.56 -0.13334,-1.06667 -0.13333,-0.50666 -0.48,-0.88 -0.32,-0.4 -0.88,-0.61333 -0.53333,-0.21333 -1.36,-0.21333 -1.12,0 -2.05333,0.16 -0.93333,0.16 -1.52,0.37333 l -0.4,-2.61333 q 0.61333,-0.21334 1.78667,-0.42667 1.17333,-0.21333 2.50666,-0.21333 z"
         style="font-size:26.66666794px;fill:#780029;fill-opacity:1"
         id="path1058" />
      <path
         d="m 431.53168,127.0362 q -1.44,-0.0267 -2.4,-0.32 -0.93333,-0.29334 -1.49333,-0.82667 -0.56,-0.56 -0.8,-1.36 -0.21334,-0.82667 -0.21334,-1.86667 v -16.05333 l 3.22667,-0.53333 v 15.97333 q 0,0.58667 0.08,0.98667 0.10667,0.4 0.34667,0.69333 0.24,0.26667 0.64,0.42667 0.42666,0.13333 1.06666,0.21333 z"
         style="font-size:26.66666794px;fill:#780029;fill-opacity:1"
         id="path1060" />
    </g>
    <g
       aria-label="Design e "
       transform="matrix(0.26458333,0,0,0.26458333,-5.8242808,228.84593)"
       style="font-style:normal;font-weight:normal;font-size:40px;line-height:1.25;font-family:sans-serif;letter-spacing:0px;word-spacing:-32.22999954px;fill:#ffffff;fill-opacity:1;stroke:none"
       id="flowRoot861-6">
      <path
         d="m 163.41078,124.51859 q 0.44,0.04 1.16,0.08 0.72,0 1.96,0 5.08,0 7.56,-2.56 2.52,-2.6 2.52,-7.24 0,-4.72 -2.44,-7.24 -2.44,-2.52 -7.56,-2.52 -2.24,0 -3.2,0.12 z m 18.48,-9.72 q 0,3.6 -1.12,6.28 -1.12,2.64 -3.2,4.44 -2.04,1.76 -4.96,2.64 -2.88,0.84 -6.4,0.84 -1.68,0 -3.8,-0.16 -2.12,-0.12 -4.04,-0.56 v -26.92 q 1.92,-0.44 4.08,-0.56 2.16,-0.12 3.84,-0.12 3.48,0 6.36,0.84 2.88,0.8 4.92,2.56 2.08,1.72 3.2,4.4 1.12,2.64 1.12,6.32 z"
         style="font-style:normal;font-variant:normal;font-weight:500;font-stretch:normal;font-family:Ubuntu;-inkscape-font-specification:'Ubuntu Medium';text-align:center;word-spacing:0px;text-anchor:middle"
         id="path994" />
      <path
         d="m 186.03328,118.31859 q 0,-2.76 0.8,-4.84 0.84,-2.08 2.2,-3.44 1.36,-1.4 3.12,-2.08 1.76,-0.72 3.6,-0.72 4.32,0 6.72,2.68 2.44,2.68 2.44,8 0,0.4 -0.04,0.92 0,0.48 -0.04,0.88 h -13.8 q 0.2,2.52 1.76,3.92 1.6,1.36 4.6,1.36 1.76,0 3.2,-0.32 1.48,-0.32 2.32,-0.68 l 0.64,3.96 q -0.4,0.2 -1.12,0.44 -0.68,0.2 -1.6,0.36 -0.88,0.2 -1.92,0.32 -1.04,0.12 -2.12,0.12 -2.76,0 -4.8,-0.8 -2.04,-0.84 -3.36,-2.28 -1.32,-1.48 -1.96,-3.44 -0.64,-2 -0.64,-4.36 z m 14.04,-2.16 q 0,-1 -0.28,-1.88 -0.28,-0.92 -0.84,-1.56 -0.52,-0.68 -1.32,-1.04 -0.76,-0.4 -1.84,-0.4 -1.12,0 -1.96,0.44 -0.84,0.4 -1.44,1.08 -0.56,0.68 -0.88,1.56 -0.32,0.88 -0.44,1.8 z"
         style="font-style:normal;font-variant:normal;font-weight:500;font-stretch:normal;font-family:Ubuntu;-inkscape-font-specification:'Ubuntu Medium';text-align:center;word-spacing:0px;text-anchor:middle"
         id="path996" />
      <path
         d="m 215.24578,125.19859 q 1.92,0 2.8,-0.44 0.88,-0.48 0.88,-1.6 0,-1.04 -0.96,-1.72 -0.92,-0.68 -3.08,-1.48 -1.32,-0.48 -2.44,-1 -1.08,-0.56 -1.88,-1.28 -0.8,-0.72 -1.28,-1.72 -0.44,-1.04 -0.44,-2.52 0,-2.88 2.12,-4.52 2.12,-1.68 5.76,-1.68 1.84,0 3.52,0.36 1.68,0.32 2.52,0.64 l -0.88,3.92 q -0.8,-0.36 -2.04,-0.64 -1.24,-0.32 -2.88,-0.32 -1.48,0 -2.4,0.52 -0.92,0.48 -0.92,1.52 0,0.52 0.16,0.92 0.2,0.4 0.64,0.76 0.44,0.32 1.16,0.68 0.72,0.32 1.76,0.68 1.72,0.64 2.92,1.28 1.2,0.6 1.96,1.4 0.8,0.76 1.16,1.76 0.36,1 0.36,2.4 0,3 -2.24,4.56 -2.2,1.52 -6.32,1.52 -2.76,0 -4.44,-0.48 -1.68,-0.44 -2.36,-0.72 l 0.84,-4.04 q 1.08,0.44 2.56,0.84 1.52,0.4 3.44,0.4 z"
         style="font-style:normal;font-variant:normal;font-weight:500;font-stretch:normal;font-family:Ubuntu;-inkscape-font-specification:'Ubuntu Medium';text-align:center;word-spacing:0px;text-anchor:middle"
         id="path998" />
      <path
         d="m 233.16703,128.67859 h -4.84 v -20.92 h 4.84 z m 0.52,-27.04 q 0,1.36 -0.88,2.16 -0.88,0.8 -2.08,0.8 -1.24,0 -2.12,-0.8 -0.88,-0.8 -0.88,-2.16 0,-1.4 0.88,-2.199996 0.88,-0.8 2.12,-0.8 1.2,0 2.08,0.8 0.88,0.799996 0.88,2.199996 z"
         style="font-style:normal;font-variant:normal;font-weight:500;font-stretch:normal;font-family:Ubuntu;-inkscape-font-specification:'Ubuntu Medium';text-align:center;word-spacing:0px;text-anchor:middle"
         id="path1000" />
      <path
         d="m 243.10266,117.67859 q 0,3.08 1.32,4.52 1.36,1.4 3.48,1.4 1.16,0 2.16,-0.32 1.04,-0.32 1.68,-0.76 v -10.84 q -0.52,-0.12 -1.28,-0.2 -0.76,-0.12 -1.92,-0.12 -2.64,0 -4.04,1.76 -1.4,1.72 -1.4,4.56 z m 13.48,8.88 q 0,5 -2.56,7.32 -2.52,2.32 -7.76,2.32 -1.92,0 -3.76,-0.32 -1.8,-0.32 -3.28,-0.84 l 0.88,-4.12 q 1.24,0.52 2.8,0.84 1.6,0.32 3.44,0.32 2.92,0 4.16,-1.2 1.24,-1.2 1.24,-3.56 v -0.8 q -0.72,0.36 -1.92,0.72 -1.16,0.36 -2.68,0.36 -2,0 -3.68,-0.64 -1.64,-0.64 -2.84,-1.88 -1.16,-1.24 -1.84,-3.08 -0.64,-1.88 -0.64,-4.32 0,-2.28 0.68,-4.2 0.72,-1.92 2.04,-3.28 1.36,-1.36 3.28,-2.12 1.92,-0.76 4.36,-0.76 2.36,0 4.48,0.36 2.12,0.36 3.6,0.76 z"
         style="font-style:normal;font-variant:normal;font-weight:500;font-stretch:normal;font-family:Ubuntu;-inkscape-font-specification:'Ubuntu Medium';text-align:center;word-spacing:0px;text-anchor:middle"
         id="path1002" />
      <path
         d="m 262.74016,108.43859 q 1.4,-0.4 3.64,-0.76 2.24,-0.36 4.96,-0.36 2.56,0 4.28,0.72 1.72,0.68 2.72,1.96 1.04,1.24 1.44,3.04 0.44,1.76 0.44,3.88 v 11.76 h -4.84 v -11 q 0,-1.68 -0.24,-2.84 -0.2,-1.2 -0.72,-1.92 -0.48,-0.76 -1.36,-1.08 -0.84,-0.36 -2.08,-0.36 -0.92,0 -1.92,0.12 -1,0.12 -1.48,0.2 v 16.88 h -4.84 z"
         style="font-style:normal;font-variant:normal;font-weight:500;font-stretch:normal;font-family:Ubuntu;-inkscape-font-specification:'Ubuntu Medium';text-align:center;word-spacing:0px;text-anchor:middle"
         id="path1004" />
      <path
         d="m 294.31453,118.31859 q 0,-2.76 0.8,-4.84 0.84,-2.08 2.2,-3.44 1.36,-1.4 3.12,-2.08 1.76,-0.72 3.6,-0.72 4.32,0 6.72,2.68 2.44,2.68 2.44,8 0,0.4 -0.04,0.92 0,0.48 -0.04,0.88 h -13.8 q 0.2,2.52 1.76,3.92 1.6,1.36 4.6,1.36 1.76,0 3.2,-0.32 1.48,-0.32 2.32,-0.68 l 0.64,3.96 q -0.4,0.2 -1.12,0.44 -0.68,0.2 -1.6,0.36 -0.88,0.2 -1.92,0.32 -1.04,0.12 -2.12,0.12 -2.76,0 -4.8,-0.8 -2.04,-0.84 -3.36,-2.28 -1.32,-1.48 -1.96,-3.44 -0.64,-2 -0.64,-4.36 z m 14.04,-2.16 q 0,-1 -0.28,-1.88 -0.28,-0.92 -0.84,-1.56 -0.52,-0.68 -1.32,-1.04 -0.76,-0.4 -1.84,-0.4 -1.12,0 -1.96,0.44 -0.84,0.4 -1.44,1.08 -0.56,0.68 -0.88,1.56 -0.32,0.88 -0.44,1.8 z"
         style="font-style:normal;font-variant:normal;font-weight:500;font-stretch:normal;font-family:Ubuntu;-inkscape-font-specification:'Ubuntu Medium';text-align:center;word-spacing:0px;text-anchor:middle"
         id="path1006" />
    </g>
    <g
       aria-label="Produção Audiovisual"
       transform="matrix(0.26458333,0,0,0.26458333,-22.400683,236.55408)"
       style="font-style:normal;font-weight:normal;font-size:40px;line-height:1.25;font-family:sans-serif;letter-spacing:0px;word-spacing:-32.22999954px;fill:#ffffff;fill-opacity:1;stroke:none"
       id="flowRoot861-3-6">
      <path
         d="m 172.74208,108.10286 q 4.02666,0 6.16,1.46667 2.16,1.46667 2.16,4.58667 0,1.62666 -0.58667,2.8 -0.56,1.14666 -1.65333,1.89333 -1.09334,0.72 -2.66667,1.06667 -1.57333,0.34666 -3.6,0.34666 h -1.68 v 6.50667 h -3.36 V 108.5562 q 1.17333,-0.26667 2.58667,-0.34667 1.44,-0.10667 2.64,-0.10667 z m 0.24,2.90667 q -1.28,0 -2.10667,0.08 v 6.29333 h 1.62667 q 2.42666,0 3.73333,-0.66666 1.30667,-0.69334 1.30667,-2.58667 0,-0.90667 -0.34667,-1.52 -0.34667,-0.61333 -0.96,-0.96 -0.61333,-0.34667 -1.46667,-0.48 -0.82666,-0.16 -1.78666,-0.16 z"
         style="font-size:26.66666794px"
         id="path955" />
      <path
         d="m 191.91666,115.72953 q -0.4,-0.13333 -1.12,-0.26667 -0.69333,-0.16 -1.62667,-0.16 -0.53333,0 -1.14666,0.10667 -0.58667,0.10667 -0.82667,0.18667 v 11.17333 h -3.22667 v -13.28 q 0.93334,-0.34667 2.32,-0.64 1.41334,-0.32 3.12,-0.32 0.32,0 0.74667,0.0533 0.42667,0.0267 0.85333,0.10667 0.42667,0.0533 0.82667,0.16 0.4,0.08 0.64,0.16 z"
         style="font-size:26.66666794px"
         id="path957" />
      <path
         d="m 207.31249,119.78286 q 0,1.65334 -0.48,3.01334 -0.48,1.36 -1.36,2.32 -0.88,0.96 -2.13333,1.49333 -1.22667,0.53333 -2.72,0.53333 -1.49333,0 -2.72,-0.53333 -1.22667,-0.53333 -2.10667,-1.49333 -0.88,-0.96 -1.38666,-2.32 -0.48,-1.36 -0.48,-3.01334 0,-1.65333 0.48,-2.98666 0.50666,-1.36 1.38666,-2.32 0.90667,-0.96 2.13334,-1.46667 1.22666,-0.53333 2.69333,-0.53333 1.46667,0 2.69333,0.53333 1.25334,0.50667 2.13334,1.46667 0.88,0.96 1.36,2.32 0.50666,1.33333 0.50666,2.98666 z m -3.30666,0 q 0,-2.08 -0.90667,-3.28 -0.88,-1.22666 -2.48,-1.22666 -1.6,0 -2.50667,1.22666 -0.88,1.2 -0.88,3.28 0,2.10667 0.88,3.33334 0.90667,1.22666 2.50667,1.22666 1.6,0 2.48,-1.22666 0.90667,-1.22667 0.90667,-3.33334 z"
         style="font-size:26.66666794px"
         id="path959" />
      <path
         d="m 213.16999,119.7562 q 0,2.13333 1.01334,3.36 1.01333,1.2 2.8,1.2 0.77333,0 1.30666,-0.0533 0.56,-0.08 0.90667,-0.16 v -8 q -0.42667,-0.29333 -1.14667,-0.53333 -0.69333,-0.26667 -1.49333,-0.26667 -1.76,0 -2.58667,1.2 -0.8,1.2 -0.8,3.25334 z m 9.25334,6.58666 q -0.96,0.29334 -2.42667,0.53334 -1.44,0.24 -3.04,0.24 -1.65333,0 -2.96,-0.50667 -1.30667,-0.50667 -2.24,-1.44 -0.90667,-0.96 -1.41333,-2.29333 -0.48,-1.36 -0.48,-3.04 0,-1.65334 0.4,-2.98667 0.42666,-1.36 1.22666,-2.32 0.8,-0.96 1.94667,-1.46667 1.14667,-0.53333 2.64,-0.53333 1.01333,0 1.78667,0.24 0.77333,0.24 1.33333,0.53333 v -6.69333 l 3.22667,-0.53333 z"
         style="font-size:26.66666794px"
         id="path961" />
      <path
         d="m 237.96208,126.34286 q -0.93333,0.24 -2.42667,0.48 -1.49333,0.26667 -3.28,0.26667 -1.68,0 -2.82666,-0.48 -1.12,-0.48 -1.81334,-1.33333 -0.66666,-0.85334 -0.96,-2.02667 -0.29333,-1.2 -0.29333,-2.61333 v -7.81334 h 3.22667 v 7.30667 q 0,2.24 0.64,3.2 0.66666,0.96 2.29333,0.96 0.58667,0 1.22667,-0.0533 0.66666,-0.0533 0.98666,-0.13334 v -11.28 h 3.22667 z"
         style="font-size:26.66666794px"
         id="path963" />
      <path
         d="m 248.495,127.80953 q 0.85333,0.4 1.17333,0.90667 0.34667,0.50666 0.34667,1.25333 0,0.93333 -0.8,1.6 -0.8,0.66667 -2.4,0.66667 -1.28,0 -2.26667,-0.34667 l 0.37333,-1.92 q 0.26667,0.08 0.69334,0.18667 0.42666,0.10666 0.88,0.10666 0.45333,0 0.69333,-0.16 0.26667,-0.16 0.26667,-0.48 0,-0.42666 -0.37334,-0.64 -0.37333,-0.18666 -0.74666,-0.32 l -0.26667,-0.08 q 0.10667,-0.34666 0.29333,-0.8 0.18667,-0.42666 0.37334,-0.8 -1.38667,-0.24 -2.4,-0.85333 -1.01334,-0.61333 -1.68,-1.54667 -0.66667,-0.96 -1.01334,-2.16 -0.32,-1.2 -0.32,-2.61333 0,-1.54667 0.48,-2.88 0.48,-1.36 1.36,-2.34667 0.90667,-0.98666 2.18667,-1.54666 1.28,-0.56 2.88,-0.56 1.97333,0 3.73333,0.72 l -0.69333,2.64 q -0.56,-0.24 -1.28,-0.4 -0.69333,-0.16 -1.49333,-0.16 -1.89334,0 -2.88,1.2 -0.98667,1.17333 -0.98667,3.33333 0,2.08 0.93333,3.30667 0.93334,1.2 3.14667,1.2 0.82667,0 1.62667,-0.16 0.8,-0.16 1.38666,-0.4 l 0.45334,2.66666 q -0.48,0.24 -1.41334,0.42667 -0.93333,0.18667 -1.94666,0.24 -0.10667,0.21333 -0.18667,0.4 -0.08,0.18667 -0.13333,0.32 z"
         style="font-size:26.66666794px"
         id="path965" />
      <path
         d="m 259.60583,124.50286 q 1.49333,0 2.26666,-0.16 v -3.57333 q -0.26666,-0.08 -0.77333,-0.16 -0.50667,-0.08 -1.12,-0.08 -0.53333,0 -1.09333,0.08 -0.53334,0.08 -0.98667,0.29333 -0.42667,0.21334 -0.69333,0.61334 -0.26667,0.37333 -0.26667,0.96 0,1.14666 0.72,1.6 0.72,0.42666 1.94667,0.42666 z m -0.26667,-12.02666 q 1.6,0 2.69333,0.4 1.09334,0.4 1.73334,1.12 0.66666,0.72 0.93333,1.76 0.29333,1.01333 0.29333,2.24 v 8.45333 q -0.74666,0.16 -2.26666,0.37333 -1.49334,0.24 -3.38667,0.24 -1.25333,0 -2.29333,-0.24 -1.04,-0.24 -1.78667,-0.77333 -0.72,-0.53333 -1.14667,-1.38667 -0.4,-0.85333 -0.4,-2.10666 0,-1.2 0.45334,-2.02667 0.48,-0.82667 1.28,-1.33333 0.8,-0.53334 1.84,-0.74667 1.06666,-0.24 2.21333,-0.24 0.53333,0 1.12,0.08 0.58667,0.0533 1.25333,0.21333 v -0.53333 q 0,-0.56 -0.13333,-1.06667 -0.13333,-0.50666 -0.48,-0.88 -0.32,-0.4 -0.88,-0.61333 -0.53333,-0.21333 -1.36,-0.21333 -1.12,0 -2.05333,0.16 -0.93334,0.16 -1.52,0.37333 l -0.4,-2.61333 q 0.61333,-0.21334 1.78666,-0.42667 1.17334,-0.21333 2.50667,-0.21333 z m 5.14667,-4.64 q -0.16,0.37333 -0.42667,0.82666 -0.24,0.42667 -0.61333,0.82667 -0.37334,0.37333 -0.85334,0.64 -0.48,0.26667 -1.06666,0.26667 -0.48,0 -0.90667,-0.13334 -0.42667,-0.16 -0.85333,-0.34666 -0.4,-0.18667 -0.8,-0.32 -0.37334,-0.16 -0.74667,-0.16 -0.50667,0 -0.88,0.34666 -0.34667,0.34667 -0.56,0.8 l -1.62667,-0.96 q 0.13334,-0.37333 0.37334,-0.8 0.26666,-0.45333 0.64,-0.82666 0.4,-0.4 0.88,-0.66667 0.48,-0.26667 1.06666,-0.26667 0.48,0 0.90667,0.16 0.42667,0.16 0.82667,0.34667 0.42666,0.16 0.8,0.32 0.4,0.16 0.77333,0.16 0.50667,0 0.85333,-0.34667 0.37334,-0.37333 0.58667,-0.82666 z"
         style="font-size:26.66666794px"
         id="path967" />
      <path
         d="m 281.53124,119.78286 q 0,1.65334 -0.48,3.01334 -0.48,1.36 -1.36,2.32 -0.88,0.96 -2.13333,1.49333 -1.22667,0.53333 -2.72,0.53333 -1.49333,0 -2.72,-0.53333 -1.22667,-0.53333 -2.10667,-1.49333 -0.88,-0.96 -1.38666,-2.32 -0.48,-1.36 -0.48,-3.01334 0,-1.65333 0.48,-2.98666 0.50666,-1.36 1.38666,-2.32 0.90667,-0.96 2.13334,-1.46667 1.22666,-0.53333 2.69333,-0.53333 1.46667,0 2.69333,0.53333 1.25334,0.50667 2.13334,1.46667 0.88,0.96 1.36,2.32 0.50666,1.33333 0.50666,2.98666 z m -3.30666,0 q 0,-2.08 -0.90667,-3.28 -0.88,-1.22666 -2.48,-1.22666 -1.6,0 -2.50667,1.22666 -0.88,1.2 -0.88,3.28 0,2.10667 0.88,3.33334 0.90667,1.22666 2.50667,1.22666 1.6,0 2.48,-1.22666 0.90667,-1.22667 0.90667,-3.33334 z"
         style="font-size:26.66666794px"
         id="path969" />
      <path
         d="m 303.48,126.76953 q -0.37333,-1.09333 -0.77333,-2.16 -0.4,-1.06667 -0.77334,-2.18667 h -7.78666 q -0.37334,1.12 -0.77334,2.21334 -0.37333,1.06666 -0.74666,2.13333 h -3.49334 q 1.04,-2.96 1.97334,-5.46667 0.93333,-2.50666 1.81333,-4.74666 0.90667,-2.24 1.78667,-4.26667 0.88,-2.02667 1.81333,-4 h 3.17333 q 0.93334,1.97333 1.81334,4 0.88,2.02667 1.76,4.26667 0.90666,2.24 1.84,4.74666 0.96,2.50667 2,5.46667 z m -5.44,-14.90667 q -0.61333,1.41334 -1.41333,3.44 -0.77334,2.02667 -1.62667,4.4 h 6.08 q -0.85333,-2.37333 -1.65333,-4.42666 -0.8,-2.05334 -1.38667,-3.41334 z"
         style="font-size:26.66666794px"
         id="path971" />
      <path
         d="m 320.35791,126.34286 q -0.93333,0.24 -2.42667,0.48 -1.49333,0.26667 -3.28,0.26667 -1.68,0 -2.82666,-0.48 -1.12,-0.48 -1.81334,-1.33333 -0.66666,-0.85334 -0.96,-2.02667 -0.29333,-1.2 -0.29333,-2.61333 v -7.81334 h 3.22667 v 7.30667 q 0,2.24 0.64,3.2 0.66666,0.96 2.29333,0.96 0.58667,0 1.22667,-0.0533 0.66666,-0.0533 0.98666,-0.13334 v -11.28 h 3.22667 z"
         style="font-size:26.66666794px"
         id="path973" />
      <path
         d="m 327.02417,119.7562 q 0,2.13333 1.01333,3.36 1.01333,1.2 2.8,1.2 0.77333,0 1.30667,-0.0533 0.56,-0.08 0.90666,-0.16 v -8 q -0.42666,-0.29333 -1.14666,-0.53333 -0.69334,-0.26667 -1.49334,-0.26667 -1.76,0 -2.58666,1.2 -0.8,1.2 -0.8,3.25334 z m 9.25333,6.58666 q -0.96,0.29334 -2.42667,0.53334 -1.44,0.24 -3.04,0.24 -1.65333,0 -2.96,-0.50667 -1.30666,-0.50667 -2.24,-1.44 -0.90666,-0.96 -1.41333,-2.29333 -0.48,-1.36 -0.48,-3.04 0,-1.65334 0.4,-2.98667 0.42667,-1.36 1.22667,-2.32 0.8,-0.96 1.94666,-1.46667 1.14667,-0.53333 2.64,-0.53333 1.01334,0 1.78667,0.24 0.77333,0.24 1.33333,0.53333 v -6.69333 l 3.22667,-0.53333 z"
         style="font-size:26.66666794px"
         id="path975" />
      <path
         d="m 343.62959,126.76953 h -3.22667 v -13.94667 h 3.22667 z m 0.34666,-18.02667 q 0,0.90667 -0.58666,1.44 -0.58667,0.53334 -1.38667,0.53334 -0.82667,0 -1.41333,-0.53334 -0.58667,-0.53333 -0.58667,-1.44 0,-0.93333 0.58667,-1.46666 0.58666,-0.53334 1.41333,-0.53334 0.8,0 1.38667,0.53334 0.58666,0.53333 0.58666,1.46666 z"
         style="font-size:26.66666794px"
         id="path977" />
      <path
         d="m 360.33334,119.78286 q 0,1.65334 -0.48,3.01334 -0.48,1.36 -1.36,2.32 -0.88,0.96 -2.13334,1.49333 -1.22666,0.53333 -2.72,0.53333 -1.49333,0 -2.72,-0.53333 -1.22666,-0.53333 -2.10666,-1.49333 -0.88,-0.96 -1.38667,-2.32 -0.48,-1.36 -0.48,-3.01334 0,-1.65333 0.48,-2.98666 0.50667,-1.36 1.38667,-2.32 0.90666,-0.96 2.13333,-1.46667 1.22667,-0.53333 2.69333,-0.53333 1.46667,0 2.69334,0.53333 1.25333,0.50667 2.13333,1.46667 0.88,0.96 1.36,2.32 0.50667,1.33333 0.50667,2.98666 z m -3.30667,0 q 0,-2.08 -0.90667,-3.28 -0.88,-1.22666 -2.48,-1.22666 -1.6,0 -2.50666,1.22666 -0.88,1.2 -0.88,3.28 0,2.10667 0.88,3.33334 0.90666,1.22666 2.50666,1.22666 1.6,0 2.48,-1.22666 0.90667,-1.22667 0.90667,-3.33334 z"
         style="font-size:26.66666794px"
         id="path979" />
      <path
         d="m 366.91834,126.76953 q -1.33334,-2.74667 -2.74667,-6.29333 -1.38667,-3.57334 -2.53333,-7.65334 h 3.44 q 0.29333,1.17334 0.66666,2.53334 0.4,1.33333 0.82667,2.69333 0.45333,1.33333 0.90667,2.61333 0.48,1.25334 0.88,2.26667 0.4,-1.01333 0.85333,-2.26667 0.45333,-1.28 0.88,-2.61333 0.45333,-1.36 0.85333,-2.69333 0.4,-1.36 0.69334,-2.53334 h 3.33333 q -1.14667,4.08 -2.56,7.65334 -1.38667,3.54666 -2.72,6.29333 z"
         style="font-size:26.66666794px"
         id="path981" />
      <path
         d="m 380.60876,126.76953 h -3.22667 v -13.94667 h 3.22667 z m 0.34667,-18.02667 q 0,0.90667 -0.58667,1.44 -0.58667,0.53334 -1.38667,0.53334 -0.82666,0 -1.41333,-0.53334 -0.58667,-0.53333 -0.58667,-1.44 0,-0.93333 0.58667,-1.46666 0.58667,-0.53334 1.41333,-0.53334 0.8,0 1.38667,0.53334 0.58667,0.53333 0.58667,1.46666 z"
         style="font-size:26.66666794px"
         id="path983" />
      <path
         d="m 388.19251,124.44953 q 1.28,0 1.86667,-0.29333 0.58666,-0.32 0.58666,-1.06667 0,-0.69333 -0.64,-1.14667 -0.61333,-0.45333 -2.05333,-0.98666 -0.88,-0.32 -1.62667,-0.66667 -0.72,-0.37333 -1.25333,-0.85333 -0.53333,-0.48 -0.85333,-1.14667 -0.29334,-0.69333 -0.29334,-1.68 0,-1.92 1.41334,-3.01333 1.41333,-1.12 3.84,-1.12 1.22666,0 2.34666,0.24 1.12,0.21333 1.68,0.42666 l -0.58666,2.61334 q -0.53334,-0.24 -1.36,-0.42667 -0.82667,-0.21333 -1.92,-0.21333 -0.98667,0 -1.6,0.34666 -0.61334,0.32 -0.61334,1.01334 0,0.34666 0.10667,0.61333 0.13333,0.26667 0.42667,0.50667 0.29333,0.21333 0.77333,0.45333 0.48,0.21333 1.17333,0.45333 1.14667,0.42667 1.94667,0.85334 0.8,0.4 1.30667,0.93333 0.53333,0.50667 0.77333,1.17333 0.24,0.66667 0.24,1.6 0,2 -1.49333,3.04 -1.46667,1.01334 -4.21334,1.01334 -1.84,0 -2.96,-0.32 -1.12,-0.29334 -1.57333,-0.48 l 0.56,-2.69334 q 0.72,0.29334 1.70667,0.56 1.01333,0.26667 2.29333,0.26667 z"
         style="font-size:26.66666794px"
         id="path985" />
      <path
         d="m 408.32668,126.34286 q -0.93334,0.24 -2.42667,0.48 -1.49333,0.26667 -3.28,0.26667 -1.68,0 -2.82667,-0.48 -1.12,-0.48 -1.81333,-1.33333 -0.66667,-0.85334 -0.96,-2.02667 -0.29333,-1.2 -0.29333,-2.61333 v -7.81334 h 3.22666 v 7.30667 q 0,2.24 0.64,3.2 0.66667,0.96 2.29334,0.96 0.58666,0 1.22666,-0.0533 0.66667,-0.0533 0.98667,-0.13334 v -11.28 h 3.22667 z"
         style="font-size:26.66666794px"
         id="path987" />
      <path
         d="m 417.36625,124.50286 q 1.49333,0 2.26667,-0.16 v -3.57333 q -0.26667,-0.08 -0.77334,-0.16 -0.50666,-0.08 -1.12,-0.08 -0.53333,0 -1.09333,0.08 -0.53333,0.08 -0.98667,0.29333 -0.42666,0.21334 -0.69333,0.61334 -0.26667,0.37333 -0.26667,0.96 0,1.14666 0.72,1.6 0.72,0.42666 1.94667,0.42666 z m -0.26667,-12.02666 q 1.6,0 2.69334,0.4 1.09333,0.4 1.73333,1.12 0.66667,0.72 0.93333,1.76 0.29334,1.01333 0.29334,2.24 v 8.45333 q -0.74667,0.16 -2.26667,0.37333 -1.49333,0.24 -3.38667,0.24 -1.25333,0 -2.29333,-0.24 -1.04,-0.24 -1.78667,-0.77333 -0.72,-0.53333 -1.14666,-1.38667 -0.4,-0.85333 -0.4,-2.10666 0,-1.2 0.45333,-2.02667 0.48,-0.82667 1.28,-1.33333 0.8,-0.53334 1.84,-0.74667 1.06667,-0.24 2.21333,-0.24 0.53334,0 1.12,0.08 0.58667,0.0533 1.25334,0.21333 v -0.53333 q 0,-0.56 -0.13334,-1.06667 -0.13333,-0.50666 -0.48,-0.88 -0.32,-0.4 -0.88,-0.61333 -0.53333,-0.21333 -1.36,-0.21333 -1.12,0 -2.05333,0.16 -0.93333,0.16 -1.52,0.37333 l -0.4,-2.61333 q 0.61333,-0.21334 1.78667,-0.42667 1.17333,-0.21333 2.50666,-0.21333 z"
         style="font-size:26.66666794px"
         id="path989" />
      <path
         d="m 431.53168,127.0362 q -1.44,-0.0267 -2.4,-0.32 -0.93333,-0.29334 -1.49333,-0.82667 -0.56,-0.56 -0.8,-1.36 -0.21334,-0.82667 -0.21334,-1.86667 v -16.05333 l 3.22667,-0.53333 v 15.97333 q 0,0.58667 0.08,0.98667 0.10667,0.4 0.34667,0.69333 0.24,0.26667 0.64,0.42667 0.42666,0.13333 1.06666,0.21333 z"
         style="font-size:26.66666794px"
         id="path991" />
    </g>
    <rect
       style="fill:none;fill-opacity:1;stroke:#c92c61;stroke-width:1;stroke-linecap:round;stroke-linejoin:round;stroke-miterlimit:4;stroke-dasharray:none;stroke-opacity:1"
       id="rect947"
       width="14.255568"
       height="16.308369"
       x="108.70621"
       y="216.01445"
       transform="rotate(13.426955)" />
    <path
       style="fill:none;stroke:#c92c61;stroke-width:1;stroke-linecap:butt;stroke-linejoin:miter;stroke-opacity:1;stroke-miterlimit:4;stroke-dasharray:none"
       d="m 57.250358,240.89009 7.298852,2.39493"
       id="path949"
       inkscape:connector-curvature="0" />
    <path
       style="fill:none;stroke:#c92c61;stroke-width:1;stroke-linecap:butt;stroke-linejoin:miter;stroke-opacity:1;stroke-miterlimit:4;stroke-dasharray:none"
       d="m 58.276759,244.31143 6.044361,1.93875"
       id="path951"
       inkscape:connector-curvature="0" />
    <path
       style="fill:none;stroke:#c92c61;stroke-width:1;stroke-linecap:butt;stroke-linejoin:miter;stroke-opacity:1;stroke-miterlimit:4;stroke-dasharray:none"
       d="m 55.197557,247.73276 7.75911,4.40291 8.207126,-0.86753"
       id="path953"
       inkscape:connector-curvature="0" />
  </g>
</svg>
