<?xml version="1.0" encoding="UTF-8" standalone="no"?>
<!-- Created with Inkscape (http://www.inkscape.org/) -->

<svg
   xmlns:dc="http://purl.org/dc/elements/1.1/"
   xmlns:cc="http://creativecommons.org/ns#"
   xmlns:rdf="http://www.w3.org/1999/02/22-rdf-syntax-ns#"
   xmlns:svg="http://www.w3.org/2000/svg"
   xmlns="http://www.w3.org/2000/svg"
   xmlns:sodipodi="http://sodipodi.sourceforge.net/DTD/sodipodi-0.dtd"
   xmlns:inkscape="http://www.inkscape.org/namespaces/inkscape"
   width="420"
   height="250"
   viewBox="0 0 111.125 66.145835"
   version="1.1"
   id="svg8"
   inkscape:version="0.92.3 (2405546, 2018-03-11)"
   sodipodi:docname="btnProgram.svg">
  <defs
     id="defs2" />
  <sodipodi:namedview
     id="base"
     pagecolor="#ffffff"
     bordercolor="#666666"
     borderopacity="1.0"
     inkscape:pageopacity="0.0"
     inkscape:pageshadow="2"
     inkscape:zoom="4.04"
     inkscape:cx="171.40631"
     inkscape:cy="63.260938"
     inkscape:document-units="mm"
     inkscape:current-layer="layer1"
     showgrid="false"
     units="px"
     inkscape:pagecheckerboard="true"
     width="280px"
     showguides="true"
     inkscape:window-width="1600"
     inkscape:window-height="842"
     inkscape:window-x="0"
     inkscape:window-y="0"
     inkscape:window-maximized="1" />
  <metadata
     id="metadata5">
    <rdf:RDF>
      <cc:Work
         rdf:about="">
        <dc:format>image/svg+xml</dc:format>
        <dc:type
           rdf:resource="http://purl.org/dc/dcmitype/StillImage" />
        <dc:title></dc:title>
      </cc:Work>
    </rdf:RDF>
  </metadata>
  <g
     inkscape:label="Camada 1"
     inkscape:groupmode="layer"
     id="layer1"
     transform="translate(0,-230.85417)">
    <rect
       style="fill:#c92c61;fill-opacity:1;stroke:#c92c61;stroke-width:1;stroke-linecap:round;stroke-linejoin:round;stroke-miterlimit:4;stroke-dasharray:none;stroke-opacity:1"
       id="rect1101"
       width="89.182831"
       height="38.43301"
       x="11.29041"
       y="245.33783" />
    <rect
       style="fill:#c92c61;fill-opacity:1;stroke:#c92c61;stroke-width:1;stroke-linecap:round;stroke-linejoin:round;stroke-miterlimit:4;stroke-dasharray:none;stroke-opacity:1"
       id="rect1103"
       width="6.8426723"
       height="6.5005388"
       x="5.7022266"
       y="249.78557"
       ry="1.9387572" />
    <rect
       style="fill:#c92c61;fill-opacity:1;stroke:#c92c61;stroke-width:1;stroke-linecap:round;stroke-linejoin:round;stroke-miterlimit:4;stroke-dasharray:none;stroke-opacity:1"
       id="rect1103-7"
       width="6.8426723"
       height="6.5005388"
       x="4.3336926"
       y="259.99255"
       ry="1.9387572" />
    <rect
       style="fill:#c92c61;fill-opacity:1;stroke:#c92c61;stroke-width:1;stroke-linecap:round;stroke-linejoin:round;stroke-miterlimit:4;stroke-dasharray:none;stroke-opacity:1"
       id="rect1103-9"
       width="6.8426723"
       height="6.5005388"
       x="5.3600936"
       y="271.397"
       ry="1.9387572" />
    <rect
       style="fill:#c92c61;fill-opacity:1;stroke:#c92c61;stroke-width:1;stroke-linecap:round;stroke-linejoin:round;stroke-miterlimit:4;stroke-dasharray:none;stroke-opacity:1"
       id="rect1103-0"
       width="6.8426723"
       height="6.5005388"
       x="24.063398"
       y="282.9155"
       ry="1.9387572" />
    <rect
       style="fill:#c92c61;fill-opacity:1;stroke:#c92c61;stroke-width:1;stroke-linecap:round;stroke-linejoin:round;stroke-miterlimit:4;stroke-dasharray:none;stroke-opacity:1"
       id="rect1103-02"
       width="6.8426723"
       height="6.5005388"
       x="36.72234"
       y="283.37167"
       ry="1.9387572" />
    <rect
       style="fill:#c92c61;fill-opacity:1;stroke:#c92c61;stroke-width:1;stroke-linecap:round;stroke-linejoin:round;stroke-miterlimit:4;stroke-dasharray:none;stroke-opacity:1"
       id="rect1103-2"
       width="6.8426723"
       height="6.5005388"
       x="51.43409"
       y="283.14359"
       ry="1.9387572" />
    <rect
       style="fill:#c92c61;fill-opacity:1;stroke:#c92c61;stroke-width:1;stroke-linecap:round;stroke-linejoin:round;stroke-miterlimit:4;stroke-dasharray:none;stroke-opacity:1"
       id="rect1103-6"
       width="6.8426723"
       height="6.5005388"
       x="67.514366"
       y="283.14359"
       ry="1.9387572" />
    <rect
       style="fill:#c92c61;fill-opacity:1;stroke:#c92c61;stroke-width:1;stroke-linecap:round;stroke-linejoin:round;stroke-miterlimit:4;stroke-dasharray:none;stroke-opacity:1"
       id="rect1103-90"
       width="6.8426723"
       height="6.5005388"
       x="82.910385"
       y="282.68741"
       ry="1.9387572" />
    <rect
       style="fill:#c92c61;fill-opacity:1;stroke:#c92c61;stroke-width:1;stroke-linecap:round;stroke-linejoin:round;stroke-miterlimit:4;stroke-dasharray:none;stroke-opacity:1"
       id="rect1103-3"
       width="6.8426723"
       height="6.5005388"
       x="100.13111"
       y="270.25656"
       ry="1.9387572" />
    <rect
       style="fill:#c92c61;fill-opacity:1;stroke:#c92c61;stroke-width:1;stroke-linecap:round;stroke-linejoin:round;stroke-miterlimit:4;stroke-dasharray:none;stroke-opacity:1"
       id="rect1103-5"
       width="6.8426723"
       height="6.5005388"
       x="100.1311"
       y="259.99255"
       ry="1.9387572" />
    <rect
       style="fill:#c92c61;fill-opacity:1;stroke:#c92c61;stroke-width:1;stroke-linecap:round;stroke-linejoin:round;stroke-miterlimit:4;stroke-dasharray:none;stroke-opacity:1"
       id="rect1103-58"
       width="6.8426723"
       height="6.5005388"
       x="99.674927"
       y="249.50046"
       ry="1.9387572" />
    <rect
       style="fill:#c92c61;fill-opacity:1;stroke:#c92c61;stroke-width:1;stroke-linecap:round;stroke-linejoin:round;stroke-miterlimit:4;stroke-dasharray:none;stroke-opacity:1"
       id="rect1103-71"
       width="6.8426723"
       height="6.5005388"
       x="20.984192"
       y="239.80667"
       ry="1.9387572" />
    <rect
       style="fill:#c92c61;fill-opacity:1;stroke:#c92c61;stroke-width:1;stroke-linecap:round;stroke-linejoin:round;stroke-miterlimit:4;stroke-dasharray:none;stroke-opacity:1"
       id="rect1103-70"
       width="6.8426723"
       height="6.5005388"
       x="34.555496"
       y="239.46454"
       ry="1.9387572" />
    <rect
       style="fill:#c92c61;fill-opacity:1;stroke:#c92c61;stroke-width:1;stroke-linecap:round;stroke-linejoin:round;stroke-miterlimit:4;stroke-dasharray:none;stroke-opacity:1"
       id="rect1103-60"
       width="6.8426723"
       height="6.5005388"
       x="50.863865"
       y="239.57858"
       ry="1.9387572" />
    <rect
       style="fill:#c92c61;fill-opacity:1;stroke:#c92c61;stroke-width:1;stroke-linecap:round;stroke-linejoin:round;stroke-miterlimit:4;stroke-dasharray:none;stroke-opacity:1"
       id="rect1103-4"
       width="6.8426723"
       height="6.5005388"
       x="67.058189"
       y="239.12241"
       ry="1.9387572" />
    <rect
       style="fill:#c92c61;fill-opacity:1;stroke:#c92c61;stroke-width:1;stroke-linecap:round;stroke-linejoin:round;stroke-miterlimit:4;stroke-dasharray:none;stroke-opacity:1"
       id="rect1103-1"
       width="6.8426723"
       height="6.5005388"
       x="83.480598"
       y="239.35049"
       ry="1.9387572" />
    <flowRoot
       xml:space="preserve"
       id="flowRoot1206"
       style="font-style:normal;font-weight:bold;font-size:40px;line-height:1.25;font-family:'Fira Code';letter-spacing:0px;word-spacing:-32.22999954px;fill:#6a0b2b;fill-opacity:1;stroke:none;-inkscape-font-specification:'Fira Code Bold';font-stretch:normal;font-variant:normal;"
       transform="matrix(0.26458333,0,0,0.26458333,3.8775144,228.45923)"><flowRegion
         id="flowRegion1208"
         style="-inkscape-font-specification:'Fira Code Bold';font-family:'Fira Code';font-weight:bold;font-style:normal;font-stretch:normal;font-variant:normal;fill:#6a0b2b;fill-opacity:1;"><rect
           id="rect1210"
           width="237.931"
           height="48.275867"
           x="83.189651"
           y="93.103447"
           style="-inkscape-font-specification:'Fira Code Bold';font-family:'Fira Code';font-weight:bold;font-style:normal;font-stretch:normal;font-variant:normal;fill:#6a0b2b;fill-opacity:1;" /></flowRegion><flowPara
         style="font-style:normal;font-variant:normal;font-weight:bold;font-stretch:normal;font-size:26.66666794px;line-height:0;font-family:'Fira Code';-inkscape-font-specification:'Fira Code Bold';text-align:center;word-spacing:0px;text-anchor:middle;fill:#6a0b2b;fill-opacity:1;"
         id="flowPara1214">Programação &amp;</flowPara></flowRoot>    <flowRoot
       xml:space="preserve"
       id="flowRoot1218"
       style="font-style:normal;font-weight:bold;font-size:40px;line-height:1.25;font-family:'Fira Code';letter-spacing:0px;word-spacing:-32.22999954px;fill:#6a0b2b;fill-opacity:1;stroke:none;-inkscape-font-specification:'Fira Code Bold';font-stretch:normal;font-variant:normal;"
       transform="matrix(0.26458333,0,0,0.26458333,-6.8426724,227.20474)"><flowRegion
         id="flowRegion1220"
         style="-inkscape-font-specification:'Fira Code Bold';font-family:'Fira Code';font-weight:bold;font-style:normal;font-stretch:normal;font-variant:normal;fill:#6a0b2b;fill-opacity:1;"><rect
           id="rect1222"
           width="284.91382"
           height="103.01724"
           x="103.44827"
           y="128.8793"
           style="-inkscape-font-specification:'Fira Code Bold';font-family:'Fira Code';font-weight:bold;font-style:normal;font-stretch:normal;font-variant:normal;fill:#6a0b2b;fill-opacity:1;" /></flowRegion><flowPara
         id="flowPara1224"
         style="font-style:normal;font-variant:normal;font-weight:bold;font-stretch:normal;font-size:26.66666794px;font-family:'Fira Code';-inkscape-font-specification:'Fira Code Bold';text-align:center;text-anchor:middle;fill:#6a0b2b;fill-opacity:1;">Desenvolvimento</flowPara></flowRoot>    <flowRoot
       xml:space="preserve"
       id="flowRoot1206-8"
       style="font-style:normal;font-variant:normal;font-weight:bold;font-stretch:normal;font-size:40px;line-height:1.25;font-family:'Fira Code';-inkscape-font-specification:'Fira Code Bold';letter-spacing:0px;word-spacing:-32.22999954px;fill:#000000;fill-opacity:1;stroke:none"
       transform="matrix(0.26458333,0,0,0.26458333,4.4680213,227.70703)"><flowRegion
         id="flowRegion1208-6"
         style="font-style:normal;font-variant:normal;font-weight:bold;font-stretch:normal;font-family:'Fira Code';-inkscape-font-specification:'Fira Code Bold'"><rect
           id="rect1210-4"
           width="237.931"
           height="48.275867"
           x="83.189651"
           y="93.103447"
           style="font-style:normal;font-variant:normal;font-weight:bold;font-stretch:normal;font-family:'Fira Code';-inkscape-font-specification:'Fira Code Bold'" /></flowRegion><flowPara
         style="font-style:normal;font-variant:normal;font-weight:bold;font-stretch:normal;font-size:26.66666794px;line-height:0;font-family:'Fira Code';-inkscape-font-specification:'Fira Code Bold';text-align:center;word-spacing:0px;text-anchor:middle;fill:#ffffff"
         id="flowPara1214-3">Programação &amp;</flowPara></flowRoot>    <flowRoot
       xml:space="preserve"
       id="flowRoot1218-4"
       style="font-style:normal;font-variant:normal;font-weight:bold;font-stretch:normal;font-size:40px;line-height:1.25;font-family:'Fira Code';-inkscape-font-specification:'Fira Code Bold';letter-spacing:0px;word-spacing:-32.22999954px;fill:#000000;fill-opacity:1;stroke:none"
       transform="matrix(0.26458333,0,0,0.26458333,-6.2521643,226.45254)"><flowRegion
         id="flowRegion1220-7"
         style="font-style:normal;font-variant:normal;font-weight:bold;font-stretch:normal;font-family:'Fira Code';-inkscape-font-specification:'Fira Code Bold'"><rect
           id="rect1222-7"
           width="284.91382"
           height="103.01724"
           x="103.44827"
           y="128.8793"
           style="font-style:normal;font-variant:normal;font-weight:bold;font-stretch:normal;font-family:'Fira Code';-inkscape-font-specification:'Fira Code Bold'" /></flowRegion><flowPara
         id="flowPara1224-0"
         style="font-style:normal;font-variant:normal;font-weight:bold;font-stretch:normal;font-size:26.66666794px;font-family:'Fira Code';-inkscape-font-specification:'Fira Code Bold';text-align:center;text-anchor:middle;fill:#ffffff">Desenvolvimento</flowPara></flowRoot>    <g
       aria-label="&lt;/&gt;"
       transform="matrix(0.26458333,0,0,0.26458333,-5.1320043,225.15194)"
       style="font-style:normal;font-weight:normal;font-size:40px;line-height:1.25;font-family:sans-serif;letter-spacing:0px;word-spacing:-32.22999954px;fill:#ffffff;fill-opacity:1;stroke:none"
       id="flowRoot1264">
      <path
         d="m 93.070312,91.996094 -20.15625,7.167968 20.15625,7.128908 v 3.55469 L 68.03125,100.76563 v -3.242193 l 25.039062,-9.082031 z"
         style=""
         id="path1401" />
      <path
         d="m 107.46484,82.523437 h 3.32032 l -10.15625,32.871093 h -3.320316 z"
         style=""
         id="path1403" />
      <path
         d="m 115.0625,91.996094 v -3.554688 l 25.03906,9.082031 v 3.242193 l -25.03906,9.08203 v -3.55469 l 20.11719,-7.128908 z"
         style=""
         id="path1405" />
    </g>
    <rect
       style="fill:#ffffff;fill-opacity:0;stroke:#ffffff;stroke-width:0.26499999;stroke-linecap:round;stroke-linejoin:round;stroke-miterlimit:4;stroke-dasharray:none;stroke-opacity:1"
       id="rect1274"
       width="71.619972"
       height="17.33477"
       x="23.835308"
       y="255.60184" />
    <rect
       style="fill:#ffffff;fill-opacity:0;stroke:#ffffff;stroke-width:0.26499999;stroke-linecap:round;stroke-linejoin:round;stroke-miterlimit:4;stroke-dasharray:none;stroke-opacity:1"
       id="rect1276"
       width="12.088721"
       height="5.3600936"
       x="33.529095"
       y="276.47198" />
    <rect
       style="fill:#ffffff;fill-opacity:0;stroke:#ffffff;stroke-width:0.26499999;stroke-linecap:round;stroke-linejoin:round;stroke-miterlimit:4;stroke-dasharray:none;stroke-opacity:1"
       id="rect1278"
       width="10.264009"
       height="5.5881824"
       x="51.43409"
       y="276.49704" />
    <rect
       style="fill:#ffffff;fill-opacity:0;stroke:#ffffff;stroke-width:0.26499999;stroke-linecap:round;stroke-linejoin:round;stroke-miterlimit:4;stroke-dasharray:none;stroke-opacity:1"
       id="rect1280"
       width="10.378053"
       height="6.1584048"
       x="65.926865"
       y="275.92682" />
    <rect
       style="fill:#ffffff;fill-opacity:0.99006623;stroke:#ffffff;stroke-width:0.26499999;stroke-linecap:round;stroke-linejoin:round;stroke-miterlimit:4;stroke-dasharray:none;stroke-opacity:1"
       id="rect1282"
       width="55.539688"
       height="1.0264008"
       x="35.467854"
       y="273.73492" />
    <rect
       style="fill:#ffffff;fill-opacity:0;stroke:#ffffff;stroke-width:0.26499999;stroke-linecap:round;stroke-linejoin:round;stroke-miterlimit:4;stroke-dasharray:none;stroke-opacity:1"
       id="rect1280-7"
       width="10.378053"
       height="6.1584053"
       x="79.904175"
       y="275.99982" />
    <path
       style="fill:none;stroke:#ffffff;stroke-width:0.26458332px;stroke-linecap:butt;stroke-linejoin:miter;stroke-opacity:1"
       d="m 40.7139,274.19109 0.342133,2.39494"
       id="path1299"
       inkscape:connector-curvature="0" />
    <path
       style="fill:none;stroke:#ffffff;stroke-width:0.26458332px;stroke-linecap:butt;stroke-linejoin:miter;stroke-opacity:1"
       d="m 56.56609,274.87536 v 1.71067"
       id="path1301"
       inkscape:connector-curvature="0" />
    <path
       style="fill:none;stroke:#ffffff;stroke-width:0.26458332px;stroke-linecap:butt;stroke-linejoin:miter;stroke-opacity:1"
       d="m 70.593568,274.19109 v 1.59663"
       id="path1303"
       inkscape:connector-curvature="0" />
    <path
       style="fill:none;stroke:#ffffff;stroke-width:0.26458332px;stroke-linecap:butt;stroke-linejoin:miter;stroke-opacity:1"
       d="m 84.278913,274.19109 0.22809,1.82472"
       id="path1305"
       inkscape:connector-curvature="0" />
    <rect
       style="fill:none;fill-opacity:0.99006623;stroke:#ffffff;stroke-width:0.26499999;stroke-linecap:round;stroke-linejoin:round;stroke-miterlimit:4;stroke-dasharray:none;stroke-opacity:1"
       id="rect1307"
       width="8.0971622"
       height="20.071838"
       x="12.544899"
       y="261.8743" />
    <rect
       style="fill:none;fill-opacity:0.99006623;stroke:#ffffff;stroke-width:0.24605942;stroke-linecap:round;stroke-linejoin:round;stroke-miterlimit:4;stroke-dasharray:none;stroke-opacity:1"
       id="rect1309"
       width="4.0104995"
       height="3.668366"
       x="229.40602"
       y="139.02094"
       transform="rotate(55.192704)" />
    <path
       style="fill:#ffffff;stroke:#ffffff;stroke-width:0.26458332px;stroke-linecap:butt;stroke-linejoin:miter;stroke-opacity:1;fill-opacity:1"
       d="m 16.764547,261.98833 0.03774,5.72724"
       id="path1311"
       inkscape:connector-curvature="0" />
    <rect
       style="fill:none;fill-opacity:0.99006623;stroke:#ffffff;stroke-width:0.26499999;stroke-linecap:round;stroke-linejoin:round;stroke-miterlimit:4;stroke-dasharray:none;stroke-opacity:1"
       id="rect1317"
       width="4.4477367"
       height="2.965158"
       x="14.597701"
       y="276.58603" />
    <path
       style="fill:#ffffff;stroke:#f7f7f7;stroke-width:0.26458332px;stroke-linecap:butt;stroke-linejoin:miter;stroke-opacity:1"
       d="m 16.079545,273.10246 0.322133,3.78423"
       id="path1319"
       inkscape:connector-curvature="0"
       sodipodi:nodetypes="cc" />
    <rect
       style="fill:none;fill-opacity:1;stroke:#f7f7f7;stroke-width:0.26499999;stroke-linecap:round;stroke-linejoin:round;stroke-miterlimit:4;stroke-dasharray:none;stroke-opacity:1"
       id="rect1321"
       width="1.8337458"
       height="1.6372731"
       x="43.485973"
       y="276.63232"
       ry="0" />
    <path
       style="fill:#ffffff;stroke:#ffffff;stroke-width:0.26458332px;stroke-linecap:butt;stroke-linejoin:miter;stroke-opacity:1"
       d="m 35.037643,278.33509 h 6.94204"
       id="path1323"
       inkscape:connector-curvature="0" />
    <path
       style="fill:none;stroke:#fdfdfd;stroke-width:0.25948212px;stroke-linecap:butt;stroke-linejoin:miter;stroke-opacity:1"
       d="m 34.710522,279.90654 9.495521,0.39361"
       id="path1325"
       inkscape:connector-curvature="0" />
    <path
       style="fill:none;stroke:#d3b2b2;stroke-width:0.26458332px;stroke-linecap:butt;stroke-linejoin:miter;stroke-opacity:1"
       d="m 43.485972,276.63232 1.833745,1.63727"
       id="path1327"
       inkscape:connector-curvature="0" />
    <path
       style="fill:none;stroke:#efefef;stroke-width:0.26458332px;stroke-linecap:butt;stroke-linejoin:miter;stroke-opacity:1"
       d="m 43.485972,278.26959 1.833745,-1.63727"
       id="path1329"
       inkscape:connector-curvature="0" />
    <rect
       style="fill:none;fill-opacity:1;stroke:#ffffff;stroke-width:0.26499999;stroke-linecap:round;stroke-linejoin:round;stroke-miterlimit:4;stroke-dasharray:none;stroke-opacity:1"
       id="rect1331"
       width="10.323852"
       height="1.4451047"
       x="51.43409"
       y="276.49704" />
    <rect
       style="fill:none;fill-opacity:1;stroke:#ffffff;stroke-width:0.26499999;stroke-linecap:round;stroke-linejoin:round;stroke-miterlimit:4;stroke-dasharray:none;stroke-opacity:1"
       id="rect1341"
       width="10.258361"
       height="1.7027698"
       x="51.43409"
       y="277.94214" />
    <path
       style="fill:none;stroke:#eadbdb;stroke-width:0.26458332px;stroke-linecap:butt;stroke-linejoin:miter;stroke-opacity:1"
       d="m 58.548886,278.13862 v 1.4408"
       id="path1343"
       inkscape:connector-curvature="0" />
    <flowRoot
       xml:space="preserve"
       id="flowRoot1345"
       style="fill:black;fill-opacity:1;stroke:none;font-family:sans-serif;font-style:normal;font-weight:normal;font-size:13.33333333px;line-height:1.25;letter-spacing:0px;word-spacing:-32.22999954px;"><flowRegion
         id="flowRegion1347"
         style="font-size:13.33333333px;"><rect
           id="rect1349"
           width="145.87711"
           height="127.66648"
           x="249.17241"
           y="170.35332"
           style="font-size:13.33333333px;" /></flowRegion><flowPara
         id="flowPara1351"></flowPara></flowRoot>    <g
       aria-label="console.log"
       style="font-style:normal;font-weight:normal;font-size:10.58333302px;line-height:1.25;font-family:sans-serif;letter-spacing:0px;word-spacing:-8.52752018px;fill:#000000;fill-opacity:1;stroke:none;stroke-width:0.26458332"
       id="text1355">
      <path
         d="m 67.423575,277.06908 v 0.11851 q -0.05374,-0.0296 -0.108176,-0.0441 -0.05374,-0.0152 -0.108865,-0.0152 -0.123335,0 -0.191547,0.0786 -0.06821,0.0779 -0.06821,0.21911 0,0.14124 0.06821,0.21979 0.06821,0.0779 0.191547,0.0779 0.05512,0 0.108865,-0.0145 0.05443,-0.0152 0.108176,-0.0448 v 0.11713 q -0.05306,0.0248 -0.110243,0.0372 -0.0565,0.0124 -0.120579,0.0124 -0.174321,0 -0.276985,-0.10956 -0.102664,-0.10955 -0.102664,-0.29558 0,-0.1888 0.103353,-0.29697 0.104042,-0.10818 0.284565,-0.10818 0.05857,0 0.114377,0.0124 0.05581,0.0117 0.108176,0.0358 z"
         style="font-size:1.41111112px;word-spacing:0px;fill:#ffffff;stroke-width:0.26458332"
         id="path1408" />
      <path
         d="m 67.944473,277.12834 q -0.101975,0 -0.16123,0.0799 -0.05926,0.0792 -0.05926,0.21773 0,0.13849 0.05857,0.21841 0.05925,0.0792 0.161919,0.0792 0.101286,0 0.160542,-0.0799 0.05926,-0.0799 0.05926,-0.21773 0,-0.13712 -0.05926,-0.21705 -0.05926,-0.0806 -0.160542,-0.0806 z m 0,-0.10749 q 0.165365,0 0.259761,0.10749 0.0944,0.10749 0.0944,0.29766 0,0.18948 -0.0944,0.29765 -0.0944,0.10749 -0.259761,0.10749 -0.166053,0 -0.260449,-0.10749 -0.09371,-0.10817 -0.09371,-0.29765 0,-0.19017 0.09371,-0.29766 0.0944,-0.10749 0.260449,-0.10749 z"
         style="font-size:1.41111112px;word-spacing:0px;fill:#ffffff;stroke-width:0.26458332"
         id="path1410" />
      <path
         d="m 69.149568,277.34538 v 0.46578 h -0.12678 v -0.46165 q 0,-0.10955 -0.04272,-0.16398 -0.04272,-0.0544 -0.128158,-0.0544 -0.102663,0 -0.161919,0.0654 -0.05926,0.0655 -0.05926,0.17846 v 0.43615 h -0.127468 v -0.7717 h 0.127468 v 0.11989 q 0.04547,-0.0696 0.106798,-0.10405 0.06201,-0.0344 0.142627,-0.0344 0.132981,0 0.201194,0.0827 0.06821,0.082 0.06821,0.24185 z"
         style="font-size:1.41111112px;word-spacing:0px;fill:#ffffff;stroke-width:0.26458332"
         id="path1412" />
      <path
         d="m 69.895775,277.06219 v 0.11989 q -0.05374,-0.0276 -0.111621,-0.0413 -0.05788,-0.0138 -0.119889,-0.0138 -0.0944,0 -0.141938,0.0289 -0.04685,0.0289 -0.04685,0.0868 0,0.0441 0.03376,0.0696 0.03376,0.0248 0.135736,0.0475 l 0.04341,0.01 q 0.135048,0.0289 0.191548,0.082 0.05719,0.0524 0.05719,0.14676 0,0.10749 -0.08544,0.17019 -0.08475,0.0627 -0.233577,0.0627 -0.06201,0 -0.129536,-0.0124 -0.06683,-0.0117 -0.141249,-0.0358 v -0.13092 q 0.07028,0.0365 0.138493,0.0551 0.06821,0.0179 0.135048,0.0179 0.08957,0 0.137803,-0.0303 0.04823,-0.031 0.04823,-0.0868 0,-0.0517 -0.03514,-0.0792 -0.03445,-0.0276 -0.152273,-0.0531 l -0.0441,-0.0103 q -0.117822,-0.0248 -0.170187,-0.0758 -0.05237,-0.0517 -0.05237,-0.14125 0,-0.10887 0.07717,-0.16812 0.07717,-0.0593 0.219108,-0.0593 0.07028,0 0.132292,0.0103 0.06201,0.0103 0.114377,0.031 z"
         style="font-size:1.41111112px;word-spacing:0px;fill:#ffffff;stroke-width:0.26458332"
         id="path1414" />
      <path
         d="m 70.438722,277.12834 q -0.101974,0 -0.16123,0.0799 -0.05926,0.0792 -0.05926,0.21773 0,0.13849 0.05857,0.21841 0.05926,0.0792 0.161919,0.0792 0.101286,0 0.160542,-0.0799 0.05925,-0.0799 0.05925,-0.21773 0,-0.13712 -0.05925,-0.21705 -0.05926,-0.0806 -0.160542,-0.0806 z m 0,-0.10749 q 0.165365,0 0.259761,0.10749 0.0944,0.10749 0.0944,0.29766 0,0.18948 -0.0944,0.29765 -0.0944,0.10749 -0.259761,0.10749 -0.166053,0 -0.260449,-0.10749 -0.09371,-0.10817 -0.09371,-0.29765 0,-0.19017 0.09371,-0.29766 0.0944,-0.10749 0.260449,-0.10749 z"
         style="font-size:1.41111112px;word-spacing:0px;fill:#ffffff;stroke-width:0.26458332"
         id="path1416" />
      <path
         d="m 71.00234,276.73904 h 0.12678 v 1.07212 h -0.12678 z"
         style="font-size:1.41111112px;word-spacing:0px;fill:#ffffff;stroke-width:0.26458332"
         id="path1418" />
      <path
         d="m 72.053783,277.39361 v 0.062 h -0.58291 q 0.0083,0.13092 0.07855,0.19982 0.07097,0.0682 0.19706,0.0682 0.07304,0 0.141249,-0.0179 0.0689,-0.0179 0.136425,-0.0537 v 0.11989 q -0.06821,0.0289 -0.139871,0.0441 -0.07166,0.0152 -0.145383,0.0152 -0.184657,0 -0.292833,-0.10749 -0.107487,-0.10749 -0.107487,-0.29076 0,-0.18948 0.101975,-0.30042 0.102664,-0.11162 0.276297,-0.11162 0.155718,0 0.24598,0.1006 0.09095,0.0999 0.09095,0.27216 z m -0.126779,-0.0372 q -0.0014,-0.10404 -0.05857,-0.16605 -0.0565,-0.062 -0.150206,-0.062 -0.106109,0 -0.170188,0.0599 -0.06339,0.0599 -0.07304,0.16881 z"
         style="font-size:1.41111112px;word-spacing:0px;fill:#ffffff;stroke-width:0.26458332"
         id="path1420" />
      <path
         d="m 72.279781,277.63615 h 0.145383 v 0.17501 h -0.145383 z"
         style="font-size:1.41111112px;word-spacing:0px;fill:#ffffff;stroke-width:0.26458332"
         id="path1422" />
      <path
         d="m 72.711108,276.73904 h 0.126779 v 1.07212 h -0.126779 z"
         style="font-size:1.41111112px;word-spacing:0px;fill:#ffffff;stroke-width:0.26458332"
         id="path1424" />
      <path
         d="m 73.401505,277.12834 q -0.101975,0 -0.161231,0.0799 -0.05926,0.0792 -0.05926,0.21773 0,0.13849 0.05857,0.21841 0.05926,0.0792 0.16192,0.0792 0.101285,0 0.160541,-0.0799 0.05926,-0.0799 0.05926,-0.21773 0,-0.13712 -0.05926,-0.21705 -0.05926,-0.0806 -0.160541,-0.0806 z m 0,-0.10749 q 0.165364,0 0.25976,0.10749 0.0944,0.10749 0.0944,0.29766 0,0.18948 -0.0944,0.29765 -0.0944,0.10749 -0.25976,0.10749 -0.166054,0 -0.26045,-0.10749 -0.09371,-0.10817 -0.09371,-0.29765 0,-0.19017 0.09371,-0.29766 0.0944,-0.10749 0.26045,-0.10749 z"
         style="font-size:1.41111112px;word-spacing:0px;fill:#ffffff;stroke-width:0.26458332"
         id="path1426" />
      <path
         d="m 74.472929,277.41635 q 0,-0.1378 -0.05719,-0.2136 -0.0565,-0.0758 -0.159164,-0.0758 -0.101975,0 -0.159163,0.0758 -0.0565,0.0758 -0.0565,0.2136 0,0.13711 0.0565,0.21291 0.05719,0.0758 0.159163,0.0758 0.102664,0 0.159164,-0.0758 0.05719,-0.0758 0.05719,-0.21291 z m 0.12678,0.29903 q 0,0.19706 -0.08751,0.29284 -0.0875,0.0965 -0.268028,0.0965 -0.06683,0 -0.126091,-0.0103 -0.05925,-0.01 -0.115066,-0.0303 v -0.12334 q 0.05581,0.0303 0.110243,0.0448 0.05443,0.0145 0.110932,0.0145 0.124713,0 0.186724,-0.0655 0.06201,-0.0648 0.06201,-0.19637 v -0.0627 q -0.03927,0.0682 -0.100597,0.10198 -0.06132,0.0338 -0.146761,0.0338 -0.141938,0 -0.228754,-0.10818 -0.08682,-0.10817 -0.08682,-0.28663 0,-0.17915 0.08682,-0.28732 0.08682,-0.10818 0.228754,-0.10818 0.08544,0 0.146761,0.0338 0.06132,0.0338 0.100597,0.10198 v -0.11713 h 0.12678 z"
         style="font-size:1.41111112px;word-spacing:0px;fill:#ffffff;stroke-width:0.26458332"
         id="path1428" />
    </g>
    <g
       aria-label="(&quot;Ola mundo&quot;)"
       style="font-style:normal;font-weight:normal;font-size:10.58333302px;line-height:1.25;font-family:sans-serif;letter-spacing:0px;word-spacing:-8.52752113px;fill:#000000;fill-opacity:1;stroke:none;stroke-width:0.26458332"
       id="text1355-4">
      <path
         d="m 66.410672,278.30857 q -0.09233,0.15847 -0.137115,0.3135 -0.04479,0.15503 -0.04479,0.31419 0,0.15917 0.04479,0.31557 0.04548,0.15572 0.137115,0.31351 h -0.110243 q -0.103353,-0.16192 -0.15503,-0.31833 -0.05099,-0.15641 -0.05099,-0.31075 0,-0.15365 0.05099,-0.30937 0.05099,-0.15571 0.15503,-0.31832 z"
         style="font-size:1.41111112px;word-spacing:0px;fill:#ffffff;stroke-width:0.26458332"
         id="path1431" />
      <path
         d="m 66.77723,278.3506 v 0.3824 h -0.117133 v -0.3824 z m 0.260449,0 v 0.3824 h -0.117133 v -0.3824 z"
         style="font-size:1.41111112px;word-spacing:0px;fill:#ffffff;stroke-width:0.26458332"
         id="path1433" />
      <path
         d="m 67.730832,278.44499 q -0.151584,0 -0.241156,0.113 -0.08888,0.113 -0.08888,0.30799 0,0.19431 0.08888,0.30731 0.08957,0.113 0.241156,0.113 0.151584,0 0.239779,-0.113 0.08888,-0.113 0.08888,-0.30731 0,-0.19499 -0.08888,-0.30799 -0.08819,-0.113 -0.239779,-0.113 z m 0,-0.113 q 0.216352,0 0.345888,0.14539 0.129535,0.14469 0.129535,0.3886 0,0.24323 -0.129535,0.38861 -0.129536,0.14469 -0.345888,0.14469 -0.217041,0 -0.347265,-0.14469 -0.129536,-0.14469 -0.129536,-0.38861 0,-0.24391 0.129536,-0.3886 0.130224,-0.14539 0.347265,-0.14539 z"
         style="font-size:1.41111112px;word-spacing:0px;fill:#ffffff;stroke-width:0.26458332"
         id="path1435" />
      <path
         d="m 68.418473,278.30719 h 0.12678 v 1.07211 h -0.12678 z"
         style="font-size:1.41111112px;word-spacing:0px;fill:#ffffff;stroke-width:0.26458332"
         id="path1437" />
      <path
         d="m 69.160547,278.99139 q -0.153651,0 -0.212907,0.0351 -0.05926,0.0351 -0.05926,0.11988 0,0.0675 0.0441,0.10749 0.04479,0.0393 0.121267,0.0393 0.10542,0 0.16881,-0.0744 0.06408,-0.0751 0.06408,-0.19912 v -0.0282 z m 0.25287,-0.0524 v 0.44028 h -0.12678 v -0.11713 q -0.04341,0.0703 -0.108176,0.10404 -0.06477,0.0331 -0.158474,0.0331 -0.118511,0 -0.188791,-0.0661 -0.06959,-0.0668 -0.06959,-0.17846 0,-0.13022 0.08682,-0.19637 0.08751,-0.0661 0.26045,-0.0661 h 0.177766 v -0.0124 q 0,-0.0875 -0.05788,-0.13504 -0.05719,-0.0482 -0.161231,-0.0482 -0.06614,0 -0.128846,0.0158 -0.0627,0.0159 -0.120579,0.0475 v -0.11713 q 0.06959,-0.0269 0.135048,-0.04 0.06546,-0.0138 0.127469,-0.0138 0.167431,0 0.250114,0.0868 0.08268,0.0868 0.08268,0.26321 z"
         style="font-size:1.41111112px;word-spacing:0px;fill:#ffffff;stroke-width:0.26458332"
         id="path1439" />
      <path
         d="m 70.725309,278.75574 q 0.04754,-0.0854 0.113688,-0.12609 0.06615,-0.0407 0.155719,-0.0407 0.120578,0 0.186035,0.0847 0.06546,0.0841 0.06546,0.23978 v 0.46577 h -0.127468 v -0.46164 q 0,-0.11093 -0.03927,-0.16468 -0.03927,-0.0537 -0.119889,-0.0537 -0.09853,0 -0.155719,0.0655 -0.05719,0.0654 -0.05719,0.17845 v 0.43615 H 70.6192 v -0.46164 q 0,-0.11162 -0.03927,-0.16468 -0.03927,-0.0537 -0.121267,-0.0537 -0.09715,0 -0.154341,0.0662 -0.05719,0.0654 -0.05719,0.17776 v 0.43615 h -0.127469 v -0.7717 h 0.127469 v 0.11989 q 0.04341,-0.071 0.104042,-0.10473 0.06063,-0.0338 0.144005,-0.0338 0.08406,0 0.142627,0.0427 0.05925,0.0427 0.0875,0.12402 z"
         style="font-size:1.41111112px;word-spacing:0px;fill:#ffffff;stroke-width:0.26458332"
         id="path1441" />
      <path
         d="m 71.486675,279.07476 v -0.46716 h 0.12678 v 0.46233 q 0,0.10956 0.04272,0.16468 0.04272,0.0544 0.128158,0.0544 0.102663,0 0.161919,-0.0655 0.05994,-0.0654 0.05994,-0.17845 v -0.43753 h 0.126779 v 0.7717 h -0.126779 v -0.11851 q -0.04617,0.0703 -0.107487,0.10473 -0.06063,0.0338 -0.141249,0.0338 -0.132981,0 -0.201883,-0.0827 -0.0689,-0.0827 -0.0689,-0.24184 z m 0.319016,-0.48576 z"
         style="font-size:1.41111112px;word-spacing:0px;fill:#ffffff;stroke-width:0.26458332"
         id="path1443" />
      <path
         d="m 73.036968,278.91353 v 0.46577 h -0.126779 v -0.46164 q 0,-0.10955 -0.04272,-0.16399 -0.04272,-0.0544 -0.128158,-0.0544 -0.102664,0 -0.161919,0.0655 -0.05926,0.0654 -0.05926,0.17845 v 0.43615 h -0.127469 v -0.7717 h 0.127469 v 0.11989 q 0.04548,-0.0696 0.106798,-0.10404 0.06201,-0.0344 0.142627,-0.0344 0.13298,0 0.201193,0.0827 0.06821,0.082 0.06821,0.24185 z"
         style="font-size:1.41111112px;word-spacing:0px;fill:#ffffff;stroke-width:0.26458332"
         id="path1445" />
      <path
         d="m 73.799023,278.72473 v -0.41754 h 0.12678 v 1.07211 h -0.12678 v -0.11575 q -0.03996,0.0689 -0.101285,0.10266 -0.06063,0.0331 -0.146073,0.0331 -0.13987,0 -0.228065,-0.11162 -0.0875,-0.11162 -0.0875,-0.29352 0,-0.1819 0.0875,-0.29352 0.08819,-0.11162 0.228065,-0.11162 0.08544,0 0.146073,0.0338 0.06132,0.0331 0.101285,0.10197 z m -0.432015,0.26941 q 0,0.13987 0.05719,0.2198 0.05788,0.0792 0.158474,0.0792 0.100597,0 0.158475,-0.0792 0.05788,-0.0799 0.05788,-0.2198 0,-0.13987 -0.05788,-0.21911 -0.05788,-0.0799 -0.158475,-0.0799 -0.100596,0 -0.158474,0.0799 -0.05719,0.0792 -0.05719,0.21911 z"
         style="font-size:1.41111112px;word-spacing:0px;fill:#ffffff;stroke-width:0.26458332"
         id="path1447" />
      <path
         d="m 74.485976,278.69649 q -0.101975,0 -0.161231,0.0799 -0.05925,0.0792 -0.05925,0.21773 0,0.13849 0.05857,0.21842 0.05926,0.0792 0.16192,0.0792 0.101286,0 0.160541,-0.0799 0.05926,-0.0799 0.05926,-0.21773 0,-0.13711 -0.05926,-0.21704 -0.05926,-0.0806 -0.160541,-0.0806 z m 0,-0.10749 q 0.165364,0 0.25976,0.10749 0.0944,0.10748 0.0944,0.29765 0,0.18948 -0.0944,0.29766 -0.0944,0.10748 -0.25976,0.10748 -0.166054,0 -0.260449,-0.10748 -0.09371,-0.10818 -0.09371,-0.29766 0,-0.19017 0.09371,-0.29765 0.0944,-0.10749 0.260449,-0.10749 z"
         style="font-size:1.41111112px;word-spacing:0px;fill:#ffffff;stroke-width:0.26458332"
         id="path1449" />
      <path
         d="m 75.169483,278.3506 v 0.3824 h -0.117134 v -0.3824 z m 0.260449,0 v 0.3824 h -0.117133 v -0.3824 z"
         style="font-size:1.41111112px;word-spacing:0px;fill:#ffffff;stroke-width:0.26458332"
         id="path1451" />
      <path
         d="m 75.680045,278.30857 h 0.110243 q 0.103353,0.16261 0.154341,0.31832 0.05168,0.15572 0.05168,0.30937 0,0.15434 -0.05168,0.31075 -0.05099,0.15641 -0.154341,0.31833 h -0.110243 q 0.09164,-0.15779 0.136426,-0.31351 0.04547,-0.1564 0.04547,-0.31557 0,-0.15916 -0.04547,-0.31419 -0.04479,-0.15503 -0.136426,-0.3135 z"
         style="font-size:1.41111112px;word-spacing:0px;fill:#ffffff;stroke-width:0.26458332"
         id="path1453" />
    </g>
    <path
       style="fill:#ffffff;stroke:#ffffff;stroke-width:0.26458332px;stroke-linecap:butt;stroke-linejoin:miter;stroke-opacity:1"
       d="m 67.521142,280.29982 7.989893,0.19647"
       id="path1387"
       inkscape:connector-curvature="0" />
    <path
       style="fill:#ffffff;fill-opacity:1;stroke:#ffffff;stroke-width:0.26499999;stroke-linecap:round;stroke-linejoin:round;stroke-miterlimit:4;stroke-dasharray:none;stroke-opacity:1"
       id="path1389"
       sodipodi:type="arc"
       sodipodi:cx="70.795685"
       sodipodi:cy="250.10851"
       sodipodi:rx="2.3576734"
       sodipodi:ry="2.2266915"
       sodipodi:start="3.1711411"
       sodipodi:end="3.1428144"
       sodipodi:open="true"
       d="m 68.439041,250.04272 a 2.3576734,2.2266915 0 0 1 2.409609,-2.16034 2.3576734,2.2266915 0 0 1 2.304429,2.26038 2.3576734,2.2266915 0 0 1 -2.376971,2.19236 2.3576734,2.2266915 0 0 1 -2.338095,-2.22934" />
    <path
       style="fill:#ffffff;fill-opacity:1;stroke:#ffffff;stroke-width:0.26499999;stroke-linecap:round;stroke-linejoin:round;stroke-miterlimit:4;stroke-dasharray:none;stroke-opacity:1"
       id="path1391"
       sodipodi:type="arc"
       sodipodi:cx="87.397636"
       sodipodi:cy="250.89439"
       sodipodi:rx="1.9974731"
       sodipodi:ry="2.0302186"
       sodipodi:start="3.1711411"
       sodipodi:end="3.1428144"
       sodipodi:open="true"
       d="m 85.401035,250.83441 a 1.9974731,2.0302186 0 0 1 2.041474,-1.96972 1.9974731,2.0302186 0 0 1 1.952364,2.06094 1.9974731,2.0302186 0 0 1 -2.013822,1.99891 1.9974731,2.0302186 0 0 1 -1.980886,-2.03263" />
    <path
       style="fill:none;stroke:#ffffff;stroke-width:0.26458332px;stroke-linecap:butt;stroke-linejoin:miter;stroke-opacity:1"
       d="m 80.029909,280.29982 h 9.95462"
       id="path1393"
       inkscape:connector-curvature="0" />
    <path
       style="fill:none;stroke:#ffffff;stroke-width:0.26458332px;stroke-linecap:butt;stroke-linejoin:miter;stroke-opacity:1"
       d="m 82.387582,276.17389 0.522803,6.51352"
       id="path1397"
       inkscape:connector-curvature="0" />
    <path
       style="fill:none;stroke:#ffffff;stroke-width:0.26458332px;stroke-linecap:butt;stroke-linejoin:miter;stroke-opacity:1"
       d="m 86.709982,276.56684 1.047856,5.30476"
       id="path1399"
       inkscape:connector-curvature="0" />
  </g>
</svg>
