<?xml version="1.0" encoding="UTF-8" standalone="no"?>
<!-- Created with Inkscape (http://www.inkscape.org/) -->

<svg
   xmlns:dc="http://purl.org/dc/elements/1.1/"
   xmlns:cc="http://creativecommons.org/ns#"
   xmlns:rdf="http://www.w3.org/1999/02/22-rdf-syntax-ns#"
   xmlns:svg="http://www.w3.org/2000/svg"
   xmlns="http://www.w3.org/2000/svg"
   xmlns:sodipodi="http://sodipodi.sourceforge.net/DTD/sodipodi-0.dtd"
   xmlns:inkscape="http://www.inkscape.org/namespaces/inkscape"
   width="1280"
   height="720"
   viewBox="0 0 338.66665 190.50001"
   version="1.1"
   id="svg8"
   inkscape:version="0.92.3 (2405546, 2018-03-11)"
   sodipodi:docname="fundo2.svg">
  <defs
     id="defs2" />
  <sodipodi:namedview
     id="base"
     pagecolor="#ffffff"
     bordercolor="#666666"
     borderopacity="1.0"
     inkscape:pageopacity="0.0"
     inkscape:pageshadow="2"
     inkscape:zoom="1.7482251"
     inkscape:cx="785.93624"
     inkscape:cy="240.89972"
     inkscape:document-units="mm"
     inkscape:current-layer="layer3"
     showgrid="false"
     units="px"
     inkscape:measure-start="0,0"
     inkscape:measure-end="0,0"
     inkscape:window-width="1600"
     inkscape:window-height="842"
     inkscape:window-x="0"
     inkscape:window-y="0"
     inkscape:window-maximized="1" />
  <metadata
     id="metadata5">
    <rdf:RDF>
      <cc:Work
         rdf:about="">
        <dc:format>image/svg+xml</dc:format>
        <dc:type
           rdf:resource="http://purl.org/dc/dcmitype/StillImage" />
        <dc:title></dc:title>
      </cc:Work>
    </rdf:RDF>
  </metadata>
  <g
     inkscape:label="Camada 1"
     inkscape:groupmode="layer"
     id="layer1"
     transform="translate(0,-106.49998)"
     sodipodi:insensitive="true">
    <rect
       style="fill:#000000;fill-opacity:1;stroke:none;stroke-width:2.29999995;stroke-miterlimit:4;stroke-dasharray:none;stroke-opacity:1"
       id="rect821"
       width="343.39539"
       height="196.46719"
       x="0"
       y="105.03633" />
  </g>
  <g
     inkscape:groupmode="layer"
     id="layer2"
     inkscape:label="Camada 2"
     style="display:inline">
    <rect
       style="fill:#d38d5f;fill-opacity:1;stroke:none;stroke-width:2.63739586;stroke-miterlimit:4;stroke-dasharray:none;stroke-opacity:1"
       id="rect824"
       width="123.28457"
       height="81.626778"
       x="197.59306"
       y="97.051445" />
    <path
       style="fill:#ffffff;fill-opacity:1;stroke:none;stroke-width:2.29999995;stroke-miterlimit:4;stroke-dasharray:none;stroke-opacity:1"
       id="path826"
       sodipodi:type="arc"
       sodipodi:cx="55.449909"
       sodipodi:cy="46.949467"
       sodipodi:rx="24.488031"
       sodipodi:ry="23.080673"
       sodipodi:start="3.1711411"
       sodipodi:end="3.1428144"
       sodipodi:open="true"
       d="M 30.972567,46.267568 A 24.488031,23.080673 0 0 1 56.00003,23.874618 24.488031,23.080673 0 0 1 79.935042,47.304551 24.488031,23.080673 0 0 1 55.246577,70.029344 24.488031,23.080673 0 0 1 30.961896,46.921268" />
    <rect
       style="fill:#803300;fill-opacity:1;stroke:none;stroke-width:2.29999995;stroke-miterlimit:4;stroke-dasharray:none;stroke-opacity:1"
       id="rect835"
       width="10.523201"
       height="86.590912"
       x="156.94603"
       y="91.581909" />
    <rect
       style="fill:#666666;fill-opacity:1;stroke:none;stroke-width:2.29999995;stroke-miterlimit:4;stroke-dasharray:none;stroke-opacity:1"
       id="rect828"
       width="343.95834"
       height="20.26597"
       x="-0.56294328"
       y="174.73759" />
    <rect
       style="fill:#b3b3b3;fill-opacity:1;stroke:none;stroke-width:2.43409109;stroke-miterlimit:4;stroke-dasharray:none;stroke-opacity:1"
       id="rect833"
       width="141.86171"
       height="16.888271"
       x="187.49387"
       y="94.934776" />
    <path
       style="fill:#b3b3b3;fill-opacity:1;stroke:none;stroke-width:2.29999995;stroke-miterlimit:4;stroke-dasharray:none;stroke-opacity:1"
       id="path837"
       sodipodi:type="arc"
       sodipodi:cx="158.59967"
       sodipodi:cy="88.12429"
       sodipodi:rx="18.490767"
       sodipodi:ry="16.085464"
       sodipodi:start="3.1711411"
       sodipodi:end="3.1428144"
       sodipodi:open="true"
       d="M 140.11698,87.649059 A 18.490767,16.085464 0 0 1 159.01506,72.042885 18.490767,16.085464 0 0 1 177.08825,88.371757 18.490767,16.085464 0 0 1 158.44614,104.2092 18.490767,16.085464 0 0 1 140.10892,88.104638" />
    <path
       style="fill:#56f49c;fill-opacity:1;stroke:none;stroke-width:8.69291306;stroke-miterlimit:4;stroke-dasharray:none;stroke-opacity:1"
       d="M 681.71875,230.24414 A 66.58603,68.29067 0 0 0 622.75781,264.01758 73.863665,54.545447 0 0 0 560.75,237.05859 73.863665,54.545447 0 0 0 485.25977,289.97852 l -0.0332,1.54492 a 73.863665,54.545447 0 0 0 4.51367,18.75195 64.772731,50.56818 0 0 0 -24.93945,38.34375 l -0.0273,1.43359 a 64.772731,50.56818 0 0 0 42.76172,47.55469 59.659089,48.295451 0 0 0 -2.96289,13.58008 l -0.0274,1.36719 a 59.659089,48.295451 0 0 0 59.16406,48.35351 59.659089,48.295451 0 0 0 40.61524,-12.59765 72.15909,59.090907 0 0 0 33.14453,6.91406 72.15909,59.090907 0 0 0 72.75,-58.17969 72.15909,59.090907 0 0 0 -11.60742,-32.95703 66.58603,68.29067 0 0 0 48.18945,-64.51953 66.58603,68.29067 0 0 0 -65.08203,-69.32422 z m -63.23828,93.70313 a 66.58603,68.29067 0 0 0 7.47461,13.99609 72.15909,59.090907 0 0 0 -31.67969,11.26562 64.772731,50.56818 0 0 0 -1.3418,-9.18554 73.863665,54.545447 0 0 0 25.54688,-16.07617 z"
       transform="scale(0.26458333)"
       id="path839"
       inkscape:connector-curvature="0" />
    <path
       style="fill:#56f49c;fill-opacity:1;stroke:none;stroke-width:2.29999995;stroke-miterlimit:4;stroke-dasharray:none;stroke-opacity:1"
       id="path850"
       sodipodi:type="arc"
       sodipodi:cx="158.75"
       sodipodi:cy="85.267982"
       sodipodi:rx="8.7192307"
       sodipodi:ry="6.3139186"
       sodipodi:start="3.1711411"
       sodipodi:end="3.1428144"
       sodipodi:open="true"
       d="m 150.03458,85.081443 a 8.7192307,6.3139186 0 0 1 8.9113,-6.125786 8.7192307,6.3139186 0 0 1 8.52232,6.409462 8.7192307,6.3139186 0 0 1 -8.7906,6.216564 8.7192307,6.3139186 0 0 1 -8.64682,-6.321415" />
    <rect
       style="fill:none;fill-opacity:1;stroke:#642800;stroke-width:2.29999995;stroke-miterlimit:4;stroke-dasharray:none;stroke-opacity:1"
       id="rect852"
       width="27.360321"
       height="46.302082"
       x="219.18324"
       y="128.56345" />
    <path
       style="fill:none;stroke:#803300;stroke-width:1;stroke-linecap:butt;stroke-linejoin:miter;stroke-miterlimit:4;stroke-dasharray:none;stroke-opacity:1"
       d="m 208.35937,110.82434 v 65.24384"
       id="path854"
       inkscape:connector-curvature="0" />
    <path
       style="fill:none;stroke:#803300;stroke-width:1;stroke-linecap:butt;stroke-linejoin:miter;stroke-miterlimit:4;stroke-dasharray:none;stroke-opacity:1"
       d="m 232.71306,112.02699 -0.30066,64.04119"
       id="path856"
       inkscape:connector-curvature="0" />
    <path
       style="fill:none;stroke:#803300;stroke-width:1;stroke-linecap:butt;stroke-linejoin:miter;stroke-miterlimit:4;stroke-dasharray:none;stroke-opacity:1"
       d="m 263.68134,112.32765 -0.60132,63.43987"
       id="path858"
       inkscape:connector-curvature="0" />
    <path
       style="fill:none;stroke:#803300;stroke-width:1;stroke-linecap:butt;stroke-linejoin:miter;stroke-miterlimit:4;stroke-dasharray:none;stroke-opacity:1"
       d="m 289.23768,112.02699 0.30067,62.53788"
       id="path860"
       inkscape:connector-curvature="0" />
    <path
       style="fill:none;stroke:#803300;stroke-width:1;stroke-linecap:butt;stroke-linejoin:miter;stroke-miterlimit:4;stroke-dasharray:none;stroke-opacity:1"
       d="m 315.0947,110.52367 -0.60132,65.24385"
       id="path862"
       inkscape:connector-curvature="0" />
    <rect
       style="fill:none;fill-opacity:1;stroke:#803300;stroke-width:2;stroke-miterlimit:4;stroke-dasharray:none;stroke-opacity:1"
       id="rect864"
       width="33.072918"
       height="30.366951"
       x="269.39395"
       y="123.15152" />
    <rect
       style="fill:#666666;fill-opacity:1;stroke:none;stroke-width:2;stroke-miterlimit:4;stroke-dasharray:none;stroke-opacity:1"
       id="rect868"
       width="23.451704"
       height="8.117898"
       x="259.77274"
       y="77.450752" />
    <rect
       style="fill:#69c0ff;fill-opacity:1;stroke:none;stroke-width:2;stroke-miterlimit:4;stroke-dasharray:none;stroke-opacity:1"
       id="rect866"
       width="42.163136"
       height="28.921236"
       x="278.71448"
       y="68.130211" />
    <rect
       style="fill:#666666;fill-opacity:1;stroke:none;stroke-width:2;stroke-miterlimit:4;stroke-dasharray:none;stroke-opacity:1"
       id="rect870"
       width="8.7192154"
       height="25.255688"
       x="259.77274"
       y="77.450752" />
    <path
       sodipodi:type="star"
       style="fill:#ffffff;fill-opacity:1;stroke:none;stroke-width:2;stroke-miterlimit:4;stroke-dasharray:none;stroke-opacity:1"
       id="path872"
       sodipodi:sides="5"
       sodipodi:cx="117.25852"
       sodipodi:cy="29.946024"
       sodipodi:r1="5.6728959"
       sodipodi:r2="2.2427033"
       sodipodi:arg1="1.012197"
       sodipodi:arg2="1.5533641"
       inkscape:flatsided="false"
       inkscape:rounded="0"
       inkscape:randomized="0"
       d="m 120.26515,34.75663 -2.96753,-2.568244 -3.68516,2.103671 1.52553,-3.615925 -3.13949,-2.854718 3.91037,0.333479 1.74484,-3.867983 0.89121,3.822026 4.21786,0.464173 -3.35956,2.028663 z"
       inkscape:transform-center-x="-0.1221188"
       inkscape:transform-center-y="-0.42425442" />
    <path
       sodipodi:type="star"
       style="fill:#ffffff;fill-opacity:1;stroke:none;stroke-width:2;stroke-miterlimit:4;stroke-dasharray:none;stroke-opacity:1"
       id="path874"
       sodipodi:sides="5"
       sodipodi:cx="104.63068"
       sodipodi:cy="51.59375"
       sodipodi:r1="3.1960902"
       sodipodi:r2="1.2635328"
       sodipodi:arg1="0.71883"
       sodipodi:arg2="1.3471485"
       inkscape:flatsided="false"
       inkscape:rounded="0"
       inkscape:randomized="0"
       d="m 107.03598,53.69839 -2.12507,-0.872576 -1.53859,1.705885 0.17319,-2.290699 -2.09784,-0.936138 2.2321,-0.543154 0.24205,-2.284449 1.20633,1.955011 2.24744,-0.47573 -1.48655,1.751418 z"
       inkscape:transform-center-x="0.21904944"
       inkscape:transform-center-y="-0.089271955" />
    <path
       sodipodi:type="star"
       style="fill:#ffffff;fill-opacity:1;stroke:none;stroke-width:2;stroke-miterlimit:4;stroke-dasharray:none;stroke-opacity:1"
       id="path876"
       sodipodi:sides="5"
       sodipodi:cx="184.90767"
       sodipodi:cy="46.783142"
       sodipodi:r1="4.7538977"
       sodipodi:r2="1.8793916"
       sodipodi:arg1="1.2490458"
       sodipodi:arg2="1.8773643"
       inkscape:flatsided="false"
       inkscape:rounded="0"
       inkscape:randomized="0"
       d="m 186.41098,51.293085 -2.07049,-2.718178 -3.25748,1.031621 1.94532,-2.809119 -1.98775,-2.779262 3.27277,0.982048 2.02899,-2.7493 0.0774,3.416058 3.24173,1.080101 -3.22496,1.129193 z"
       inkscape:transform-center-x="-0.44333547"
       inkscape:transform-center-y="-0.011152353" />
    <path
       sodipodi:type="star"
       style="fill:#ffffff;fill-opacity:1;stroke:none;stroke-width:2;stroke-miterlimit:4;stroke-dasharray:none;stroke-opacity:1"
       id="path878"
       sodipodi:sides="5"
       sodipodi:cx="157.84801"
       sodipodi:cy="36.861267"
       sodipodi:r1="5.9223719"
       sodipodi:r2="2.3413327"
       sodipodi:arg1="1.152572"
       sodipodi:arg2="1.7808905"
       inkscape:flatsided="false"
       inkscape:rounded="0"
       inkscape:randomized="0"
       d="m 160.25331,42.273199 -2.89359,-3.122082 -3.91549,1.670108 2.07511,-3.716746 -2.79832,-3.207755 4.17608,0.825006 2.18603,-3.652609 0.50585,4.226628 4.14936,0.950318 -3.86345,1.787194 z"
       inkscape:transform-center-x="-0.38167193"
       inkscape:transform-center-y="-0.19010779" />
    <path
       sodipodi:type="star"
       style="fill:#ffffff;fill-opacity:1;stroke:none;stroke-width:2;stroke-miterlimit:4;stroke-dasharray:none;stroke-opacity:1"
       id="path880"
       sodipodi:sides="5"
       sodipodi:cx="32.170929"
       sodipodi:cy="93.987213"
       sodipodi:r1="3.4280844"
       sodipodi:r2="1.3552485"
       sodipodi:arg1="0.66104317"
       sodipodi:arg2="1.2893617"
       inkscape:flatsided="false"
       inkscape:rounded="0"
       inkscape:randomized="0"
       d="m 34.876895,96.091853 -2.329567,-0.80271 -1.541841,1.921966 0.04355,-2.463601 -2.304353,-0.872458 2.356481,-0.719879 0.117672,-2.461174 1.412838,2.018691 2.377079,-0.648632 -1.483298,1.967499 z"
       inkscape:transform-center-x="0.29421425"
       inkscape:transform-center-y="-0.034661395" />
    <path
       sodipodi:type="star"
       style="fill:#ffffff;fill-opacity:1;stroke:none;stroke-width:2;stroke-miterlimit:4;stroke-dasharray:none;stroke-opacity:1"
       id="path882"
       sodipodi:sides="5"
       sodipodi:cx="225.79784"
       sodipodi:cy="46.181816"
       sodipodi:r1="5.0040278"
       sodipodi:r2="1.9782773"
       sodipodi:arg1="0.99945885"
       sodipodi:arg2="1.6277774"
       inkscape:flatsided="false"
       inkscape:rounded="0"
       inkscape:randomized="0"
       d="m 228.5038,50.391097 -2.81863,-2.234214 -3.05441,1.899199 1.25386,-3.371086 -2.75011,-2.318032 3.59356,0.150768 1.35475,-3.331822 0.96708,3.464266 3.58739,0.258853 -2.99587,1.990265 z"
       inkscape:transform-center-x="-0.08806097"
       inkscape:transform-center-y="-0.39331352" />
    <path
       sodipodi:type="star"
       style="fill:#ffffff;fill-opacity:1;stroke:none;stroke-width:2;stroke-miterlimit:4;stroke-dasharray:none;stroke-opacity:1"
       id="path884"
       sodipodi:sides="5"
       sodipodi:cx="249.55019"
       sodipodi:cy="19.422821"
       sodipodi:r1="4.848043"
       sodipodi:r2="1.9166108"
       sodipodi:arg1="1.4464413"
       sodipodi:arg2="2.0747599"
       inkscape:flatsided="false"
       inkscape:rounded="0"
       inkscape:randomized="0"
       d="m 250.15151,24.233427 -1.52686,-3.132277 -3.4638,0.380125 2.50715,-2.420055 -1.4319,-3.17681 3.07636,1.636601 2.57885,-2.343502 -0.60586,3.431529 3.02571,1.728447 -3.45079,0.484201 z"
       inkscape:transform-center-x="-0.18581674"
       inkscape:transform-center-y="0.28264656" />
    <path
       sodipodi:type="star"
       style="fill:#ffffff;fill-opacity:1;stroke:none;stroke-width:2;stroke-miterlimit:4;stroke-dasharray:none;stroke-opacity:1"
       id="path886"
       sodipodi:sides="5"
       sodipodi:cx="275.70789"
       sodipodi:cy="39.266571"
       sodipodi:r1="5.5276194"
       sodipodi:r2="2.1852727"
       sodipodi:arg1="0.78539816"
       sodipodi:arg2="1.4137167"
       inkscape:flatsided="false"
       inkscape:rounded="0"
       inkscape:randomized="0"
       d="m 279.6165,43.175188 -3.56676,-1.750249 -2.85134,2.766777 0.56239,-3.933052 -3.51247,-1.856803 3.91434,-0.680511 0.68052,-3.914344 1.8568,3.512473 3.93305,-0.562395 -2.76678,2.851339 z"
       inkscape:transform-center-x="0.26721364"
       inkscape:transform-center-y="-0.26721067" />
    <path
       sodipodi:type="star"
       style="fill:#ffffff;fill-opacity:1;stroke:none;stroke-width:2;stroke-miterlimit:4;stroke-dasharray:none;stroke-opacity:1"
       id="path888"
       sodipodi:sides="5"
       sodipodi:cx="296.15295"
       sodipodi:cy="24.233427"
       sodipodi:r1="6.8627577"
       sodipodi:r2="2.7131021"
       sodipodi:arg1="1.0679531"
       sodipodi:arg2="1.6962716"
       inkscape:flatsided="false"
       inkscape:rounded="0"
       inkscape:randomized="0"
       d="m 299.46025,30.246684 -3.64683,-3.321484 -4.3574,2.311847 2.03198,-4.494733 -3.54521,-3.429737 4.90267,0.543587 2.16634,-4.431542 0.99803,4.830689 4.88408,0.690893 -4.28585,2.441943 z"
       inkscape:transform-center-x="-0.2653952"
       inkscape:transform-center-y="-0.39777395" />
    <path
       sodipodi:type="star"
       style="fill:#ffffff;fill-opacity:1;stroke:none;stroke-width:2;stroke-miterlimit:4;stroke-dasharray:none;stroke-opacity:1"
       id="path890"
       sodipodi:sides="5"
       sodipodi:cx="313.59137"
       sodipodi:cy="39.567234"
       sodipodi:r1="4.5894198"
       sodipodi:r2="1.8143673"
       sodipodi:arg1="1.0191413"
       sodipodi:arg2="1.6474599"
       inkscape:flatsided="false"
       inkscape:rounded="0"
       inkscape:randomized="0"
       d="m 315.99667,43.475852 -2.54426,-2.09958 -2.83508,1.686371 1.2106,-3.068544 -2.47992,-2.175201 3.29245,0.203115 1.30241,-3.030719 0.82425,3.194076 3.28485,0.302114 -2.78304,1.770932 z"
       inkscape:transform-center-x="-0.10861449"
       inkscape:transform-center-y="-0.33366158" />
    <path
       sodipodi:type="star"
       style="fill:#ffffff;fill-opacity:1;stroke:none;stroke-width:2;stroke-miterlimit:4;stroke-dasharray:none;stroke-opacity:1"
       id="path892"
       sodipodi:sides="5"
       sodipodi:cx="329.22586"
       sodipodi:cy="23.030777"
       sodipodi:r1="2.9611859"
       sodipodi:r2="1.1706665"
       sodipodi:arg1="0.41822433"
       sodipodi:arg2="1.0465429"
       inkscape:flatsided="false"
       inkscape:rounded="0"
       inkscape:randomized="0"
       d="m 331.93183,24.233428 -2.11997,-0.189208 -0.8936,1.931723 -0.47516,-2.074679 -2.11331,-0.252926 1.8263,-1.093014 -0.4125,-2.088039 1.60388,1.399159 1.85837,-1.037554 -0.83505,1.957742 z"
       inkscape:transform-center-x="0.095057812"
       inkscape:transform-center-y="0.19083667" />
  </g>
  <g
     inkscape:groupmode="layer"
     id="layer3"
     inkscape:label="Camada 3" />
</svg>
