<?xml version="1.0" encoding="UTF-8" standalone="no"?>
<!-- Created with Inkscape (http://www.inkscape.org/) -->

<svg
   xmlns:dc="http://purl.org/dc/elements/1.1/"
   xmlns:cc="http://creativecommons.org/ns#"
   xmlns:rdf="http://www.w3.org/1999/02/22-rdf-syntax-ns#"
   xmlns:svg="http://www.w3.org/2000/svg"
   xmlns="http://www.w3.org/2000/svg"
   xmlns:sodipodi="http://sodipodi.sourceforge.net/DTD/sodipodi-0.dtd"
   xmlns:inkscape="http://www.inkscape.org/namespaces/inkscape"
   width="320"
   height="320"
   viewBox="0 0 84.666665 84.666669"
   version="1.1"
   id="svg1083"
   inkscape:version="0.92.3 (2405546, 2018-03-11)"
   sodipodi:docname="fundo3.svg">
  <defs
     id="defs1077" />
  <sodipodi:namedview
     id="base"
     pagecolor="#ffffff"
     bordercolor="#666666"
     borderopacity="1.0"
     inkscape:pageopacity="0.0"
     inkscape:pageshadow="2"
     inkscape:zoom="2.32"
     inkscape:cx="317.75"
     inkscape:cy="140.45977"
     inkscape:document-units="mm"
     inkscape:current-layer="layer4"
     showgrid="false"
     units="px"
     inkscape:window-width="1600"
     inkscape:window-height="842"
     inkscape:window-x="0"
     inkscape:window-y="0"
     inkscape:window-maximized="1" />
  <metadata
     id="metadata1080">
    <rdf:RDF>
      <cc:Work
         rdf:about="">
        <dc:format>image/svg+xml</dc:format>
        <dc:type
           rdf:resource="http://purl.org/dc/dcmitype/StillImage" />
        <dc:title></dc:title>
      </cc:Work>
    </rdf:RDF>
  </metadata>
  <g
     inkscape:label="Camada 1"
     inkscape:groupmode="layer"
     id="layer1"
     transform="translate(0,-212.33332)"
     sodipodi:insensitive="true">
    <rect
       style="fill:#00005b;fill-opacity:1;stroke:none;stroke-width:2;stroke-miterlimit:4;stroke-dasharray:none;stroke-opacity:1"
       id="rect1628"
       width="86.479546"
       height="86.479546"
       x="-0.24498457"
       y="212.23532" />
  </g>
  <g
     inkscape:groupmode="layer"
     id="layer4"
     inkscape:label="Camada 2">
    <path
       style="fill:#ffffff;fill-opacity:1;stroke:none;stroke-width:2;stroke-miterlimit:4;stroke-dasharray:none;stroke-opacity:1"
       d="m 43.427034,15.189901 a 8.4519671,8.6969517 76.885406 0 0 -4.302483,2.257782 l -16.711114,3.893286 a 7.5945213,7.472029 76.885406 0 0 -1.696325,0.145819 7.5945213,7.472029 76.885406 0 0 -5.76526,8.908509 l 0.04525,0.210188 a 7.5945213,7.472029 76.885406 0 0 8.942392,5.723937 7.5945213,7.472029 76.885406 0 0 1.836391,-0.67881 l 17.131862,-3.99131 a 8.4519671,8.6969517 76.885406 0 0 4.093473,0.05181 8.4519671,8.6969517 76.885406 0 0 6.651123,-10.093856 8.4519671,8.6969517 76.885406 0 0 -10.225314,-6.427358 z"
       id="path1631"
       inkscape:connector-curvature="0" />
    <path
       style="fill:#00005b;fill-opacity:1;stroke:none;stroke-width:1.49003029;stroke-miterlimit:4;stroke-dasharray:none;stroke-opacity:1"
       id="path1638"
       sodipodi:type="arc"
       sodipodi:cx="43.14415"
       sodipodi:cy="21.266205"
       sodipodi:rx="2.5370219"
       sodipodi:ry="2.4499893"
       sodipodi:start="3.1711411"
       sodipodi:end="3.1428144"
       sodipodi:open="true"
       d="m 40.608235,21.193822 a 2.5370219,2.4499893 0 0 1 2.592909,-2.376988 2.5370219,2.4499893 0 0 1 2.479727,2.487063 2.5370219,2.4499893 0 0 1 -2.557787,2.412213 2.5370219,2.4499893 0 0 1 -2.515954,-2.452898" />
    <path
       style="fill:#00005b;fill-opacity:1;stroke:none;stroke-width:1.49003029;stroke-miterlimit:4;stroke-dasharray:none;stroke-opacity:1"
       id="path1638-3"
       sodipodi:type="arc"
       sodipodi:cx="49.609375"
       sodipodi:cy="24.793283"
       sodipodi:rx="2.5370219"
       sodipodi:ry="2.4499893"
       sodipodi:start="3.1711411"
       sodipodi:end="3.1428144"
       sodipodi:open="true"
       d="m 47.073461,24.720901 a 2.5370219,2.4499893 0 0 1 2.592908,-2.376989 2.5370219,2.4499893 0 0 1 2.479728,2.487063 2.5370219,2.4499893 0 0 1 -2.557788,2.412213 2.5370219,2.4499893 0 0 1 -2.515954,-2.452898" />
    <rect
       style="fill:#00005b;fill-opacity:1;stroke:none;stroke-width:2;stroke-miterlimit:4;stroke-dasharray:none;stroke-opacity:1"
       id="rect1655"
       width="2.2808907"
       height="7.5269399"
       x="11.314194"
       y="30.724483"
       transform="rotate(-17.256074)" />
    <rect
       style="fill:#00005b;fill-opacity:1;stroke:none;stroke-width:2;stroke-miterlimit:4;stroke-dasharray:none;stroke-opacity:1"
       id="rect1657"
       width="8.3252516"
       height="1.8247126"
       x="8.5296288"
       y="33.695808"
       transform="rotate(-17.077247)" />
    <rect
       style="fill:#00005b;fill-opacity:1;stroke:none;stroke-width:2;stroke-miterlimit:4;stroke-dasharray:none;stroke-opacity:1"
       id="rect1659"
       width="2.1668463"
       height="5.2460489"
       x="39.700069"
       y="6.2372551"
       ry="1.0834231"
       transform="rotate(28.187929)"
       inkscape:transform-center-x="1.1404454"
       inkscape:transform-center-y="1.1404454" />
    <rect
       style="fill:#00005b;fill-opacity:1;stroke:none;stroke-width:2;stroke-miterlimit:4;stroke-dasharray:none;stroke-opacity:1"
       id="rect1659-6"
       width="2.1668463"
       height="5.2460489"
       x="43.045795"
       y="3.6678615"
       ry="1.0834231"
       transform="rotate(28.187928)"
       inkscape:transform-center-x="1.1404454"
       inkscape:transform-center-y="1.1404454" />
    <path
       style="fill:#ffffff;stroke:none;stroke-width:0.26458332px;stroke-linecap:butt;stroke-linejoin:miter;stroke-opacity:1"
       d="m 28.511135,22.056214 c 0.03115,-0.116175 0.176773,-0.610126 0.114046,-0.798312 -0.01701,-0.051 -0.09704,-0.06304 -0.114046,-0.114045 -0.02405,-0.07213 0.02824,-0.157497 0,-0.228089 -0.0509,-0.127261 -0.166791,-0.219539 -0.22809,-0.342133 -0.01701,-0.034 0,-0.07603 0,-0.114045 0,-0.114044 0.02236,-0.230303 0,-0.342133 -0.01667,-0.08335 -0.08716,-0.147448 -0.114043,-0.228089 -0.01201,-0.03606 0.02109,-0.08242 0,-0.114045 -0.07603,-0.07603 -0.152062,-0.152059 -0.22809,-0.228089 0,-0.03801 0.01701,-0.08004 0,-0.114045 -0.02405,-0.04809 -0.09704,-0.06304 -0.114046,-0.114044 -0.02405,-0.07213 0.02405,-0.155961 0,-0.228089 -0.034,-0.102005 -0.168444,-0.138625 -0.228089,-0.228089 -0.04715,-0.07073 -0.08716,-0.147448 -0.114043,-0.228089 -0.01201,-0.03607 0.02109,-0.08242 0,-0.114045 -0.05964,-0.08946 -0.168447,-0.138625 -0.22809,-0.228089 -0.02109,-0.03163 0.01701,-0.08004 0,-0.114044 -0.02405,-0.04809 -0.08422,-0.06931 -0.114043,-0.114045 -0.04715,-0.07073 -0.06689,-0.157362 -0.114046,-0.228089 -0.05964,-0.08946 -0.180004,-0.131918 -0.228089,-0.228089 -0.01701,-0.034 0.01701,-0.08004 0,-0.114045 -0.02405,-0.04809 -0.07603,-0.07603 -0.114044,-0.114044 -0.152058,-0.15206 -0.304119,-0.304119 -0.456178,-0.456179 -0.07603,-0.07603 -0.15206,-0.152059 -0.228089,-0.228089 -0.03801,-0.03801 -0.06304,-0.09704 -0.114045,-0.114044 -0.07213,-0.02404 -0.160086,0.034 -0.228089,0 -0.09617,-0.04809 -0.142071,-0.163576 -0.228089,-0.228089 -0.068,-0.051 -0.160086,-0.06304 -0.228089,-0.114045 -0.08602,-0.06451 -0.138625,-0.168446 -0.228089,-0.228089 -0.03163,-0.02109 -0.07798,0.01202 -0.114045,0 -0.08064,-0.02688 -0.147447,-0.08716 -0.228089,-0.114044 -0.03606,-0.01202 -0.08004,0.017 -0.114044,0 -1.063684,-0.709123 0.160084,0.01535 -0.570223,-0.228089 -0.051,-0.017 -0.07603,-0.07603 -0.114044,-0.114045 -0.07603,-0.07603 -0.138626,-0.168446 -0.228089,-0.228089 -0.03163,-0.02109 -0.07798,0.01202 -0.114045,0 -0.08064,-0.02688 -0.147447,-0.08716 -0.228089,-0.114045 -0.03606,-0.01202 -0.08004,0.017 -0.114045,0 -0.09617,-0.04808 -0.131918,-0.180003 -0.228089,-0.228089 -0.034,-0.017 -0.07798,0.01202 -0.114044,0 -0.08064,-0.02688 -0.147448,-0.08716 -0.228089,-0.114044 -0.108193,-0.03606 -0.231494,0.02766 -0.342134,0 -0.550715,-0.137679 0.0057,-0.0542 -0.342133,-0.228089 -0.034,-0.017 -0.07603,0 -0.114045,0 -0.07603,0 -0.152059,0 -0.228089,0 -0.09789,0 -0.617542,0.02224 -0.684267,0 -0.051,-0.017 -0.06596,-0.09 -0.114045,-0.114045 -0.068,-0.034 -0.160086,0.034 -0.228089,0 -0.05891,-0.02945 -0.531538,-0.531537 -0.570223,-0.570222 -0.228089,-0.228089 -0.456178,-0.456179 -0.684267,-0.684268 -0.05136,-0.05136 -0.32478,-0.290072 -0.342134,-0.342133 -0.02404,-0.07213 0.02404,-0.155961 0,-0.228089 -0.02574,-0.07723 -0.298574,-0.255017 -0.342133,-0.342134 -0.017,-0.034 0.02109,-0.08241 0,-0.114045 -0.05964,-0.08946 -0.15206,-0.152059 -0.228089,-0.228089 -0.03801,-0.03801 -0.09,-0.06596 -0.114045,-0.114044 -0.03802,-0.114045 -0.07603,-0.228089 -0.114044,-0.342134 -0.03802,-0.03801 -0.09,-0.06596 -0.114045,-0.114044 -0.017,-0.034 0.017,-0.08004 0,-0.114045 -0.02404,-0.04809 -0.09,-0.06596 -0.114044,-0.114044 -0.034,-0.068 0.04217,-0.164829 0,-0.228089 -0.273721,-0.410581 -0.228089,-0.04325 -0.228089,-0.456179 0,-0.07603 0.02404,-0.155961 0,-0.228089 -0.017,-0.051 -0.09704,-0.06304 -0.114045,-0.114044 -0.03606,-0.108192 0,-0.2280893 0,-0.3421339 0,-0.038015 -0.034,-0.097044 0,-0.1140444 0.09124,-0.045618 0.250898,0.045618 0.342134,0 0.04809,-0.024043 0.06596,-0.090002 0.114044,-0.1140447 0.07234,-0.03617 0.496137,0.037043 0.570223,0 0.04809,-0.024043 0.06596,-0.090002 0.114044,-0.1140444 0.068,-0.034002 0.160086,0.034002 0.228089,0 0.474626,-0.237313 -0.121917,0.00787 0.114045,-0.2280891 0.02688,-0.026881 0.07603,0 0.114044,0 0.379302,0 0.120065,-0.068003 0.342134,0.2280891 0.06451,0.086018 0.168447,0.1386252 0.228089,0.2280891 0.02109,0.03163 -0.01202,0.07798 0,0.1140444 0.02688,0.080642 0.08716,0.1474479 0.114045,0.2280889 0.01202,0.03606 0,0.07603 0,0.114045 0,0.07603 0,0.152059 0,0.228089 0,0.03801 0,0.07603 0,0.114044 0,0.03801 -0.017,0.08004 0,0.114045 0.01514,0.03028 0.311853,0.326994 0.342133,0.342134 0.034,0.017 0.08004,-0.017 0.114045,0 0.04809,0.02404 0.07603,0.07603 0.114044,0.114044 0.07603,0.07603 0.15206,0.152059 0.228089,0.228089 0.378239,0.378238 -0.107522,-0.05376 0.22809,0.114045 0.04809,0.02404 0.07603,0.07603 0.114044,0.114044 0.12413,0.12413 0.328665,0.371169 0.456178,0.456178 0.04398,0.02932 0.278622,-0.02117 0.342134,0 0.08064,0.02688 0.145623,0.09343 0.228089,0.114045 0.113051,0.02826 0.469237,-0.03366 0.570223,0 0.08064,0.02688 0.147447,0.08716 0.228089,0.114044 0.10264,0.03421 0.239493,-0.03421 0.342133,0 0.051,0.017 0.06304,0.09704 0.114045,0.114045 0.07213,0.02404 0.152059,0 0.228089,0 0.03801,0 0.08241,-0.02109 0.114045,0 0.08946,0.05964 0.138625,0.168446 0.228089,0.228089 0.03163,0.02109 0.07603,0 0.114044,0 0.07603,0 0.155961,-0.02404 0.228089,0 0.051,0.017 0.06304,0.09704 0.114045,0.114045 0.07213,0.02404 0.152059,0 0.228089,0 0.03801,0 0.08241,-0.02109 0.114044,0 0.08946,0.05964 0.138626,0.168446 0.228089,0.228089 0.04729,0.03153 0.392205,-0.03199 0.456179,0 0.04809,0.02404 0.06596,0.09 0.114044,0.114044 0.034,0.017 0.07603,0 0.114045,0 0.07603,0.07603 0.138625,0.168447 0.228089,0.228089 0.03163,0.02109 0.08004,-0.017 0.114044,0 0.04809,0.02404 0.06304,0.09704 0.114045,0.114045 0.07213,0.02404 0.160086,-0.034 0.228089,0 0.07603,0.07603 0.152059,0.152059 0.228089,0.228089 0.03802,0 0.08004,-0.017 0.114043,0 0.04809,0.02404 0.07603,0.07603 0.114046,0.114045 0.07603,0.07603 0.138626,0.168446 0.22809,0.228089 0.03163,0.02109 0.07603,0 0.114043,0 0.07603,0 0.153538,-0.01491 0.228089,0 0.11788,0.02358 0.239051,0.05219 0.342133,0.114044 0.0922,0.05532 0.142073,0.163576 0.228089,0.228089 0.700099,0.525073 -0.218265,-0.223178 0.456179,0.114045 0.09617,0.04809 0.142071,0.163576 0.22809,0.228089 0.068,0.051 0.160086,0.06304 0.228089,0.114044 0.08602,0.06451 0.142071,0.163576 0.228089,0.228089 0.04066,0.280152 0.24211,0.04736 0.342133,0.114045 0.03337,0.02224 0.404207,0.378221 0.456179,0.456178 0.04715,0.07073 0.08716,0.147448 0.114043,0.228089 0.02281,0.06842 0,0.47922 0,0.570223 0,0.07603 0,0.152059 0,0.228089 0,0.03801 -0.02109,0.08241 0,0.114044 0.05964,0.08946 0.168447,0.138626 0.228089,0.228089 0.02109,0.03163 0,0.07603 0,0.114045 0,0.07603 -0.02405,0.155961 0,0.228089 0.01701,0.051 0.09704,0.06304 0.114046,0.114045 0.02405,0.07213 0,0.152059 0,0.228089 0,0.03801 -0.02109,0.08241 0,0.114044 0.05964,0.08946 0.168447,0.138625 0.22809,0.22809 0.03153,0.04729 -0.03199,0.392204 0,0.456178 0.02405,0.04809 0.09,0.06596 0.114043,0.114044 0.034,0.068 -0.034,0.160086 0,0.228089 0.04808,0.09617 0.180004,0.131919 0.228089,0.228089 0.01701,0.034 -0.01701,0.08004 0,0.114045 0.02405,0.04809 0.09,0.06596 0.114044,0.114044 0.034,0.068 -0.04217,0.164829 0,0.228089 0.05964,0.08946 0.168447,0.138626 0.228089,0.22809 0.02932,0.04398 -0.02117,0.278621 0,0.342133 0.12999,0.389969 0.09459,0.08487 0.342135,0.456178 0.0131,0.01965 0,0.553945 0,0.570223"
       id="path1678"
       inkscape:connector-curvature="0" />
    <rect
       style="fill:none;fill-opacity:1;stroke:#ffffff;stroke-width:1;stroke-miterlimit:4;stroke-dasharray:none;stroke-opacity:1"
       id="rect1682"
       width="19.045437"
       height="24.405531"
       x="72.93129"
       y="20.772568"
       ry="2.0528016"
       transform="rotate(21.84424)" />
    <rect
       style="fill:none;fill-opacity:1;stroke:#ffffff;stroke-width:0.5;stroke-miterlimit:4;stroke-dasharray:none;stroke-opacity:1"
       id="rect1684"
       width="14.369612"
       height="4.6758261"
       x="75.440269"
       y="38.221382"
       transform="rotate(21.84424)" />
    <rect
       style="fill:none;fill-opacity:1;stroke:#ffffff;stroke-width:0.5;stroke-miterlimit:4;stroke-dasharray:none;stroke-opacity:1"
       id="rect1686"
       width="5.3600936"
       height="2.6230245"
       x="80.230141"
       y="39.475868"
       ry="1.2544899"
       transform="rotate(21.84424)" />
    <path
       style="fill:#ffffff;stroke:#ffffff;stroke-width:0.26458332px;stroke-linecap:butt;stroke-linejoin:miter;stroke-opacity:1"
       d="m 61.8664,53.322987 c 0.529279,0.212171 8.786047,3.522041 8.786047,3.522041"
       id="path1688"
       inkscape:connector-curvature="0" />
    <path
       style="fill:#ffffff;stroke:#ffffff;stroke-width:0.26458332px;stroke-linecap:butt;stroke-linejoin:miter;stroke-opacity:1"
       d="m 59.682644,56.625051 10.607047,3.883418"
       id="path1692"
       inkscape:connector-curvature="0" />
    <path
       style="fill:#ffffff;stroke:#ffffff;stroke-width:0.26458332px;stroke-linecap:butt;stroke-linejoin:miter;stroke-opacity:1"
       d="m 60.568255,61.771856 7.388933,2.716249"
       id="path1694"
       inkscape:connector-curvature="0" />
    <path
       style="fill:#ffffff;fill-opacity:1;stroke:#ffffff;stroke-width:0.5;stroke-miterlimit:4;stroke-dasharray:none;stroke-opacity:1"
       id="path1696"
       sodipodi:type="arc"
       sodipodi:cx="-0.17533781"
       sodipodi:cy="67.66684"
       sodipodi:rx="10.206986"
       sodipodi:ry="10.321031"
       sodipodi:start="3.1711411"
       sodipodi:end="3.1428144"
       sodipodi:open="true"
       d="M -10.377869,67.361914 A 10.206986,10.321031 0 0 1 0.05396093,57.348414 10.206986,10.321031 0 0 1 10.030441,67.825623 10.206986,10.321031 0 0 1 -0.26008974,77.987514 10.206986,10.321031 0 0 1 -10.382317,67.65423"
       transform="rotate(-19.181946)" />
    <path
       style="fill:#00005b;fill-opacity:1;stroke:#00005b;stroke-width:0.58217871;stroke-miterlimit:4;stroke-dasharray:none;stroke-opacity:1"
       id="path1698"
       sodipodi:type="arc"
       sodipodi:cx="0.10977266"
       sodipodi:cy="68.180038"
       sodipodi:rx="3.3802469"
       sodipodi:ry="3.3802452"
       sodipodi:start="3.1711411"
       sodipodi:end="3.1428144"
       sodipodi:open="true"
       d="M -3.2689987,68.080172 A 3.3802469,3.3802452 0 0 1 0.18570951,64.800646 3.3802469,3.3802452 0 0 1 3.4896195,68.232042 3.3802469,3.3802452 0 0 1 0.08170537,71.560167 3.3802469,3.3802452 0 0 1 -3.2704717,68.175909"
       transform="rotate(-19.181946)" />
    <path
       style="fill:#00005b;fill-opacity:1;stroke:#00005b;stroke-width:0.5;stroke-miterlimit:4;stroke-dasharray:none;stroke-opacity:1"
       id="path1700"
       sodipodi:type="arc"
       sodipodi:cx="-0.85960674"
       sodipodi:cy="61.508434"
       sodipodi:rx="2.6800468"
       sodipodi:ry="2.7940912"
       sodipodi:start="3.1711411"
       sodipodi:end="3.1428144"
       sodipodi:open="true"
       d="M -3.5384836,61.425885 A 2.6800468,2.7940912 0 0 1 -0.79939981,58.715048 2.6800468,2.7940912 0 0 1 1.8201229,61.55142 2.6800468,2.7940912 0 0 1 -0.88186005,64.302429 2.6800468,2.7940912 0 0 1 -3.5396515,61.505021"
       transform="rotate(-19.181946)" />
    <path
       style="fill:#00005b;fill-opacity:1;stroke:#00005b;stroke-width:0.5;stroke-miterlimit:4;stroke-dasharray:none;stroke-opacity:1"
       id="path1702"
       sodipodi:type="arc"
       sodipodi:cx="-6.4477882"
       sodipodi:cy="67.837906"
       sodipodi:rx="2.9081359"
       sodipodi:ry="2.7370689"
       sodipodi:start="3.1711411"
       sodipodi:end="3.1428144"
       sodipodi:open="true"
       d="m -9.3546547,67.757042 a 2.9081359,2.7370689 0 0 1 2.9721974,-2.655514 2.9081359,2.7370689 0 0 1 2.8424608,2.778486 2.9081359,2.7370689 0 0 1 -2.9319389,2.694866 2.9081359,2.7370689 0 0 1 -2.8839866,-2.740318"
       transform="rotate(-19.181946)" />
    <path
       style="fill:#00005b;fill-opacity:1;stroke:#00005b;stroke-width:0.5;stroke-miterlimit:4;stroke-dasharray:none;stroke-opacity:1"
       id="path1704"
       sodipodi:type="arc"
       sodipodi:cx="0.16679476"
       sodipodi:cy="73.654175"
       sodipodi:rx="3.1362247"
       sodipodi:ry="2.7370689"
       sodipodi:start="3.1711411"
       sodipodi:end="3.1428144"
       sodipodi:open="true"
       d="M -2.9680609,73.57331 A 3.1362247,2.7370689 0 0 1 0.23724968,70.917797 3.1362247,2.7370689 0 0 1 3.3026483,73.696283 3.1362247,2.7370689 0 0 1 0.14075367,76.391149 3.1362247,2.7370689 0 0 1 -2.9694276,73.650831"
       transform="rotate(-19.181946)" />
    <path
       style="fill:#00005b;fill-opacity:1;stroke:#00005b;stroke-width:0.5;stroke-miterlimit:4;stroke-dasharray:none;stroke-opacity:1"
       id="path1706"
       sodipodi:type="arc"
       sodipodi:cx="5.7549753"
       sodipodi:cy="66.412354"
       sodipodi:rx="3.0221803"
       sodipodi:ry="2.7940912"
       sodipodi:start="3.1711411"
       sodipodi:end="3.1428144"
       sodipodi:open="true"
       d="M 2.7341143,66.329804 A 3.0221803,2.7940912 0 0 1 5.8228682,63.618967 3.0221803,2.7940912 0 0 1 8.776798,66.455339 3.0221803,2.7940912 0 0 1 5.7298812,69.206348 3.0221803,2.7940912 0 0 1 2.7327973,66.40894"
       transform="rotate(-19.181946)" />
    <path
       style="fill:none;stroke:#fcfcfc;stroke-width:0.26458332px;stroke-linecap:butt;stroke-linejoin:miter;stroke-opacity:1"
       d="m 23.721264,54.786998 c 0.152059,-0.03802 0.302483,-0.08331 0.456178,-0.114046 0.10264,-0.02053 0.237213,0 0.342134,0 0.266104,0 0.532208,0 0.798312,0 0.07352,0 0.431674,-0.01633 0.456178,0 0.07603,0.07603 0.152059,0.152058 0.228089,0.228089 0.03802,0 0.08004,-0.01699 0.114045,0 0.04809,0.02405 0.06189,0.101005 0.114044,0.114043 0.110639,0.02766 0.231494,-0.02766 0.342132,0 0.01601,0.004 0.194972,0.206013 0.22809,0.22809 0.07073,0.04715 0.147449,0.08716 0.228089,0.114046 0.07213,0.02405 0.160086,-0.034 0.228089,0 0.04809,0.02405 0.07603,0.07603 0.114046,0.114043 0.12413,0.124132 0.328663,0.371171 0.456176,0.456179 0.03163,0.02109 0.07798,-0.01201 0.114046,0 0.413444,0.137816 0.08116,0.05411 0.342133,0.228089 0.07073,0.04715 0.157361,0.06689 0.22809,0.114043 0.08946,0.05964 0.152058,0.152062 0.228089,0.22809 0.190074,0.190074 0.380148,0.380148 0.570222,0.570224 0.114046,0.114044 0.213109,0.245362 0.342135,0.342133 0.109652,0.08224 0.232482,0.145849 0.342133,0.22809 0.04301,0.03225 0.06931,0.08422 0.114043,0.114043 0.07073,0.04715 0.157364,0.0669 0.22809,0.114046 0.04473,0.02982 0.07603,0.07603 0.114046,0.114043 0.07603,0.07603 0.163576,0.142071 0.228089,0.22809 0.051,0.068 0.08716,0.147447 0.114043,0.228089 0.02405,0.07213 -0.04217,0.164827 0,0.228089 0.05964,0.08946 0.168447,0.138626 0.22809,0.22809 0.02109,0.03163 0,0.07603 0,0.114043 0,0.07603 -0.02405,0.155961 0,0.228089 0.01699,0.051 0.09704,0.06304 0.114043,0.114044 0.02405,0.07213 -0.02824,0.157498 0,0.228089 0.05091,0.127262 0.145852,0.232484 0.228089,0.342135 0.03226,0.04301 0.09704,0.06304 0.114046,0.114044 0.02373,0.07124 0,0.851043 0,0.912357 0,0.114044 -0.04235,0.236247 0,0.342133 0.03993,0.09983 0.163576,0.142071 0.22809,0.228089 0.242303,0.32307 0.02974,0.118954 0.114043,0.456179 0.04123,0.164931 0.186857,0.291245 0.228089,0.456179 0.03688,0.147518 -0.02982,0.30707 0,0.456176 0.02358,0.117879 0.09047,0.224255 0.114044,0.342135 0.01513,0.0757 -0.02495,0.532802 0,0.570222 0.05964,0.08946 0.168447,0.138626 0.228089,0.228089 0.02109,0.03163 -0.01201,0.07798 0,0.114044 0.02688,0.08064 0.08716,0.147447 0.114046,0.228089 0.03657,0.109726 -0.02983,0.336846 0,0.456179 0.288065,1.152263 -0.04118,-0.08236 0.22809,0.456179 0.01701,0.034 -0.01701,0.08004 0,0.114043 0.02405,0.04809 0.101004,0.06189 0.114043,0.114046 0.0042,0.01659 -0.02146,0.641366 0,0.684265 0.04809,0.09617 0.168447,0.138626 0.228089,0.22809 0.02109,0.03163 -0.01201,0.07798 0,0.114046 0.02688,0.08064 0.08716,0.147447 0.114044,0.228089 0.01201,0.03606 0,0.07603 0,0.114043 0,0.114046 -0.02766,0.231495 0,0.342133 0.02609,0.104312 0.180004,0.131919 0.228089,0.228089 0.01701,0.034 -0.01201,0.07798 0,0.114046 0.02688,0.08064 0.08716,0.147447 0.114046,0.22809 0.03186,0.09558 -0.03779,0.380598 0,0.456176 0.120952,0.241906 0.107135,-0.01381 0.228089,0.228089 0.01701,0.034 -0.01701,0.08004 0,0.114046 0.02405,0.04809 0.09,0.06596 0.114044,0.114044 0.034,0.068 -0.034,0.160086 0,0.228089 0.06843,0.136853 0.273706,0.20528 0.342132,0.342133 0.05376,0.107524 0.06029,0.234614 0.114046,0.342135 0.02405,0.04809 0.07603,0.07603 0.114044,0.114043 0.07603,0.07603 0.138626,0.168447 0.228089,0.22809 0.03163,0.02109 0.07798,-0.01201 0.114046,0 0.08064,0.02688 0.147447,0.08716 0.228089,0.114046 0.03606,0.01201 0.08004,-0.01701 0.114044,0 0.09617,0.04809 0.131918,0.180004 0.228089,0.228089 0.034,0.01701 0.08004,-0.01701 0.114043,0 0.04809,0.02405 0.06596,0.09 0.114046,0.114043 0.06219,0.03109 0.409359,-0.03121 0.456179,0 0.08946,0.05964 0.138623,0.168447 0.22809,0.22809 0.04398,0.02932 0.278622,-0.02117 0.342132,0 0.08064,0.02688 0.145624,0.09343 0.22809,0.114043 0.07376,0.01844 0.160086,-0.034 0.228089,0 0.09617,0.04809 0.138623,0.168447 0.228089,0.228089 0.03163,0.02109 0.08716,-0.02688 0.114044,0 0.02688,0.02688 -0.034,0.09704 0,0.114046 0.068,0.034 0.152058,0 0.228089,0 0.228089,0 0.456179,0 0.684268,0 0.03801,0 0.07603,0 0.114043,0 0.03802,0 0.114046,-0.03802 0.114046,0 0,0.03801 -0.148047,0.01699 -0.114046,0 0.107522,-0.05376 0.24211,-0.04736 0.342133,-0.114046 0.03163,-0.02109 -0.01699,-0.08004 0,-0.114043 0.02405,-0.04809 0.08422,-0.06931 0.114046,-0.114046 0.0943,-0.141454 0.133787,-0.314722 0.228089,-0.456176 0.02982,-0.04473 0.08422,-0.06931 0.114044,-0.114046 0.04715,-0.07073 0.06689,-0.157361 0.114046,-0.228089 0.06921,-0.103818 0.291592,-0.241052 0.342132,-0.342133 0.01699,-0.034 -0.01201,-0.07798 0,-0.114046 0.06904,-0.207129 0.0976,-0.211648 0.22809,-0.342133 0.03802,-0.03802 0.09,-0.06596 0.114043,-0.114043 0.01701,-0.034 -0.01701,-0.08004 0,-0.114046 0.126079,-0.252159 0.07078,-0.03539 0.22809,-0.114043 0.04809,-0.02405 0.07603,-0.07603 0.114046,-0.114046 0.07603,-0.07603 0.138623,-0.168447 0.228089,-0.22809 0.176972,-0.11798 0.0742,0.193733 0.228087,-0.114043 0.01701,-0.034 0,-0.07603 0,-0.114046 0,-0.257651 0.01701,0.051 -0.114044,-0.342133 -0.01201,-0.03606 0.01701,-0.08004 0,-0.114043 -0.02405,-0.04809 -0.07603,-0.07603 -0.114043,-0.114046 -0.03802,-0.03802 -0.07603,-0.07603 -0.114046,-0.114044 -0.03802,-0.03802 -0.07603,-0.07603 -0.114043,-0.114046 -0.03802,-0.03802 -0.09704,-0.06304 -0.114046,-0.114043 -0.02405,-0.07213 0,-0.152059 0,-0.228089 0,-0.03802 0.01701,-0.08004 0,-0.114044 -0.02945,-0.05891 -0.531538,-0.53154 -0.570223,-0.570224 -0.03802,-0.03802 -0.09,-0.06596 -0.114043,-0.114044 -0.01701,-0.034 0.01201,-0.07798 0,-0.114046 -0.06905,-0.207129 -0.09761,-0.211648 -0.228089,-0.342132 -0.03802,-0.03802 -0.09,-0.06596 -0.114046,-0.114044 -0.01699,-0.034 0.01701,-0.08004 0,-0.114046 -0.02405,-0.04809 -0.07603,-0.07603 -0.114044,-0.114043 -0.14388,-0.143881 -0.337015,-0.297294 -0.456178,-0.456179 -0.051,-0.068 -0.08716,-0.147447 -0.114044,-0.228089 -0.01201,-0.03607 0.02281,-0.08363 0,-0.114044 -0.09677,-0.129026 -0.245364,-0.213108 -0.342135,-0.342135 -0.02281,-0.03041 0.0092,-0.07716 0,-0.114043 -0.02915,-0.116626 -0.06028,-0.234612 -0.114043,-0.342136 -0.05054,-0.101081 -0.272923,-0.238315 -0.342136,-0.342132 -0.04715,-0.07073 -0.06689,-0.157361 -0.114043,-0.22809 -0.02982,-0.04473 -0.09704,-0.06304 -0.114046,-0.114043 -0.02405,-0.07213 0,-0.152061 0,-0.228089 0,-0.03802 0.01701,-0.08004 0,-0.114046 -0.0612,-0.12241 -0.166883,-0.105678 -0.228087,-0.22809 -0.01701,-0.034 0.01201,-0.07798 0,-0.114043 -0.02688,-0.08064 -0.08716,-0.147447 -0.114046,-0.228089 -0.01201,-0.03606 0.02109,-0.08241 0,-0.114044 -0.05964,-0.08946 -0.168447,-0.138626 -0.228089,-0.228089 -0.02109,-0.03163 0,-0.07603 0,-0.114046 0,-0.07603 0.02405,-0.155961 0,-0.228089 -0.01699,-0.051 -0.09704,-0.06304 -0.114043,-0.114044 -0.02405,-0.07213 0.034,-0.160086 0,-0.228089 -0.03021,-0.174469 -0.270008,-0.197877 -0.342136,-0.342133 -0.03584,-0.07168 0.03584,-0.3845 0,-0.456179 -0.0613,-0.122594 -0.16679,-0.21954 -0.228086,-0.342132 -0.01701,-0.034 0,-0.07603 0,-0.114046 0,-0.07603 0.01844,-0.154329 0,-0.22809 -0.02061,-0.08246 -0.08716,-0.147447 -0.114046,-0.228089 -0.01201,-0.03606 0.02109,-0.08241 0,-0.114043 -0.05964,-0.08946 -0.168447,-0.138626 -0.22809,-0.22809 -0.02109,-0.03163 0,-0.07603 0,-0.114043 0,-0.07603 0,-0.152061 0,-0.228089 0,-0.247174 0.02487,-0.45275 -0.114043,-0.684268 -0.05532,-0.0922 -0.168447,-0.138626 -0.22809,-0.22809 -0.02109,-0.03163 0.0075,-0.07677 0,-0.114043 -0.03074,-0.153697 -0.04395,-0.315987 -0.114046,-0.456179 -0.04809,-0.09617 -0.168444,-0.138626 -0.228086,-0.228089 -0.02109,-0.03163 0.01201,-0.07798 0,-0.114044 -0.02688,-0.08064 -0.08716,-0.147449 -0.114046,-0.228089 -0.01201,-0.03607 0.02109,-0.08241 0,-0.114046 -0.05964,-0.08946 -0.168447,-0.138626 -0.22809,-0.228089 -0.02109,-0.03163 0.01201,-0.07798 0,-0.114044 -0.02688,-0.08064 -0.08716,-0.147447 -0.114043,-0.228089 -0.01201,-0.03607 0.02109,-0.08242 0,-0.114046 -0.05964,-0.08946 -0.152061,-0.152059 -0.228089,-0.228087 -0.03802,-0.114046 -0.05219,-0.239053 -0.114046,-0.342135 -0.05532,-0.0922 -0.152059,-0.152059 -0.22809,-0.228089 -0.03801,-0.03801 -0.09,-0.06596 -0.114043,-0.114044 -0.01701,-0.034 0.02109,-0.08242 0,-0.114046 -0.05964,-0.08946 -0.163576,-0.14207 -0.228089,-0.228086 -0.051,-0.068 -0.05394,-0.167984 -0.114044,-0.22809 -0.06011,-0.06011 -0.157363,-0.06689 -0.228089,-0.114046 -0.04473,-0.02982 -0.07603,-0.07603 -0.114046,-0.114043 -0.152059,-0.152061 -0.304117,-0.30412 -0.456176,-0.456179 -0.190077,-0.190074 -0.380151,-0.380148 -0.570225,-0.570222 -0.03802,-0.03802 -0.07104,-0.08179 -0.114043,-0.114046 -0.109651,-0.08224 -0.232482,-0.145849 -0.342133,-0.228089 -0.04301,-0.03226 -0.06304,-0.09704 -0.114046,-0.114044 -0.07213,-0.02405 -0.160086,0.034 -0.228089,0 -0.454427,-0.227213 -5.29e-4,-0.228213 -0.456179,-0.342132 -0.07376,-0.01844 -0.160086,0.034 -0.228089,0 -0.09617,-0.04809 -0.142071,-0.163576 -0.228087,-0.22809 -0.068,-0.051 -0.160086,-0.06304 -0.228089,-0.114046 -0.08602,-0.06451 -0.142074,-0.163576 -0.22809,-0.228089 -0.1993,-0.149474 -0.340225,-0.113088 -0.570222,-0.228089 -0.538541,-0.269269 0.696082,0.05998 -0.456178,-0.228087 -0.07761,-0.01939 -0.279766,0.03118 -0.342136,0 -0.26026,-0.130133 -0.314177,-0.256786 -0.570222,-0.342135 -0.06434,-0.02146 -0.267195,0 -0.342133,0 -0.266104,0 -0.532209,0 -0.798311,0 -0.152061,0 -0.30866,0.03688 -0.456179,0 -0.05216,-0.01304 -0.06931,-0.08422 -0.114046,-0.114044 -0.07072,-0.04715 -0.147446,-0.08716 -0.228087,-0.114046 -0.07158,-0.02387 -0.364369,0 -0.456179,0 -0.304119,0 -0.608237,0 -0.912356,0 -0.03188,0 -0.552379,-0.0089 -0.570223,0 -0.410085,0.205044 -0.132204,0.28257 -0.228089,0.570225 -0.034,0.102002 -0.180004,0.131916 -0.228089,0.228087 -0.017,0.034 0,0.07603 0,0.114046 0,0.09678 0.02096,0.621397 0,0.684268 -0.017,0.051 -0.09704,0.06304 -0.114044,0.114043 -0.02224,0.06672 0,0.58638 0,0.684268 0,0.07603 0.034,0.160086 0,0.22809 -0.04809,0.09617 -0.168447,0.138623 -0.228089,0.228089 -0.02088,0.03132 0.0082,0.431564 0,0.456176 -0.017,0.051 -0.124589,0.06133 -0.114045,0.114046 0.03334,0.166706 0.245005,0.287015 0.228089,0.456179 -0.04069,0.40686 -0.230433,0.572566 -0.456178,0.798311"
       id="path1708"
       inkscape:connector-curvature="0" />
    <flowRoot
       xml:space="preserve"
       id="flowRoot1712"
       style="font-style:normal;font-weight:normal;font-size:40px;line-height:1.25;font-family:sans-serif;letter-spacing:0px;word-spacing:-32.22999954px;fill:#000000;fill-opacity:1;stroke:none"
       transform="matrix(0.26458333,0,0,0.26458333,4.1056034,-2.6230244)"><flowRegion
         id="flowRegion1714"><rect
           id="rect1716"
           width="109.05172"
           height="68.103455"
           x="210.34483"
           y="118.27586" /></flowRegion><flowPara
         id="flowPara1718"
         style="font-size:26.66666794px;fill:#ffffff">&lt;/a&gt;</flowPara></flowRoot>  </g>
</svg>
