<?xml version="1.0" encoding="UTF-8" standalone="no"?>
<!-- Created with Inkscape (http://www.inkscape.org/) -->

<svg
   xmlns:dc="http://purl.org/dc/elements/1.1/"
   xmlns:cc="http://creativecommons.org/ns#"
   xmlns:rdf="http://www.w3.org/1999/02/22-rdf-syntax-ns#"
   xmlns:svg="http://www.w3.org/2000/svg"
   xmlns="http://www.w3.org/2000/svg"
   xmlns:sodipodi="http://sodipodi.sourceforge.net/DTD/sodipodi-0.dtd"
   xmlns:inkscape="http://www.inkscape.org/namespaces/inkscape"
   width="400"
   height="180"
   viewBox="0 0 105.83333 47.625003"
   version="1.1"
   id="svg1258"
   sodipodi:docname="Logo.svg"
   inkscape:version="0.92.3 (2405546, 2018-03-11)">
  <defs
     id="defs1252" />
  <sodipodi:namedview
     id="base"
     pagecolor="#ffffff"
     bordercolor="#666666"
     borderopacity="1.0"
     inkscape:pageopacity="0.0"
     inkscape:pageshadow="2"
     inkscape:zoom="1.4"
     inkscape:cx="215.96314"
     inkscape:cy="125.25136"
     inkscape:document-units="mm"
     inkscape:current-layer="layer1"
     showgrid="false"
     units="px"
     inkscape:window-width="1600"
     inkscape:window-height="837"
     inkscape:window-x="-8"
     inkscape:window-y="-8"
     inkscape:window-maximized="1" />
  <metadata
     id="metadata1255">
    <rdf:RDF>
      <cc:Work
         rdf:about="">
        <dc:format>image/svg+xml</dc:format>
        <dc:type
           rdf:resource="http://purl.org/dc/dcmitype/StillImage" />
        <dc:title></dc:title>
      </cc:Work>
    </rdf:RDF>
  </metadata>
  <g
     inkscape:label="Camada 1"
     inkscape:groupmode="layer"
     id="layer1"
     transform="translate(0,-249.37498)">
    <path
       style="opacity:1;fill:#abd1f8;fill-opacity:1;stroke:none;stroke-width:0.41176483;stroke-linecap:butt;stroke-linejoin:round;stroke-miterlimit:4;stroke-dasharray:none;stroke-dashoffset:0;stroke-opacity:1"
       id="path1910"
       sodipodi:type="arc"
       sodipodi:cx="89.107887"
       sodipodi:cy="259.48587"
       sodipodi:rx="7.6540179"
       sodipodi:ry="7.276042"
       sodipodi:start="2.0159426"
       sodipodi:end="2.0020323"
       d="m 85.812144,266.05285 a 7.6540179,7.276042 0 0 1 -3.623792,-9.67711 7.6540179,7.276042 0 0 1 10.167152,-3.47848 7.6540179,7.276042 0 0 1 3.694506,9.65292 7.6540179,7.276042 0 0 1 -10.141456,3.54561"
       sodipodi:open="true" />
    <path
       style="opacity:1;fill:#ffffff;fill-opacity:1;stroke:none;stroke-width:1.32937777;stroke-linecap:butt;stroke-linejoin:round;stroke-miterlimit:4;stroke-dasharray:none;stroke-dashoffset:0;stroke-opacity:1"
       d="M 44.865234 19.955078 C 32.551902 19.955078 22.638672 29.868308 22.638672 42.181641 C 22.638672 54.494973 32.551902 64.40625 44.865234 64.40625 L 62.064453 64.40625 C 51.615111 72.224442 44.875 84.704208 44.875 98.816406 C 44.875 122.60545 64.027359 141.75586 87.816406 141.75586 L 192.2793 141.75586 C 190.15259 144.44634 188.875 147.8435 188.875 151.55469 C 188.875 160.30659 195.92192 167.35156 204.67383 167.35156 L 345.80664 167.35156 C 354.55854 167.35156 361.60547 160.30659 361.60547 151.55469 C 361.60547 143.05321 354.95122 136.18039 346.54883 135.79297 C 359.16955 128.33108 367.60547 114.5989 367.60547 98.816406 C 367.60547 75.027359 348.45311 55.875 324.66406 55.875 L 258.52344 55.875 C 261.46903 52.105193 263.22656 47.358006 263.22656 42.181641 C 263.22656 29.868308 253.31333 19.955078 241 19.955078 L 44.865234 19.955078 z "
       transform="matrix(0.26458333,0,0,0.26458333,0,249.37498)"
       id="rect1886" />
    <g
       aria-label="Estudio Do
&lt;/Luk&gt;"
       transform="matrix(0.31801797,0,0,0.32798892,-5.888464,202.61781)"
       style="font-style:normal;font-variant:normal;font-weight:normal;font-stretch:normal;font-size:40px;line-height:1.25;font-family:babyblue;-inkscape-font-specification:babyblue;letter-spacing:0px;word-spacing:0px;fill:#000000;fill-opacity:1;stroke:#ffffff;stroke-width:1.30000007;stroke-miterlimit:4;stroke-dasharray:none;stroke-opacity:1"
       id="flowRoot1803">
      <path
         d="m 73.412977,184.28516 h -14 v -1.55556 h -1.555555 v -12.44444 h 1.555555 v -1.55556 h 14 v 3.11111 h -9.333333 v 3.11111 h 4.666666 v 3.11111 h -4.666666 v 3.11112 h 9.333333 z"
         style="font-style:normal;font-variant:normal;font-weight:normal;font-stretch:normal;font-size:18.66666603px;font-family:'8BIT WONDER';-inkscape-font-specification:'8BIT WONDER';fill:#000000;fill-opacity:1;stroke:#ffffff;stroke-width:1.30000007;stroke-miterlimit:4;stroke-dasharray:none;stroke-opacity:1"
         id="path1826"
         inkscape:connector-curvature="0" />
      <path
         d="m 92.079643,182.7296 h -1.555556 v 1.55556 H 76.524088 v -3.11111 h 9.333333 v -3.11112 h -7.777778 v -1.55555 h -1.555555 v -6.22222 h 1.555555 v -1.55556 h 14 v 3.11111 H 82.74631 v 3.11111 h 7.777777 v 1.55556 h 1.555556 z"
         style="font-style:normal;font-variant:normal;font-weight:normal;font-stretch:normal;font-size:18.66666603px;font-family:'8BIT WONDER';-inkscape-font-specification:'8BIT WONDER';fill:#000000;fill-opacity:1;stroke:#ffffff;stroke-width:1.30000007;stroke-miterlimit:4;stroke-dasharray:none;stroke-opacity:1"
         id="path1828"
         inkscape:connector-curvature="0" />
      <path
         d="m 110.74631,171.84071 h -4.66667 v 12.44445 h -6.22222 v -12.44445 h -4.666666 v -3.11111 h 15.555556 z"
         style="font-style:normal;font-variant:normal;font-weight:normal;font-stretch:normal;font-size:18.66666603px;font-family:'8BIT WONDER';-inkscape-font-specification:'8BIT WONDER';fill:#000000;fill-opacity:1;stroke:#ffffff;stroke-width:1.30000007;stroke-miterlimit:4;stroke-dasharray:none;stroke-opacity:1"
         id="path1830"
         inkscape:connector-curvature="0" />
      <path
         d="m 129.41298,182.7296 h -1.55556 v 1.55556 h -12.44444 v -1.55556 h -1.55556 v -14 h 6.22222 v 12.44445 h 3.11111 V 168.7296 h 6.22223 z"
         style="font-style:normal;font-variant:normal;font-weight:normal;font-stretch:normal;font-size:18.66666603px;font-family:'8BIT WONDER';-inkscape-font-specification:'8BIT WONDER';fill:#000000;fill-opacity:1;stroke:#ffffff;stroke-width:1.30000007;stroke-miterlimit:4;stroke-dasharray:none;stroke-opacity:1"
         id="path1832"
         inkscape:connector-curvature="0" />
      <path
         d="m 148.07964,182.7296 h -1.55555 v 1.55556 h -14 V 168.7296 h 14 v 1.55556 h 1.55555 z m -6.22222,-1.55555 v -9.33334 h -3.11111 v 9.33334 z"
         style="font-style:normal;font-variant:normal;font-weight:normal;font-stretch:normal;font-size:18.66666603px;font-family:'8BIT WONDER';-inkscape-font-specification:'8BIT WONDER';fill:#000000;fill-opacity:1;stroke:#ffffff;stroke-width:1.30000007;stroke-miterlimit:4;stroke-dasharray:none;stroke-opacity:1"
         id="path1834"
         inkscape:connector-curvature="0" />
      <path
         d="m 157.41297,184.28516 h -6.22222 V 168.7296 h 6.22222 z"
         style="font-style:normal;font-variant:normal;font-weight:normal;font-stretch:normal;font-size:18.66666603px;font-family:'8BIT WONDER';-inkscape-font-specification:'8BIT WONDER';fill:#000000;fill-opacity:1;stroke:#ffffff;stroke-width:1.30000007;stroke-miterlimit:4;stroke-dasharray:none;stroke-opacity:1"
         id="path1836"
         inkscape:connector-curvature="0" />
      <path
         d="m 176.07964,182.7296 h -1.55555 v 1.55556 h -12.44445 v -1.55556 h -1.55555 v -12.44444 h 1.55555 v -1.55556 h 12.44445 v 1.55556 h 1.55555 z m -6.22222,-1.55555 v -9.33334 h -3.11111 v 9.33334 z"
         style="font-style:normal;font-variant:normal;font-weight:normal;font-stretch:normal;font-size:18.66666603px;font-family:'8BIT WONDER';-inkscape-font-specification:'8BIT WONDER';fill:#000000;fill-opacity:1;stroke:#ffffff;stroke-width:1.30000007;stroke-miterlimit:4;stroke-dasharray:none;stroke-opacity:1"
         id="path1838"
         inkscape:connector-curvature="0" />
      <path
         d="m 204.07963,182.7296 h -1.55555 v 1.55556 h -14 V 168.7296 h 14 v 1.55556 h 1.55555 z m -6.22222,-1.55555 v -9.33334 h -3.11111 v 9.33334 z"
         style="font-style:normal;font-variant:normal;font-weight:normal;font-stretch:normal;font-size:18.66666603px;font-family:'8BIT WONDER';-inkscape-font-specification:'8BIT WONDER';fill:#000000;fill-opacity:1;stroke:#ffffff;stroke-width:1.30000007;stroke-miterlimit:4;stroke-dasharray:none;stroke-opacity:1"
         id="path1840"
         inkscape:connector-curvature="0" />
      <path
         d="m 222.74631,182.7296 h -1.55556 v 1.55556 h -12.44444 v -1.55556 h -1.55556 v -12.44444 h 1.55556 v -1.55556 h 12.44444 v 1.55556 h 1.55556 z m -6.22223,-1.55555 v -9.33334 h -3.11111 v 9.33334 z"
         style="font-style:normal;font-variant:normal;font-weight:normal;font-stretch:normal;font-size:18.66666603px;font-family:'8BIT WONDER';-inkscape-font-specification:'8BIT WONDER';fill:#000000;fill-opacity:1;stroke:#ffffff;stroke-width:1.30000007;stroke-miterlimit:4;stroke-dasharray:none;stroke-opacity:1"
         id="path1842"
         inkscape:connector-curvature="0" />
      <path
         d="m 61.263672,219.17753 35.875,-14.84375 v 10.9375 l -21.9375,8.53125 21.9375,8.5 v 10.9375 l -35.875,-14.84375 z"
         style="font-style:normal;font-variant:normal;font-weight:normal;font-stretch:normal;font-size:64px;line-height:0.80000001;font-family:'Gill Sans Ultra Bold';-inkscape-font-specification:'Gill Sans Ultra Bold, ';fill:#000000;fill-opacity:1;stroke:#ffffff;stroke-width:1.30000007;stroke-miterlimit:4;stroke-dasharray:none;stroke-opacity:1"
         id="path1844"
         inkscape:connector-curvature="0" />
      <path
         d="m 110.38867,197.74003 h 10.25 l -11.84375,53.25 H 98.544922 Z"
         style="font-style:normal;font-variant:normal;font-weight:normal;font-stretch:normal;font-size:64px;line-height:0.80000001;font-family:'Gill Sans Ultra Bold';-inkscape-font-specification:'Gill Sans Ultra Bold, ';fill:#000000;fill-opacity:1;stroke:#ffffff;stroke-width:1.30000007;stroke-miterlimit:4;stroke-dasharray:none;stroke-opacity:1"
         id="path1846"
         inkscape:connector-curvature="0" />
      <path
         d="m 123.20117,245.42753 v -47.6875 h 21.125 v 35.71875 h 18.5 v 11.96875 z"
         style="font-style:normal;font-variant:normal;font-weight:normal;font-stretch:normal;font-size:64px;line-height:0.80000001;font-family:'Gill Sans Ultra Bold';-inkscape-font-specification:'Gill Sans Ultra Bold, ';fill:#000000;fill-opacity:1;stroke:#ffffff;stroke-width:1.30000007;stroke-miterlimit:4;stroke-dasharray:none;stroke-opacity:1"
         id="path1848"
         inkscape:connector-curvature="0" />
      <path
         d="m 210.79492,207.80253 v 37.625 h -18.5 v -6.59375 h -0.125 q -2.84375,3.59375 -5.8125,5.25 -2.96875,1.65625 -7.0625,1.65625 -5.90625,0 -9.53125,-3.5 -3.59375,-3.5 -3.59375,-9.8125 v -24.625 h 18.25 v 20.28125 q 0,5.125 3.5,5.125 2.34375,0 3.53125,-2 v -23.40625 z"
         style="font-style:normal;font-variant:normal;font-weight:normal;font-stretch:normal;font-size:64px;line-height:0.80000001;font-family:'Gill Sans Ultra Bold';-inkscape-font-specification:'Gill Sans Ultra Bold, ';fill:#000000;fill-opacity:1;stroke:#ffffff;stroke-width:1.30000007;stroke-miterlimit:4;stroke-dasharray:none;stroke-opacity:1"
         id="path1850"
         inkscape:connector-curvature="0" />
      <path
         d="m 237.51367,197.74003 v 22.53125 q 7.125,-2.65625 7.3125,-12.46875 h 19.125 q -0.53125,5.78125 -2.3125,9.34375 -1.78125,3.5625 -5.625,6.34375 2.25,1.75 3.8125,3.9375 1.5625,2.15625 2.53125,4.9375 1,2.75 1.28125,5.5625 0.3125,2.78125 0.3125,7.5 h -19.125 q 0,-8.6875 -1.78125,-12.84375 -1.75,-4.15625 -5.53125,-5.65625 v 18.5 h -19.3125 v -47.6875 z"
         style="font-style:normal;font-variant:normal;font-weight:normal;font-stretch:normal;font-size:64px;line-height:0.80000001;font-family:'Gill Sans Ultra Bold';-inkscape-font-specification:'Gill Sans Ultra Bold, ';fill:#000000;fill-opacity:1;stroke:#ffffff;stroke-width:1.30000007;stroke-miterlimit:4;stroke-dasharray:none;stroke-opacity:1"
         id="path1852"
         inkscape:connector-curvature="0" />
      <path
         d="m 304.01367,219.17753 v 9.21875 l -35.875,14.84375 v -10.9375 l 21.9375,-8.5 -21.9375,-8.53125 v -10.9375 z"
         style="font-style:normal;font-variant:normal;font-weight:normal;font-stretch:normal;font-size:64px;line-height:0.80000001;font-family:'Gill Sans Ultra Bold';-inkscape-font-specification:'Gill Sans Ultra Bold, ';fill:#000000;fill-opacity:1;stroke:#ffffff;stroke-width:1.30000007;stroke-miterlimit:4;stroke-dasharray:none;stroke-opacity:1"
         id="path1854"
         inkscape:connector-curvature="0" />
    </g>
    <g
       aria-label="Hobby desde 2013"
       transform="matrix(0.26458333,0,0,0.26458333,-1.889881,210.25445)"
       style="font-style:normal;font-variant:normal;font-weight:normal;font-stretch:normal;font-size:18.66666603px;line-height:1.25;font-family:babyblue;-inkscape-font-specification:babyblue;letter-spacing:0px;word-spacing:0px;fill:#d45500;fill-opacity:1;stroke:none"
       id="flowRoot1813">
      <path
         d="m 209.5944,304.9056 v -1.16667 -1.16666 -1.16667 -1.16667 h -1.16667 -1.16666 -1.16667 -1.16667 -1.16666 v 1.16667 1.16667 1.16666 1.16667 h -1.16667 v -1.16667 -1.16666 -1.16667 -1.16667 -1.16666 -1.16667 -1.16667 -1.16666 -1.16667 h 1.16667 v 1.16667 1.16666 1.16667 1.16667 h 1.16666 1.16667 1.16667 1.16666 1.16667 v -1.16667 -1.16667 -1.16666 -1.16667 h 1.16667 v 1.16667 1.16666 1.16667 1.16667 1.16666 1.16667 1.16667 1.16666 1.16667 z"
         style=""
         id="path1857" />
      <path
         d="m 216.5944,303.73893 h 1.16667 v 1.16667 h -1.16667 -1.16667 -1.16666 v -1.16667 h 1.16666 z m 1.16667,0 v -1.16666 h 1.16666 v 1.16666 z m -3.5,0 h -1.16667 v -1.16666 h 1.16667 z m 4.66666,-1.16666 v -1.16667 -1.16667 -1.16666 h 1.16667 v 1.16666 1.16667 1.16667 z m -5.83333,0 h -1.16667 v -1.16667 -1.16667 -1.16666 h 1.16667 v 1.16666 1.16667 z m 5.83333,-3.5 h -1.16666 v -1.16667 h 1.16666 z m -5.83333,0 v -1.16667 h 1.16667 v 1.16667 z m 4.66667,-1.16667 h -1.16667 -1.16667 -1.16666 v -1.16667 h 1.16666 1.16667 1.16667 z"
         style=""
         id="path1859" />
      <path
         d="m 225.92773,303.73893 h 1.16667 v -1.16666 h 1.16667 v -1.16667 -1.16667 -1.16666 h -1.16667 v -1.16667 h -1.16667 -1.16666 -1.16667 v 1.16667 1.16666 1.16667 1.16667 1.16666 h 1.16667 z m 0,1.16667 h -1.16666 -1.16667 -1.16667 v -1.16667 -1.16666 -1.16667 -1.16667 -1.16666 -1.16667 -1.16667 -1.16666 -1.16667 h 1.16667 v 1.16667 1.16666 h 1.16667 1.16666 1.16667 v 1.16667 h 1.16667 v 1.16667 h 1.16666 v 1.16666 1.16667 1.16667 h -1.16666 v 1.16666 h -1.16667 v 1.16667 z"
         style=""
         id="path1861" />
      <path
         d="m 235.26107,303.73893 h 1.16666 v -1.16666 h 1.16667 v -1.16667 -1.16667 -1.16666 h -1.16667 v -1.16667 h -1.16666 -1.16667 -1.16667 v 1.16667 1.16666 1.16667 1.16667 1.16666 h 1.16667 z m 0,1.16667 h -1.16667 -1.16667 -1.16666 v -1.16667 -1.16666 -1.16667 -1.16667 -1.16666 -1.16667 -1.16667 -1.16666 -1.16667 h 1.16666 v 1.16667 1.16666 h 1.16667 1.16667 1.16666 v 1.16667 h 1.16667 v 1.16667 h 1.16667 v 1.16666 1.16667 1.16667 h -1.16667 v 1.16666 h -1.16667 v 1.16667 z"
         style=""
         id="path1863" />
      <path
         d="m 242.26107,306.07227 h 1.16666 v 1.16666 h -1.16666 -1.16667 v -1.16666 z m 1.16666,0 v -1.16667 -1.16667 -1.16666 h 1.16667 v 1.16666 1.16667 1.16667 z m 1.16667,-3.5 v -1.16667 -1.16667 h 1.16667 v 1.16667 1.16667 z m -1.16667,0 h -1.16666 v -1.16667 -1.16667 h 1.16666 v 1.16667 z m 2.33334,-2.33334 v -1.16666 -1.16667 h 1.16666 v 1.16667 1.16666 z m -3.5,0 h -1.16667 v -1.16666 -1.16667 h 1.16667 v 1.16667 z m 4.66666,-2.33333 v -1.16667 h 1.16667 v 1.16667 z m -5.83333,0 h -1.16667 v -1.16667 h 1.16667 z"
         style=""
         id="path1865" />
      <path
         d="m 260.92773,304.9056 h -1.16666 -1.16667 -1.16667 v -1.16667 h -1.16666 v -1.16666 h -1.16667 v -1.16667 -1.16667 -1.16666 h 1.16667 v -1.16667 h 1.16666 v -1.16667 h 1.16667 1.16667 1.16666 v -1.16666 -1.16667 h 1.16667 v 1.16667 1.16666 1.16667 1.16667 1.16666 1.16667 1.16667 1.16666 1.16667 z m -1.16666,-1.16667 h 1.16666 v -1.16666 -1.16667 -1.16667 -1.16666 -1.16667 h -1.16666 -1.16667 -1.16667 v 1.16667 h -1.16666 v 1.16666 1.16667 1.16667 h 1.16666 v 1.16666 h 1.16667 z"
         style=""
         id="path1867" />
      <path
         d="m 270.26107,303.73893 h 1.16666 v 1.16667 h -1.16666 -1.16667 -1.16667 -1.16666 -1.16667 v -1.16667 h 1.16667 1.16666 1.16667 z m -4.66667,0 h -1.16667 v -1.16666 h 1.16667 z m -1.16667,-1.16666 h -1.16666 v -1.16667 -1.16667 -1.16666 h 1.16666 v 1.16666 h 1.16667 1.16667 1.16666 1.16667 1.16667 v -1.16666 h 1.16666 v 1.16666 1.16667 h -1.16666 -1.16667 -1.16667 -1.16666 -1.16667 -1.16667 z m 5.83334,-3.5 h -1.16667 v -1.16667 h 1.16667 z m -5.83334,0 v -1.16667 h 1.16667 v 1.16667 z m 4.66667,-1.16667 h -1.16667 -1.16666 -1.16667 v -1.16667 h 1.16667 1.16666 1.16667 z"
         style=""
         id="path1869" />
      <path
         d="m 278.42773,299.07227 v -1.16667 h 1.16667 v 1.16667 z m -1.16666,4.66666 h 1.16666 v 1.16667 h -1.16666 -1.16667 -1.16667 -1.16666 v -1.16667 h 1.16666 1.16667 z m 1.16666,0 v -1.16666 -1.16667 h 1.16667 v 1.16667 1.16666 z m -4.66666,0 h -1.16667 v -1.16666 h 1.16667 z m 4.66666,-2.33333 h -1.16666 -1.16667 -1.16667 -1.16666 v -1.16667 h 1.16666 1.16667 1.16667 1.16666 z m -4.66666,-1.16667 h -1.16667 v -1.16666 -1.16667 h 1.16667 v 1.16667 z m 4.66666,-2.33333 h -1.16666 -1.16667 -1.16667 -1.16666 v -1.16667 h 1.16666 1.16667 1.16667 1.16666 z"
         style=""
         id="path1871" />
      <path
         d="m 286.5944,304.9056 h -1.16667 -1.16667 -1.16666 v -1.16667 h -1.16667 v -1.16666 h -1.16667 v -1.16667 -1.16667 -1.16666 h 1.16667 v -1.16667 h 1.16667 v -1.16667 h 1.16666 1.16667 1.16667 v -1.16666 -1.16667 h 1.16666 v 1.16667 1.16666 1.16667 1.16667 1.16666 1.16667 1.16667 1.16666 1.16667 z m -1.16667,-1.16667 h 1.16667 v -1.16666 -1.16667 -1.16667 -1.16666 -1.16667 h -1.16667 -1.16667 -1.16666 v 1.16667 h -1.16667 v 1.16666 1.16667 1.16667 h 1.16667 v 1.16666 h 1.16666 z"
         style=""
         id="path1873" />
      <path
         d="m 295.92773,303.73893 h 1.16667 v 1.16667 h -1.16667 -1.16666 -1.16667 -1.16667 -1.16666 v -1.16667 h 1.16666 1.16667 1.16667 z m -4.66666,0 h -1.16667 v -1.16666 h 1.16667 z m -1.16667,-1.16666 h -1.16667 v -1.16667 -1.16667 -1.16666 h 1.16667 v 1.16666 h 1.16667 1.16666 1.16667 1.16667 1.16666 v -1.16666 h 1.16667 v 1.16666 1.16667 h -1.16667 -1.16666 -1.16667 -1.16667 -1.16666 -1.16667 z m 5.83333,-3.5 h -1.16666 v -1.16667 h 1.16666 z m -5.83333,0 v -1.16667 h 1.16667 v 1.16667 z m 4.66667,-1.16667 h -1.16667 -1.16667 -1.16666 v -1.16667 h 1.16666 1.16667 1.16667 z"
         style=""
         id="path1875" />
      <path
         d="m 304.0944,296.73893 v -1.16666 h 1.16667 v 1.16666 z m 7,7 h 1.16666 v 1.16667 h -1.16666 -1.16667 -1.16666 -1.16667 -1.16667 -1.16666 -1.16667 v -1.16667 h 1.16667 v -1.16666 h 1.16666 v 1.16666 h 1.16667 1.16667 1.16666 z m -4.66667,-1.16666 v -1.16667 h 1.16667 v 1.16667 z m 1.16667,-1.16667 v -1.16667 h 1.16667 v 1.16667 z m 1.16667,-1.16667 v -1.16666 h 1.16666 v 1.16666 z m 1.16666,-1.16666 v -1.16667 h 1.16667 v 1.16667 z m 1.16667,-1.16667 v -1.16667 -1.16666 h 1.16666 v 1.16666 1.16667 z m 0,-2.33333 h -1.16667 v -1.16667 h 1.16667 z m -5.83333,0 v -1.16667 h 1.16666 v 1.16667 z m 4.66666,-1.16667 h -1.16666 -1.16667 -1.16667 v -1.16667 h 1.16667 1.16667 1.16666 z"
         style=""
         id="path1877" />
      <path
         d="m 318.09439,303.73893 h 1.16667 v 1.16667 h -1.16667 -1.16666 -1.16667 v -1.16667 h 1.16667 z m 1.16667,0 v -1.16666 h 1.16667 v 1.16666 z m -3.5,0 h -1.16667 v -1.16666 h 1.16667 z m 4.66667,-1.16666 v -1.16667 -1.16667 -1.16666 -1.16667 -1.16667 -1.16666 h 1.16666 v 1.16666 1.16667 1.16667 1.16666 1.16667 1.16667 z m -5.83334,0 h -1.16666 v -1.16667 -1.16667 -1.16666 -1.16667 -1.16667 -1.16666 h 1.16666 v 1.16666 1.16667 1.16667 1.16666 1.16667 z m 5.83334,-7 h -1.16667 v -1.16667 h 1.16667 z m -5.83334,0 v -1.16667 h 1.16667 v 1.16667 z m 4.66667,-1.16667 h -1.16667 -1.16666 -1.16667 v -1.16667 h 1.16667 1.16666 1.16667 z"
         style=""
         id="path1879" />
      <path
         d="m 327.42773,304.9056 v -1.16667 -1.16666 -1.16667 -1.16667 -1.16666 -1.16667 -1.16667 -1.16666 h -1.16667 v 1.16666 h -1.16666 v 1.16667 h -1.16667 v -1.16667 h 1.16667 v -1.16666 h 1.16666 v -1.16667 h 1.16667 v -1.16667 h 1.16667 v 1.16667 1.16667 1.16666 1.16667 1.16667 1.16666 1.16667 1.16667 1.16666 1.16667 z"
         style=""
         id="path1881" />
      <path
         d="m 330.92773,295.57227 v -1.16667 h 1.16667 v 1.16667 z m 5.83333,8.16666 h 1.16667 v 1.16667 h -1.16667 -1.16666 -1.16667 -1.16667 -1.16666 v -1.16667 h 1.16666 1.16667 1.16667 z m 1.16667,0 v -1.16666 -1.16667 -1.16667 h 1.16667 v 1.16667 1.16667 1.16666 z m -5.83333,0 h -1.16667 v -1.16666 h 1.16667 z m 5.83333,-3.5 h -1.16667 v -1.16666 h 1.16667 z m -1.16667,-1.16666 h -1.16666 -1.16667 -1.16667 v -1.16667 h 1.16667 1.16667 1.16666 z m 0,-1.16667 v -1.16667 h 1.16667 v 1.16667 z m 1.16667,-1.16667 v -1.16666 -1.16667 h 1.16667 v 1.16667 1.16666 z m 0,-2.33333 h -1.16667 -1.16666 -1.16667 -1.16667 -1.16666 v -1.16667 h 1.16666 1.16667 1.16667 1.16666 1.16667 z"
         style=""
         id="path1883" />
    </g>
  </g>
</svg>
