<?xml version="1.0" encoding="UTF-8" standalone="no"?>
<!-- Created with Inkscape (http://www.inkscape.org/) -->

<svg
   xmlns:dc="http://purl.org/dc/elements/1.1/"
   xmlns:cc="http://creativecommons.org/ns#"
   xmlns:rdf="http://www.w3.org/1999/02/22-rdf-syntax-ns#"
   xmlns:svg="http://www.w3.org/2000/svg"
   xmlns="http://www.w3.org/2000/svg"
   xmlns:sodipodi="http://sodipodi.sourceforge.net/DTD/sodipodi-0.dtd"
   xmlns:inkscape="http://www.inkscape.org/namespaces/inkscape"
   width="200mm"
   height="100mm"
   viewBox="0 0 200 100"
   version="1.1"
   id="svg8"
   inkscape:version="0.92.3 (2405546, 2018-03-11)"
   sodipodi:docname="logo.svg">
  <defs
     id="defs2" />
  <sodipodi:namedview
     id="base"
     pagecolor="#ffffff"
     bordercolor="#666666"
     borderopacity="1.0"
     inkscape:pageopacity="0.0"
     inkscape:pageshadow="2"
     inkscape:zoom="0.94"
     inkscape:cx="537.6444"
     inkscape:cy="262.12766"
     inkscape:document-units="mm"
     inkscape:current-layer="layer1"
     showgrid="false"
     inkscape:pagecheckerboard="true"
     inkscape:window-width="1600"
     inkscape:window-height="842"
     inkscape:window-x="0"
     inkscape:window-y="0"
     inkscape:window-maximized="1" />
  <metadata
     id="metadata5">
    <rdf:RDF>
      <cc:Work
         rdf:about="">
        <dc:format>image/svg+xml</dc:format>
        <dc:type
           rdf:resource="http://purl.org/dc/dcmitype/StillImage" />
        <dc:title />
      </cc:Work>
    </rdf:RDF>
  </metadata>
  <g
     inkscape:label="Camada 1"
     inkscape:groupmode="layer"
     id="layer1"
     transform="translate(0,-197)">
    <path
       style="fill:#aaaaff;fill-opacity:1;stroke:#271900;stroke-width:2;stroke-miterlimit:4;stroke-dasharray:none;stroke-opacity:1"
       id="path841"
       sodipodi:type="arc"
       sodipodi:cx="27.724955"
       sodipodi:cy="226.20988"
       sodipodi:rx="20.406694"
       sodipodi:ry="19.84375"
       sodipodi:start="3.1711411"
       sodipodi:end="3.1428144"
       sodipodi:open="true"
       d="M 7.3271682,225.62362 A 20.406694,19.84375 0 0 1 28.183389,206.37114 20.406694,19.84375 0 0 1 48.129234,226.51517 20.406694,19.84375 0 0 1 27.555511,246.05295 20.406694,19.84375 0 0 1 7.3182754,226.18564" />
    <rect
       style="fill:#cccccc;fill-opacity:1;stroke:#271900;stroke-width:1;stroke-miterlimit:4;stroke-dasharray:none;stroke-opacity:1"
       id="rect934"
       width="18.014185"
       height="17.451241"
       x="245.36761"
       y="-131.1013"
       transform="rotate(77.867504)" />
    <path
       style="fill:#ffffff;fill-opacity:1;stroke:#271900;stroke-width:5.93730974;stroke-miterlimit:4;stroke-dasharray:none;stroke-opacity:1"
       d="M 139.75195 109.77148 C 114.99877 109.77148 95.070312 129.69994 95.070312 154.45312 L 95.070312 170.54492 A 40.425532 38.829789 0 0 0 56.400391 208.18945 L 56.382812 209.28906 A 40.425532 38.829789 0 0 0 59.5625 224.31836 C 50.397621 233.37211 44.728516 245.95575 44.728516 259.91602 L 44.728516 280.0332 C 44.728516 307.73321 67.028517 330.0332 94.728516 330.0332 L 683.99414 330.0332 C 711.69415 330.0332 733.99414 307.73321 733.99414 280.0332 L 733.99414 259.91602 C 733.99414 250.11695 731.20049 240.99412 726.36719 233.29492 A 43.61702 40.425532 0 0 0 753.18555 196.66016 A 43.61702 40.425532 0 0 0 710.55469 155.62305 A 43.61702 40.425532 0 0 0 696.63086 157.48438 L 696.63086 154.45312 C 696.63086 129.69994 676.7024 109.77148 651.94922 109.77148 L 139.75195 109.77148 z "
       id="rect815"
       transform="matrix(0.26458333,0,0,0.26458333,0,197)" />
    <g
       aria-label="Estúdio do

&lt;/Luk&gt;"
       transform="matrix(0.26458333,0,0,0.26458333,-10.41445,198.12588)"
       style="font-style:normal;font-variant:normal;font-weight:bold;font-stretch:normal;font-size:40px;line-height:1.25;font-family:Ubuntu;-inkscape-font-specification:'Ubuntu Bold';letter-spacing:0px;word-spacing:0px;fill:#000000;fill-opacity:1;stroke:none"
       id="flowRoot831">
      <path
         d="m 285.10206,136.72929 h 14.90598 l 0.90257,-6.4 h -24.77949 v 37.90769 h 24.80684 v -6.42735 h -15.8359 v -9.68205 h 13.1282 v -6.2906 h -13.1282 z"
         style="font-style:normal;font-variant:normal;font-weight:bold;font-stretch:normal;font-size:53.33333588px;font-family:'Fira Code';-inkscape-font-specification:'Fira Code Bold';text-align:center;text-anchor:middle"
         id="path936" />
      <path
         d="m 319.33678,162.9857 c -3.39145,0 -6.2906,-1.31282 -8.53333,-3.06325 l -4.34872,4.86838 c 3.00855,2.62564 7.30256,4.37607 12.93675,4.37607 7.41197,0 13.72992,-3.22735 13.72992,-9.6 0,-5.68889 -3.66496,-7.60342 -9.29915,-9.18975 -5.68889,-1.64102 -6.86496,-2.24273 -6.86496,-3.74701 0,-1.50427 1.34017,-2.24273 4.15727,-2.24273 2.81709,0 5.66154,0.98461 8.06837,2.46154 l 3.44616,-5.08718 c -2.8171,-2.05129 -6.59145,-3.52821 -11.76069,-3.52821 -8.17777,0 -12.60854,3.80171 -12.60854,8.97094 0,5.14188 3.66495,7.49402 8.99829,8.91624 5.79829,1.58633 6.89231,2.27009 6.89231,4.12992 0,1.83247 -1.94188,2.73504 -4.81368,2.73504 z"
         style="font-style:normal;font-variant:normal;font-weight:bold;font-stretch:normal;font-size:53.33333588px;font-family:'Fira Code';-inkscape-font-specification:'Fira Code Bold';text-align:center;text-anchor:middle"
         id="path938" />
      <path
         d="m 366.64501,166.54125 -2.8718,-5.49743 c -1.36752,0.76581 -3.06325,1.31282 -5.08718,1.31282 -2.87179,0 -4.12991,-1.12137 -4.12991,-4.02051 v -13.18291 h 8.50598 l 0.84786,-5.96239 h -9.35384 v -7.32992 l -8.64274,1.03932 v 6.2906 h -6.09914 v 5.96239 h 6.09914 v 13.18291 c 0,6.6735 3.61026,10.83077 11.21368,10.83077 4.02051,0 7.24786,-1.14872 9.51795,-2.62565 z"
         style="font-style:normal;font-variant:normal;font-weight:bold;font-stretch:normal;font-size:53.33333588px;font-family:'Fira Code';-inkscape-font-specification:'Fira Code Bold';text-align:center;text-anchor:middle"
         id="path940" />
      <path
         d="m 390.04896,122.56177 -11.92479,7.24786 2.37949,4.37607 12.9094,-5.11453 z m -8.09573,16.62906 h -8.64273 v 20.95042 c 0,5.52479 2.68034,9.02565 8.31453,9.02565 3.50085,0 6.94701,-1.47693 8.91624,-4.32137 l 0.3829,3.39145 h 7.54872 v -29.04615 h -8.64273 v 20.43077 c -1.20342,1.94188 -3.1453,3.1453 -4.92308,3.1453 -1.85983,0 -2.95385,-0.87522 -2.95385,-3.69231 z"
         style="font-style:normal;font-variant:normal;font-weight:bold;font-stretch:normal;font-size:53.33333588px;font-family:'Fira Code';-inkscape-font-specification:'Fira Code Bold';text-align:center;text-anchor:middle"
         id="path942" />
      <path
         d="m 422.64266,126.74638 v 14.16752 c -1.75043,-1.75042 -3.99317,-2.68034 -6.59146,-2.68034 -7.16581,0 -11.56923,6.4547 -11.56923,15.39829 0,9.35385 3.44616,15.53505 10.66667,15.53505 3.80171,0 6.42735,-1.85983 8.04102,-4.12992 l 0.43761,3.2 h 7.65812 v -40.58803 z m -4.26667,17.80513 c 1.77778,0 3.06325,0.87521 4.26667,2.37949 v 12.52649 c -1.25812,2.07864 -2.8171,3.36411 -4.75898,3.36411 -2.62564,0 -4.48547,-1.96923 -4.48547,-9.13505 0,-6.53675 1.96923,-9.13504 4.97778,-9.13504 z"
         style="font-style:normal;font-variant:normal;font-weight:bold;font-stretch:normal;font-size:53.33333588px;font-family:'Fira Code';-inkscape-font-specification:'Fira Code Bold';text-align:center;text-anchor:middle"
         id="path944" />
      <path
         d="m 451.46199,123.98399 c -3.03589,0 -5.14188,2.10598 -5.14188,4.86837 0,2.7624 2.10599,4.89573 5.14188,4.89573 2.9812,0 5.08718,-2.13333 5.08718,-4.89573 0,-2.76239 -2.10598,-4.86837 -5.08718,-4.86837 z m 5.22394,15.20684 h -16.60171 v 5.90769 h 7.95897 v 17.23077 h -8.23248 v 5.90769 h 24.25983 v -5.90769 h -7.38461 z"
         style="font-style:normal;font-variant:normal;font-weight:bold;font-stretch:normal;font-size:53.33333588px;font-family:'Fira Code';-inkscape-font-specification:'Fira Code Bold';text-align:center;text-anchor:middle"
         id="path946" />
      <path
         d="m 484.32919,138.23356 c -8.88888,0 -14.11282,6.2359 -14.11282,15.45299 0,9.76411 5.22394,15.48035 14.11282,15.48035 8.88889,0 14.11283,-5.82565 14.11283,-15.53505 0,-9.29914 -5.16924,-15.39829 -14.11283,-15.39829 z m 0,6.37265 c 3.52821,0 5.19659,2.76239 5.19659,9.02564 0,6.48205 -1.66838,9.18975 -5.19659,9.18975 -3.5282,0 -5.19658,-2.7077 -5.19658,-9.13505 0,-6.31795 1.66838,-9.08034 5.19658,-9.08034 z"
         style="font-style:normal;font-variant:normal;font-weight:bold;font-stretch:normal;font-size:53.33333588px;font-family:'Fira Code';-inkscape-font-specification:'Fira Code Bold';text-align:center;text-anchor:middle"
         id="path948" />
      <path
         d="m 553.89266,126.74638 v 14.16752 c -1.75043,-1.75042 -3.99317,-2.68034 -6.59146,-2.68034 -7.16581,0 -11.56923,6.4547 -11.56923,15.39829 0,9.35385 3.44616,15.53505 10.66667,15.53505 3.80171,0 6.42735,-1.85983 8.04102,-4.12992 l 0.43761,3.2 h 7.65812 v -40.58803 z m -4.26667,17.80513 c 1.77778,0 3.06325,0.87521 4.26667,2.37949 v 12.52649 c -1.25812,2.07864 -2.8171,3.36411 -4.75898,3.36411 -2.62564,0 -4.48547,-1.96923 -4.48547,-9.13505 0,-6.53675 1.96923,-9.13504 4.97778,-9.13504 z"
         style="font-style:normal;font-variant:normal;font-weight:bold;font-stretch:normal;font-size:53.33333588px;font-family:'Fira Code';-inkscape-font-specification:'Fira Code Bold';text-align:center;text-anchor:middle"
         id="path950" />
      <path
         d="m 582.76669,138.23356 c -8.88888,0 -14.11282,6.2359 -14.11282,15.45299 0,9.76411 5.22394,15.48035 14.11282,15.48035 8.88889,0 14.11283,-5.82565 14.11283,-15.53505 0,-9.29914 -5.16924,-15.39829 -14.11283,-15.39829 z m 0,6.37265 c 3.52821,0 5.19659,2.76239 5.19659,9.02564 0,6.48205 -1.66838,9.18975 -5.19659,9.18975 -3.5282,0 -5.19658,-2.7077 -5.19658,-9.13505 0,-6.31795 1.66838,-9.08034 5.19658,-9.08034 z"
         style="font-style:normal;font-variant:normal;font-weight:bold;font-stretch:normal;font-size:53.33333588px;font-family:'Fira Code';-inkscape-font-specification:'Fira Code Bold';text-align:center;text-anchor:middle"
         id="path952" />
      <path
         d="m 267.10645,284.90365 v -9.33333 h 9.33333 v 9.33333 z m -9.33333,-9.33333 v -9.33334 h 9.33333 v 9.33334 z m -9.33333,-9.33334 v -9.33333 h 9.33333 v 9.33333 z m 9.33333,-9.33333 v -9.33333 h 9.33333 v 9.33333 z m 9.33333,-9.33333 v -9.33334 h 9.33333 v 9.33334 z m 28,28 h -9.33333 v -18.66667 h 9.33333 v -18.66667 h -9.33333 v -9.33333 h -18.66667 v 9.33333 h -9.33333 v 9.33334 h -9.33333 v 9.33333 h -9.33334 v 18.66667 h 9.33334 v 9.33333 h 9.33333 v 9.33333 h 9.33333 v 9.33334 h 28 z"
         style="font-style:normal;font-variant:normal;font-weight:bold;font-stretch:normal;font-size:74.66666412px;font-family:Fipps;-inkscape-font-specification:'Fipps Bold';text-align:center;text-anchor:middle"
         id="path954" />
      <path
         d="m 304.43979,284.90365 v -18.66667 h 9.33333 v 18.66667 z m 9.33333,-18.66667 v -18.66666 h 9.33333 v 18.66666 z m 9.33333,-18.66666 v -18.66667 h 9.33333 v 18.66667 z m 9.33333,-18.66667 v -18.66666 h 9.33334 v 18.66666 z m 28,-18.66666 h -9.33333 v -9.33334 h -18.66667 v 9.33334 h -9.33333 v 18.66666 h -9.33333 v 18.66667 h -9.33333 v 18.66666 h -9.33334 v 28 h 9.33334 v 9.33334 h 18.66666 9.33333 v -9.33334 -18.66666 h 9.33334 v -18.66667 h 9.33333 v -18.66667 h 9.33333 z"
         style="font-style:normal;font-variant:normal;font-weight:bold;font-stretch:normal;font-size:74.66666412px;font-family:Fipps;-inkscape-font-specification:'Fipps Bold';text-align:center;text-anchor:middle"
         id="path956" />
      <path
         d="m 369.77311,284.90365 v -65.33333 h 9.33334 v 56 h 28 v 9.33333 z m 56,-9.33333 h -9.33333 v -9.33334 h -18.66667 v -46.66666 h -9.33333 v -9.33333 h -18.66667 v 9.33333 h -9.33333 v 74.66666 h 9.33333 v 9.33334 h 56 z"
         style="font-style:normal;font-variant:normal;font-weight:bold;font-stretch:normal;font-size:74.66666412px;font-family:Fipps;-inkscape-font-specification:'Fipps Bold';text-align:center;text-anchor:middle"
         id="path958" />
      <path
         d="m 444.43977,284.90365 v -9.33333 h 28 v 9.33333 z m -9.33333,-9.33333 v -37.33334 h 9.33333 v 37.33334 z m 37.33333,0 v -37.33334 h 9.33334 v 37.33334 z m 28,-37.33334 h -9.33333 v -9.33333 h -18.66667 v 9.33333 h -18.66666 v -9.33333 h -18.66667 v 9.33333 h -9.33333 v 46.66667 h 9.33333 v 9.33333 h 9.33333 v 9.33334 h 46.66667 v -9.33334 h 9.33333 z"
         style="font-style:normal;font-variant:normal;font-weight:bold;font-stretch:normal;font-size:74.66666412px;font-family:Fipps;-inkscape-font-specification:'Fipps Bold';text-align:center;text-anchor:middle"
         id="path960" />
      <path
         d="m 519.10643,256.90365 v 28 h -9.33333 v -65.33333 h 9.33333 v 28 h 18.66667 v 9.33333 z m 28,28 v -18.66667 h 9.33333 v 18.66667 z m -9.33333,-18.66667 v -9.33333 h 9.33333 v 9.33333 z m 0,-18.66666 v -9.33334 h 9.33333 v 9.33334 z m 9.33333,-9.33334 v -9.33333 h 9.33333 v 9.33333 z m 28,28 h -9.33333 v -18.66666 h 9.33333 v -18.66667 h -9.33333 v -9.33333 h -18.66667 v 9.33333 h -9.33333 v -9.33333 h -9.33334 v -9.33333 H 509.7731 v 9.33333 h -9.33334 v 74.66666 h 9.33334 v 9.33334 h 18.66666 v -9.33334 h 18.66667 v 9.33334 h 28 z"
         style="font-style:normal;font-variant:normal;font-weight:bold;font-stretch:normal;font-size:74.66666412px;font-family:Fipps;-inkscape-font-specification:'Fipps Bold';text-align:center;text-anchor:middle"
         id="path962" />
      <path
         d="m 584.43979,284.90365 v -9.33333 h 9.33333 v 9.33333 z m 9.33333,-9.33333 v -9.33334 h 9.33333 v 9.33334 z m 9.33333,-9.33334 v -9.33333 h 9.33333 v 9.33333 z m -9.33333,-9.33333 v -9.33333 h 9.33333 v 9.33333 z m -9.33333,-9.33333 v -9.33334 h 9.33333 v 9.33334 z m 46.66666,9.33333 h -9.33333 v -9.33333 h -9.33334 v -9.33334 h -9.33333 v -9.33333 h -18.66666 v 9.33333 h -9.33334 v 18.66667 h 9.33334 v 18.66667 h -9.33334 v 18.66666 h 9.33334 v 9.33334 h 18.66666 v -9.33334 h 9.33333 v -9.33333 h 9.33334 v -9.33333 h 9.33333 z"
         style="font-style:normal;font-variant:normal;font-weight:bold;font-stretch:normal;font-size:74.66666412px;font-family:Fipps;-inkscape-font-specification:'Fipps Bold';text-align:center;text-anchor:middle"
         id="path964" />
    </g>
    <path
       sodipodi:type="star"
       style="fill:#b380ff;fill-opacity:1;stroke:#271900;stroke-width:1;stroke-miterlimit:4;stroke-dasharray:none;stroke-opacity:1"
       id="path843"
       sodipodi:sides="5"
       sodipodi:cx="62.486702"
       sodipodi:cy="210.86967"
       sodipodi:r1="8.2783289"
       sodipodi:r2="5.4792929"
       sodipodi:arg1="0.95449939"
       sodipodi:arg2="1.5791127"
       inkscape:flatsided="false"
       inkscape:rounded="0"
       inkscape:randomized="0"
       d="m 67.27172,217.62499 -4.830585,-1.27621 -4.900471,1.15923 -0.27898,-4.98854 -2.61682,-4.3024 4.658167,-1.80687 3.283187,-3.81826 3.157885,3.87183 4.645941,1.94259 -2.706486,4.19979 z"
       inkscape:transform-center-x="-0.67639831"
       inkscape:transform-center-y="0.11907991"
       transform="rotate(19.979276,62.486703,210.86967)" />
    <path
       sodipodi:type="star"
       style="fill:#ffaaaa;fill-opacity:1;stroke:#271900;stroke-width:1;stroke-miterlimit:4;stroke-dasharray:none;stroke-opacity:1"
       id="path845"
       sodipodi:sides="5"
       sodipodi:cx="79.093526"
       sodipodi:cy="217.90647"
       sodipodi:r1="5.0114598"
       sodipodi:r2="3.3170049"
       sodipodi:arg1="0.66596924"
       sodipodi:arg2="1.2942878"
       inkscape:flatsided="false"
       inkscape:rounded="0"
       inkscape:randomized="0"
       d="m 83.034132,221.00265 -3.035066,0.0948 -2.632474,1.5135 -1.028065,-2.85721 -2.252906,-2.03594 2.399686,-1.86067 1.240101,-2.77178 2.511152,1.70725 3.019332,0.32288 -0.847709,2.91582 z"
       inkscape:transform-center-x="0.42277367"
       inkscape:transform-center-y="-0.05829327" />
    <g
       aria-label="MEI"
       transform="matrix(0.26458333,0,0,0.26458333,-17.732713,185.45966)"
       style="font-style:normal;font-weight:normal;font-size:40px;line-height:1.25;font-family:sans-serif;letter-spacing:0px;word-spacing:-32.22999954px;fill:#000000;fill-opacity:1;stroke:none"
       id="flowRoot967">
      <path
         d="m 647.88542,266.24349 h 3.91927 l 4.96093,13.22917 4.98698,-13.22917 h 3.91927 v 19.4401 h -2.5651 v -17.07031 l -5.01302,13.33333 h -2.64323 l -5.01302,-13.33333 v 17.07031 h -2.55208 z"
         style="font-size:26.66666794px;text-align:center;text-anchor:middle"
         id="path985" />
      <path
         d="m 670.90625,266.24349 h 12.29167 v 2.21354 h -9.66146 v 5.75521 h 9.25781 v 2.21354 h -9.25781 v 7.04427 h 9.89583 v 2.21354 h -12.52604 z"
         style="font-size:26.66666794px;text-align:center;text-anchor:middle"
         id="path987" />
      <path
         d="m 687.78125,266.24349 h 2.63021 v 19.4401 h -2.63021 z"
         style="font-size:26.66666794px;text-align:center;text-anchor:middle"
         id="path989" />
    </g>
    <path
       style="fill:#ffeeaa;fill-opacity:1;stroke:#271900;stroke-width:1.16269016;stroke-miterlimit:4;stroke-dasharray:none;stroke-opacity:1"
       id="path975"
       sodipodi:type="arc"
       sodipodi:cx="169.72737"
       sodipodi:cy="210.30675"
       sodipodi:rx="13.710763"
       sodipodi:ry="12.021931"
       sodipodi:start="3.1711411"
       sodipodi:end="3.1428144"
       sodipodi:open="true"
       d="m 156.02259,209.95157 a 13.710763,12.021931 0 0 1 14.01279,-11.66372 13.710763,12.021931 0 0 1 13.40113,12.20385 13.710763,12.021931 0 0 1 -13.82298,11.83656 13.710763,12.021931 0 0 1 -13.59691,-12.0362" />
    <path
       style="fill:#ffffff;fill-opacity:1;stroke:none;stroke-width:1;stroke-miterlimit:4;stroke-dasharray:none;stroke-opacity:1"
       id="path977"
       sodipodi:type="arc"
       sodipodi:cx="165.0831"
       sodipodi:cy="208.05496"
       sodipodi:rx="2.9554522"
       sodipodi:ry="3.3776596"
       sodipodi:start="3.1711411"
       sodipodi:end="3.1428144"
       sodipodi:open="true"
       d="m 162.12894,207.95517 a 2.9554522,3.3776596 0 0 1 3.02055,-3.27701 2.9554522,3.3776596 0 0 1 2.88871,3.42877 2.9554522,3.3776596 0 0 1 -2.97964,3.32558 2.9554522,3.3776596 0 0 1 -2.93091,-3.38167" />
    <path
       sodipodi:type="star"
       style="fill:#87de87;fill-opacity:1;stroke:none;stroke-width:1;stroke-miterlimit:4;stroke-dasharray:none;stroke-opacity:1"
       id="path979"
       sodipodi:sides="3"
       sodipodi:cx="33.495125"
       sodipodi:cy="258.43839"
       sodipodi:r1="13.743197"
       sodipodi:r2="6.8715982"
       sodipodi:arg1="0.96007036"
       sodipodi:arg2="2.0072679"
       inkscape:flatsided="true"
       inkscape:rounded="0"
       inkscape:randomized="0"
       d="M 41.376331,269.69725 19.804058,259.63428 39.304986,245.98363 Z"
       inkscape:transform-center-x="1.1258171"
       inkscape:transform-center-y="2.4143844"
       transform="rotate(25.562365,33.495126,258.43839)" />
    <path
       style="fill:#ffaaaa;fill-opacity:1;stroke:none;stroke-width:1;stroke-miterlimit:4;stroke-dasharray:none;stroke-opacity:1"
       id="path981"
       sodipodi:type="arc"
       sodipodi:cx="171.61577"
       sodipodi:cy="240.39615"
       sodipodi:rx="8.8075409"
       sodipodi:ry="8.4722023"
       sodipodi:start="3.1711411"
       sodipodi:end="3.1428144"
       sodipodi:open="true"
       d="m 162.81207,240.14584 a 8.8075409,8.4722023 0 0 1 9.00156,-8.21976 8.8075409,8.4722023 0 0 1 8.60864,8.60041 8.8075409,8.4722023 0 0 1 -8.87963,8.34157 8.8075409,8.4722023 0 0 1 -8.73441,-8.48226" />
  </g>
</svg>
