<?xml version="1.0" encoding="UTF-8" standalone="no"?>
<!-- Created with Inkscape (http://www.inkscape.org/) -->

<svg
   xmlns:dc="http://purl.org/dc/elements/1.1/"
   xmlns:cc="http://creativecommons.org/ns#"
   xmlns:rdf="http://www.w3.org/1999/02/22-rdf-syntax-ns#"
   xmlns:svg="http://www.w3.org/2000/svg"
   xmlns="http://www.w3.org/2000/svg"
   xmlns:sodipodi="http://sodipodi.sourceforge.net/DTD/sodipodi-0.dtd"
   xmlns:inkscape="http://www.inkscape.org/namespaces/inkscape"
   width="128"
   height="128"
   viewBox="0 0 128 128"
   version="1.1"
   id="svg8"
   inkscape:version="0.92.3 (2405546, 2018-03-11)"
   sodipodi:docname="bg.svg">
  <defs
     id="defs2" />
  <sodipodi:namedview
     id="base"
     pagecolor="#7b4862"
     bordercolor="#666666"
     borderopacity="1.0"
     inkscape:pageopacity="0"
     inkscape:pageshadow="2"
     inkscape:zoom="6.7948542"
     inkscape:cx="57.163623"
     inkscape:cy="66.644464"
     inkscape:document-units="px"
     inkscape:current-layer="layer1"
     showgrid="false"
     units="px"
     inkscape:pagecheckerboard="true"
     inkscape:window-width="1600"
     inkscape:window-height="843"
     inkscape:window-x="0"
     inkscape:window-y="0"
     inkscape:window-maximized="1" />
  <metadata
     id="metadata5">
    <rdf:RDF>
      <cc:Work
         rdf:about="">
        <dc:format>image/svg+xml</dc:format>
        <dc:type
           rdf:resource="http://purl.org/dc/dcmitype/StillImage" />
        <dc:title />
      </cc:Work>
    </rdf:RDF>
  </metadata>
  <g
     inkscape:label="Camada 1"
     inkscape:groupmode="layer"
     id="layer1"
     transform="translate(0,-263.13334)"
     style="opacity:0.197">
    <ellipse
       style="opacity:1;fill:#0000ff;fill-opacity:1;stroke:#000000;stroke-width:2;stroke-linecap:round;stroke-miterlimit:4;stroke-dasharray:none;stroke-dashoffset:0;stroke-opacity:1;paint-order:normal"
       id="path877"
       cx="113.39463"
       cy="272.66132"
       rx="7.8736053"
       ry="6.6226587" />
    <g
       id="g824"
       transform="translate(-1.4569105,-0.83252031)"
       style="">
      <rect
         ry="7.9089432"
         y="295.39349"
         x="32.676422"
         height="44.539833"
         width="65.560974"
         id="rect815"
         style="opacity:1;fill:#32b9ff;fill-opacity:1;stroke:#000000;stroke-width:5;stroke-linecap:round;stroke-miterlimit:4;stroke-dasharray:none;stroke-dashoffset:0;stroke-opacity:1;paint-order:normal" />
      <rect
         ry="0"
         y="340.55774"
         x="56.819511"
         height="8.9495935"
         width="17.066668"
         id="rect817"
         style="opacity:1;fill:#c8c8c8;fill-opacity:1;stroke:#000000;stroke-width:2.5;stroke-linecap:round;stroke-miterlimit:4;stroke-dasharray:none;stroke-dashoffset:0;stroke-opacity:1;paint-order:normal" />
      <rect
         y="351.38049"
         x="29.346344"
         height="18.523577"
         width="74.094307"
         id="rect819"
         style="opacity:1;fill:#333333;fill-opacity:1;stroke:#000000;stroke-width:5;stroke-linecap:round;stroke-miterlimit:4;stroke-dasharray:none;stroke-dashoffset:0;stroke-opacity:1;paint-order:normal" />
    </g>
    <path
       style="fill:none;stroke:#000000;stroke-width:2;stroke-linecap:butt;stroke-linejoin:miter;stroke-miterlimit:4;stroke-dasharray:none;stroke-opacity:1"
       d="m 9.5739837,289.77399 -0.20813,9.78211 9.5739843,-2.91382 z"
       id="path826"
       inkscape:connector-curvature="0" />
    <path
       style="fill:none;stroke:#000000;stroke-width:2;stroke-linecap:butt;stroke-linejoin:miter;stroke-miterlimit:4;stroke-dasharray:none;stroke-opacity:1"
       d="m 11.96748,290.60651 20.604877,-22.47805 7.076424,5.82764 -22.269919,21.22927"
       id="path828"
       inkscape:connector-curvature="0"
       sodipodi:nodetypes="cccc" />
    <path
       style="fill:none;stroke:#000000;stroke-width:1px;stroke-linecap:butt;stroke-linejoin:miter;stroke-opacity:1"
       d="M 14.881301,292.89594 31.011382,276.55773"
       id="path830"
       inkscape:connector-curvature="0" />
    <path
       style="fill:none;stroke:#000000;stroke-width:2;stroke-linecap:butt;stroke-linejoin:miter;stroke-miterlimit:4;stroke-dasharray:none;stroke-opacity:1"
       d="m 27.369106,272.81139 7.388618,6.5561"
       id="path832"
       inkscape:connector-curvature="0" />
    <path
       style="fill:none;stroke:#000000;stroke-width:1px;stroke-linecap:butt;stroke-linejoin:miter;stroke-opacity:1"
       d="m 9.9902439,295.60163 2.4975611,2.49756"
       id="path834"
       inkscape:connector-curvature="0" />
    <path
       style="opacity:1;fill:#000000;fill-opacity:1;stroke:#000000;stroke-width:0.20813008;stroke-linecap:round;stroke-miterlimit:4;stroke-dasharray:none;stroke-dashoffset:0;stroke-opacity:1;paint-order:normal"
       d="m 10.448779,34.297477 v -0.646495 l 0.522888,0.515026 0.522888,0.515025 -0.340774,0.123552 c -0.662007,0.24002 -0.705002,0.209094 -0.705002,-0.507108 z"
       id="path836"
       inkscape:connector-curvature="0"
       transform="translate(0,263.13334)" />
    <path
       style="opacity:1;fill:#afe9af;fill-opacity:1;stroke:#000000;stroke-width:0.20813008;stroke-linecap:round;stroke-miterlimit:4;stroke-dasharray:none;stroke-dashoffset:0;stroke-opacity:1;paint-order:normal"
       d="m 16.358619,30.331298 -0.69829,-0.527209 0.539419,-0.578026 c 1.350532,-1.447192 14.690161,-14.88697 14.776037,-14.88697 0.122325,0 1.742913,1.458278 1.742913,1.568352 0,0.07334 -15.13641,14.552148 -15.508201,14.834445 -0.121953,0.0926 -0.297414,0.008 -0.851878,-0.410592 z"
       id="path842"
       inkscape:connector-curvature="0"
       transform="translate(0,263.13334)" />
    <path
       style="opacity:1;fill:#afe9af;fill-opacity:1;stroke:#000000;stroke-width:0.20813008;stroke-linecap:round;stroke-miterlimit:4;stroke-dasharray:none;stroke-dashoffset:0;stroke-opacity:1;paint-order:normal"
       d="m 13.859657,28.511152 c -0.442066,-0.325364 -0.803895,-0.614986 -0.804064,-0.643603 -4.24e-4,-0.07188 14.770323,-16.174896 14.870759,-16.212054 0.04451,-0.01647 0.557483,0.397801 1.139943,0.920593 l 1.059018,0.950533 -2.210705,2.253391 c -5.655061,5.764252 -13.152252,13.335414 -13.199162,13.329392 -0.02862,-0.0037 -0.413723,-0.272887 -0.855789,-0.598252 z"
       id="path844"
       inkscape:connector-curvature="0"
       transform="translate(0,263.13334)" />
    <path
       style="opacity:1;fill:#fff6d5;fill-opacity:1;stroke:#000000;stroke-width:0.20813008;stroke-linecap:round;stroke-miterlimit:4;stroke-dasharray:none;stroke-dashoffset:0;stroke-opacity:1;paint-order:normal"
       d="m 11.539603,33.252914 -1.038791,-1.066666 0.05203,-1.749525 0.05203,-1.749525 2.861789,2.094954 c 1.573983,1.152225 2.922041,2.153631 2.995683,2.225347 0.107825,0.105006 -0.246752,0.245553 -1.821139,0.721867 -1.075268,0.325311 -1.979283,0.591191 -2.008924,0.590844 -0.02964,-3.43e-4 -0.521348,-0.480629 -1.092683,-1.067296 z"
       id="path846"
       inkscape:connector-curvature="0"
       transform="translate(0,263.13334)" />
    <path
       style="opacity:1;fill:#ffaacc;fill-opacity:1;stroke:#000000;stroke-width:0.20813008;stroke-linecap:round;stroke-miterlimit:4;stroke-dasharray:none;stroke-dashoffset:0;stroke-opacity:1;paint-order:normal"
       d="M 31.843203,12.252743 29.380824,10.0597 29.627055,9.7670715 c 1.067229,-1.2683299 3.045642,-3.3157305 3.137662,-3.247073 0.285772,0.2132191 4.921423,4.0201875 5.097407,4.1861795 0.195962,0.184837 0.169836,0.218153 -1.196748,1.526069 -0.768397,0.735409 -1.613694,1.534304 -1.878439,1.775322 l -0.481356,0.438216 z"
       id="path848"
       inkscape:connector-curvature="0"
       transform="translate(0,263.13334)" />
    <path
       style="fill:#afffaf;fill-opacity:1;stroke:none;stroke-width:1px;stroke-linecap:butt;stroke-linejoin:miter;stroke-opacity:1"
       d="m 55.041652,321.96335 c 0,0 6.328318,-13.834 13.539657,-14.12834 7.21134,-0.29434 6.475489,-2.20755 6.475489,-2.20755 0,0 2.649063,4.70944 1.766042,6.03398 -0.883021,1.32453 0,13.39248 -9.124552,14.2755 -9.124552,0.88303 -10.743424,-0.73585 -10.743424,-0.73585 0,0 -4.267935,2.64907 -3.532084,3.09058 0.735851,0.44151 -3.237745,-2.5019 -2.060383,-3.38492 1.177362,-0.88302 2.796234,-3.38491 3.679255,-2.9434 z"
       id="path850"
       inkscape:connector-curvature="0" />
    <path
       style="fill:none;stroke:#2ea02e;stroke-width:1;stroke-linecap:butt;stroke-linejoin:miter;stroke-miterlimit:4;stroke-dasharray:none;stroke-opacity:1"
       d="m 60.928459,320.93316 c 0,0 11.773616,-7.06417 11.920786,-9.56606"
       id="path852"
       inkscape:connector-curvature="0" />
    <path
       style="fill:none;stroke:#2ea02e;stroke-width:1;stroke-linecap:butt;stroke-linejoin:miter;stroke-miterlimit:4;stroke-dasharray:none;stroke-opacity:1"
       d="m 66.226586,312.39729 2.354723,3.23774 h 4.120766"
       id="path854"
       inkscape:connector-curvature="0" />
    <path
       style="fill:none;stroke:#2ea02e;stroke-width:1;stroke-linecap:butt;stroke-linejoin:miter;stroke-miterlimit:4;stroke-dasharray:none;stroke-opacity:1"
       d="m 63.724693,315.19352 0.441511,3.09057 5.445297,3.23775"
       id="path856"
       inkscape:connector-curvature="0" />
    <rect
       style="opacity:1;fill:#bd1f91;fill-opacity:1;stroke:#0b0008;stroke-width:3;stroke-linecap:round;stroke-miterlimit:4;stroke-dasharray:none;stroke-dashoffset:0;stroke-opacity:1;paint-order:normal"
       id="rect858"
       width="36.351036"
       height="26.637804"
       x="27.289562"
       y="370.32138"
       ry="9.3806372"
       transform="rotate(-9.013259)" />
    <path
       style="fill:#ffffff;stroke:none;stroke-width:1px;stroke-linecap:butt;stroke-linejoin:miter;stroke-opacity:1"
       d="m 99.48705,366.11441 c 0,0 -0.14717,12.21512 3.53208,11.92078 3.67926,-0.29434 10.15475,-7.65285 9.4189,-8.68304 -0.73585,-1.03019 -10.44909,-5.00378 -12.95098,-3.23774 z"
       id="path860"
       inkscape:connector-curvature="0" />
    <g
       id="g871"
       transform="rotate(-7.0775595,68.188412,352.80489)"
       style="">
      <rect
         ry="0.51510006"
         y="353.75211"
         x="11.920785"
         height="17.807594"
         width="4.2679358"
         id="rect864"
         style="opacity:1;fill:#808080;fill-opacity:1;stroke:#000000;stroke-width:3;stroke-linecap:round;stroke-miterlimit:4;stroke-dasharray:none;stroke-dashoffset:0;stroke-opacity:1;paint-order:normal" />
      <ellipse
         ry="5.2981267"
         rx="6.3283181"
         cy="354.19363"
         cx="13.981168"
         id="path862"
         style="opacity:1;fill:#ff0000;fill-opacity:1;stroke:#000000;stroke-width:3;stroke-linecap:round;stroke-miterlimit:4;stroke-dasharray:none;stroke-dashoffset:0;stroke-opacity:1;paint-order:normal" />
      <rect
         ry="0.5151"
         y="367.43893"
         x="3.9735951"
         height="8.8302116"
         width="19.720806"
         id="rect866"
         style="opacity:1;fill:#808080;fill-opacity:1;stroke:#000000;stroke-width:3;stroke-linecap:round;stroke-miterlimit:4;stroke-dasharray:none;stroke-dashoffset:0;stroke-opacity:1;paint-order:normal" />
    </g>
    <ellipse
       style="opacity:1;fill:#ff0000;fill-opacity:1;stroke:#000000;stroke-width:2;stroke-linecap:round;stroke-miterlimit:4;stroke-dasharray:none;stroke-dashoffset:0;stroke-opacity:1;paint-order:normal"
       id="path873"
       cx="101.25309"
       cy="276.267"
       rx="8.3887005"
       ry="8.0207758" />
    <ellipse
       style="opacity:1;fill:#00ff00;fill-opacity:1;stroke:#000000;stroke-width:2;stroke-linecap:round;stroke-miterlimit:4;stroke-dasharray:none;stroke-dashoffset:0;stroke-opacity:1;paint-order:normal"
       id="path875"
       cx="109.86255"
       cy="283.11041"
       rx="8.0207758"
       ry="7.6528502" />
    <ellipse
       style="opacity:1;fill:#ffffff;fill-opacity:1;stroke:#000000;stroke-width:2;stroke-linecap:round;stroke-miterlimit:4;stroke-dasharray:none;stroke-dashoffset:0;stroke-opacity:1;paint-order:normal"
       id="path879"
       cx="108.46443"
       cy="275.67831"
       rx="5.0037866"
       ry="4.1943502" />
  </g>
</svg>
