<?xml version="1.0" encoding="UTF-8" standalone="no"?>
<!-- Created with Inkscape (http://www.inkscape.org/) -->

<svg
   xmlns:dc="http://purl.org/dc/elements/1.1/"
   xmlns:cc="http://creativecommons.org/ns#"
   xmlns:rdf="http://www.w3.org/1999/02/22-rdf-syntax-ns#"
   xmlns:svg="http://www.w3.org/2000/svg"
   xmlns="http://www.w3.org/2000/svg"
   xmlns:sodipodi="http://sodipodi.sourceforge.net/DTD/sodipodi-0.dtd"
   xmlns:inkscape="http://www.inkscape.org/namespaces/inkscape"
   width="550"
   height="350"
   viewBox="0 0 145.52083 92.60417"
   version="1.1"
   id="svg8"
   sodipodi:docname="Logo.svg"
   inkscape:version="0.92.4 (5da689c313, 2019-01-14)">
  <defs
     id="defs2" />
  <sodipodi:namedview
     id="base"
     pagecolor="#ffffff"
     bordercolor="#666666"
     borderopacity="1.0"
     inkscape:pageopacity="0.0"
     inkscape:pageshadow="2"
     inkscape:zoom="0.98994949"
     inkscape:cx="238.36495"
     inkscape:cy="98.85818"
     inkscape:document-units="mm"
     inkscape:current-layer="layer1"
     showgrid="false"
     units="px"
     inkscape:pagecheckerboard="true"
     inkscape:window-width="1600"
     inkscape:window-height="837"
     inkscape:window-x="-8"
     inkscape:window-y="-8"
     inkscape:window-maximized="1" />
  <metadata
     id="metadata5">
    <rdf:RDF>
      <cc:Work
         rdf:about="">
        <dc:format>image/svg+xml</dc:format>
        <dc:type
           rdf:resource="http://purl.org/dc/dcmitype/StillImage" />
        <dc:title></dc:title>
      </cc:Work>
    </rdf:RDF>
  </metadata>
  <g
     inkscape:label="Camada 1"
     inkscape:groupmode="layer"
     id="layer1"
     transform="translate(0,-204.39581)">
    <ellipse
       style="fill:#d5e5ff;fill-opacity:1;stroke:none;stroke-width:1;stroke-miterlimit:4;stroke-dasharray:none;stroke-opacity:1"
       id="path887"
       cx="26.860584"
       cy="236.06253"
       rx="14.833458"
       ry="14.432554" />
    <path
       style="fill:#fbfbfb;fill-opacity:1;stroke:none;stroke-width:1;stroke-miterlimit:4;stroke-dasharray:none;stroke-opacity:1"
       d="m 35.41303,234.19182 c -9.550341,0 -17.238741,7.68839 -17.238741,17.23874 0,9.26178 7.231338,16.77161 16.378846,17.21704 -0.136689,0.87776 -0.208773,1.77714 -0.208773,2.69441 0,9.55034 7.688398,17.23874 17.238739,17.23874 h 67.886289 c 9.55033,0 17.23874,-7.6884 17.23874,-17.23874 0,-3.88103 -1.26953,-7.45453 -3.41788,-10.3296 2.42181,-1.16175 4.08605,-3.63314 4.08605,-6.50814 0,-3.99782 -3.21827,-7.21661 -7.21609,-7.21661 h -1.8371 c -1.84627,-7.53572 -8.61729,-13.09584 -16.738,-13.09584 z"
       id="rect901"
       inkscape:connector-curvature="0" />
    <g
       aria-label="Estúdio Do &lt;/Luk&gt;"
       transform="matrix(0.26458333,0,0,0.26458333,-9.8889731,196.19239)"
       style="font-style:normal;font-weight:normal;font-size:40px;line-height:1.25;font-family:sans-serif;letter-spacing:0px;word-spacing:0px;fill:#000000;fill-opacity:1;stroke:none"
       id="flowRoot870">
      <path
         d="m 190.54557,206.02214 v -25.66667 h 14.66667 v 3.66666 h -11 v 7.33334 h 11 v 3.66667 h -11 v 7.33333 h 11 v 3.66667 z m 22,-3.66667 h -3.66666 v -3.66667 h 3.66666 v -7.33333 h -3.66666 v -3.66667 h 3.66666 v -7.33333 h -3.66666 v -3.66667 h -18.33334 v 3.66667 h -3.66666 v 29.33333 h 3.66666 v 3.66667 h 22 z"
         style="font-style:normal;font-variant:normal;font-weight:normal;font-stretch:normal;font-size:29.33333397px;font-family:Fipps;-inkscape-font-specification:Fipps"
         id="path912"
         inkscape:connector-curvature="0" />
      <path
         d="m 216.21224,206.02214 v -3.66667 h 14.66667 v 3.66667 z m 0,-11 v -3.66667 h 3.66667 v 3.66667 z m 3.66667,3.66666 v -3.66666 h 11 v 3.66666 z m 11,3.66667 v -3.66667 h 3.66666 v 3.66667 z m -11,-11 v -3.66667 h 14.66666 v 3.66667 z m 22,7.33333 h -3.66667 v -3.66666 h 3.66667 v -7.33334 h -3.66667 v -3.66667 h -18.33333 v 3.66667 h -3.66667 v 3.66667 h -3.66667 v 7.33333 h 3.66667 v 3.66667 h -3.66667 v 7.33333 h 3.66667 v 3.66667 h 18.33333 v -3.66667 h 3.66667 v -3.66666 h 3.66667 z"
         style="font-style:normal;font-variant:normal;font-weight:normal;font-stretch:normal;font-size:29.33333397px;font-family:Fipps;-inkscape-font-specification:Fipps"
         id="path914"
         inkscape:connector-curvature="0" />
      <path
         d="m 252.87891,206.02214 v -3.66667 h 3.66666 v 3.66667 z m 0,-14.66667 v 11 h -3.66667 v -11 h -3.66667 v -3.66667 h 3.66667 v -7.33333 h 3.66667 v 7.33333 h 3.66666 v 3.66667 z m 11,11 h -3.66667 v -7.33333 h 3.66667 v -7.33334 h -3.66667 v -7.33333 h -3.66667 v -3.66667 h -7.33333 v 3.66667 h -3.66667 v 7.33333 h -3.66666 v 7.33334 h 3.66666 v 11 h 3.66667 v 3.66666 h 3.66667 v 3.66667 h 11 z"
         style="font-style:normal;font-variant:normal;font-weight:normal;font-stretch:normal;font-size:29.33333397px;font-family:Fipps;-inkscape-font-specification:Fipps"
         id="path916"
         inkscape:connector-curvature="0" />
      <path
         d="m 271.21224,206.02214 v -3.66667 h 11 v 3.66667 z m -3.66667,-3.66667 V 187.6888 h 3.66667 v 14.66667 z m 14.66667,0 V 187.6888 h 3.66667 v 14.66667 z m -7.33333,-18.33334 v -3.66666 h 3.66666 v 3.66666 z m 3.66666,-3.66666 v -3.66667 h 3.66667 v 3.66667 z m 14.66667,7.33333 h -3.66667 v -11 h -3.66666 v -3.66667 h -7.33334 v 3.66667 h -3.66666 v 3.66667 h -3.66667 v 3.66666 h -3.66667 v 3.66667 h -3.66666 v 18.33334 h 3.66666 v 3.66666 h 3.66667 v 3.66667 h 18.33333 v -3.66667 h 3.66667 z"
         style="font-style:normal;font-variant:normal;font-weight:normal;font-stretch:normal;font-size:29.33333397px;font-family:Fipps;-inkscape-font-specification:Fipps"
         id="path918"
         inkscape:connector-curvature="0" />
      <path
         d="m 296.87891,202.35547 v -11 h 3.66667 v 11 z m 3.66667,3.66667 v -3.66667 h 11 v -11 h -11 v -3.66667 h 11 v -7.33333 h 3.66666 v 25.66667 z m 22,-25.66667 h -3.66667 v -3.66667 h -7.33333 v 3.66667 h -3.66667 v 3.66666 h -7.33333 v 3.66667 h -3.66667 v 3.66667 h -3.66667 v 14.66667 h 3.66667 v 3.66666 h 3.66667 v 3.66667 h 22 z"
         style="font-style:normal;font-variant:normal;font-weight:normal;font-stretch:normal;font-size:29.33333397px;font-family:Fipps;-inkscape-font-specification:Fipps"
         id="path920"
         inkscape:connector-curvature="0" />
      <path
         d="M 326.21224,206.02214 V 187.6888 h 3.66667 v 18.33334 z m 0,-22.00001 v -3.66666 h 3.66667 v 3.66666 z m 11,-3.66666 h -3.66666 v -3.66667 h -7.33334 v 3.66667 h -3.66666 v 29.33333 h 3.66666 v 3.66667 h 11 z"
         style="font-style:normal;font-variant:normal;font-weight:normal;font-stretch:normal;font-size:29.33333397px;font-family:Fipps;-inkscape-font-specification:Fipps"
         id="path922"
         inkscape:connector-curvature="0" />
      <path
         d="m 344.54558,206.02214 v -3.66667 h 11 v 3.66667 z m -3.66666,-3.66667 v -11 h 3.66666 v 11 z m 14.66666,0 v -11 h 3.66667 v 11 z m -11,-11 v -3.66667 h 11 v 3.66667 z m 22,0 h -3.66666 v -3.66667 h -3.66667 v -3.66667 h -14.66667 v 3.66667 h -3.66666 v 3.66667 h -3.66667 v 14.66667 h 3.66667 v 3.66666 h 3.66666 v 3.66667 h 14.66667 v -3.66667 h 3.66667 v -3.66666 h 3.66666 z"
         style="font-style:normal;font-variant:normal;font-weight:normal;font-stretch:normal;font-size:29.33333397px;font-family:Fipps;-inkscape-font-specification:Fipps"
         id="path924"
         inkscape:connector-curvature="0" />
      <path
         d="m 384.87892,206.02214 v -25.66667 h 14.66666 v 3.66666 h -11 v 18.33334 h 11 v 3.66667 z m 14.66666,-3.66667 v -18.33334 h 3.66667 v 18.33334 z m 11,-18.33334 h -3.66666 v -3.66666 h -3.66667 v -3.66667 h -18.33333 v 3.66667 h -3.66667 v 29.33333 h 3.66667 v 3.66667 h 22 v -3.66667 h 3.66666 z"
         style="font-style:normal;font-variant:normal;font-weight:normal;font-stretch:normal;font-size:29.33333397px;font-family:Fipps;-inkscape-font-specification:Fipps"
         id="path926"
         inkscape:connector-curvature="0" />
      <path
         d="m 417.87891,206.02214 v -3.66667 h 11 v 3.66667 z m -3.66667,-3.66667 v -11 h 3.66667 v 11 z m 14.66667,0 v -11 h 3.66667 v 11 z m -11,-11 v -3.66667 h 11 v 3.66667 z m 22,0 h -3.66666 v -3.66667 h -3.66667 v -3.66667 h -14.66667 v 3.66667 h -3.66667 v 3.66667 h -3.66666 v 14.66667 h 3.66666 v 3.66666 h 3.66667 v 3.66667 h 14.66667 v -3.66667 h 3.66667 v -3.66666 h 3.66666 z"
         style="font-style:normal;font-variant:normal;font-weight:normal;font-stretch:normal;font-size:29.33333397px;font-family:Fipps;-inkscape-font-specification:Fipps"
         id="path928"
         inkscape:connector-curvature="0" />
      <path
         d="m 280.30448,231.52177 -34.75692,72.12307 -38.4,-22.59692 31.95077,-18.65846 -6.79385,-10.73231 -38.59692,23.92616 V 286.611 l 46.22769,28.75077 -3.93846,8.12307 12.16,5.56308 44.20923,-91.96308 z"
         style="font-style:normal;font-variant:normal;font-weight:bold;font-stretch:normal;font-size:96px;font-family:'Fira Code';-inkscape-font-specification:'Fira Code Bold'"
         id="path930"
         inkscape:connector-curvature="0" />
      <path
         d="m 314.16083,311.96484 h 44.06154 l 1.67384,-12.75077 H 330.30852 V 243.731 h -16.14769 z"
         style="font-style:normal;font-variant:normal;font-weight:bold;font-stretch:normal;font-size:96px;font-family:'Fira Code';-inkscape-font-specification:'Fira Code Bold'"
         id="path932"
         inkscape:connector-curvature="0" />
      <path
         d="m 386.51564,259.68177 h -15.55693 v 37.71077 c 0,9.94461 4.82462,16.24615 14.96616,16.24615 6.30154,0 12.50461,-2.65846 16.04923,-7.77846 l 0.68923,6.10461 h 13.58769 V 259.68177 H 400.6941 v 36.77538 c -2.16616,3.49539 -5.66154,5.66154 -8.86154,5.66154 -3.34769,0 -5.31692,-1.57538 -5.31692,-6.64615 z"
         style="font-style:normal;font-variant:normal;font-weight:bold;font-stretch:normal;font-size:96px;font-family:'Fira Code';-inkscape-font-specification:'Fira Code Bold'"
         id="path934"
         inkscape:connector-curvature="0" />
      <path
         d="m 445.57814,237.28177 -15.55693,1.62461 v 73.05846 h 15.55693 z m 34.06769,22.4 h -16.29539 l -17.18153,23.63077 17.18153,28.6523 h 17.72308 l -18.60923,-29.14461 z"
         style="font-style:normal;font-variant:normal;font-weight:bold;font-stretch:normal;font-size:96px;font-family:'Fira Code';-inkscape-font-specification:'Fira Code Bold'"
         id="path936"
         inkscape:connector-curvature="0" />
      <path
         d="m 495.92679,251.65715 -6.89231,11.17539 32,18.21538 -32,18.80615 7.04,10.58462 38.35077,-23.82769 v -11.12616 z"
         style="font-style:normal;font-variant:normal;font-weight:bold;font-stretch:normal;font-size:96px;font-family:'Fira Code';-inkscape-font-specification:'Fira Code Bold'"
         id="path938"
         inkscape:connector-curvature="0" />
    </g>
    <path
       sodipodi:type="star"
       style="fill:#fff6d5;fill-opacity:1;stroke:none;stroke-width:1;stroke-miterlimit:4;stroke-dasharray:none;stroke-opacity:1"
       id="path889"
       sodipodi:sides="5"
       sodipodi:cx="12.828938"
       sodipodi:cy="265.4622"
       sodipodi:r1="7.1964521"
       sodipodi:r2="4.0696306"
       sodipodi:arg1="0.54678884"
       sodipodi:arg2="1.0790744"
       inkscape:flatsided="false"
       inkscape:rounded="0"
       inkscape:randomized="0"
       d="m 18.976137,269.20396 -4.225746,-0.15431 -3.580502,3.41514 -1.159072,-4.0666 -4.3544271,-2.34993 3.5093996,-2.35899 0.8893185,-4.86747 3.328,2.60867 4.904056,-0.65834 -1.452582,3.97124 z"
       inkscape:transform-center-x="0.51267447"
       inkscape:transform-center-y="0.1811062" />
    <path
       sodipodi:type="star"
       style="fill:#fff6d5;fill-opacity:1;stroke:none;stroke-width:1;stroke-miterlimit:4;stroke-dasharray:none;stroke-opacity:1"
       id="path891"
       sodipodi:sides="5"
       sodipodi:cx="51.048477"
       sodipodi:cy="215.21554"
       sodipodi:r1="6.8714781"
       sodipodi:r2="3.8858552"
       sodipodi:arg1="1.3352513"
       sodipodi:arg2="1.9635699"
       inkscape:flatsided="false"
       inkscape:rounded="0"
       inkscape:randomized="0"
       d="m 52.652095,221.89728 -3.090938,-3.09178 -4.371845,-5e-5 1.985311,-3.89507 -1.350927,-4.15789 4.317928,0.6845 3.536926,-2.56967 0.683315,4.31812 3.536868,2.56975 -3.895616,1.98424 z"
       inkscape:transform-center-x="-0.49554431"
       inkscape:transform-center-y="0.16675774" />
  </g>
</svg>
