<?xml version="1.0" encoding="UTF-8" standalone="no"?>
<!-- Created with Inkscape (http://www.inkscape.org/) -->

<svg
   xmlns:dc="http://purl.org/dc/elements/1.1/"
   xmlns:cc="http://creativecommons.org/ns#"
   xmlns:rdf="http://www.w3.org/1999/02/22-rdf-syntax-ns#"
   xmlns:svg="http://www.w3.org/2000/svg"
   xmlns="http://www.w3.org/2000/svg"
   xmlns:sodipodi="http://sodipodi.sourceforge.net/DTD/sodipodi-0.dtd"
   xmlns:inkscape="http://www.inkscape.org/namespaces/inkscape"
   width="200"
   height="200"
   viewBox="0 0 52.916665 52.916668"
   version="1.1"
   id="svg8"
   inkscape:version="0.92.3 (2405546, 2018-03-11)"
   sodipodi:docname="fundo.svg">
  <defs
     id="defs2" />
  <sodipodi:namedview
     id="base"
     pagecolor="#ffffff"
     bordercolor="#666666"
     borderopacity="1.0"
     inkscape:pageopacity="0.0"
     inkscape:pageshadow="2"
     inkscape:zoom="2.8"
     inkscape:cx="110.15627"
     inkscape:cy="103.38921"
     inkscape:document-units="mm"
     inkscape:current-layer="layer1"
     showgrid="false"
     units="px"
     inkscape:window-width="1600"
     inkscape:window-height="837"
     inkscape:window-x="-8"
     inkscape:window-y="-8"
     inkscape:window-maximized="1" />
  <metadata
     id="metadata5">
    <rdf:RDF>
      <cc:Work
         rdf:about="">
        <dc:format>image/svg+xml</dc:format>
        <dc:type
           rdf:resource="http://purl.org/dc/dcmitype/StillImage" />
        <dc:title></dc:title>
      </cc:Work>
    </rdf:RDF>
  </metadata>
  <g
     inkscape:label="Camada 1"
     inkscape:groupmode="layer"
     id="layer1"
     transform="translate(0,-244.0833)">
    <rect
       style="opacity:1;fill:#000827;fill-opacity:1;stroke:none;stroke-width:1.12878394;stroke-linecap:butt;stroke-linejoin:round;stroke-miterlimit:4;stroke-dasharray:none;stroke-dashoffset:0;stroke-opacity:1"
       id="rect1123"
       width="56.412945"
       height="56.601929"
       x="-0.94494051"
       y="243.42184" />
    <path
       sodipodi:type="star"
       style="opacity:1;fill:none;fill-opacity:1;stroke:#ffc6c6;stroke-width:1.16662538;stroke-linecap:butt;stroke-linejoin:round;stroke-miterlimit:4;stroke-dasharray:none;stroke-dashoffset:0;stroke-opacity:1"
       id="path1135"
       sodipodi:sides="5"
       sodipodi:cx="25.891369"
       sodipodi:cy="274.79385"
       sodipodi:r1="8.5802469"
       sodipodi:r2="4.7675109"
       sodipodi:arg1="0.93390305"
       sodipodi:arg2="1.5622216"
       inkscape:flatsided="false"
       inkscape:rounded="0"
       inkscape:randomized="0"
       d="m 30.994047,281.69192 -5.061799,-2.13073 -5.024515,2.21722 0.462263,-5.47249 -3.661362,-4.09344 5.347493,-1.25145 2.761669,-4.74711 2.84267,4.69905 5.368167,1.15957 -3.590626,4.15562 z"
       inkscape:transform-center-x="0.30711505"
       inkscape:transform-center-y="0.068682316"
       transform="matrix(0.42650063,-0.16014721,0.16202592,0.4215553,-42.595671,149.38651)" />
    <path
       sodipodi:type="star"
       style="opacity:1;fill:none;fill-opacity:1;stroke:#cbffc6;stroke-width:1.16662538;stroke-linecap:butt;stroke-linejoin:round;stroke-miterlimit:4;stroke-dasharray:none;stroke-dashoffset:0;stroke-opacity:1"
       id="path1135-6"
       sodipodi:sides="5"
       sodipodi:cx="25.891369"
       sodipodi:cy="274.79385"
       sodipodi:r1="8.5802469"
       sodipodi:r2="4.7675109"
       sodipodi:arg1="0.93390305"
       sodipodi:arg2="1.5622216"
       inkscape:flatsided="false"
       inkscape:rounded="0"
       inkscape:randomized="0"
       d="m 30.994047,281.69192 -5.061799,-2.13073 -5.024515,2.21722 0.462263,-5.47249 -3.661362,-4.09344 5.347493,-1.25145 2.761669,-4.74711 2.84267,4.69905 5.368167,1.15957 -3.590626,4.15562 z"
       inkscape:transform-center-x="-0.52472384"
       inkscape:transform-center-y="0.068792631"
       transform="matrix(0.65386994,0.2453654,-0.23752134,0.65189212,63.252931,96.441164)" />
    <path
       sodipodi:type="star"
       style="opacity:1;fill:none;fill-opacity:1;stroke:#c6e5ff;stroke-width:1.16662538;stroke-linecap:butt;stroke-linejoin:round;stroke-miterlimit:4;stroke-dasharray:none;stroke-dashoffset:0;stroke-opacity:1"
       id="path1135-6-2"
       sodipodi:sides="5"
       sodipodi:cx="25.891369"
       sodipodi:cy="274.79385"
       sodipodi:r1="8.5802469"
       sodipodi:r2="4.7675109"
       sodipodi:arg1="0.93390305"
       sodipodi:arg2="1.5622216"
       inkscape:flatsided="false"
       inkscape:rounded="0"
       inkscape:randomized="0"
       d="m 30.994047,281.69192 -5.061799,-2.13073 -5.024515,2.21722 0.462263,-5.47249 -3.661362,-4.09344 5.347493,-1.25145 2.761669,-4.74711 2.84267,4.69905 5.368167,1.15957 -3.590626,4.15562 z"
       inkscape:transform-center-x="0.66062522"
       inkscape:transform-center-y="-0.34263622"
       transform="matrix(1.1846196,-0.21983807,0.2390079,1.1264367,-65.034787,-34.276706)" />
    <path
       sodipodi:type="star"
       style="opacity:1;fill:#000827;fill-opacity:1;stroke:#ffffff;stroke-width:0.52916664;stroke-linecap:butt;stroke-linejoin:round;stroke-miterlimit:4;stroke-dasharray:none;stroke-dashoffset:0;stroke-opacity:1"
       id="path1169"
       sodipodi:sides="4"
       sodipodi:cx="37.041664"
       sodipodi:cy="251.45384"
       sodipodi:r1="3.0238092"
       sodipodi:r2="1.1763684"
       sodipodi:arg1="1.5707963"
       sodipodi:arg2="2.5853948"
       inkscape:flatsided="false"
       inkscape:rounded="0"
       inkscape:randomized="0"
       d="m 37.041664,254.47765 -0.999053,-2.40273 -2.024756,-0.62108 2.402733,-0.99905 0.621076,-2.02476 0.999053,2.40274 2.024756,0.62107 -2.402732,0.99905 z" />
    <path
       sodipodi:type="star"
       style="opacity:1;fill:#000827;fill-opacity:1;stroke:#b988ff;stroke-width:0.52916664;stroke-linecap:butt;stroke-linejoin:round;stroke-miterlimit:4;stroke-dasharray:none;stroke-dashoffset:0;stroke-opacity:1"
       id="path1173"
       sodipodi:sides="5"
       sodipodi:cx="37.608633"
       sodipodi:cy="286.8891"
       sodipodi:r1="4.6108837"
       sodipodi:r2="2.8353565"
       sodipodi:arg1="0.77090642"
       sodipodi:arg2="1.4289812"
       inkscape:flatsided="false"
       inkscape:rounded="0"
       inkscape:randomized="0"
       d="m 40.915923,290.1019 -2.906542,-0.40591 -2.434293,1.33134 -0.512132,-2.88972 -2.018415,-1.90374 2.590027,-1.38004 1.186843,-2.50792 2.112857,2.03681 2.751925,0.35377 -1.28421,2.63885 z"
       inkscape:transform-center-x="0.24326483"
       inkscape:transform-center-y="-0.2024779" />
    <path
       style="opacity:1;fill:#ffffff;fill-opacity:1;stroke:none;stroke-width:0.36269355;stroke-linecap:butt;stroke-linejoin:round;stroke-miterlimit:4;stroke-dasharray:none;stroke-dashoffset:0;stroke-opacity:1"
       id="path1175"
       sodipodi:type="arc"
       sodipodi:cx="20.457962"
       sodipodi:cy="252.39877"
       sodipodi:rx="0.89769346"
       sodipodi:ry="0.8504464"
       sodipodi:start="2.0159426"
       sodipodi:end="2.0020323"
       sodipodi:open="true"
       d="m 20.071424,253.16634 a 0.89769346,0.8504464 0 0 1 -0.425012,-1.13109 0.89769346,0.8504464 0 0 1 1.192443,-0.40657 0.89769346,0.8504464 0 0 1 0.433307,1.12826 0.89769346,0.8504464 0 0 1 -1.18943,0.41442" />
    <path
       style="opacity:1;fill:#ffffff;fill-opacity:1;stroke:none;stroke-width:0.72565216;stroke-linecap:butt;stroke-linejoin:round;stroke-miterlimit:4;stroke-dasharray:none;stroke-dashoffset:0;stroke-opacity:1"
       id="path1175-9"
       sodipodi:type="arc"
       sodipodi:cx="6.9925599"
       sodipodi:cy="270.77786"
       sodipodi:rx="1.7481399"
       sodipodi:ry="1.7481399"
       sodipodi:start="2.0159426"
       sodipodi:end="2.0020323"
       sodipodi:open="true"
       d="m 6.2398285,272.35564 a 1.7481399,1.7481399 0 0 1 -0.8276563,-2.32502 1.7481399,1.7481399 0 0 1 2.3221273,-0.83573 1.7481399,1.7481399 0 0 1 0.843807,2.3192 1.7481399,1.7481399 0 0 1 -2.3162585,0.85187" />
    <path
       style="opacity:1;fill:#ffffff;fill-opacity:1;stroke:none;stroke-width:0.25495887;stroke-linecap:butt;stroke-linejoin:round;stroke-miterlimit:4;stroke-dasharray:none;stroke-dashoffset:0;stroke-opacity:1"
       id="path1175-8"
       sodipodi:type="arc"
       sodipodi:cx="4.5357161"
       sodipodi:cy="257.83218"
       sodipodi:rx="0.61421132"
       sodipodi:ry="0.61421126"
       sodipodi:start="2.0159426"
       sodipodi:end="2.0020323"
       sodipodi:open="true"
       d="m 4.2712429,258.38654 a 0.61421132,0.61421126 0 0 1 -0.2907982,-0.8169 0.61421132,0.61421126 0 0 1 0.8158826,-0.29364 0.61421132,0.61421126 0 0 1 0.2964727,0.81486 0.61421132,0.61421126 0 0 1 -0.8138206,0.2993" />
    <path
       style="opacity:1;fill:#ffffff;fill-opacity:1;stroke:none;stroke-width:0.25495887;stroke-linecap:butt;stroke-linejoin:round;stroke-miterlimit:4;stroke-dasharray:none;stroke-dashoffset:0;stroke-opacity:1"
       id="path1175-8-7"
       sodipodi:type="arc"
       sodipodi:cx="20.788689"
       sodipodi:cy="275.17184"
       sodipodi:rx="0.61421132"
       sodipodi:ry="0.61421126"
       sodipodi:start="2.0159426"
       sodipodi:end="2.0020323"
       sodipodi:open="true"
       d="m 20.524215,275.7262 a 0.61421132,0.61421126 0 0 1 -0.290798,-0.8169 0.61421132,0.61421126 0 0 1 0.815883,-0.29364 0.61421132,0.61421126 0 0 1 0.296473,0.81486 0.61421132,0.61421126 0 0 1 -0.813821,0.2993" />
    <path
       style="opacity:1;fill:#ffffff;fill-opacity:1;stroke:none;stroke-width:0.25495887;stroke-linecap:butt;stroke-linejoin:round;stroke-miterlimit:4;stroke-dasharray:none;stroke-dashoffset:0;stroke-opacity:1"
       id="path1175-8-5"
       sodipodi:type="arc"
       sodipodi:cx="20.505209"
       sodipodi:cy="-289.34595"
       sodipodi:rx="0.61421132"
       sodipodi:ry="0.61421126"
       sodipodi:start="2.0159426"
       sodipodi:end="2.0020323"
       sodipodi:open="true"
       d="m 20.240736,-288.79159 a 0.61421132,0.61421126 0 0 1 -0.290798,-0.8169 0.61421132,0.61421126 0 0 1 0.815882,-0.29364 0.61421132,0.61421126 0 0 1 0.296473,0.81486 0.61421132,0.61421126 0 0 1 -0.813821,0.2993"
       transform="scale(1,-1)" />
    <path
       style="opacity:1;fill:#ffffff;fill-opacity:1;stroke:none;stroke-width:0.25495887;stroke-linecap:butt;stroke-linejoin:round;stroke-miterlimit:4;stroke-dasharray:none;stroke-dashoffset:0;stroke-opacity:1"
       id="path1175-8-5-1"
       sodipodi:type="arc"
       sodipodi:cx="42.238838"
       sodipodi:cy="277.53418"
       sodipodi:rx="0.61421132"
       sodipodi:ry="0.61421126"
       sodipodi:start="2.0159426"
       sodipodi:end="2.0020323"
       sodipodi:open="true"
       d="m 41.974365,278.08853 a 0.61421132,0.61421126 0 0 1 -0.290798,-0.81689 0.61421132,0.61421126 0 0 1 0.815882,-0.29364 0.61421132,0.61421126 0 0 1 0.296473,0.81486 0.61421132,0.61421126 0 0 1 -0.81382,0.2993" />
    <path
       style="opacity:1;fill:#ffffff;fill-opacity:1;stroke:none;stroke-width:0.25495887;stroke-linecap:butt;stroke-linejoin:round;stroke-miterlimit:4;stroke-dasharray:none;stroke-dashoffset:0;stroke-opacity:1"
       id="path1175-8-5-2"
       sodipodi:type="arc"
       sodipodi:cx="45.640625"
       sodipodi:cy="260.0528"
       sodipodi:rx="0.61421132"
       sodipodi:ry="0.61421126"
       sodipodi:start="2.0159426"
       sodipodi:end="2.0020323"
       sodipodi:open="true"
       d="m 45.376152,260.60715 a 0.61421132,0.61421126 0 0 1 -0.290798,-0.8169 0.61421132,0.61421126 0 0 1 0.815882,-0.29364 0.61421132,0.61421126 0 0 1 0.296473,0.81486 0.61421132,0.61421126 0 0 1 -0.813821,0.29931" />
    <path
       style="opacity:1;fill:#ffffff;fill-opacity:1;stroke:none;stroke-width:0.25495887;stroke-linecap:butt;stroke-linejoin:round;stroke-miterlimit:4;stroke-dasharray:none;stroke-dashoffset:0;stroke-opacity:1"
       id="path1175-8-5-7"
       sodipodi:type="arc"
       sodipodi:cx="47.908482"
       sodipodi:cy="291.89728"
       sodipodi:rx="0.61421132"
       sodipodi:ry="0.61421126"
       sodipodi:start="2.0159426"
       sodipodi:end="2.0020323"
       sodipodi:open="true"
       d="m 47.644008,292.45163 a 0.61421132,0.61421126 0 0 1 -0.290798,-0.8169 0.61421132,0.61421126 0 0 1 0.815883,-0.29363 0.61421132,0.61421126 0 0 1 0.296473,0.81485 0.61421132,0.61421126 0 0 1 -0.813821,0.29931" />
    <path
       style="opacity:1;fill:#ffffff;fill-opacity:1;stroke:none;stroke-width:0.25495887;stroke-linecap:butt;stroke-linejoin:round;stroke-miterlimit:4;stroke-dasharray:none;stroke-dashoffset:0;stroke-opacity:1"
       id="path1175-8-5-4"
       sodipodi:type="arc"
       sodipodi:cx="5.8586307"
       sodipodi:cy="292.18076"
       sodipodi:rx="0.61421132"
       sodipodi:ry="0.61421126"
       sodipodi:start="2.0159426"
       sodipodi:end="2.0020323"
       sodipodi:open="true"
       d="m 5.5941575,292.73511 a 0.61421132,0.61421126 0 0 1 -0.2907982,-0.8169 0.61421132,0.61421126 0 0 1 0.8158826,-0.29364 0.61421132,0.61421126 0 0 1 0.2964727,0.81486 0.61421132,0.61421126 0 0 1 -0.8138206,0.29931" />
  </g>
</svg>
