<?xml version="1.0" encoding="UTF-8" standalone="no"?>
<!-- Created with Inkscape (http://www.inkscape.org/) -->

<svg
   xmlns:dc="http://purl.org/dc/elements/1.1/"
   xmlns:cc="http://creativecommons.org/ns#"
   xmlns:rdf="http://www.w3.org/1999/02/22-rdf-syntax-ns#"
   xmlns:svg="http://www.w3.org/2000/svg"
   xmlns="http://www.w3.org/2000/svg"
   xmlns:sodipodi="http://sodipodi.sourceforge.net/DTD/sodipodi-0.dtd"
   xmlns:inkscape="http://www.inkscape.org/namespaces/inkscape"
   width="1080"
   height="1080"
   viewBox="0 0 285.74999 285.75001"
   version="1.1"
   id="svg8"
   inkscape:version="0.92.5 (2060ec1f9f, 2020-04-08)"
   sodipodi:docname="luk2.svg"
   inkscape:export-filename="/home/teclucas98/Ãrea de Trabalho/luk2.png"
   inkscape:export-xdpi="96"
   inkscape:export-ydpi="96">
  <defs
     id="defs2" />
  <sodipodi:namedview
     id="base"
     pagecolor="#ffffff"
     bordercolor="#666666"
     borderopacity="1.0"
     inkscape:pageopacity="0.0"
     inkscape:pageshadow="2"
     inkscape:zoom="0.98994949"
     inkscape:cx="618.48234"
     inkscape:cy="521.00928"
     inkscape:document-units="mm"
     inkscape:current-layer="layer2"
     showgrid="false"
     units="px"
     inkscape:window-width="1600"
     inkscape:window-height="836"
     inkscape:window-x="0"
     inkscape:window-y="0"
     inkscape:window-maximized="1" />
  <metadata
     id="metadata5">
    <rdf:RDF>
      <cc:Work
         rdf:about="">
        <dc:format>image/svg+xml</dc:format>
        <dc:type
           rdf:resource="http://purl.org/dc/dcmitype/StillImage" />
        <dc:title />
      </cc:Work>
    </rdf:RDF>
  </metadata>
  <g
     inkscape:label="Camada 1"
     inkscape:groupmode="layer"
     id="layer1"
     transform="translate(0,-11.249983)">
    <rect
       style="opacity:1;fill:#0c0f37;fill-opacity:1;fill-rule:nonzero;stroke:#000000;stroke-width:4;stroke-linecap:butt;stroke-linejoin:miter;stroke-miterlimit:4;stroke-dasharray:none;stroke-dashoffset:0;stroke-opacity:1;paint-order:stroke fill markers"
       id="rect815"
       width="286.51294"
       height="287.04745"
       x="-0.53453904"
       y="11.556128" />
  </g>
  <g
     inkscape:groupmode="layer"
     id="layer2"
     inkscape:label="Camada 2">
    <path
       style="fill:#c83737;stroke:#000000;stroke-width:2;stroke-linecap:butt;stroke-linejoin:miter;stroke-opacity:1;stroke-miterlimit:4;stroke-dasharray:none;fill-opacity:1"
       d="m 117.06405,187.92935 c 0,0 -34.745038,78.57724 -27.261489,102.09695 l 129.892989,-0.53453 c 0,0 -7.48355,-94.07887 -24.05426,-109.04596 z"
       id="path820"
       inkscape:connector-curvature="0" />
    <path
       style="fill:#cccccc;fill-opacity:1;stroke:#000000;stroke-width:2;stroke-linecap:butt;stroke-linejoin:miter;stroke-miterlimit:4;stroke-dasharray:none;stroke-opacity:1"
       d="m 99.4404,198.82037 c 0,0 -32.890288,79.98062 -28.881245,82.11877 4.009044,2.13815 26.192414,6.1472 29.666915,1.06908 3.47451,-5.07812 10.69078,-80.44812 10.69078,-80.44812 0,0 -9.62882,-0.78061 -11.47645,-2.73973 z"
       id="path871"
       inkscape:connector-curvature="0"
       sodipodi:nodetypes="csscc" />
    <path
       style="fill:#cccccc;stroke:#000000;stroke-width:2;stroke-linecap:butt;stroke-linejoin:miter;stroke-opacity:1;stroke-miterlimit:4;stroke-dasharray:none;fill-opacity:1"
       d="m 136.04019,212.25088 c 0,0 1.60361,75.90455 -2.93997,77.24088 -4.54358,1.33636 -51.315745,0.53454 -51.583014,-1.60361 -0.267272,-2.13815 17.372518,-83.92263 26.192414,-88.46621 8.81989,-4.54358 16.30344,17.10525 28.33057,12.82894 z"
       id="path867"
       inkscape:connector-curvature="0" />
    <path
       style="fill:#cccccc;stroke:#000000;stroke-width:2;stroke-linecap:butt;stroke-linejoin:miter;stroke-opacity:1;stroke-miterlimit:4;stroke-dasharray:none;fill-opacity:1"
       d="m 161.16352,205.83641 c 0,0 23.25245,83.92263 19.24341,84.99171 -4.00904,1.06907 51.58302,1.87089 50.78121,-3.20723 -0.80181,-5.07812 -22.18337,-94.34615 -28.86511,-100.76062 -6.68174,-6.41446 -41.15951,18.97614 -41.15951,18.97614 z"
       id="path865"
       inkscape:connector-curvature="0" />
    <path
       style="fill:#cccccc;fill-opacity:1;stroke:#000000;stroke-width:2;stroke-linecap:butt;stroke-linejoin:miter;stroke-miterlimit:4;stroke-dasharray:none;stroke-opacity:1"
       d="m 181.476,217.86354 c 0,0 20.57976,65.7483 18.70887,68.15372 -1.87089,2.40543 38.75408,-3.74177 38.75408,-10.42351 0,-6.68174 -29.13237,-89.80255 -33.67595,-89.80255"
       id="path869"
       inkscape:connector-curvature="0"
       sodipodi:nodetypes="ccsc" />
    <path
       style="opacity:1;fill:#ffccaa;fill-opacity:1;fill-rule:nonzero;stroke:#000000;stroke-width:4;stroke-linecap:butt;stroke-linejoin:miter;stroke-miterlimit:4;stroke-dasharray:none;stroke-dashoffset:0;stroke-opacity:1;paint-order:stroke fill markers"
       id="path818"
       sodipodi:type="arc"
       sodipodi:cx="147.80003"
       sodipodi:cy="137.94995"
       sodipodi:rx="76.70636"
       sodipodi:ry="77.775429"
       sodipodi:start="2.395988"
       sodipodi:end="2.3611338"
       sodipodi:open="true"
       d="M 91.445572,190.71406 A 76.70636,77.775429 0 0 1 95.272134,81.271994 76.70636,77.775429 0 0 1 203.2391,84.198124 76.70636,77.775429 0 0 1 201.29406,193.69118 76.70636,77.775429 0 0 1 93.293203,192.67317" />
    <path
       style="fill:none;stroke:#000000;stroke-width:2;stroke-linecap:butt;stroke-linejoin:miter;stroke-miterlimit:4;stroke-dasharray:none;stroke-opacity:1"
       d="m 136.04018,195.68017 c 0,0 24.5888,2.13815 27.26149,-9.08717"
       id="path822"
       inkscape:connector-curvature="0" />
    <path
       style="opacity:1;fill:#000000;fill-opacity:1;fill-rule:nonzero;stroke:#000000;stroke-width:2;stroke-linecap:butt;stroke-linejoin:miter;stroke-miterlimit:4;stroke-dasharray:none;stroke-dashoffset:0;stroke-opacity:1;paint-order:stroke fill markers"
       id="path824"
       sodipodi:type="arc"
       sodipodi:cx="120.53854"
       sodipodi:cy="148.90799"
       sodipodi:rx="11.759859"
       sodipodi:ry="14.699824"
       sodipodi:start="2.395988"
       sodipodi:end="2.3611338"
       sodipodi:open="true"
       d="m 111.89884,158.88059 a 11.759859,14.699824 0 0 1 0.58665,-20.68493 11.759859,14.699824 0 0 1 16.55242,0.55305 11.759859,14.699824 0 0 1 -0.29819,20.69456 11.759859,14.699824 0 0 1 -16.55762,-0.1924" />
    <path
       style="opacity:1;fill:#ffffff;fill-opacity:1;fill-rule:nonzero;stroke:none;stroke-width:2;stroke-linecap:butt;stroke-linejoin:miter;stroke-miterlimit:4;stroke-dasharray:none;stroke-dashoffset:0;stroke-opacity:1;paint-order:stroke fill markers"
       id="path826"
       sodipodi:type="arc"
       sodipodi:cx="123.87944"
       sodipodi:cy="149.97708"
       sodipodi:rx="4.4099469"
       sodipodi:ry="6.6817379"
       sodipodi:start="2.395988"
       sodipodi:end="2.3611338"
       sodipodi:open="true"
       d="m 120.63955,154.51008 a 4.4099469,6.6817379 0 0 1 0.21999,-9.40224 4.4099469,6.6817379 0 0 1 6.20716,0.25139 4.4099469,6.6817379 0 0 1 -0.11182,9.40662 4.4099469,6.6817379 0 0 1 -6.20911,-0.0875" />
    <path
       style="opacity:1;fill:#000000;fill-opacity:1;fill-rule:nonzero;stroke:#000000;stroke-width:2;stroke-linecap:butt;stroke-linejoin:miter;stroke-miterlimit:4;stroke-dasharray:none;stroke-dashoffset:0;stroke-opacity:1;paint-order:stroke fill markers"
       id="path824-3"
       sodipodi:type="arc"
       sodipodi:cx="163.56891"
       sodipodi:cy="147.30437"
       sodipodi:rx="11.759859"
       sodipodi:ry="14.699824"
       sodipodi:start="2.395988"
       sodipodi:end="2.3611338"
       sodipodi:open="true"
       d="m 154.9292,157.27697 a 11.759859,14.699824 0 0 1 0.58665,-20.68493 11.759859,14.699824 0 0 1 16.55243,0.55305 11.759859,14.699824 0 0 1 -0.2982,20.69456 11.759859,14.699824 0 0 1 -16.55762,-0.1924" />
    <path
       style="opacity:1;fill:#ffffff;fill-opacity:1;fill-rule:nonzero;stroke:none;stroke-width:2;stroke-linecap:butt;stroke-linejoin:miter;stroke-miterlimit:4;stroke-dasharray:none;stroke-dashoffset:0;stroke-opacity:1;paint-order:stroke fill markers"
       id="path826-6"
       sodipodi:type="arc"
       sodipodi:cx="166.90979"
       sodipodi:cy="148.37346"
       sodipodi:rx="4.4099469"
       sodipodi:ry="6.6817379"
       sodipodi:start="2.395988"
       sodipodi:end="2.3611338"
       sodipodi:open="true"
       d="m 163.6699,152.90646 a 4.4099469,6.6817379 0 0 1 0.21999,-9.40224 4.4099469,6.6817379 0 0 1 6.20716,0.25138 4.4099469,6.6817379 0 0 1 -0.11182,9.40662 4.4099469,6.6817379 0 0 1 -6.20911,-0.0874" />
    <path
       style="fill:#000000;stroke:#000000;stroke-width:0.26458332px;stroke-linecap:butt;stroke-linejoin:miter;stroke-opacity:1"
       d="m 67.35192,125.92282 c 0,0 -2.939966,18.97614 1.870887,21.11429 4.810853,2.13816 15.501633,-18.97613 16.30344,-23.78698 0.801809,-4.81085 22.717913,-8.55263 22.717913,-8.55263 0,0 -0.53454,9.88897 -2.6727,10.42351 -2.13815,0.53454 25.12334,-10.95805 26.99422,-16.03617 1.87089,-5.07812 4.27632,18.70887 1.33635,19.51068 -2.93996,0.8018 18.17433,-4.81085 18.97614,-13.89802 0.80181,-9.08716 13.36347,8.01809 13.36347,8.01809 0,0 10.95806,-2.13816 12.2944,-7.21628 1.33635,-5.07812 20.31249,27.79603 15.7689,35.27958 -4.54358,7.48354 8.55263,3.20723 9.08717,-0.26727 0.53454,-3.47451 18.97613,-2.6727 22.98518,3.20723 4.00904,5.87993 15.7689,-42.49585 3.20723,-67.619188 C 217.02285,60.976327 140.85104,43.871078 124.28033,50.820084 107.70962,57.769093 62.006529,88.772356 67.35192,125.92282 Z"
       id="path846"
       inkscape:connector-curvature="0" />
    <path
       style="opacity:1;fill:#cccccc;fill-opacity:0.62801933;fill-rule:nonzero;stroke:#000000;stroke-width:2;stroke-linecap:butt;stroke-linejoin:miter;stroke-miterlimit:4;stroke-dasharray:none;stroke-dashoffset:0;stroke-opacity:1;paint-order:stroke fill markers"
       id="path848"
       sodipodi:type="arc"
       sodipodi:cx="120.27129"
       sodipodi:cy="149.04163"
       sodipodi:rx="21.916101"
       sodipodi:ry="17.506155"
       sodipodi:start="2.395988"
       sodipodi:end="2.3611338"
       sodipodi:open="true"
       d="m 104.17002,160.91808 a 21.916101,17.506155 0 0 1 1.0933,-24.63386 21.916101,17.506155 0 0 1 30.84771,0.65863 21.916101,17.506155 0 0 1 -0.55573,24.64534 21.916101,17.506155 0 0 1 -30.85739,-0.22914" />
    <path
       style="opacity:1;fill:#cccccc;fill-opacity:0.62801933;fill-rule:nonzero;stroke:#000000;stroke-width:2;stroke-linecap:butt;stroke-linejoin:miter;stroke-miterlimit:4;stroke-dasharray:none;stroke-dashoffset:0;stroke-opacity:1;paint-order:stroke fill markers"
       id="path848-7"
       sodipodi:type="arc"
       sodipodi:cx="164.63802"
       sodipodi:cy="147.30435"
       sodipodi:rx="21.916101"
       sodipodi:ry="17.506155"
       sodipodi:start="2.395988"
       sodipodi:end="2.3611338"
       sodipodi:open="true"
       d="m 148.53674,159.18081 a 21.916101,17.506155 0 0 1 1.09331,-24.63387 21.916101,17.506155 0 0 1 30.8477,0.65863 21.916101,17.506155 0 0 1 -0.55573,24.64535 21.916101,17.506155 0 0 1 -30.85738,-0.22914" />
    <path
       style="fill:#502d16;stroke:#000000;stroke-width:2;stroke-linecap:butt;stroke-linejoin:miter;stroke-opacity:1;stroke-miterlimit:4;stroke-dasharray:none;fill-opacity:1"
       d="m 65.481032,86.366931 c 0,0 -13.363474,30.735999 -2.138156,33.141419 11.225321,2.40543 31.270535,-17.63979 32.072345,-20.312482 0.801809,-2.672694 94.078869,-8.018084 110.382309,10.958052 16.30345,18.97614 20.31249,41.69404 26.45969,41.15951 6.1472,-0.53454 29.13237,-39.02135 22.18337,-52.6521 C 247.49158,85.030584 219.96282,52.156433 212.212,53.225511 204.46119,54.29459 131.76387,29.973061 101.29515,49.483737 70.826423,68.994413 65.481032,86.366931 65.481032,86.366931 Z"
       id="path873"
       inkscape:connector-curvature="0" />
    <path
       style="opacity:1;fill:#502d16;fill-opacity:1;fill-rule:nonzero;stroke:#000000;stroke-width:2;stroke-linecap:butt;stroke-linejoin:miter;stroke-miterlimit:4;stroke-dasharray:none;stroke-dashoffset:0;stroke-opacity:1;paint-order:stroke fill markers"
       id="path875"
       sodipodi:type="arc"
       sodipodi:cx="180.94147"
       sodipodi:cy="47.078312"
       sodipodi:rx="13.898015"
       sodipodi:ry="13.630746"
       sodipodi:start="2.395988"
       sodipodi:end="2.3611338"
       sodipodi:open="true"
       d="m 170.7309,56.32563 a 13.898015,13.630746 0 0 1 0.69332,-19.180569 13.898015,13.630746 0 0 1 19.56195,0.512827 13.898015,13.630746 0 0 1 -0.35241,19.189506 13.898015,13.630746 0 0 1 -19.56809,-0.178414" />
    <path
       sodipodi:type="star"
       style="opacity:1;fill:none;fill-opacity:1;fill-rule:nonzero;stroke:#af0000;stroke-width:2;stroke-linecap:butt;stroke-linejoin:miter;stroke-miterlimit:4;stroke-dasharray:none;stroke-dashoffset:0;stroke-opacity:1;paint-order:stroke fill markers"
       id="path877"
       sodipodi:sides="5"
       sodipodi:cx="32.60688"
       sodipodi:cy="99.195869"
       sodipodi:r1="12.320516"
       sodipodi:r2="6.1602583"
       sodipodi:arg1="0.42483216"
       sodipodi:arg2="1.0531507"
       inkscape:flatsided="false"
       inkscape:rounded="0"
       inkscape:randomized="0"
       d="m 43.8322,104.27399 -8.177005,0.27506 -4.40908,6.89196 -2.788432,-7.6918 -7.917121,-2.06355 6.453658,-5.028851 -0.48397,-8.167303 6.777013,4.583794 7.618011,-2.984118 -2.265234,7.861792 z"
       inkscape:transform-center-x="0.42050005"
       inkscape:transform-center-y="0.76938663" />
    <path
       sodipodi:type="star"
       style="opacity:1;fill:none;fill-opacity:1;fill-rule:nonzero;stroke:#0068af;stroke-width:2;stroke-linecap:butt;stroke-linejoin:miter;stroke-miterlimit:4;stroke-dasharray:none;stroke-dashoffset:0;stroke-opacity:1;paint-order:stroke fill markers"
       id="path879"
       sodipodi:sides="5"
       sodipodi:cx="65.481033"
       sodipodi:cy="185.79118"
       sodipodi:r1="10.879544"
       sodipodi:r2="5.4397721"
       sodipodi:arg1="1.0851742"
       sodipodi:arg2="1.7134928"
       inkscape:flatsided="false"
       inkscape:rounded="0"
       inkscape:randomized="0"
       d="m 70.559155,195.41289 -5.851726,-4.23722 -6.807953,2.41836 2.221553,-6.87469 -4.403777,-5.72743 7.224721,-0.0116 4.086269,-5.95811 2.24357,6.86754 6.92923,2.04511 -5.838118,4.25595 z"
       inkscape:transform-center-x="-0.47811303"
       inkscape:transform-center-y="-0.5736338" />
    <path
       sodipodi:type="star"
       style="opacity:1;fill:none;fill-opacity:1;fill-rule:nonzero;stroke:#829aea;stroke-width:2;stroke-linecap:butt;stroke-linejoin:miter;stroke-miterlimit:4;stroke-dasharray:none;stroke-dashoffset:0;stroke-opacity:1;paint-order:stroke fill markers"
       id="path881"
       sodipodi:sides="5"
       sodipodi:cx="237.33533"
       sodipodi:cy="170.55684"
       sodipodi:r1="13.204845"
       sodipodi:r2="6.6024227"
       sodipodi:arg1="0.62730819"
       sodipodi:arg2="1.2556267"
       inkscape:flatsided="false"
       inkscape:rounded="0"
       inkscape:randomized="0"
       d="m 248.02611,178.30766 -8.64418,-1.47361 -6.11443,6.28546 -1.26972,-8.67647 -7.86729,-3.87286 7.85945,-3.88875 1.25218,-8.67902 6.12712,6.27309 8.64118,-1.49106 -4.07267,7.76573 z"
       inkscape:transform-center-x="1.257032"
       inkscape:transform-center-y="0.0041205587" />
    <path
       sodipodi:type="star"
       style="opacity:1;fill:none;fill-opacity:1;fill-rule:nonzero;stroke:#c5ea82;stroke-width:2;stroke-linecap:butt;stroke-linejoin:miter;stroke-miterlimit:4;stroke-dasharray:none;stroke-dashoffset:0;stroke-opacity:1;paint-order:stroke fill markers"
       id="path883"
       sodipodi:sides="5"
       sodipodi:cx="255.2424"
       sodipodi:cy="59.372707"
       sodipodi:r1="10.573204"
       sodipodi:r2="5.286602"
       sodipodi:arg1="1.2890245"
       sodipodi:arg2="1.917343"
       inkscape:flatsided="false"
       inkscape:rounded="0"
       inkscape:randomized="0"
       d="m 258.18237,69.528949 -4.73557,-5.183922 -6.95506,0.962204 3.46683,-6.105713 -3.06434,-6.317315 6.87819,1.410383 5.06119,-4.866519 0.78412,6.977378 6.19233,3.309641 -6.39357,2.901874 z"
       inkscape:transform-center-x="-0.90849589"
       inkscape:transform-center-y="0.10580009" />
  </g>
</svg>
